<?xml version="1.0" encoding="UTF-8"?>
<svg id="Layer_1" data-name="Layer 1" xmlns="http://www.w3.org/2000/svg" viewBox="0 0 300 299.76">
  <defs>
    <style>
      .cls-1 {
        fill: #a9725e;
      }

      .cls-2 {
        fill: #b4c78e;
      }

      .cls-3 {
        fill: #fff;
      }

      .cls-4 {
        fill: #ea8d42;
      }

      .cls-5 {
        fill: #e97d8d;
      }

      .cls-6 {
        fill: #468377;
      }

      .cls-7 {
        fill: #7d90c9;
      }

      .cls-8 {
        fill: #e55074;
      }

      .cls-9 {
        fill: #e53e6d;
      }

      .cls-10 {
        fill: #e66884;
      }

      .cls-11 {
        fill: #e19c81;
      }

      .cls-12 {
        fill: #3b479d;
      }

      .cls-13 {
        fill: #e8ae77;
      }

      .cls-14 {
        fill: #e32c5c;
      }

      .cls-15 {
        fill: #663256;
      }

      .cls-16 {
        fill: #4c8479;
      }

      .cls-17 {
        fill: #4f9283;
      }

      .cls-18 {
        fill: #eabd6d;
      }

      .cls-19 {
        fill: #468276;
      }

      .cls-20 {
        fill: #a8735e;
      }

      .cls-21 {
        fill: #f4cf6e;
      }

      .cls-22 {
        fill: #eea84c;
      }

      .cls-23 {
        fill: #edbf73;
      }

      .cls-24 {
        fill: #97bc8f;
      }

      .cls-25 {
        fill: #bdbdb8;
      }

      .cls-26 {
        fill: #4753a4;
      }

      .cls-27 {
        fill: #93a9d7;
      }

      .cls-28 {
        fill: #592e4b;
      }

      .cls-29 {
        fill: #663558;
      }

      .cls-30 {
        fill: #9a6250;
      }

      .cls-31 {
        fill: #d7e9e6;
      }

      .cls-32 {
        fill: #7b4728;
      }

      .cls-33 {
        fill: #eb9f4f;
      }

      .cls-34 {
        fill: #5b2f4c;
      }

      .cls-35 {
        fill: #abb99f;
      }

      .cls-36 {
        fill: #97634e;
      }

      .cls-37 {
        fill: #785143;
      }

      .cls-38 {
        fill: #c5c2a0;
      }
    </style>
  </defs>
  <rect class="cls-31" x="35" y="28.38" width="230" height="237.22" rx="68.69" ry="68.69"/>
  <g>
    <g>
      <path class="cls-5" d="m231.08,131.29c-.41.72,0,1.37.22,1.99,1.14,3.21,1.9,6.53,2.27,9.89.31,2.84.8,5.68.71,8.56-.08,2.43.06,4.87-.02,7.31-.17,5.63-1.45,11.01-3.84,16.11-1.93,4.13-4.52,7.79-7.45,11.28-3.56,4.24-7.8,7.64-12.32,10.75-3.68,1.02-6.99,2.98-10.7,4.01-13.34,3.69-26.89,5.78-40.73,4.93-12.59-.77-24.84-3.28-36.09-9.32-8.41-4.51-15.4-10.7-20.88-18.55-.68-.98-1.44-2.01-1.05-3.36,1.04-1.32,2.39-.73,3.62-.53,5.9.96,10.7-.91,14.05-5.82,3.43-5.03,3.37-10.28,0-15.38-3.16-4.77-7.84-6.52-13.31-5.93-3.7.4-6.58,2.57-8.81,5.54-.52.7-.95,1.46-1.58,2.07-.65.63-1.36,1.22-2.18.18-.62-6.56-1.64-13.15,1.31-19.47,1.03-.8,2.11-.39,3.22-.15,6.38,1.38,11.58-1.28,16.16-5.2,2.53-2.16,1.61-4.91-1.59-5.78-3.22-.88-6.15.2-9.06,1.4-1.5.62-2.85,1.75-4.64,1.36-1.44-.76-.94-1.94-.48-2.93,2.18-4.73,4.57-9.32,7.84-13.43,3.45-4.34,6.67-8.87,10.88-12.54.98-.85,1.95-2.58,3.65-.91.64,1.54-.04,3.08.01,4.63.12,3.46,1.15,4.2,4.39,2.86,1.93-.79,3.79-1.74,5.87-2.08,1.73-.28,3.45-.2,5.18.07,6.19.96,13.14-5.04,13.08-11.27-.02-1.67-1.09-2.71-2.35-3.53-1.6-1.05-3.39-1.75-5.24-2.24-.42-.11-.84-.23-1.22-.42-.88-.43-2.33-.02-2.57-1.32-.23-1.26.91-1.94,1.79-2.62q4.53-3.53,1.4-8.59c-.32-.3-.44-.67-.45-1.1.15-.11.21-.27.18-.45,0,0-.09-.01-.25-.01-.88-1.67-1.04-3.47-.99-5.31.02-.9.27-1.72.77-2.45.93-1.38,2.56-1.91,4.11-1.3,1.46.58,2.86,1.29,3.97,2.45,1.02,1.07,2.04,2.14,3.06,3.21.61.64.93.56,1.25-.34.29-.82.57-1.64.83-2.47,1.06-3.46,3.65-5.37,6.76-6.76.59-.26,1.42.05,1.74.79.73,1.66,1.75,3.22,2.06,5.05.14.85.29,1.69.85,2.58,1.22-.93,2.39-1.8,3.52-2.71,1.31-1.05,2.81-1.32,4.42-1.14.95.1,1.63.61,2.02,1.46.51,1.12.73,2.28.51,3.55-.54,3.21-1.74,6.18-2.99,9.15-.84,2.01-.84,1.97,1.25,2.61,8.12,2.5,15.74,6.05,22.73,10.91,1.14.79,2.17,1.74,3.24,2.61.4,1.29-.63,1.91-1.33,2.58-1.96,1.87-2.14,4.04-1.38,6.45.77,2.45,2.18,4.54,3.82,6.45,7.82,9.08,17.15,16.11,28.33,20.6.98.39,2.27.52,2.41,1.99Z"/>
      <path class="cls-10" d="m140.6,72.89c.28-.14.52-.08.66.19.83,1.63,1.66,3.25,2.45,4.9.41.86.33,1.01-.54,1.72-1.41,1.16-2.8,2.33-4.38,3.27-.22.13-.42.32-.58.51-.1.12-.16.33-.13.47.03.13.2.29.33.32.92.2,1.94-.15,2.76.53-1.52,1.96-3.8.81-5.66,1.4-1.33-.17-2.52.18-3.67.87-3.38,2.02-6.89,3.86-8.84,7.54-.71,1.37-1.14,3.05-3.23,2.87-.33-.29-.65-.19-.92.07-1,.97-1.97,1.97-2.97,2.94-5.41,5.23-9.97,11.14-13.75,17.63-1.4,2.4-2.53,4.96-3.78,7.45-.2.41-.29.82.09,1.19.14.44.12.94-.2,1.22-2.27,2.02-3.14,4.57-3.03,7.54-.17.3-.43.57-.51.89-.61,2.53-1.15,5.06-1.13,7.69.04,3.82.05,7.64.07,11.46,1.05.92.6,2.11.5,3.19-.53,5.74,1.27,10.43,6.02,13.87.7.51,1.44,1.04,1.29,2.09.81,2.16,2.43,3.79,3.73,5.63,1.66,2.35,3.69,4.39,5.79,6.34,1.97,1.82,3.99,3.61,6.23,5.1,2.75,1.83,5.48,3.67,8.47,5.11,3.93,1.89,8.04,3.27,12.2,4.55,3.58,1.1,7.25,1.78,10.92,2.41,2.12.37,4.26.87,6.45.75.35-.02.7-.02,1.04.04,5.18.97,10.42.6,15.6.36,5.43-.25,10.84-1.14,16.21-2.18,6.84-1.33,13.51-3.22,20.09-5.49.77-.27,1.59-.88,2.45-.15-4.05,2.83-8.45,4.99-12.96,6.97-.45,1.2-1.52,1.51-2.58,1.92-2.16.83-4.26,1.83-6.48,2.5-1.82.63-3.72,1.1-5.3,2.31-2.95,1.17-6.02,1.86-9.15,2.32-2.02.48-4.03.99-6.13.96-.69-.09-1.38-.3-2.07-.02-2.06.7-4.19.34-6.29.51-5.52-.8-11.09-.2-16.62-.52-2.12.05-4.16-.63-6.26-.71-1.54-.61-3.1-1.11-4.79-.71-5.64-.93-11.26-2-16.68-3.91-2.75-.43-5.3-1.5-7.89-2.45-1.11-.41-1.87-1.2-2.38-2.26-.69-.84-1.73-1.12-2.65-1.57-3.26-1.6-6.41-3.38-9.22-5.69,1.62-1.77,3.28-3.45,3.93-5.94.91-3.51-.06-6.3-2.64-8.66-1.23-1.12-2.68-1.92-4.13-2.7-2.68-1.43-4.68-3.5-6.19-6.14-2.76-4.82-3.69-5.22-9.13-4.48-.45.06-.86,0-1.22-.3-1.02-3.7-1.56-7.46-1.67-11.3-.23-8,1.19-15.73,3.56-23.32.26-.82.66-1.62.54-2.53.25-1.09,1.18-1.43,2.03-1.85,11.03-5.41,20.07-13.3,27.99-22.56.86-1,1.48-2.14,2.02-3.33,1.83-4.11,1.5-5.69-1.71-8.78-.63-.61-1.76-.96-1.47-2.21.82-.04,1.47-.47,2.11-.93,8.56-6.18,18-10.4,28.3-12.7,1.86-.41,3.75-.71,5.62-1.07.91-.17,1.14-.58.81-1.49-.44-1.22-.89-2.44-1.34-3.66Z"/>
      <path class="cls-27" d="m192.87,267.81c-2.66.36-5.31.75-7.98,1.06-4.39.5-8.78.97-13.17,1.37-2.07.19-4.15.2-6.23.27-.52.02-1.04-.04-1.4-.52-.1-.75.28-1.33.68-1.9,4.65-6.6,5.24-13.54,1.95-20.92-2.12-4.76-4.33-9.47-6.41-14.25-.42-.96-.86-1.91-.74-3,1.86-3.09,4.07-3.62,6.08-1.1,5.97,7.51,13.79,5.89,19.5-2.44.09-.22.18-.45.24-.68.07-.23.16-.45.28-.67.11-.21.25-.41.41-.6.07-.1.15-.18.23-.28.14-.19.31-.36.49-.53,1.08-1.11,2.35-2.01,3.57-2.95,1.11-1.22,2.27-2.38,3.5-3.48.73-.66,1.43-1.62,2.67-1.02,1.07-.03,1.83.44,2.32,1.38.24.46.52.91.76,1.37,6.84,13.2,12.09,27,15.46,41.49.22.94.45,1.87.37,2.83-.07.8-.52,1.38-1.27,1.41-2.72.11-5.29,1.03-7.95,1.41-3.18.45-6.32,1.22-9.56,1.25-1.31-.78-1.22-2.22-1.53-3.43-.95-3.62-2.6-6.86-5.09-10.41,1.1,4.11,2.24,7.56,3.03,11.09.25,1.09.6,2.2-.21,3.23Z"/>
      <path class="cls-27" d="m134.94,269.55c-.54.6-1.25.51-1.94.48-2.6-.11-5.21-.11-7.8-.41-2.76-.32-5.54-.46-8.31-.67-5.2-.39-10.36-1.03-15.53-1.73-.68-.09-1.35-.32-2.02-.49-1.08-.97-.88-2.16-.62-3.39,2.29-11.03,5.57-21.73,10.33-31.96,1.63-3.51,2.61-3.79,5.65-1.47,1.66,1.27,3.28,2.59,5.07,3.67,5.64,3.44,11.37,2.39,15.5-2.79.33-.41.67-.8,1.01-1.2,2.3-2.64,4.38-2.48,6.48.5.31,1.81-.81,3.15-1.59,4.58-2.48,4.58-5.17,9.05-7.21,13.88-2.73,6.46-3.18,12.77.5,19.02.36.61.58,1.27.48,1.99Z"/>
      <path class="cls-10" d="m65.33,129.33c-.76-.74-1.26-1.64-1.65-2.63-.8-2.04-1.3-4.17-1.42-6.35-.43-7.64.53-15.11,3.03-22.36.8-2.32,1.86-4.52,3.34-6.48,2.68-3.55,6.29-5.38,10.73-5.6,3.08-.16,6.07.34,9.05,1.02,3.56.81,7.14,1.56,10.5,3.05,1.23,5.62.31,10.92-2.52,15.86-5.29,9.22-13.04,15.76-22.57,20.26-2.74,1.29-5.37,2.91-8.49,3.23Z"/>
      <path class="cls-10" d="m208.09,89.12c4.13-1.35,8.34-2.38,12.59-3.26,2.15-.45,4.31-.55,6.48-.49,3.6.1,6.53,1.62,8.78,4.4,2.45,3.03,3.95,6.54,4.96,10.26,1.27,4.7,2.22,9.47,2.3,14.37,0,.61.11,1.21.18,1.81.04.34.17.69.15,1.03-.26,3.46-.3,6.95-1.66,10.23-.2.47-.55.87-.83,1.3-10.92-2.96-20.54-7.96-27.44-17.29-4.41-5.95-6-12.8-6.46-20.02-.06-.92.29-1.7.95-2.33Z"/>
      <path class="cls-22" d="m160.1,229.68c.77,1.75,1.53,3.5,2.31,5.24,1.71,3.8,3.45,7.59,5.12,11.41.66,1.51,1.24,3.06,1.71,4.64,1.07,3.59,1.02,7.19-.11,10.78-.61,1.91-1.36,3.76-2.37,5.49-.66,1.13-1.36,2.24-2.67,2.74-2.4.73-4.77,1.1-7.36.69-2.87-.46-5.85-.39-8.76.06-3.01.47-6.02.24-9.04.16-.32,0-.62-.26-.94-.4.95-1.44,2.45-1.05,3.79-1.11,2.71-.13,2.8-.24,1.75-2.65-.84-1.91-1.63-3.83-2.26-5.82-1.67-5.32-1.48-10.59.31-15.84,1.48-4.35,3.18-8.62,4.8-12.92.7-1.87,1.86-2.85,3.95-2.56,3.07.42,5.65-1.45,8.54-1.92,1.05.27,1.39.99,1.24,2.01Z"/>
      <path class="cls-7" d="m142.24,230.24c-.12-.12-.23-.27-.37-.36q-3.01-1.88-5.11.85c-1,1.31-2.04,2.52-3.39,3.54-3.32,2.52-6.88,3.01-10.78,1.85-2.73-.81-4.93-2.51-7.14-4.2-1.1-.84-2.14-1.76-3.22-2.63-.5-.4-.98-.27-1.24.33-3.64,8.26-7.07,16.61-9.2,25.42-.73,3.03-1.42,6.08-2.18,9.11-.21.86-.28,1.71-.27,2.58-2.79-.21-5.45-1.04-8.13-1.72-.93-.23-1.85-.48-2.76-.77-.75-.24-1.12-.84-.98-1.62.17-.94.43-1.86.67-2.78,2.68-10.28,6.26-20.24,10.36-30.03,1.54-3.69,3.04-7.39,4.87-10.95.68-1.31,1.29-2.66,2.31-3.76,1.3-.41,1.85.66,2.57,1.34,5.03,4.68,10.39,8.92,16.29,12.46,3.24,1.95,4.58,1.69,7.18-1.18,1.91-2.18,2.96-5.11,5.68-6.59.89-.3,1.78-.64,2.75-.6,1.99.23,3.41,1.56,4.97,2.59.94.63,1.41,1.66.87,2.71-.89,1.75-1.21,4.05-3.76,4.42Z"/>
      <path class="cls-4" d="m142.24,230.24c1.04-1.67,2.1-3.33,3.13-5.01.35-.57.25-.95-.38-1.23-1.75-.75-3.24-1.92-4.85-2.91-1.08-.19-1.95-.79-2.78-1.46-1.1-1.24-2.01-2.63-2.72-4.12-.42-.89-.61-1.82,0-2.74.57-.44,1.15-.8,1.89-.39,2.12-.16,4.14.59,6.24.61,5.7,1.22,11.45.78,17.2.53,2.1-.12,4.23.08,6.31-.47,1.79,1.1,1.49,2.44.45,3.86-6.71,3-13.82,2.96-21.11,2.76,2.17,1.52,4.47,2.35,7.05,2.75,2.03.31,4.53-.09,5.67,2.43.33,1.06,1.43,1.94.73,3.23-1.35.79-2.61,1.72-4.17,2.12-1.88.48-3.76.75-5.67.34-.76-.16-1.12.18-1.37.84-1.15,3.1-2.3,6.19-3.47,9.28-.89,2.36-1.89,4.68-2.37,7.17-.33,1.7-.83,3.37-.84,5.13-.02,3.36.77,6.56,1.9,9.67.65,1.79,1.53,3.5,2.31,5.25.21.48.46.94.64,1.43.22.58-.07,1.03-.71,1.08-.61.05-1.22.05-1.82.06-1.83.02-3.66.02-5.48.03-1.15.11-2.11-.39-3.06-.94-1.13-.61-1.71-1.67-2.24-2.78-2.31-4.83-2.7-9.79-1.13-14.92.92-2.99,2.15-5.86,3.62-8.61,1.76-3.29,3.61-6.52,5.4-9.79.58-1.06,1.32-2.04,1.65-3.23Z"/>
      <path class="cls-8" d="m208.09,89.12c.26,4.87.7,9.69,2.44,14.32,1.49,3.97,3.69,7.47,6.57,10.56,2.56,2.75,5.39,5.19,8.6,7.16,2.83,1.74,5.76,3.26,8.9,4.35,1.65.57,3.3,1.12,4.96,1.65.83.26,1.38.71,1.49,1.61-1.67,3.01-4.38,3.54-7.47,3.08-.84-.13-1.66-.37-2.49-.56-6.05-2.06-11.68-4.96-16.92-8.6-2.78-1.94-5.48-4-7.88-6.41-.61-.61-1.31-1.14-1.98-1.7-.27-.22-.59-.39-.81-.66-2.35-2.9-5.15-5.44-6.94-8.78-1.01-1.87-1.68-3.8-1.55-5.98.08-1.28.44-2.4,1.34-3.3.92-.92,1.91-1.77,2.87-2.65,1.55-.77,3.09-1.54,4.5-2.58,1.27-.94,2.85-1.2,4.37-1.52Z"/>
      <path class="cls-8" d="m65.33,129.33c.13-.69.64-.95,1.23-1.2,2.07-.89,4.13-1.8,6.18-2.74,2.6-1.19,5.14-2.51,7.53-4.09,2.39-1.59,4.67-3.3,6.64-5.41,1.12-1.21,2.35-2.31,3.49-3.51,3.63-3.85,6.23-8.28,7.53-13.46.52-2.07.27-4.14.36-6.21.04-.94-.13-1.93.62-2.71,2.14.75,4.24,1.6,6.2,2.76,1.62.73,2.87,1.93,4,3.25,1.11,1.29,1.69,2.68,1.29,4.53-.61,2.78-1.72,5.2-3.48,7.45-2.7,3.44-5.83,6.46-9.03,9.37-4.1,3.73-8.45,7.21-13.23,10.07-2.67,1.6-5.36,3.23-8.41,4.07-1.27.28-2.52.72-3.8.8-2.82.18-5.3-.63-7.11-2.95Z"/>
      <path class="cls-36" d="m73.82,168.63c.31-.15.63-.29.93-.46,2.42-1.41,5.11-1.25,7.24.49.88.71,1.65,1.55,2.21,2.54.26.45.52.9.74,1.38,1.3,2.79,3.39,4.77,6.12,6.15,1.16.59,2.28,1.26,3.34,2.02,2.2,1.58,3.63,3.68,4.12,6.4.16.87.17,1.7,0,2.57-.34,1.72-.92,3.34-1.8,4.86-.79,1.37-1.84,2.29-3.52,2.27-1.44-.67-2.61-1.72-3.8-2.72-6.92-5.83-12.11-12.89-15.13-21.47-.23-.65-.4-1.33-.62-1.99-.23-.7-.09-1.37.17-2.03Z"/>
      <path class="cls-12" d="m132.41,228.15c-.18.6-.59,1.06-1.03,1.48-2.07,1.94-3.88,2.17-6.38.75-2.8-1.58-5.4-3.47-8.02-5.34-2.76-1.97-5.35-4.15-7.87-6.42-1.22-1.1-2.29-2.36-3.43-3.54-.46-.82-.99-1.61-1.35-2.47-.98-2.37-1.4-4.75.12-7.1.27-.42.42-.93.62-1.4,3.33,1.7,6.94,2.65,10.46,3.84.84.9,1.4,1.93,1.72,3.15,1.71,6.52,5.67,11.19,11.69,14.19,1.34.67,3.03,1.06,3.47,2.87Z"/>
      <path class="cls-26" d="m196.54,216.17c-1.31,1.22-2.61,2.45-3.93,3.65-.56.51-1.17.98-1.76,1.46-2.56.76-5.14,1.4-7.86,1.11-4.3-.47-7.49-2.46-9.14-6.58-.46-1.15-.72-2.34.23-3.41,2.5-.67,5.01-1.34,7.51-2,.5-.13,1.03-.16,1.45-.52,2.01-.79,4.14-1.17,6.16-1.91,2.25-.67,4.41-1.56,6.58-2.46.75-.31,1.47-1.07,2.4-.39.39.35.8.69.89,1.23.62,3.45.41,6.71-2.25,9.39-.12.12-.19.28-.29.43Z"/>
      <path class="cls-7" d="m192.87,267.81c-.86-3.18-1.72-6.36-2.58-9.53-.46-1.67-.95-3.33-1.39-5.01-.11-.41-.09-.86-.05-1.28.03-.3.37-.42.58-.26,1.12.82,2.22,1.74,2.87,2.97,1.58,2.98,3.3,5.91,4,9.29.23,1.12.25,2.23.37,3.35-1.22.52-2.5.56-3.8.48Z"/>
      <path class="cls-23" d="m198.18,205.12c-.69.08-1.29.38-1.89.71-2.17,1.21-4.52,1.92-6.94,2.44-.58.3-1.09.44-1.07-.51,3.24-.95,6.25-2.46,9.41-3.61.16.32.32.65.49.97Z"/>
      <path class="cls-10" d="m140.08,71.33c.12-.02.24-.03.35-.05-.09.17-.18.34-.28.51-.04-.15-.07-.31-.08-.46Z"/>
      <path class="cls-8" d="m153.19,149.71c.79-.03,1.57-.03,2.25.46.79.57,1.74.77,2.65,1.07,4.42,1.47,8.33,3.78,12.03,6.62,3.33,2.55,5.72,5.79,7.91,9.24,1.31,2.06,2.05,4.39,2.66,6.76.9,3.51,1.03,7.02.17,10.56-.74,3.04-2.24,5.61-4.65,7.63-1.62.04-2.79,1.37-4.37,1.56-7.62.9-14.11-1.12-18.9-7.38-2.12-2.76-2.05-2.81-4.52-.18-3.12,3.31-6.6,5.71-11.49,4.46-4.89-1.25-8.47-5.71-8.84-10.76-.31-4.2.49-8.13,2.41-11.85,4.72-9.16,12.22-14.91,22.01-17.82.25-.07.47-.21.69-.36Z"/>
      <path class="cls-9" d="m153.19,149.71c-.31.57-.84.8-1.4,1.09-4.18,2.11-8.3,4.28-12.01,7.24-5.1,4.05-8.29,9.24-10.24,15.34-.6,1.88-.27,3.8-.39,5.69-.09,1.52.28,2.94.91,4.29,1.75,3.76,4.72,5.97,8.81,6.49,1.65.21,3.28-.36,4.73-1.17,1.84-1.03,3.34-2.49,4.66-4.12.27-.34.49-.72.75-1.06.86-1.13,3.07-1.21,3.72.32.07.16.17.3.24.46,1.71,3.63,4.84,5.56,8.35,7.09,2.35,1.03,4.87,1.39,7.35,1.55,1.84.12,3.79-.32,5.6-1,.66-.25,1.33-.49,1.93.13-1.22,1.11-2.57,2.05-4.1,2.67-3.42,1.38-6.89,1.45-10.38.27-.9-.3-1.77-.67-2.65-1.03-.44-.18-.83-.18-1.17.19-1.71.49-2.47-.85-3.35-1.83-2.64-2.94-2.59-2.93-5.54-.17-1.01.95-1.8,2.41-3.6,2-.45-.46-.92-.31-1.43-.09-1.11.48-2.22.99-3.37,1.39-3.96,1.39-7.72.59-11.31-1.24-3.54-1.81-5.63-4.83-6.72-8.57-1.09-3.77-.94-7.53.16-11.3,1.91-6.53,5.52-11.99,10.57-16.44,5.08-4.48,11.12-7.03,17.79-8.12.68-.11,1.39-.04,2.08-.05Z"/>
      <path class="cls-20" d="m119.77,97.48c1.33-.71,1.56-2.25,2.48-3.27,3.21-2.6,6.2-5.47,9.91-7.42.9-.47,1.97-.66,2.67-1.48.6-.43,1.29-.42,1.97-.43,1.46-.03,2.91-.05,4.37-.08,1.91.32,3.68,1.03,5.38,1.94.78.42,1.46.94,2.06,1.59,1.13,1.23,1.6,2.6,1.21,4.31-.78,3.43-2.41,6.35-5.02,8.67-2.62,2.32-5.71,3.33-9.19,2.67-3.3-.63-6.39-.16-9.36,1.4-.92.48-1.89.91-2.88,1.21-2.26.68-3.98-.51-4.19-2.9-.14-1.56-.15-3.13.28-4.67.14-.5.21-1.02.31-1.53Z"/>
      <path class="cls-3" d="m101.47,174.71c-.36-.24-.7-.51-1.07-.71-5.77-3.07-8.82-10.28-7.01-17.18.11-.42.18-.84.27-1.26,1.09-1.77,2.06-3.62,3.57-5.1,3.2-3.14,6.94-4.79,11.51-4.4,7.93.68,13.77,7.15,13.59,15.13-.2,8.51-7.29,15.07-15.77,14.61-1.76-.1-3.38-.77-5.09-1.09Z"/>
      <path class="cls-3" d="m198.24,146.66c2.39-.28,4.42.08,6.42.78,4.56,1.6,7.34,4.82,8.55,9.43,1.17,4.47.27,8.64-2.2,12.46-2.15,3.32-5.41,5.03-9.17,5.95-7.51,1.84-15.65-3.62-17.02-11.21-.86-4.77.34-8.95,3.54-12.57.4-.46.82-.9,1.29-1.29,2.58-2.11,5.18-4.2,8.6-3.55Z"/>
      <path class="cls-37" d="m95.22,135.53c-.21-.38-.42-.75-.62-1.13-.68-1.27-.5-2.5.16-3.7.5-.92,1.13-1.73,1.94-2.4.59-.5,1.17-1.02,1.75-1.52,1.4-.67,2.78-1.41,4.22-2.01,2.41-1.01,4.89-1.76,7.55-1.72,1.14.02,2.25.2,3.32.57,2.48.85,3.51,3.52,2.27,5.87-.49.94-1.23,1.67-2.04,2.34-1.14.95-2.39,1.72-3.71,2.39-2.33,1.19-4.77,2.02-7.34,2.55-2.69.55-5.16.21-7.49-1.23Z"/>
      <path class="cls-37" d="m205.85,136.84c-5.3-.22-9.6-2.3-13.34-5.66-.38-.34-.72-.76-1.01-1.19-1.56-2.32-.84-4.68,1.73-5.73,1.83-.74,3.75-.8,5.66-.62,3.34.31,6.49,1.31,9.29,3.19,1.99,1.33,3.64,2.99,4.29,5.4.37,1.36-.11,2.68-1.26,3.41-.36.23-.78.38-1.19.51-.66.2-1.34.39-2.02.5-.77.12-1.56.14-2.15.19Z"/>
      <path class="cls-14" d="m145.42,194.14c1.38-1.31,2.77-2.62,4.14-3.95.56-.54,1.11-1.09,1.85-1.41.53-.23,1.01-.24,1.46.14.73.62,1.38,1.31,1.92,2.11.83,1.23,1.84,2.3,3.11,3.11.2.16.45.28.61.48,1.04,1.38,1.09,2.32-.14,3.4-1.97,1.74-4.13,3.1-6.96,2.96-2.82-.14-5.56-2.01-6.63-4.63-.4-.99-.11-1.64.65-2.22Z"/>
      <path class="cls-1" d="m154.19,102.56c-.06-1.11.35-2.02,1.09-2.84,1.73-1.93,3.8-3.02,6.45-2.76.6.06,1.2.22,1.76.43.91.34,1.9.76,1.89,1.9-.01,1.13-.32,2.26-1.42,2.93-.37.23-.76.43-1.16.58-1.96.73-3.92,1.44-5.88,2.16-.16.06-.33.12-.5.16-1.28.29-2.02-.22-2.17-1.52-.04-.34-.04-.69-.06-1.04Z"/>
      <path class="cls-26" d="m132.41,228.15c-2.32-1.17-4.68-2.24-6.89-3.64-4.45-2.82-7.33-6.79-8.9-11.76-.5-1.57-1.01-3.14-1.09-4.8,5.59,1.3,11.18,2.59,16.77,3.89,1,.08,2.08,0,2.58,1.19.03,1.17.64,2.11,1.22,3.06.63,1.02,1.28,2.02,1.92,3.04.21.29.33.62.43.96.04.37-.08.69-.29.98-.19.29-.42.55-.72.75-1.17,1.55-2.35,3.09-3.5,4.65-.45.61-.86,1.26-1.52,1.69Z"/>
      <path class="cls-12" d="m174.08,212.4c.02,1.06.41,2.03.77,3,1.36,3.64,4.21,5.39,7.87,5.86,1.69.22,3.45.24,5.15-.23,1-.28,2.04-.46,2.98.26-1.14,1.05-2.28,2.1-3.43,3.15-.31.12-.56.33-.79.55l.03-.02c-.18.18-.36.37-.56.54l.02-.02c-.68.77-1.22,1.69-2.1,2.27-.67.42-1.31.89-1.94,1.37-.17.16-.35.3-.53.44-.19.15-.39.27-.59.39-.42.25-.85.5-1.28.74-3.64,2.29-6.74,1.29-9.65-2.02-2.09-2.37-4.4-4.72-5.05-8.04-.14-1.33.09-2.62,1.19-3.43,1.3-.97.61-2.79,1.82-3.73,1.96-.78,4.03-.91,6.1-1.08Z"/>
      <path class="cls-30" d="m134.84,85.31c.02.17.11.42.04.48-.38.35-.78.68-1.21.96-3.33,2.16-6.56,4.46-9.59,7.04-.51.43-1.07.96-1.83.42,1.62-3.14,4.27-5.22,7.26-6.9,1.66-.93,3.33-1.92,5.33-2Z"/>
      <path class="cls-18" d="m167.98,213.48c-.03,1.52-.49,2.92-1.35,4.16-.66.97-1.02,2-.93,3.18-.66.84-1.47.81-2.34.4-1.04-1.22-.16-2.09.59-2.91.65-.7,1.48-1.21,2.29-1.72.75-1.17.71-2.35.02-3.54.63-.09,1.23-.07,1.71.42Z"/>
      <path class="cls-33" d="m159.96,213.53c-.5.42-1.1.47-1.72.47-3.83,0-7.66.01-11.49,0-1.4,0-2.74-.34-3.99-.99.52,0,1.06-.09,1.56,0,4.41.8,8.86.36,13.29.48.78.02,1.57.03,2.35.05Z"/>
      <path class="cls-11" d="m188.28,207.76c.27.35.67.43,1.07.51-2.02.87-4.13,1.37-6.31,1.6.6-.72,1.5-.8,2.3-1.1.97-.37,1.96-.68,2.94-1.01Z"/>
      <path class="cls-13" d="m134.88,213.03c-.86-.4-1.72-.79-2.58-1.19.22-.11.46-.34.65-.3,1.2.25,2.48.16,3.57.85-.55.21-1.09.43-1.64.64Z"/>
      <path class="cls-7" d="m163.09,220.84c.87,0,1.74-.01,2.61-.02,1.44,2.8,3.45,5.19,5.43,7.6,1.08,1.33,2.62,1.96,4.12,2.63.51.23,1.02.1,1.51-.12.95-.42,1.9-.83,2.85-1.25.41-.23.94-.19,1.29-.55h-.03c.37-.22.76-.41,1.09-.69.69-.14,1.08-.75,1.65-1.08,1.01-.09,1.28-1.64,2.51-1.28-2.27,4.66-5.91,7.69-11.01,8.65-2.07.39-4.12-.41-5.98-1.41-1.71-.93-3.01-2.34-4.23-3.83-.27-.33-.47-.73-.75-1.06-.47-.56-.94-.64-1.62-.25-.83.48-1.63,1-2.45,1.5-.35-.53-.69-1.06-1.04-1.59-.09-.43-.33-.76-.68-1.03-.49-.37-.75-.9-.94-1.46.52-2.92,2.64-4.71,5.65-4.76Z"/>
      <path class="cls-38" d="m186.13,226.09c-.94.43-1.54,1.41-2.61,1.64-.14-.14-.18-.28-.13-.41.05-.13.11-.19.16-.19.76-.7,1.5-1.45,2.58-1.65,0,.2,0,.4,0,.61Z"/>
      <path class="cls-2" d="m186.11,225.5c.04-.33.25-.49.56-.54-.07.3-.26.48-.56.54Z"/>
      <path class="cls-24" d="m186.64,224.98c.14-.36.41-.53.79-.55-.26.18-.52.37-.79.55Z"/>
      <path class="cls-21" d="m137.74,220.52c.09-.47.19-.93.28-1.4.83.52,1.48,1.24,2.12,1.97-.9.24-1.8.48-2.7.72.09-.41.19-.82.28-1.23l.02-.06Z"/>
      <path class="cls-22" d="m163.09,220.84c-1.33.9-2.6,1.93-4.02,2.66-.96.49-1.29,1.25-1.63,2.1-.06-1-.46-1.59-1.58-1.67-1.56-.11-3.11-.28-4.65-.56-3.16-.58-5.87-2.09-8.25-4.23-.19-.17-.33-.44-.13-.7.09-.12.29-.21.44-.21.87,0,1.75-.05,2.6.1,3.11.56,6.22.59,9.32,0,1.46-.28,2.94-.05,4.41-.41,2.19-.54,4.42-.89,6.64-1.32-.8,1.61-2.14,2.8-3.15,4.25Z"/>
      <path class="cls-15" d="m141.22,166.35c.99.18,1.53.73,1.54,1.77.04,5.18-2.57,8.89-6.65,11.71-1,.69-2.2,1.11-3.4.22.76-2.82,1.17-5.74,2.8-8.28,1.47-2.28,3.16-4.29,5.7-5.43Z"/>
      <path class="cls-28" d="m162.52,166.81c.85-.84,1.72-.84,2.83-.37,3.01,1.25,4.81,3.63,6.28,6.35.75,1.39,1.17,2.9,1.44,4.44.34,1.91.09,2.23-1.99,2.86-1.32.27-1.91-.64-2.29-1.6-1.31-3.34-3.14-6.3-5.7-8.83-.78-.77-1.09-1.75-.58-2.84Z"/>
      <path class="cls-29" d="m162.52,166.81c.15,1.12.94,1.82,1.7,2.53,2.59,2.41,4.33,5.35,5.47,8.67.28.82.51,1.67,1.39,2.08-1.23.84-2.36.26-3.38-.36-2.6-1.56-4.47-3.79-5.65-6.6-.55-1.31-.71-2.68-.61-4.08.06-.88.24-1.73,1.08-2.24Z"/>
      <path class="cls-34" d="m141.22,166.35c-.13.92-.72,1.49-1.41,2.06-3.08,2.57-4.99,5.82-5.45,9.85-.15,1.36-.15,1.36-1.65,1.8-1.09-.47-1.48-1.39-1.54-2.49-.03-.52-.06-1.05.05-1.55.91-4.08,2.98-7.36,6.81-9.29.95-.48,2.02-1.12,3.18-.38Z"/>
      <path class="cls-17" d="m102.91,162.69c.77-1.81-.06-3.06-1.45-4.11.54-2.96,1.06-5.94,3.17-8.3.77-.09,1.55-.13,2.32-.27,6.02-1.11,11.71,2.5,13.07,8.39.56,2.4.52,4.81-.77,7.05-3.96,3.14-8.24,3.82-12.79,1.45-1.7-.88-3.2-2.1-3.55-4.21Z"/>
      <path class="cls-6" d="m102.91,162.69c.75.14,1.16.71,1.59,1.26,1.48,1.87,3.46,2.93,5.78,3.21,2,.25,3.96-.19,5.85-.85.74-.26,1.43-.64,2.14-.96.34-.15.67-.15.97.09-1.45,3.86-4.43,5.89-8.3,6.66-2.51.5-5.01.18-7.35-.99-2.63-1.31-4.34-3.39-5.24-6.16-.2-.63.04-1.04.71-1.01,1.46.07,2.72-.37,3.86-1.26Z"/>
      <path class="cls-16" d="m104.62,150.28c.19.51.2,1.01-.05,1.5-.84,1.62-1.47,3.31-1.68,5.15-.09.8-.53,1.46-1.43,1.65-.75-.18-1.5-.37-2.25-.54-.93-.21-1.13-.52-.78-1.43,1.05-2.75,2.88-4.86,5.44-6.31.19-.11.5-.02.75-.03Z"/>
      <path class="cls-17" d="m193.44,150.71c1.22-.98,2.51-1.35,4.09-.86.89.27,1.89.19,2.83.3,2.15.24,3.95,1.24,5.51,2.67,1.49,1.36,2.61,2.96,2.98,5.01-.87.41-1.78.26-2.57.68-.78.41-1.52.82-2.02,1.57-.8,1.22-.43,2.61.84,3.3.88.48,1.82.47,2.78.5.78.02.9.29.6,1.24-.05.15-.21.26-.32.4-2.87,2.69-6.41,2.78-9.99,2.44-4.93-.47-8.45-5.18-7.73-10.18.38-2.61,1.2-5.05,2.99-7.06Z"/>
      <path class="cls-19" d="m193.44,150.71c.34.53.03.99-.16,1.47-.71,1.77-1.34,3.55-1.7,5.44-.89,4.7,2.33,9.03,7.07,9.32,2.79.17,5.57.11,8.09-1.39.45-.27.94-.48,1.43-.03-2.17,5.17-7.4,7.79-12.71,6.35-.83-.23-1.66-.51-2.44-.88-6.99-3.29-7.88-11.51-4.11-16.52,1.21-1.6,2.61-3.01,4.54-3.76Z"/>
      <path class="cls-7" d="m137.74,220.52s-.02.07-.02.07c0,0,.02-.07.02-.07Z"/>
      <path class="cls-35" d="m183.55,227.13c0,.2-.02.4-.03.6-.34.52-.83.83-1.44.95-.26.22-.51.2-.74-.06l2.2-1.5Z"/>
      <path class="cls-25" d="m180.91,229.14c-.3.49-.79.53-1.29.55.36-.36.75-.62,1.29-.55Z"/>
      <path class="cls-25" d="m181.34,228.63c.25.02.49.04.74.06-.33.34-.71.52-1.2.46-.01-.32.2-.44.46-.52Z"/>
    </g>
    <g>
      <path class="cls-32" d="m104.73,215.9c-2.43-4.13-2.46-4.57-.77-10.8-.72-.37-1.46-.77-2.22-1.15-7.19-3.54-13.55-8.18-18.95-14.12-6.69-7.36-10.7-16.03-12.23-25.82-1.45-9.26-.66-18.4,1.87-27.41.23-.83.44-1.67.64-2.51.01-.06-.07-.14-.2-.38-1.1,0-2.3.1-3.48-.02-2.82-.29-4.82-1.84-6.17-4.28-1.2-2.18-1.76-4.56-1.98-6.99-.88-9.71.52-19.11,4.12-28.16.67-1.68,1.6-3.3,2.65-4.77,1.97-2.76,4.73-4.25,8.11-4.71,4.05-.54,7.99.08,11.92.89,5.39,1.11,10.58,2.84,15.58,5.12.39.18.79.33,1.14.48,18.51-10.65,15.54-9.12,36.45-14.5-.4-.79-.79-1.55-1.17-2.32-1.13-2.29-1.91-4.68-1.94-7.25-.01-1.03.12-2.1.42-3.08.88-2.89,3.31-4.04,6.18-3.03,1.59.56,2.9,1.56,4.11,2.71.69.66,1.43,1.27,2.21,1.96.21-.38.46-.91.78-1.39.91-1.38,1.77-2.79,2.8-4.08.58-.73,1.38-1.34,2.18-1.84,2.82-1.77,5.68-1.06,7.35,1.83.56.97.91,2.06,1.43,3.27.56-.34,1.13-.66,1.68-1.02,1.18-.75,2.37-1.46,3.77-1.73,3.04-.58,5.06.77,5.81,3.78.52,2.11.19,4.15-.36,6.19-.74,2.72-2.09,5.15-3.74,7.63.5.23.91.51,1.37.62,9.19,2.38,17.71,6.21,25.52,11.62.35.24.74.43,1.15.67.59-.24,1.16-.45,1.71-.7,5.9-2.67,12.05-4.53,18.43-5.55,2.92-.47,5.87-.72,8.85-.25,2.97.47,5.44,1.75,7.4,4.02,1.44,1.67,2.47,3.59,3.27,5.62,1.94,4.88,3.13,9.95,3.79,15.15.4,3.11.71,6.25.47,9.38-.18,2.33-.6,4.65-.93,6.97-.06.43-.21.84-.35,1.25-1.68,4.9-4.73,6.9-9.93,6.55-.17-.01-.34,0-.53,0-.56.4-.28.94-.14,1.4,1.45,4.68,2.38,9.45,2.77,14.33,1.37,17.14-3.47,31.98-16.23,43.91-4.95,4.63-10.55,8.24-16.64,11.14-.94.45-1.88.88-2.87,1.34,0,.37-.07.72.01,1.03,1.13,4.3,1,5.28-1.3,8.97.33.54.68,1.13,1.04,1.71,2.33,3.69,4.25,7.59,6.01,11.58,4.1,9.33,7.65,18.86,10.14,28.76.36,1.43.68,2.88.9,4.34.26,1.77-.13,2.42-1.86,2.87-2.95.76-5.91,1.47-8.9,2.05-6.84,1.33-13.75,2.18-20.69,2.83-15.12,1.41-30.26,1.63-45.43,1.05-5.83-.22-11.67-.35-17.5-.68-10.71-.6-21.32-1.97-31.73-4.65-1.17-.3-2.33-.67-3.36-.98-.86-1.31-.54-2.54-.26-3.7.82-3.38,1.64-6.77,2.65-10.09,2.54-8.34,5.7-16.44,9.35-24.35,1.61-3.48,3.35-6.89,5.54-10.05.15-.21.21-.47.31-.7Zm-28.88-48.94c.39-.15.77-.31,1.16-.46.17,0,.35.03.52,0,3.55-.49,5.82,1.18,7.24,4.29.4.87.81,1.74,1.19,2.61.82,1.84,2.17,3.13,4.03,3.89.8.33,1.64.6,2.42.96.95.43,1.92.84,2.78,1.42,5.49,3.69,6.23,11.15,1.62,15.88-.35.36-.73.69-1.25,1.18.7.49,1.23.9,1.8,1.25,4.75,2.95,9.79,5.29,15.05,7.18,14.55,5.22,29.61,6.92,44.97,6.46,6.01-.18,11.99-.74,17.92-1.77,9.31-1.62,18.28-4.27,26.78-8.44,5.42-2.66,10.42-5.95,14.9-10.03,10.52-9.59,15.58-21.56,15.73-35.7.03-3.14-.15-6.27-.59-9.38-.67-4.66-1.76-9.22-3.45-13.62-.34-.19-.64-.38-.95-.52-12.21-5.41-22.11-13.77-30.53-23.98-1.32-1.6-2.44-3.41-3.36-5.26-1.55-3.12-.99-5.62,1.54-8.02.69-.65,1.46-1.23,2.2-1.84-4.87-4.58-20.95-11.9-26.82-12.28-1.88,1.86-3.46,4.27-6.87,4.86.49-.72.7-1.15,1.02-1.49,1.55-1.65,3.18-3.23,4.69-4.92,2.37-2.64,3.96-5.7,4.77-9.17.38-1.63.5-3.29.11-4.92-.42-1.77-1.57-2.37-3.34-1.86-2.16.62-3.85,1.93-5.17,3.36-.27,2.33-.43,4.41-.77,6.47-.32,1.98-.94,3.89-1.98,5.63-.5.83-1.06,1.59-1.95,2.05-1.02.53-2.13.33-2.74-.66-.31-.5-.58-1.12-.58-1.69,0-1.21.07-2.44.33-3.61.65-2.86,2.16-5.3,3.96-7.58.48-.61.95-1.21,1.46-1.87-.29-1.07-.46-2.11-.84-3.07-1.19-3.06-3.4-3.62-5.9-1.5-.66.56-1.27,1.21-1.76,1.91-.69,1-1.25,2.09-1.84,3.15-.81,1.47-.84,2.82.06,4.39,1.48,2.58,2.41,5.42,2.62,8.41.08,1.1,0,2.28-.32,3.34-.61,2.06-2.63,2.47-4.01.82-.71-.84-1.25-1.9-1.61-2.94-1.04-3.05-.97-6.22-.28-9.29.42-1.85.11-3.21-1.19-4.46-.81-.78-1.58-1.63-2.45-2.34-.6-.49-1.3-.88-2.03-1.16-2.04-.78-3.64.18-4,2.36-.1.6-.09,1.22-.1,1.82-.01,2.5.8,4.79,1.85,7.01,1.51,3.18,3.66,5.91,6.09,8.43-.2.2-.41.4-.61.6-1.55-1.24-3.09-2.49-4.73-3.8-10.18.68-26.61,7.42-34.64,13.92.67.56,1.34,1.09,1.97,1.66,2.82,2.55,3.43,5.32,1.63,8.67-1.06,1.98-2.34,3.89-3.78,5.62-6.76,8.09-14.59,14.95-23.8,20.16-2.26,1.28-4.63,2.38-7.02,3.6,0,0-.08.06-.11.14-3.59,9.74-4.81,19.75-3.49,30.05.15,1.19.54,2.35.82,3.53.04.41.09.82.16,1.42.58-.35,1-.61,1.42-.87l.04-.02Zm35.58,88.38c.19.38.38.76.57,1.13-.3,1.54-.67,3.06-.9,4.61-.32,2.13-.95,4.23-.76,6.4,3.84.91,19.75,1.89,22.45,1.36-.28-.47-.53-.9-.78-1.34-2.76-4.91-3.24-10.05-1.45-15.37.75-2.22,1.62-4.42,2.61-6.54,3.07-6.55,6.6-12.85,10.58-18.9.26-.4.41-.86.61-1.29-1.15-.62-2.18-1.1-3.13-1.7-.93-.58-1.79-1.28-2.74-1.97-1.42,1.96-2.71,3.82-4.07,5.61-.9,1.17-1.84,2.33-2.88,3.37-1.97,1.96-3.71,2.23-6.15,1.06-.86-.41-1.69-.9-2.48-1.44-5.63-3.81-11.1-7.84-16.11-12.46-.36-.34-.76-.64-1.26-1.05-7.34,15.03-14.06,30.06-17.18,46.4,4.07,1.65,16.7,4.1,20.37,3.97.66-3.99,1.28-8.02,2.72-11.86Zm79.31,1.55c1.21,3.35,1.91,6.84,2.44,10.32,3.56.2,17.88-2.47,21.64-4.03-.06-.47-.07-.99-.18-1.48-1.76-8.1-4.13-16.02-7.34-23.65-2.83-6.73-5.93-13.36-8.93-20.02-.16-.36-.15-.89-.84-1.01-.2.15-.48.32-.72.55-4.9,4.61-10.31,8.57-15.84,12.37-1.14.78-2.36,1.48-3.62,2.06-1.82.84-3.59.6-5.08-.8-.89-.83-1.74-1.71-2.48-2.67-1.44-1.86-2.77-3.8-4.17-5.69-.29-.4-.65-.75-.97-1.13-1.09.83-2.01,1.63-3.03,2.29-1.06.69-2.21,1.23-3.36,1.86,1.24,2.04,2.54,3.89,3.55,5.9,2.22,4.44,4.38,8.9,6.36,13.45,1.04,2.38,1.71,4.92,2.45,7.42.73,2.48.62,4.98.03,7.49-.61,2.56-1.69,4.93-2.89,7.26-.3.59-.88,1.09-.79,2,.43.02.83.08,1.23.07,7.75-.28,15.47-.84,23.17-1.77.08,0,.16-.07.22-.14.05-.06.07-.15.15-.31-.49-2.65-.99-5.38-1.49-8.11.18-.64.17-1.24-.41-1.71-.09-.14-.12-.29-.07-.44.16-.53.32-1.07.49-1.6.1.14.14.29.11.45-.11.45-.02.83.4,1.09Zm52.1-139.51c-.27-2.71-.43-5.22-.78-7.72-.71-5.1-2.01-10.05-4.02-14.8-.71-1.69-1.59-3.28-2.78-4.7-1.33-1.59-3-2.67-5.01-3.09-1.87-.39-3.77-.55-5.71-.37-5.49.52-10.77,1.91-15.94,3.75-3.03,1.08-6.01,2.31-8.78,3.95-1.26.75-2.46,1.66-3.5,2.68-1.21,1.18-1.55,2.71-.82,4.32.47,1.02.91,2.09,1.57,2.99,1.65,2.24,3.3,4.49,5.14,6.57,6.5,7.3,14.31,12.92,22.91,17.47,1.68.89,3.47,1.6,5.24,2.31,1.55.62,3.18.83,4.86.8,2.4-.05,4.21-1.12,5.3-3.2.68-1.29,1.23-2.71,1.49-4.14.43-2.3.57-4.65.81-6.81Zm-163.62-30.8c-.56.06-1.33.15-2.11.21-3.7.27-6.36,2.17-8.14,5.33-.76,1.36-1.44,2.78-2,4.24-1.81,4.64-2.96,9.46-3.59,14.39-.5,3.89-.77,7.79-.14,11.7.31,1.9.69,3.76,1.58,5.49,1.23,2.38,3.15,3.69,5.87,3.58,1.2-.05,2.42-.23,3.59-.52,2.54-.64,4.88-1.81,7.17-3.05,5.22-2.83,10.14-6.1,14.67-9.92,4.2-3.54,8.06-7.43,11.26-11.92.9-1.27,1.75-2.6,2.43-4,1.12-2.29.82-3.95-1.12-5.6-1.24-1.06-2.66-1.96-4.11-2.74-4.54-2.42-9.38-4.09-14.35-5.41-3.54-.94-7.13-1.53-11.02-1.77Zm85.1,182.92c1.79-2.81,3.21-5.48,4.2-8.39,1.08-3.16,1.16-6.28.18-9.47-.98-3.16-2.22-6.22-3.62-9.21-2.37-5.03-4.73-10.07-7.1-15.1-.21-.44-.47-.86-.6-1.09-2.16.15-4.06.42-5.96.36-1.97-.06-3.93-.42-5.81-.64-1.81,3.2-3.57,6.29-5.31,9.39-1.4,2.5-2.86,4.98-4.14,7.54-1.32,2.64-2.52,5.34-3.64,8.07-.72,1.76-1.16,3.63-1.31,5.56-.36,4.74,1.4,8.82,3.82,12.81,9.78.12,19.51.49,29.29.15Zm-29.82-55.96c-9.89-1.34-19.72-3.73-29.24-7.9-.27,1.5-.53,2.76-.71,4.04-.24,1.73.25,3.28,1.39,4.6.85.99,1.71,1.98,2.66,2.86,4.84,4.53,10.14,8.45,15.69,12.06.87.56,1.83,1,2.79,1.39.76.31,1.55.17,2.22-.36.41-.32.82-.65,1.16-1.04,2.52-2.87,4.68-6.01,6.73-8.95-.93-2.31-1.76-4.39-2.68-6.7Zm31.47,6.66c1.93,2.59,3.83,5.19,5.78,7.76.52.69,1.14,1.31,1.77,1.92.9.87,1.95,1.12,3.11.56.78-.38,1.59-.73,2.31-1.2,5.63-3.66,11.02-7.64,15.92-12.26.95-.89,1.85-1.86,2.63-2.9,1.65-2.21,1.73-4.61.37-7.31-.24.07-.5.12-.74.22-8.8,3.47-17.92,5.62-27.31,6.65-.5.05-.98.24-1.24.31-.89,2.15-1.69,4.07-2.59,6.26Zm-71.48-24.11c1.05-.72,1.67-1.67,2.28-2.61,2.87-4.37,1.77-9.72-2.61-12.57-.87-.56-1.85-.95-2.8-1.39-.87-.4-1.78-.72-2.63-1.14-1.61-.8-2.85-1.99-3.61-3.64-.4-.87-.74-1.77-1.15-2.63-.41-.86-.81-1.75-1.34-2.53-1-1.47-2.44-2.18-4.24-2.12-1.33.05-2.55.42-3.73,1.32,3.08,11.69,10.15,20.39,19.82,27.3Zm41.38,17.68c.98,1.64,1.69,2.92,2.47,4.15,1.9,2.99,4.62,4.97,8,5.92,1.74.49,3.58.8,5.39.87,6.77.27,12.43-3.88,14.51-10.59-3.32-.09-6.57.47-9.84.42-3.39-.06-6.79.01-10.18-.11-3.29-.12-6.58-.41-10.35-.66Zm15.99-141.68c-.54,2.04-.66,3.49-.23,5.76.21,1.08.65,2.13,1.08,3.15.13.32.55.51.92.83.82-1.17.65-2.3.53-3.39-.29-2.49-1.19-4.91-2.29-6.35Zm8.3,6.9c1.46-1.21,1.49-1.2,2.03-2.55.87-2.15,1.4-4.37,1.38-6.85-2.63,2.53-3.88,5.94-3.41,9.4Z"/>
      <path class="cls-32" d="m111.44,255.35c.17-1.67.99-3.08,1.83-4.5-.06,1.97-.49,3.83-1.26,5.63-.19-.38-.38-.76-.57-1.13Z"/>
      <path class="cls-32" d="m189.27,252.19c.33,1.05.65,2.11.98,3.16-.16.53-.32,1.07-.49,1.6-.71-1.52-.93-3.15-1.11-4.79.21,0,.41.01.62.02Z"/>
      <path class="cls-32" d="m147.99,82.3c.27.19.6.33.8.58.11.14.06.45,0,.66-.02.07-.33.15-.43.09-.35-.21-.66-.48-.98-.73.2-.2.41-.4.61-.6Z"/>
      <path class="cls-32" d="m190.24,259.11c-.46-.49-.51-1.08-.41-1.71.58.47.58,1.06.41,1.71Z"/>
      <path class="cls-32" d="m190.35,255.81c.13.36.27.72.4,1.09-.42-.26-.51-.64-.4-1.09Z"/>
      <path class="cls-32" d="m143.93,196.1c-1.22.3-2.22.55-3.23.79-7.65,1.82-17.55-2.17-19.74-12.91-.74-3.62-.53-7.32.63-10.85,3.99-12.13,12.11-20.08,24.36-23.71,4.38-1.3,8.83-1.03,13.11.46,11.15,3.89,18.73,11.43,22.53,22.63,1.45,4.28,1.72,8.69.43,13.1-2.54,8.67-11.04,12.92-18.94,11.36-1.02-.2-2.02-.48-3.17-.75-1.56,4.01-4.52,6.02-8.84,5.76-3.63-.22-5.83-2.39-7.15-5.89Zm7.78-8.72c1.1,1.07,2.09,2.04,3.08,3.01,2.51,2.43,5.49,3.9,8.93,4.54,7.29,1.35,15.53-3.23,16.82-11.85.4-2.65.24-5.24-.45-7.76-2.88-10.45-9.23-17.99-19.22-22.3-6.05-2.61-12.2-2.6-18.26-.03-9.66,4.09-15.84,11.36-19.04,21.25-.75,2.33-.91,4.77-.84,7.23.24,7.71,6.45,13.63,14.31,13.67,3.97.02,7.53-1.28,10.56-3.86,1.38-1.18,2.65-2.5,4.12-3.9Zm-6.9,8.41c1.58,3.45,4,5.05,7.23,4.82,1.6-.11,3.05-.62,4.29-1.66,1.07-.89,1.9-1.93,2.3-3.32-.64-.41-1.16-.71-1.66-1.05-.57-.4-1.13-.81-1.65-1.26-.46-.39-.89-.83-1.29-1.29-.46-.52-.85-1.09-1.3-1.62-.36-.42-.43-1.11-1.04-1.29-1.07,1.28-1.96,2.57-3.07,3.63-1.17,1.12-2.54,2.03-3.81,3.02Z"/>
      <path class="cls-32" d="m107.77,176.52c-8.36.11-15.46-6.68-15.44-15.36.03-8.69,6.9-15.42,15.44-15.38,8.74.04,15.25,7.01,15.32,15.25.07,8.87-7.14,15.54-15.32,15.49Zm11.48-7.42c2.98-4,3.29-8.36,1.65-12.93-.76-2.11-1.84-4.07-3.79-5.37-7.89-7.33-20.75-3.16-23.04,7.22-.74,2.13-.73,4.24.02,6.36.22.74.36,1.52.67,2.23,3.7,8.57,14.17,11.06,20.82,6.06,1.61-.79,2.74-2.08,3.68-3.56Z"/>
      <path class="cls-32" d="m214.46,161.16c.15,7.97-6.44,15.38-15.43,15.37-7.58,0-15.23-5.81-15.32-15.25-.08-8.95,6.92-15.47,15.33-15.5,8.97-.03,15.5,7.19,15.42,15.38Zm-29.27-2.56c-.04,1.53-.12,3.07-.1,4.6,0,.38.28.77.43,1.15.67,3.67,2.57,6.49,5.8,8.39,3.47,2.47,7.3,3.03,11.38,2,5.54-1.39,9.74-6.31,10.17-11.82.1-.5.31-1.01.3-1.5-.1-5.35-2.31-9.6-6.96-12.32-4.72-2.75-9.55-2.79-14.29.1-1.6.59-2.7,1.79-3.71,3.09-1.73,1.76-2.59,3.93-3.01,6.32Z"/>
      <path class="cls-32" d="m132.82,84.87c.07-.14.17-.16.29-.08.49.09.94.07,1.27-.38,3.63-1.05,7.22-.92,10.73.46,1.11.44,2.22,1.05,3.14,1.81,2.5,2.07,3.51,4.82,2.57,7.94-1.61,5.4-5.28,8.91-10.69,10.43-1.28.36-2.75.11-4.13.05-.69-.03-1.37-.22-2.05-.38-2.62-.65-4.97.11-7.22,1.37-.83.47-1.62,1.03-2.48,1.43-1.83.85-2.96.53-4.56-1.12.2-.21.41-.41.61-.62,1.41,1.25,2.83,1.04,4.27.04.64-.45,1.31-.86,1.98-1.25,1.54-.88,3.21-1.37,4.98-1.35,1.12.01,2.25.14,3.37.3,1.73.25,3.5.56,5.18,0,4.48-1.47,7.63-4.44,9.15-8.95.91-2.68.05-5.22-2.17-7-1.38-1.11-2.99-1.74-4.69-2.17-1.88-.47-3.79-.4-5.7-.44-.62-.1-1.25-.23-1.73.35-.34.06-.68.11-1.01.17-.37-.2-.73-.41-1.1-.61Z"/>
      <path class="cls-32" d="m100.53,137.76c-1.2-.24-2.52-.36-3.74-.78-3.21-1.1-4.27-3.96-2.58-6.9.51-.89,1.18-1.75,1.95-2.42,4.48-3.88,9.65-5.75,15.63-5.21,1.15.11,2.22.44,3.2,1.04,2.01,1.22,2.67,3.18,1.84,5.4-.53,1.43-1.47,2.56-2.58,3.56-2.72,2.45-5.95,3.9-9.48,4.69-1.35.3-2.75.41-4.23.62Zm-.16-1.51c4.85-.16,8.8-1.54,12.24-4.24.94-.74,1.79-1.66,2.44-2.66,1.47-2.26.76-4.29-1.75-5.14-.97-.33-2.03-.55-3.05-.54-4.74.05-9.03,1.49-12.69,4.56-.72.6-1.37,1.34-1.9,2.12-1.69,2.54-1.03,4.5,1.85,5.41,1.05.34,2.2.39,2.86.5Z"/>
      <path class="cls-32" d="m197.28,122.33c4.68.15,8.84,1.73,12.53,4.58,1.32,1.02,2.44,2.23,3.12,3.79,1.07,2.49.32,4.71-2.08,5.93-1.42.72-2.97,1.05-4.55,1-5.03-.14-9.58-1.67-13.43-4.96-.97-.83-1.85-1.88-2.48-2.99-1.58-2.77-.61-5.38,2.29-6.63,1.16-.5,2.88-.78,4.6-.73Zm8.5,13.91c.78-.04,1.49.01,2.16-.14.91-.22,1.85-.48,2.67-.93,1.31-.72,1.67-1.88,1.27-3.33-.31-1.12-.96-2.05-1.78-2.83-3.98-3.78-8.78-5.44-14.21-5.29-1.08.03-2.22.44-3.21.93-1.67.83-2.06,2.22-1.34,3.93.55,1.32,1.47,2.35,2.56,3.23,3.5,2.79,7.49,4.27,11.89,4.45Z"/>
      <path class="cls-32" d="m153.25,102.45c.04-.22.09-.65.22-1.06,1.13-3.62,5.58-6.66,10.33-4.37.87.42,1.58,1.05,2.04,1.94.71,1.37.35,2.84-.97,3.59-.52.3-1.11.53-1.7.61-1.75.25-3.35.82-4.83,1.78-.29.19-.63.28-.93.46-1.7.99-4-.22-4.16-2.96Zm11.89-2.13c-.16-.41-.26-.75-.42-1.05-.49-.88-1.32-1.43-2.23-1.66-3.18-.79-5.16-.15-7.17,2.25-.72.86-1.17,1.93-.88,3.14.28,1.17,1.2,1.69,2.35,1.3.4-.14.8-.32,1.17-.55,1.42-.87,2.91-1.48,4.58-1.69.59-.08,1.21-.26,1.7-.58.39-.25.62-.77.91-1.16Z"/>
      <path class="cls-32" d="m132.82,84.87c.37.2.73.41,1.1.61-.71.29-1.41.59-2.12.88-5.79,2.35-9.61,6.56-11.7,12.39-.85,2.36-1,4.71.2,7.02-.2.21-.41.41-.61.62-1.33-1.26-1.39-2.93-1.32-4.57.04-1.03.26-2.07.58-3.05,2.18-6.67,6.54-11.31,13.11-13.83.23-.09.51-.05.77-.07Z"/>
      <path class="cls-32" d="m134.38,84.41c-.32.45-.78.47-1.27.38.42-.13.85-.26,1.27-.38Z"/>
      <path class="cls-32" d="m189.27,252.19c-.2,0-.41-.01-.62-.02-.1-.13-.25-.25-.29-.4-.04-.14.04-.31.07-.47.22.05.53.04.65.18.15.17.13.47.19.72Z"/>
      <path class="cls-32" d="m204,106.79c-1.09-1.11-2.29-2.13-2.99-3.57-.19-.38-.44-.76.03-1.3,1.54,1.16,2.34,2.89,3.43,4.38-.15.16-.31.32-.46.48Z"/>
      <path class="cls-32" d="m208.04,109.86c1.89,1.42,2.93,2.93,4.25,4.79-1.39-.31-1.95-1.1-2.61-1.67-.63-.55-1.13-1.27-1.63-1.95-.11-.15-.02-.46-.02-1.17Z"/>
      <path class="cls-32" d="m205.11,101.49c-.3-.8-.6-1.6-.91-2.39-.35-.89-.45-1.79-.33-2.69.73-.29.86.24.95.57.31,1.15.54,2.32.8,3.48-.17.34-.34.68-.51,1.02Z"/>
      <path class="cls-32" d="m205.11,101.49c.17-.34.34-.68.51-1.02.52.73.67,1.48.29,2.35-.68-.31-.7-.84-.8-1.33Z"/>
      <path class="cls-32" d="m204,106.79c.15-.16.31-.32.46-.48.3.42.6.84.97,1.34-.99.24-1.16-.38-1.43-.86Z"/>
      <path class="cls-32" d="m69.97,97.85c.21-1.02.36-2.05.65-3.05.38-1.26,1.06-2.31,2.64-2.97-.59,2.52-1.56,4.6-2.67,6.63-.21-.2-.41-.41-.62-.61Z"/>
      <path class="cls-32" d="m73.4,102.97c.57-2.35.68-4.88,3.03-7.01-.11.86-.08,1.29-.23,1.64-.79,1.86-1.4,3.82-2.81,5.37Z"/>
      <path class="cls-32" d="m70.06,103.44c.3,2.07.04,4.08-.13,6.26-.77-1.71-1.04-3.13-.84-4.54.09-.65.14-1.36.96-1.72Z"/>
      <path class="cls-32" d="m69.97,97.85c.21.2.41.41.62.61-.09.22-.15.47-.28.66-.08.12-.39.23-.41.2-.14-.16-.32-.39-.29-.57.05-.31.24-.61.37-.91Z"/>
      <path class="cls-32" d="m137.63,249.19c-.22,3.33-.93,6.59-1.74,9.87-.08-.2-.22-.4-.22-.6.06-2.08.15-4.16.21-6.24.05-1.5.33-2.92,1.13-4.21.21.39.41.79.62,1.18Z"/>
      <path class="cls-32" d="m140.75,264.12c-.83-1.7-1.8-3.35-2.07-5.27-.04-.27.11-.57.18-.89.31.14.55.17.59.27.63,1.78,1.24,3.57,1.86,5.36-.19.17-.37.35-.56.52Z"/>
      <path class="cls-32" d="m137.63,249.19c-.21-.39-.41-.79-.62-1.18.22-.75.54-1.43,1.38-2.14.06,1.37-.3,2.36-.77,3.32Z"/>
      <path class="cls-32" d="m140.75,264.12c.19-.17.37-.35.56-.52q.44.92.49,2.06c-.84-.2-.84-.94-1.05-1.54Z"/>
      <path class="cls-32" d="m136.66,84.97c-.58.12-1.15.23-1.73.35.48-.58,1.11-.45,1.73-.35Z"/>
      <path class="cls-32" d="m130.21,176.83c.04-.2.12-.97.34-1.71.99-3.45,3-6.21,5.83-8.37,1.04-.79,2.21-1.36,3.58-1.38,1.65-.03,2.88.74,3.34,2.33.26.89.41,1.9.27,2.8-.65,4.15-2.82,7.39-6.28,9.75-.56.38-1.22.65-1.86.9-3.02,1.18-5.34-.89-5.21-4.31Zm1.21-.15c.09.68.12.94.16,1.19.3,1.71,1.37,2.37,3.01,1.83.49-.16.99-.36,1.42-.64,3.23-2.1,5.19-5.08,5.97-8.83.09-.42.09-.87.05-1.3-.19-1.72-1.21-2.48-2.89-2.07-.75.18-1.49.5-2.14.91-2.05,1.29-3.56,3.08-4.49,5.3-.53,1.27-.81,2.64-1.1,3.6Z"/>
      <path class="cls-32" d="m171.48,171.16c1.46,1.92,2.3,4.06,2.21,6.5-.1,2.92-2.13,4.37-4.95,3.55-4.55-1.33-8.83-7.61-8.39-12.3.27-2.89,2.42-4.25,5.17-3.24,1.31.48,2.5,1.18,3.37,2.32-.21.21-.43.41-.64.62-.51-.33-.99-.7-1.53-.97-.61-.31-1.25-.61-1.91-.77-1.71-.42-2.77.3-2.84,2.01-.04.94.03,1.93.31,2.82.9,2.79,2.5,5.14,4.9,6.87.76.55,1.65.96,2.54,1.24,1.11.36,2.04-.22,2.47-1.32.36-.93.36-1.88.07-2.81-.41-1.32-.91-2.61-1.38-3.91.19-.21.39-.41.58-.62Z"/>
      <path class="cls-32" d="m171.48,171.16c-.19.21-.39.41-.58.62-.88-1.06-1.76-2.11-2.64-3.17.21-.21.43-.41.64-.62,1.18.79,1.99,1.88,2.57,3.16Z"/>
      <path class="cls-32" d="m94.64,162.25c-.32-1.04-.3-2.07.04-3.1.83-.62,1.81-1.11,2.44-1.88.64-.78.88-1.88,1.42-2.77,2.84-4.66,9.46-7.58,15.79-4.49.78.38,1.5.88,2.24,1.32.34.38.65.79,1.01,1.14,2.26,2.22,3.33,4.99,3.59,8.06.18,2.09-.44,4.08-1.35,5.96-.33.69-.73,1.36-1.1,2.03-1.16,1.51-2.76,2.51-4.25,3.64-1.65.47-3.25,1.08-5.03,1.16-5.24.24-10.05-2.99-11.89-7.64-.19-.48-.38-.96-.49-1.26-.9-.81-1.67-1.49-2.43-2.17Zm4.15,2.37c1.28,5.35,7.77,8.11,12.15,7.22,4.26-.87,9.43-4.97,8.88-11.79-.44-5.5-5.16-9.67-10.09-9.9-2.82-.13-5.37.53-7.55,2.31-1.54,1.25-2.89,2.69-3.3,4.69,1.09.44,2.14.68,2.99,1.23,2.4,1.55,2.16,4.37-.44,5.54-.77.35-1.66.45-2.64.71Zm.53-1.43c.48-.16,1.25-.33,1.92-.68,1.02-.53,1.16-1.8.38-2.63-1.24-1.33-3.69-1.56-5.23-.51-.96.66-1.02,1.83-.17,2.65.79.76,1.78,1,3.11,1.17Z"/>
      <path class="cls-32" d="m186.06,164.37c-.4-1.9-.47-3.81-.27-5.74.71-2.07,1.64-4.03,2.95-5.79,1.26-1,2.53-1.99,3.79-2.99.49-.16.98-.34,1.47-.49,6.22-1.9,12.34.82,15.09,6.72.18.39.34.79.52,1.23.63.41,1.3.79,1.91,1.26.47.37.89.83.8,1.53,0,.39,0,.78.01,1.17,0,0,.01-.04.01-.04-.52.25-.56.7-.51,1.19-.03.08-.03.19-.08.24-.68.63-1.49,1.17-2.03,1.9-.5.68-.67,1.6-1.07,2.36-2.48,4.69-8.23,7.65-14.25,5.88-.66-.2-1.32-.42-1.98-.63-.12-.12-.22-.28-.36-.36-3.02-1.67-4.96-4.19-5.99-7.45Zm21.87-7.22c-1.92-5.17-7.2-8.02-12.54-6.79-5.25,1.2-8.91,6.3-8.44,11.6.45,5.06,4.42,9.85,10.77,10.05,2.67.08,5.14-.81,7.19-2.59,1.49-1.3,2.78-2.77,3.12-4.8-.97-.24-1.85-.34-2.63-.68-2.59-1.14-2.86-3.96-.5-5.53.84-.56,1.89-.8,3.02-1.25Zm-.41,6.02c1.21-.09,2.29-.36,3.14-1.2.86-.85.75-2-.29-2.64-1.27-.78-2.6-.86-3.98-.26-.92.4-1.67.96-1.75,2.05-.06.79.73,1.5,1.93,1.83.33.09.67.16.96.22Z"/>
      <path class="cls-32" d="m211.84,162.42c-.05-.49,0-.94.51-1.19-.02.34-.04.68-.05,1.02-.15.07-.3.12-.46.17Z"/>
      <path class="cls-32" d="m212.33,161.27c0-.39,0-.78-.01-1.17.38.39.41.78.01,1.17Z"/>
    </g>
  </g>
</svg>