<?xml version="1.0" encoding="UTF-8"?>
<svg id="Layer_1" data-name="Layer 1" xmlns="http://www.w3.org/2000/svg" viewBox="0 0 300 299.76">
  <defs>
    <style>
      .cls-1 {
        fill: #c2c0a4;
      }

      .cls-2 {
        fill: #96acad;
      }

      .cls-3 {
        fill: #fff;
      }

      .cls-4 {
        fill: #abbbb6;
      }

      .cls-5 {
        fill: #eca650;
      }

      .cls-6 {
        fill: #c1c192;
      }

      .cls-7 {
        fill: #b29f8d;
      }

      .cls-8 {
        fill: #c3c18d;
      }

      .cls-9 {
        fill: #3b479d;
      }

      .cls-10 {
        fill: #eda750;
      }

      .cls-11 {
        fill: #ecd69a;
      }

      .cls-12 {
        fill: #ebd69a;
      }

      .cls-13 {
        fill: #e66f25;
      }

      .cls-14 {
        fill: #b7ad8d;
      }

      .cls-15 {
        fill: #d9bf78;
      }

      .cls-16 {
        fill: #94adad;
      }

      .cls-17 {
        fill: #ec9622;
      }

      .cls-18 {
        fill: #789091;
      }

      .cls-19 {
        fill: #6d4b3e;
      }

      .cls-20 {
        fill: #6c4a3d;
      }

      .cls-21 {
        fill: #4753a4;
      }

      .cls-22 {
        fill: #6d4a3d;
      }

      .cls-23 {
        fill: #e77125;
      }

      .cls-24 {
        fill: #d7e9e6;
      }

      .cls-25 {
        fill: #ccb782;
      }

      .cls-26 {
        fill: #7b4728;
      }

      .cls-27 {
        fill: #f1e2b6;
      }

      .cls-28 {
        fill: #ecd59b;
      }

      .cls-29 {
        fill: #bd9f86;
      }

      .cls-30 {
        fill: #b8bb8c;
      }

      .cls-31 {
        fill: #785143;
      }
    </style>
  </defs>
  <rect class="cls-24" x="35" y="29.06" width="230" height="237.22" rx="68.69" ry="68.69"/>
  <g>
    <g>
      <path class="cls-4" d="m169.57,80.47c3.37,1.13,6.83,2.03,10.06,3.45,2.57,1.13,4.61.83,7.07-.37,6.34-3.1,12.98-5.46,19.98-6.64,5.56-.94,11.06-.83,16.42,1.18.81.3,1.67.51,2.3,1.17,2.9,5.26,4.03,10.95,4.18,16.89.02.78-.07,1.56-.56,2.22-1.49,1.12-2.08-.25-2.55-1.12-1.13-2.11-2.75-3.75-4.49-5.32-3.36-1.93-6.95-2.39-10.76-1.92-4.67.58-9.19,1.78-13.71,3.02-2.05.26-3.35-1.18-4.86-2.15-.92-.59-1.95-1.22-2.39.46-1.22,4.7-2.64,9.41-1.46,14.34.9,3.77,3.09,4.73,6.62,3.05,3.8-1.81,6.45-4.94,9.08-8.07.44-.53.73-1.18,1.32-1.6,1.66-.58,2.32.89,3.32,1.64,3.25,2.13,5.59,5.17,7.81,8.23,3.96,5.45,7.97,10.92,9.65,17.64.33,2.15,1.43,4.01,2.23,5.99.41,1.03.98,2.02.69,3.2-.06,1.09.4,2.05.83,2.99,1.6,3.48,3.25,6.93,5.19,10.24,1.85,3.18,4.17,6,6.45,8.85.65.81,1.3,1.63,1.89,2.5.33.5.61,1.06.77,1.64.33,1.16-.07,2.09-1.18,2.59-.95.43-1.96.7-2.96,1-2.14.65-2.32,1.14-.96,2.81.27.34.61.63.86.98.84,1.18,1.18,2.43.84,3.93-.56,2.47-1.85,4.5-3.51,6.31-2.65,2.89-5.5,5.57-8.58,8.01-6.04,4.76-12.48,8.87-19.44,12.15-1.26.59-2.54,1.13-3.82,1.69-5.1,2.24-10.24,4.37-15.63,5.82-5.24.58-10.31,2.06-15.52,2.88-2.32.36-4.66.71-6.97.84-25.55,1.43-49.03-4.77-69.87-19.83-12.03-8.69-18.7-20.5-18.37-35.59.19-8.83,3.08-17.08,7.03-24.92,3.85-7.64,8.45-14.8,14.17-21.21.89-1,1.74-1.96,3.19-2.03,1.8.1,3.18,1.33,4.84,1.82,3.62,1.06,5.25.06,5.66-3.75.26-2.42-.13-4.86.23-7.28.14-1.67,1.02-2.9,2.36-3.83,3.41-2.37,6.82-4.72,10.51-6.65,1.01-.53,2.05-.95,3.22-.51,1.52.83,1.86,2.43,2.49,3.84,2.34,5.3,5.08,10.29,10.05,13.64,5.35,3.6,10.45,3.11,15.05-1.42,5.79-5.7,8.52-12.96,10.49-20.6.19-.75.1-1.57.74-2.16Z"/>
      <path class="cls-16" d="m104.03,108.07c-.64.07-1.15.37-1.56.86-4.58,5.58-8.92,11.31-12.45,17.65-2.3,4.12-4.32,8.35-5.95,12.75-1.51,4.07-2.76,8.25-3.01,12.64-.08,1.39-.56,2.71-.52,4.13.15,5.25.96,10.35,2.91,15.27,1.56,3.94,3.88,7.34,6.44,10.67,2.8,3.64,6.32,6.42,9.96,9.11,4.42,3.27,9.17,5.99,14.13,8.35,3.3,1.56,6.66,3,10.12,4.19,4.37,1.49,8.75,2.93,13.27,3.89,3.91.84,7.85,1.42,11.81,1.96,5.91.81,11.82.36,17.72.39,2.58.01,5.17-.52,7.75-.86,2.49-.34,4.98-.74,7.46-1.14,1.63-.27,3.24-.6,4.87-.88,1.11-.2,2.24-.43,3.3.21-2.72.78-5.34,1.92-8.19,2.25-1.45,1.87-3.81,1.43-5.68,2.25-1.66.44-3.39.52-5.05.97-.75.13-1.47.38-2.21.56-1.03.23-2.06.41-3.13.36-4.13-.28-8.23.64-12.36.3-.94-.08-1.9.01-2.84-.06-1.44-.42-2.91-.53-4.4-.47-1.04,0-2.09,0-3.13,0-4.47-.1-8.85-1-13.27-1.57-1.11-.13-2.2-.37-3.3-.57-.77-.21-1.55-.42-2.35-.47-1.46-.18-2.85-.61-4.23-1.11-1.29-.36-2.45-.96-3.53-1.74-2.42-.38-4.7-1.23-7.01-2-10.04-3.38-19.31-8.32-28.35-13.77-4.11-2.47-8.07-5.12-11.69-8.3-2.52-2.21-4.56-4.77-6.26-7.63-.49-.83-.86-1.71-1.03-2.66-.28-1.62-.12-3.11,1.23-4.29.72-.63,1.38-1.33,1.67-2.29.12-.38,0-.73-.34-.88-.55-.24-1.14-.41-1.73-.57-1.02-.28-1.98-.67-2.84-1.27-1.23-.86-1.56-2.13-.77-3.41.54-.88,1.26-1.66,1.95-2.44,1.16-1.29,2.44-2.49,3.55-3.83,3.99-4.82,6.6-10.41,8.93-16.15.21-.53.23-.99-.24-1.42-1.35-1.22-1.88-2.92-2.47-4.54-1.91-5.25-3.04-10.68-3.79-16.22-.68-5.03-.68-10.07-.41-15.11.25-4.72,1.35-9.28,3.59-13.51,1.54-2.9,3.68-5.26,6.18-7.33.33-.27.76-.41,1.14-.61,1.03.94.75,2.06.35,3.13-3.46,9.19-4.07,18.75-3.74,28.45.04,1.32.37,2.57.61,3.84.33,2.5.87,4.96,1.43,7.42.15.68.02,1.79,1.05,1.86.78.05,1.03-.85,1.34-1.44,1.12-2.17,2.3-4.3,3.53-6.4,3.29-5.58,7.33-10.55,12.04-15,1.46-.26,1.06-2.58,2.79-2.55,2.13,2.97,4.64,5.63,6.98,8.42.04.27-.05.48-.26.65Z"/>
      <path class="cls-21" d="m191.35,267.93c-9.46.65-18.93.93-28.4,1.32-14.53.6-29.04.18-43.55-.28-.78-.02-1.57.03-2.31-.32.88-1.53,2.4-1.18,3.73-1.18,1.69,0,2.54-.58,2.65-2.39.1-1.72.39-3.45.74-5.14,2.64-12.77,10.21-20.92,22.88-24.2,3.1-.8,6.16-1.81,9.31-2.4,1.12-.21,1.77-1.04,2.69-1.48,2.16-.2,4.33-.47,6.21,1.04.33.7-.14,1.14-.56,1.58-.5.52-.78,1.13-.93,1.83-1.15,5.53,3.55,14.1,8.83,16.08,2.35.88,4.16.42,7.39-1.89-2.5-.39-4.08-2.81-3.99-6.11.98-1.03,2.3-1.75,2.66-3.33.61-2.7-1-4.47-3.55-3.81-.64.17-1.18.16-1.64-.36-1.47-1.77-.9-4.01-1.29-6.01-.52-2.71-.18-5.53-.59-8.29-.18-1.26.34-2.58,1.58-3.05,3.39-1.28,6.75-2.71,10.39-3.15.34-.04.69.02,1.02.16.84.75,1.14,1.79,1.47,2.81.76,6.29,1.11,12.59.19,18.9-.12.85-.1,1.72.28,2.55,3.49,7.65,3.96,16.11,6.41,24.04.44,1.42-.07,2.57-1.6,3.07Z"/>
      <path class="cls-31" d="m169.57,80.47c.61,1.15.54,2.34.18,3.54-1.49,4.92-3.36,9.67-5.92,14.14-1.52,2.66-3.46,4.99-5.82,6.95-2.65,2.19-5.62,3.43-9.13,2.98-2.11-.27-4.02-1.06-5.79-2.2-2.98-1.91-5.27-4.5-7.17-7.45-1.69-2.64-3.08-5.43-4.2-8.36-.31-.81-.66-1.6-.99-2.4-.18-.23-.23-.48-.14-.76.31-.8.99-1.2,1.7-1.53,6.36-2.96,12.76-5.8,19.44-6.6-1.53-.25-3.69,1.65-5.4-.62.64-.34,1.34-.33,2.03-.36,6.01-.31,11.94.23,17.83,1.45,1.2.25,2.33.64,3.4,1.25Z"/>
      <path class="cls-9" d="m159,232.61c-.25.88-1.01,1.13-1.75,1.39-2.39.82-4.79,1.57-7.25,2.15-3.47.82-6.87,1.86-10.08,3.47-7.2,3.61-11.7,9.38-13.81,17.08-.92,3.35-1.5,6.77-1.67,10.25-.06,1.2-.39,1.52-1.62,1.56-1.91.08-3.82.09-5.73.13-1.77-.04-3.55-.08-5.33-.11-.7-.01-1.33-.23-1.94-.53-2.18-1.23-1.71-3.29-1.4-5.12.71-4.2,1.79-8.32,3.02-12.4.98-3.24,1.76-6.56,3.64-9.46.82-1.27.53-2.72.28-4.07-.27-1.47-.4-2.92-.39-4.41.61-3.93.44-7.87.08-11.81.05-.62.32-1.22.25-1.85-.05-2.57.14-5.13.87-7.6.38-1.27.81-2.71,2.64-2.61,1.74.87,3.65,1.12,5.51,1.56.41,0,.81,0,1.21.08,1.36.65,2.95.32,4.31.97,1.18-.07,2.25.33,3.32.74,1.79.9,2.44,2.46,2.27,4.33-.19,1.97-.16,4-1.19,5.8-1.24,1.09-2.7,1.01-4.17.73-1.78-.34-3.58-.63-5.34-1.05-1.66-.39-2.06.33-2.32,1.82-.81,4.57-.2,9.11-.01,13.66-.15,2.42.44,4.65,1.77,6.68.1.51.22,1.04.62,1.41.92.86,1.06,2.91,2.49,2.68,1.48-.24,1.94-2.04,2.5-3.41,1.13-2.77,1.52-5.71,1.99-8.63.23-1.42.53-2.75,2.01-3.43,3.22-1.54,6.76-1.39,10.16-1.68,4.21-.37,8.48-.4,12.69.4.95.18,1.91.23,2.38,1.27Z"/>
      <path class="cls-4" d="m191.35,267.93c.76-.71,1-1.47.68-2.55-1.73-5.83-2.95-11.79-4.27-17.72-.53-2.37-.97-4.78-2.62-6.73-.45-.53-.25-1.14-.15-1.74.63-3.7.76-7.42.67-11.16-.04-1.74-.08-3.47-.38-5.19-.19-1.11-.15-2.25-.21-3.38-.54-4.08-.26-4.64,2.71-5.34,1.83,2,3.16,4.36,4.62,6.61,3.6,5.55,6.91,11.26,9.86,17.19,3.12,6.26,5.37,12.83,7.4,19.49.28.91.56,1.83.78,2.76.2.84.4,1.7.47,2.56.12,1.5-.42,2.28-1.82,2.77-.49.17-1,.33-1.51.38-2.25.19-4.47.66-6.75.58-1.04-.04-2.07.07-3.09.4-2.08.68-4.25.8-6.4,1.06Z"/>
      <path class="cls-4" d="m74.24,115.89c-.4-.51-.48-1.1-.48-1.72,0-5.8-.11-11.61.06-17.41.08-2.75.69-5.48,1.46-8.15.72-2.49,1.33-5.02,2.41-7.4.2-.45.17-1.01.24-1.53,2.46-2.13,5.5-2.87,8.57-3.54,3.67-.81,7.29-.35,10.86.46,5.95,1.34,11.8,3.06,17.45,5.38,1.96.8,3.84,1.67,4.8,3.76.08.18.45.23.68.34.17,1.32-.98,1.44-1.74,1.89-2.1,1.22-4.44,1.85-6.69,2.69-1.26.36-2.26,1.17-3.32,1.88-.97.66-1.91,1.53-3.25.94-2.43-2.63-5.85-2.71-9.01-3.48-4.71-1.14-9.25-.41-13.69,1.32-.58.23-1.06.57-1.42,1.09-4.47,3.94-5.39,9.27-5.76,14.79-.13,1.98,0,3.98-.05,5.97-.03,1.04-.04,2.11-1.12,2.72Z"/>
      <path class="cls-16" d="m118.97,208.95c-.94-.05-1.44.49-1.6,1.33-.27,1.42-.5,2.85-.71,4.28-.21,1.43-.38,2.87-.57,4.3-2.3,3.5-3.5,7.52-5.25,11.28-5.01,10.78-8.51,22.05-10.49,33.79-.19,1.14-.37,2.5-2.04,2.57-1.93.05-3.8-.4-5.66-.82-2.52-.58-3.03-1.44-2.46-3.9.36-1.52.74-3.04,1.21-4.53,3.71-11.82,8.64-23.12,14.85-33.84,2.89-4.98,6.36-9.54,10.11-13.9.45-.52.7-.98.22-1.59,1.3.02,2.51.43,3.7.93-.4.48-.86.33-1.32.11Z"/>
      <path class="cls-4" d="m98.32,266.5c.64-.77.87-1.7,1.01-2.65,1.16-7.77,3.19-15.33,5.81-22.72,1.86-5.25,4.05-10.37,6.47-15.39,1.02-2.11,1.98-4.26,2.97-6.39.32-.7.86-.79,1.51-.49-.01.53-.03,1.06-.04,1.58-.33,4.17-.35,8.35.01,12.52.26,2.16.48,4.32.78,6.47.09.65.02,1.19-.4,1.7-1.13,1.36-1.85,2.95-2.38,4.62-1.77,5.64-3.45,11.32-4.54,17.14-.32,1.71-.58,3.45.29,5.11-1.89-.19-3.78-.32-5.65-.6-1.54-.22-3.07-.46-4.62-.54-.41-.02-.81-.24-1.22-.37Z"/>
      <path class="cls-16" d="m228.48,98.69c.4-5.09-.7-9.97-2.16-14.79-.35-1.16-.75-2.3-1.14-3.45-.15-.45-.09-.84.24-1.19,3.92,1.83,6.42,5.01,8.15,8.81,2.11,4.64,3.14,9.57,3.34,14.67.24,6.11-.12,12.18-1.14,18.2-.71,4.21-1.81,8.33-3.5,12.28-.54,1.26-1.27,2.28-2.74,2.52-.29-.31-.68-.58-.85-.95-1-2.21-1.95-4.45-2.92-6.68-.19-.43-.23-.83.09-1.21,1.73-4.5,1.87-9.29,2.67-13.97.66-3.84.33-7.58-.52-11.32-.23-1-.47-2.07.5-2.9Z"/>
      <path class="cls-16" d="m111.41,89.6c2.26-.36,4.26-1.4,6.23-2.47.85-.46,1.9-.34,2.63-1.05,2.85-1.54,5.92-2.54,8.93-3.66,2.44.9,2.04,2.79,1.62,4.68-.04.19-.07.37-.11.56-.8-.03-1.52.22-2.21.61-3.91,2.2-7.62,4.72-11.35,7.2-1.03.68-1.61,1.52-1.66,2.74-.66,0-.97-.42-1.19-.96-.74-2.63-.76-5.54-2.9-7.65Z"/>
      <path class="cls-22" d="m130.84,87.1c-.63-.92-.71-2.03-1.05-3.05-.18-.55-.18-1.16-.57-1.63.04-.43.03-.87.14-1.28.12-.47.56-.82.97-.6,1.06.57,1.99.15,2.98-.12,4.27-1.15,8.57-2.11,13.01-2.28,2.56.06,5.13.12,7.78.19-.4.76-1.06.74-1.61.9-2.48.74-4.99,1.4-7.46,2.2-3.95,1.27-7.82,2.78-11.56,4.6-.85.41-1.76.73-2.64,1.08Z"/>
      <path class="cls-2" d="m187.79,214.11c-.26.34-.45.82-.8.99-1.77.87-2.03,2.38-1.9,4.1,0,.08-.01.17-.02.26-.59-.8-.39-1.78-.62-2.67-.2-.15-.37-.34-.51-.54-.27-.56-.57-1.1-.71-1.71-.53-2.99-.85-3.23-3.81-2.76-1.08.17-2.16.56-3.21-.1-.16-.23-.15-.45.01-.67.84-.67,1.91-.66,2.87-.94.97-.28,1.99-.39,2.99-.58.62.63,1.41.56,2.18.53.78-.03,1.26.33,1.63,1.01.58,1.06,1.26,2.05,1.89,3.08Z"/>
      <path class="cls-27" d="m228.48,98.69c.37,2.22,1.05,4.37,1.33,6.61.24,1.99.3,3.96.02,5.95-.46,3.26-.81,6.53-1.31,9.78-.25,1.62-.7,3.21-1.1,4.81-.2.78-.79,1.1-1.58,1.05-1.15-3.95-3.19-7.48-5.32-10.95-2.67-4.38-5.77-8.43-9.26-12.19-.82-.88-1.72-1.69-2.59-2.53-.46-1.01-.1-1.89.53-2.66,2.69-3.29,5.93-5.84,10-7.24,1.18-.4,2.36-.42,3.55-.02,1.9,1.25,3.36,2.89,4.36,4.94.41.84.91,1.64,1.36,2.46Z"/>
      <path class="cls-3" d="m179.84,161.66c-.04-3.23.84-5.92,2.47-8.37,1.41-2.13,3.25-3.84,5.32-5.31.5-.35,1.01-.82,1.63-.76,1.6.17,3.09-.4,4.65-.5,6.1-.41,11.26,2.72,13.79,8.3,2.59,5.69,1.06,13.49-4.66,17.78-.62.47-1.3.88-1.97,1.27-8.79,5.09-18.96-.66-20.92-9.31-.25-1.12-.28-2.24-.3-3.1Z"/>
      <path class="cls-3" d="m102.84,146.67c9.43.13,14.55,7.27,14.36,14.9-.21,8.52-6.74,14.29-14.66,14.15-7.48-.13-14.62-5.07-14.43-14.33.16-8.12,5.93-14.8,14.73-14.72Z"/>
      <path class="cls-31" d="m206.17,99.27c0,1.42-.81,2.47-1.71,3.41-1.45,1.5-2.97,2.93-4.5,4.34-1.22,1.12-2.58,2.06-4.09,2.77-.63.29-1.27.59-1.93.76-2.71.68-4.83-.44-5.8-3.07-.7-1.9-.97-3.88-.8-5.89.31-3.73.89-7.41,1.95-11.01.05-.17.08-.34.14-.5.6-1.78,1.05-1.95,2.61-.93.94.62,1.84,1.32,2.78,1.94.72.47,1.34,1.13,2.22,1.31,3.83,1.25,6.96,3.43,9.13,6.88Z"/>
      <path class="cls-18" d="m96.2,136.85c-1.32,0-2.6-.1-3.85-.58-.93-.36-1.66-.94-2.2-1.76-.67-1.01-.82-2.05-.32-3.21.74-1.74,1.95-3.11,3.47-4.16,2.52-1.75,5.26-2.99,8.34-3.52,2.18-.37,4.29-.55,6.45.01,1.09.28,1.89.85,2.52,1.72.66.9.82,1.86.41,2.95-.57,1.5-1.42,2.8-2.65,3.81-2.8,2.3-5.98,3.87-9.56,4.54-.85.16-1.73.13-2.6.19Z"/>
      <path class="cls-18" d="m201.13,136.83c-5.08-.51-9.88-1.72-13.58-5.63-.12-.13-.24-.25-.36-.38-2.79-2.89-1.81-6.35,2.33-7.4,1.45-.37,2.95-.35,4.39-.09,2.39.44,4.7,1.16,6.92,2.19,2.02.94,3.6,2.39,5.03,4.03.81.93,1.34,2.03,1.64,3.22.3,1.17.05,1.81-.96,2.43-1.65,1.01-3.38,1.79-5.42,1.62Z"/>
      <path class="cls-11" d="m206.17,99.27c-1.07-.53-2.04-1.17-2.96-1.95-1.49-1.27-3.11-2.39-4.67-3.58-.54-.41-1.17-.72-1.51-1.35,2.31-1.29,4.88-1.78,7.41-2.35,3.47-.77,6.96-1.53,10.54-1.3,2.78.18,5.51.7,7.76,2.55-1.16.37-2.34.67-3.47,1.11-4.52,1.73-8.09,4.64-10.6,8.8-.83-.65-1.67-1.29-2.5-1.94Z"/>
      <path class="cls-27" d="m156.95,169.18q.86-1.29,1.98-1.02c3.72.86,6.23,4.36,6.75,7.22.41,2.24-.09,4.32-1.96,5.86-4.28,2.06-8.6,2.16-12.97.3-1.62-.43-2.51-1.45-2.61-3.14.29-1.41,1.5-1.77,2.6-2.23,1.68-.71,3.15-1.67,4.47-2.97,1.04-1.02,1.21-2.19,1.24-3.49.11-.23.28-.41.5-.53Z"/>
      <path class="cls-12" d="m156.88,169.77c.51.8.52,1.59.07,2.45-1.18,2.23-2.91,3.83-5.27,4.74-1.05.4-2.11.76-3.17,1.14-.19.51-.52.86-1.08.94-3.55-.02-6.52-1.57-9.32-3.57-1.76-1.25-2.31-.99-2.65,1.13-.38,2.34.68,3.93,3.21,4.95,1.25.5,2.81.39,3.61,1.8-4.13,1.54-7.9-.28-9.77-2.26-2.5-2.65-2.47-6.86.04-9.71,1.59-1.8,3.55-3.02,6.01-3.27.74.2,1.06.84,1.47,1.39,3.36,4.62,8.24,5.66,13.19,2.79,1.28-.76,1.74-2.73,3.68-2.52Z"/>
      <path class="cls-31" d="m156.88,169.77c-.9,1.18-1.6,2.55-3.09,3.14-.43-.03-.86.02-1.29.1-6.54,1.18-9.49-.63-11.43-7.01,2.02-1.16,4.3-1.18,6.51-1.41,1.89-.2,3.8-.13,5.66.39.25.07.51.1.75.19,1.91.66,3.09,1.85,2.96,4.02-.02.2-.05.4-.07.59Z"/>
      <path class="cls-31" d="m115.03,97.06c.16.38.32.76.48,1.14.03,2.25.07,4.49.1,6.74.01,1.23-.27,2.41-.76,3.53-.76,1.73-2.01,2.48-3.92,2.39-1.22-.06-2.39-.4-3.49-.94-1.16-.58-2.28-1.23-3.41-1.86,0-.13-.01-.25-.02-.38-.48-.95.03-1.68.59-2.34,2.55-2.95,5.54-5.42,8.52-7.9.53-.44,1.17-.77,1.9-.38Z"/>
      <path class="cls-27" d="m142.27,183.34c-1.58-.04-3.08-.46-4.56-1-3.19-1.17-4.42-4.4-2.85-7.71.26-.54.64-1.03,1.01-1.52.42-.55.77-.56,1.26-.02,2.23,2.47,5.02,3.94,8.22,4.73.74.18,1.58.17,2.17.79.53.94.05,1.69-.45,2.43-.87.6-1.42,1.75-2.74,1.62-.68.22-1.37.45-2.05.67Z"/>
      <path class="cls-19" d="m141.07,166c.8.1,1.58.23,1.67,1.26.3,3.47,3.61,4.86,6.27,5.06.95.07,1.9.02,2.85.02.7,0,1.39.04,1.93.57-4.29,3.07-9.64,2.7-13.33-.91-1.1-1.07-1.79-2.34-1.91-3.9.36-1.28,1.19-1.99,2.52-2.11Z"/>
      <path class="cls-15" d="m146.43,180.65c.36-.68.72-1.35,1.08-2.03.33-.18.67-.35,1-.53.48,1.04,1.07,2,2.06,2.65.57.96,2.31.92,2.11,2.52-.08.41-.03.94-.27,1.22-1.11,1.33-2.64,2.02-4.32,1.8-1.72-.23-3.36-.88-3.73-2.96.55-1,1.54-1.66,2.07-2.68Z"/>
      <path class="cls-28" d="m152.68,183.26c-.79-.76-1.93-1.24-2.11-2.52.17.02.35.02.51.07,3.48,1.28,7.02,1.2,10.61.54.67-.12,1.36-.08,2.04-.11-1.45,1.63-3.32,2.42-5.44,2.6-1.89.16-3.79.15-5.61-.58Z"/>
      <path class="cls-1" d="m146.43,180.65c-.14,1.31-1.09,2.01-2.07,2.68-.01-.22-.03-.44-.04-.66.59-.8,1.29-1.46,2.11-2.02Z"/>
      <path class="cls-9" d="m184.46,216.19c0,.2,0,.4,0,.59-3.04,1.24-6.17,2.25-9.33,3.13-2.6.73-2.79.98-2.31,3.59.09.51.28,1.03.24,1.53-.2,3.04.44,6.02.59,9.03.05,1.02.33,2.04.51,3.06.38,2.61,1.18,5.1,2.07,7.56.77,1.46,1.53,2.93,2.31,4.39.43.81.75.87,1.39.33.07-.06.12-.13.19-.18.68-.38.88-1.63,2.05-1.14.18.99-.54,1.59-1,2.29-2.29,3.39-6.17,4.38-9.86,2.64-2.73-1.28-4.58-3.43-6.03-5.95-1.58-2.76-2.25-5.83-2.6-8.96-.1-.85-.02-1.75.14-2.6.29-1.59.55-1.76,2.46-2.08,1.42-1.33,1.7-2.92,1.18-4.76-.26-.91-.26-1.89-.2-2.86.26-1.78.27-3.47-.21-5.29-.59-2.19-.67-4.54.17-6.79.19-.26.43-.45.74-.56.55-.56,1.12-1.02,1.98-.64.65-.37,1.38-.1,2.06-.25,1.74-.45,3.49-.87,5.3-.95.84-.18,1.67-.39,2.51-.53.93-.16,1.86-.33,2.8-.36,1.82-.06,2.32.39,2.48,2.15.06.68.05,1.37.08,2.05.35.46.09,1.05.32,1.54Z"/>
      <path class="cls-27" d="m74.24,115.89c.02-2.87-.02-5.74.06-8.61.09-3.05.53-6.05,1.52-8.96.6-1.76,1.35-3.42,2.68-4.71.74-.72.96-1.9,2.07-2.27,3.98-.61,6.94,1.64,9.93,3.67,1.58,1.07,2.86,2.52,4.12,3.95.82.93,1.53,1.96.58,3.24-6,6.03-11.14,12.69-14.81,20.41-.52,1.1-1.05,2.21-1.89,3.11-.8.85-1.82.69-2.29-.38-.17-.39-.28-.82-.38-1.24-.66-2.71-1.21-5.44-1.59-8.2Z"/>
      <path class="cls-11" d="m95.2,102.19c0-.72-.21-1.34-.7-1.89-2.86-3.17-5.98-6.01-10.06-7.56-1.28-.49-2.58-.94-3.87-1.41,2.52-1.43,5.2-2.38,8.07-2.85,1.4-.23,2.74-.21,4.14-.04,2.59.32,5.17.64,7.7,1.32,1.17.31,2.33.69,3.49,1.08,1.11.37,1.69,1.17,1.71,2.36-.84,3.36-5.6,6.81-8.5,6.15-.51,1.05-.66,2.36-1.98,2.85Z"/>
      <path class="cls-20" d="m97.17,99.35c.07-.05.13-.11.2-.17.61-.57,1.54.21,2.15-.53.43-.52.99-.95,1.5-1.4,1.55-1.36,3.1-2.7,4.65-4.05.96-.67,1.94-1.32,2.89-2.01.89-.64,1.82-1.21,2.85-1.59,1.65-.06,2.63.76,2.89,2.35.28,1.7.93,3.34.72,5.11-3.45,3.04-6.97,5.99-10.1,9.37-.35.38-.61.84-.91,1.26-2.91-1.69-4.86-4.28-6.53-7.1-.21-.35-.21-.82-.31-1.24Z"/>
      <path class="cls-6" d="m143.29,212.63c1.04,0,2.08-.01,3.12-.02,1.34.66,2.84-.15,4.18.48,2.84,0,5.69.03,8.53,0,.85,0,1.72-.1,2.56-.27,1.28-.27,2.57-.22,3.86-.21.54,0,1.01.18,1.39.58,0,0-.03.03-.03.03-1.31,1.16-2.92,1.48-4.58,1.51-5.19.11-10.39.08-15.58.02-1.24-.02-2.43-.17-3.32-1.17-.24-.29-.28-.6-.13-.94Z"/>
      <path class="cls-8" d="m143.29,212.63c0,.17,0,.33,0,.5-.65,1.02-1.68,1.11-2.72,1.06-2.72-.15-5.45-.27-7.8-1.94-1.01-.25-2.02-.51-3.03-.76-.21-.09-.29-.19-.23-.3.06-.12.12-.17.19-.17.86,0,1.71.11,2.57.24,3.66.54,7.32,1.14,11.01,1.38Z"/>
      <path class="cls-29" d="m118.97,208.95c.44-.04.88-.07,1.32-.11,1.39.37,2.79.75,4.18,1.12.33.14.35.31.05.5-1.36-.19-2.72-.36-4.08-.57-.6-.1-1.15-.37-1.47-.94Z"/>
      <path class="cls-14" d="m176.27,211.33c-1.73.51-3.47.97-5.28,1.14-.35-.14-.35-.28,0-.42,1.67-.68,3.44-.91,5.22-1.05,0,.11.03.22.05.33Z"/>
      <path class="cls-7" d="m129.71,211.01c.01.16.02.31.04.47-1.45-.27-2.96-.27-4.33-.93.35-.36.72-.34,1.12-.08,1.09,0,2.18.01,3.18.53Z"/>
      <path class="cls-16" d="m150.59,213.08c-.84,0-1.68.01-2.53.02-.6,0-1.18-.09-1.65-.49.84,0,1.68,0,2.53,0,.6,0,1.18.07,1.66.48Z"/>
      <path class="cls-30" d="m126.53,210.47c-.37.03-.74.05-1.11.08-.3-.03-.6-.06-.9-.09-.02-.17-.03-.33-.05-.5.72.02,1.48-.09,2.06.51Z"/>
      <path class="cls-25" d="m171,212.05c0,.14,0,.28,0,.42-.69.16-1.38.28-2.08.06.59-.59,1.36-.44,2.08-.48Z"/>
      <path class="cls-4" d="m167.31,226.18c.19,1.72.39,3.43.56,5.15.04.43.04.86.02,1.29-.03.49-.3.82-.8.84-.6.03-1.21-.02-1.81-.03-.23-.1-.46-.27-.7-.3-1.86-.19-3.72-.35-5.58-.52-4.58-.49-9.17-.8-13.77-.58-3.99.19-7.95.65-11.87,1.45-1.72-1.37-1.03-3.29-1.07-5-.04-1.78.23-3.56,1.26-5.11.92-.81,2.04-1,3.18-.84,8.63,1.23,17.13-.32,25.65-1.25,4.46-.49,4.56-.51,4.71,3.89.01.35.05.69.22,1Z"/>
      <path class="cls-5" d="m176.24,244.69c-.63-.45-1.22-.94-1.65-1.59-.98-1.47-1.68-2.96-.74-4.74.19-.37.22-.82.32-1.23.18-.19.36-.38.54-.56,1.95-1.99,2.98-1.85,4.37.59.77,1.35,1,2.79.66,4.29-.42,1.85-1.36,3.21-3.5,3.25Z"/>
      <path class="cls-16" d="m167.31,226.18c-.56-.66-.49-1.47-.48-2.24,0-1.71-.62-2.18-2.32-1.81-1.37.29-2.76.37-4.13.56-2.83.4-5.66.9-8.53.9-.43,0-.88-.04-1.3.06-3.79.86-7.63.39-11.45.39-1.72,0-3.42-.64-5.18-.45-.5-.49-.48-1.03-.11-1.58.16-1.79.31-3.57.49-5.36.18-1.71-.15-3.24-1.52-4.4,3.51.3,6.98,1.02,10.52.88,2.3.51,4.64.56,6.98.53,2.86-.03,5.73.02,8.6,0,1.82-.01,3.63.07,5.44-.37.82-.2,1.72-.06,2.59-.07.05,3.03-.07,6.06.36,9.08.18,1.27.04,2.59.04,3.89Z"/>
      <path class="cls-21" d="m133.81,222c.04.53.07,1.05.11,1.58-.27,3.3-.76,6.58-.56,9.91-.77,1.88-.62,3.91-1.03,5.85-.64,3.06-1.26,6.1-3.1,8.75-1.62,2.34-2.69,2.77-4.12-.2-.56-1.16-1.59-2.09-1.69-3.47,1.38-1.19,3.28-1.89,3.15-4.32-.16-3.01-1.32-3.85-3.97-2.55-.4.19-.79.37-1.23.14-.09-1.9-.16-3.79-.43-5.69-.3-2.12-.36-4.33.17-6.47.3-1.2.17-2.42.22-3.63.07-1.81.28-1.97,1.99-1.61,2.12.44,4.26.79,6.36,1.33,1.37.35,2.74.38,4.13.37Z"/>
      <path class="cls-10" d="m121.38,237.69c.4-.55.74-1.18,1.23-1.65,1.05-1.01,2.38-.98,3.5-.02.47.4.78.91,1.05,1.46.5,1.05.58,2.16.49,3.29-.22,2.68-1.45,3.74-4.22,3.65-1.49-1.32-2.01-3.05-2.06-4.97-.01-.59,0-1.18.01-1.77Z"/>
      <path class="cls-16" d="m116.07,232.97c-.34-.43-.46-.92-.46-1.45,0-3.2,0-6.41,0-9.61,0-.53.12-1.03.45-1.46,0,4.17,0,8.35.01,12.52Z"/>
      <path class="cls-21" d="m184.46,216.19c-.37-.46-.38-.99-.32-1.54.37.46.45.98.32,1.54Z"/>
      <path class="cls-17" d="m189.82,150.43c5.53-2.81,13.06,1.52,13.82,6.98-.43.54-1.11.38-1.66.6-.89.37-1.74.82-2.42,1.5-1.28,1.27-1.06,2.98.43,4,.68.47,1.45.53,2.22.69,1.34.28,1.41.44.8,1.74-.29.62-.5,1.3-1.11,1.72-5.34,2.01-9.71,1.28-12.85-2.15-3.49-3.81-3.08-11.7.78-15.08Z"/>
      <path class="cls-13" d="m189.82,150.43c-.61,2.07-1.25,4.13-1.81,6.21-.44,1.61-.36,3.23.03,4.86.76,3.19,4.03,6.1,7.79,6.12,1.55,0,3.11.19,4.63-.3.53-.17,1.02-.07,1.43.34-2.38,3.49-5.84,4.85-9.87,4.52-4.24-.35-7.65-2.36-9.34-6.44-2.4-5.78-.14-11.61,4.9-14.97.72-.48,1.45-.48,2.24-.34Z"/>
      <path class="cls-17" d="m100.41,150.35c1.1-.85,2.4-.99,3.7-.9,4.85.31,10.51,3.33,11.23,10.36.22,2.18-.03,4.33-1.16,6.3-5.92,4.08-13.14,1.9-15.76-4.77v-1.03c-1.04-3.66-.71-7.04,1.99-9.96Z"/>
      <path class="cls-13" d="m98.42,161.34c.34-.1.7-.22.94.13.44.65.85,1.31,1.24,1.99.49.85,1.16,1.51,2.03,1.97,2.51,1.33,5.09,2.16,7.99,1.37,1.16-.32,2.32-.77,3.56-.69-1.33,3.55-4.22,5.33-7.63,6.08-6.73,1.49-11.76-2.7-13.19-7.17-.08-.24-.07-.51-.12-.87,2.13-.2,4.23-.5,5.18-2.81Z"/>
      <path class="cls-23" d="m100.41,150.35c-.24.99-.44,2-.71,2.98-.5,1.81-.97,3.62-.85,5.53.03.52-.1,1.01-.42,1.44-1.05-2.05-3.07-2.34-5.18-2.65.14-1.33.79-2.32,1.43-3.31.66-1.02,1.34-2.09,2.4-2.69,1.03-.58,2.22-.88,3.34-1.31Z"/>
    </g>
    <g>
      <path class="cls-26" d="m121.38,82.97c3.07-1.06,5.99-2.18,8.98-3.08,5.19-1.57,10.54-2.38,15.94-2.57,4.52-.16,9.06-.09,13.58.17,7.8.45,15.28,2.38,22.54,5.54,2.91-1.69,5.98-3.1,9.11-4.38,5.02-2.05,10.18-3.6,15.54-4.37,4.86-.69,9.71-.65,14.51.69,5.11,1.43,9.01,4.41,11.8,8.9,2,3.22,3.22,6.74,4.07,10.41.71,3.06,1.11,6.17,1.22,9.31.28,7.71-.44,15.31-2.48,22.76-1.02,3.7-2.38,7.27-4.39,10.63,2.45,7.64,5.96,14.65,11.8,20.31.87.85,1.76,1.7,2.53,2.64,1.75,2.14,1.42,4.22-.91,5.76-.93.61-1.98,1.03-3.08,1.59.24.37.42.65.6.92,1.44,2.13,1.42,4.42.65,6.75-.63,1.93-1.7,3.64-3.05,5.13-1.86,2.07-3.85,4.02-5.81,6.01-.6.61-1.26,1.16-2.05,1.89.49.29.82.51,1.18.69,2.49,1.25,4.99,2.46,7.46,3.75.59.31,1.09.84,1.52,1.36.27.33.24.88-.16,1.17-.25.18-.68.34-.94.25-.64-.24-1.25-.59-1.84-.96-2.88-1.81-5.9-3.33-9.22-4.68-1.28.91-2.61,1.87-3.96,2.8-1.35.94-2.72,1.86-4.08,2.78.21.92,1.04.93,1.61,1.2,6.83,3.16,13.2,7.04,18.94,11.93.53.45,1.06.91,1.52,1.43.43.49.36,1.31-.07,1.66-.46.38-1.01.37-1.46.08-.58-.37-1.09-.86-1.61-1.32-5.73-5.03-12.05-9.16-18.95-12.4-.55-.26-1.1-.53-1.66-.76-.24-.1-.5-.14-.9-.24-2.56,1.39-5.22,2.82-8.1,4.37.67.6,1.29.86,1.87,1.17,4.86,2.58,9.49,5.5,13.62,9.16.46.4.94.79,1.33,1.25.27.32.45.74.56,1.15.2.73-.54,1.46-1.23,1.21-.48-.18-.95-.43-1.37-.73-.63-.46-1.21-1-1.8-1.51-4.24-3.65-8.83-6.79-13.7-9.53-.6-.34-1.23-.64-1.91-.99-7.32,3.23-14.87,5.83-22.78,7.94.29.44.47.82.75,1.11,2.93,3.01,5.45,6.34,7.64,9.92,6.94,11.33,12.71,23.19,16.24,36.06.51,1.84.94,3.71,1.27,5.6.36,2.09-.02,2.71-2.06,3.19-2.37.55-4.77,1-7.18,1.36-9.91,1.47-19.89,2.31-29.9,2.8-13.93.68-27.87.5-41.81.26-7.75-.13-15.49-.62-23.2-1.49-5.36-.61-10.7-1.37-15.97-2.61-.34-.08-.67-.2-1-.29-2.28-.63-2.55-.91-2.17-3.3.31-1.97.78-3.93,1.3-5.85,2.86-10.48,7.4-20.25,12.61-29.73,2.1-3.82,4.32-7.57,7.02-11,1.72-2.18,3.59-4.23,5.51-6.47-1.75-.88-3.7-1.16-5.52-1.81-1.8-.64-3.63-1.2-5.43-1.85-1.88-.68-3.74-1.41-5.59-2.16-1.77-.72-3.52-1.49-5.41-2.3-.54.26-1.16.53-1.76.86-5.62,3.02-10.86,6.59-15.69,10.77-.72.62-1.52,1.15-2.32,1.67-.38.24-.83.23-1.21-.11-.46-.42-.49-.99-.2-1.42.42-.64.95-1.24,1.52-1.75,4.44-3.97,9.46-7.1,14.74-9.83.76-.39,1.5-.81,2.48-1.34-2.88-1.6-5.5-3.06-8.12-4.52-8.48,3.51-16.18,8.19-23.03,14.24-.52.46-1.04.94-1.63,1.29-.46.27-1.02.26-1.44-.19-.41-.44-.41-1.02-.08-1.44.48-.61,1.07-1.14,1.66-1.64,6.01-5.12,12.71-9.13,19.91-12.33.78-.35,1.55-.72,2.53-1.18-2.8-2-5.4-3.87-8.07-5.78-.57.18-1.15.33-1.7.55-3.32,1.32-6.5,2.92-9.54,4.82-.58.36-1.21.7-1.85.92-.25.08-.72-.11-.9-.33-.18-.22-.28-.75-.14-.94.4-.54.85-1.13,1.43-1.43,2.62-1.37,5.28-2.66,7.94-3.96.85-.42,1.74-.77,2.97-1.3-.77-.64-1.39-1.11-1.96-1.63-2.12-1.94-4.21-3.94-5.86-6.3-.89-1.28-1.73-2.63-2.33-4.06-1.04-2.46-.99-4.92.61-7.21.15-.21.26-.44.46-.77-.48-.24-.94-.45-1.38-.7-.75-.43-1.57-.79-2.23-1.33-1.61-1.34-1.85-3.18-.66-4.88.49-.71,1.09-1.36,1.73-1.95,6.32-5.83,10.29-13.08,12.86-21.29-3.23-5.49-5.02-11.56-6-17.88-1.28-8.31-1.6-16.64.27-24.93.61-2.73,1.47-5.37,2.67-7.9,3.61-7.61,9.74-11.57,18.03-12.36,4.73-.45,9.39-.03,14,1.04,7.08,1.65,13.77,4.26,20.23,7.88Zm-4.68,128.1c-.16,0-.39-.06-.45.02-.65.81-1.26,1.64-1.89,2.47-2.33,2.36-4.21,5.09-5.99,7.86-7.16,11.12-12.57,23.04-16.16,35.77-.63,2.24-1.06,4.54-1.58,6.78,3.41,1.47,14.52,3.33,17.84,3,.06-.39.14-.81.19-1.23.79-7.31,2.55-14.39,5.46-21.14,1.06-2.47,1.92-4.81,1.07-7.49-.1-.32-.06-.69-.09-1.04-.39-5.83-.33-11.66.43-17.46.11-.86.1-1.73.15-2.59.57-1.62,1.02-3.25.98-4.99.12-.09.23-.18.35-.27-.09-.05-.18-.09-.27-.14l-.02.45Zm109.77-86.31c-.04.82.41,1.11,1.17,1.07-.21.73.08,1.35.36,2,.86,2,1.68,4.01,2.52,6.01.12.27.26.54.56,1.15.33-.72.52-1.08.66-1.46,2.15-5.82,3.7-11.77,4.31-17.96.64-6.54.62-13.04-.74-19.49-.79-3.76-1.96-7.39-3.96-10.72-2.6-4.33-6.35-7.06-11.28-8.19-4.4-1.01-8.81-.97-13.23-.25-7.1,1.16-13.76,3.65-20.23,6.7-.34.16-.63.41-1.05.69,4.11,2.32,8.02,4.53,11.84,6.69,5.95-2.6,9.96-3.21,15.04-3.71,2.1-.2,4.19.02,6.23.48,3.73.85,6.68,2.88,8.7,6.17,1.01,1.64,1.75,3.4,2.25,5.26,2.06,7.7,1.64,15.33-.64,22.91-.16-.53-.33-1.07-.49-1.6.08-.69.12-1.39.25-2.07.87-4.83,1.06-9.67.28-14.53-.49-3.01-1.26-5.95-2.8-8.63-2.05-3.56-5.15-5.53-9.19-6.11-3.85-.55-7.63-.02-11.38.81-2.17.48-4.35,1.02-6.54,2.15.56.48.99.87,1.45,1.24,2.17,1.74,4.4,3.41,6.52,5.2,8.49,7.21,14.77,16.08,19.4,26.17Zm-151.07-4.25c-.16.54-.33,1.07-.49,1.61-1.9-6.07-2.41-12.28-1.57-18.57.4-3.03,1.18-5.97,2.64-8.69,1.96-3.65,4.93-6.04,8.96-7.02,2.03-.49,4.12-.75,6.22-.56,2.68.24,5.38.47,7.98,1.23,2.57.75,5.1,1.6,7.66,2.41,3.8-2.16,7.64-4.35,11.62-6.61-.5-.3-.84-.55-1.22-.73-4.89-2.29-9.88-4.3-15.13-5.61-5.09-1.27-10.23-1.97-15.51-1.32-6.71.83-11.76,4.02-14.82,10.13-.62,1.24-1.16,2.53-1.64,3.83-1.47,4.03-2.24,8.23-2.53,12.49-.72,10.66.93,20.98,4.73,30.96.12.31.35.58.63,1.03,1.22-2.86,2.36-5.55,3.5-8.23.31-.57.62-1.13.93-1.7,3-6.61,6.72-12.78,11.4-18.35,4.11-4.89,8.86-9.11,13.99-12.91.68-.5,1.32-1.05,2.1-1.67-.38-.24-.56-.39-.77-.47-3.08-1.24-6.29-2.04-9.58-2.47-2.59-.35-5.19-.53-7.81-.1-3.63.59-6.54,2.27-8.57,5.38-1.01,1.54-1.74,3.22-2.24,4.98-1.33,4.66-1.8,9.4-1.31,14.22.23,2.25.56,4.49.84,6.73Zm55.89-33.38c.85,1.99,1.68,4,2.57,5.98,1.39,3.1,3.1,6.03,5.27,8.66,1.28,1.55,2.72,2.93,4.41,4.04,4.15,2.72,8.61,2.72,12.68-.13,1.34-.94,2.54-2.11,3.67-3.3,1.74-1.84,3.08-3.99,4.27-6.22,2.35-4.39,3.96-9.07,5.25-13.86.09-.32.05-.67.06-.96-.21-.16-.34-.32-.49-.36-5.7-1.32-11.49-2.02-17.32-2.05-4.08-.02-8.16.42-12.19,1.19-2.9.55-5.77,1.23-8.65,1.84-.44-.07-.8.02-1.02.46-.18.35-.39.69-.59,1.04-.41-.72-.99-.52-1.59-.3-4.34,1.6-8.5,3.56-12.52,5.85-.43.24-.8.59-1.06.79.65,2.28,1.32,4.34,1.81,6.45.72,3.06,1.16,6.17.84,9.33-.11,1.11-.37,2.25-.83,3.26-.96,2.09-2.67,3.12-5.03,3.03-1.7-.07-3.24-.64-4.69-1.47-2.69-1.52-4.9-3.6-6.81-6.02-.64-.81-1.25-1.63-1.86-2.43-.25.08-.44.09-.56.19-.46.39-.92.8-1.35,1.23-4.41,4.27-8.1,9.1-11.23,14.37-3.34,5.62-6.19,11.49-8.54,17.59-1.19,3.09-2.37,6.17-3.64,9.22-2.31,5.53-5.58,10.42-9.9,14.6-.69.67-1.38,1.33-2.02,2.04-.33.37-.56.84-.89,1.36.44.42.75.88,1.18,1.08.94.43,1.94.74,2.93,1.05.66.21,1.37.28,2.02.52,1.01.38,1.28,1.55.55,2.35-.41.45-.91.81-1.37,1.21-1.47,1.28-1.92,2.92-1.34,4.73.37,1.14.91,2.27,1.58,3.26,2.48,3.63,5.68,6.55,9,9.24,4.46-1.06,8.73-2.23,13.07-3.06,4.31-.83,8.68-1.17,13.08-.4-1.22.45-2.47.65-3.74.79-6.33.7-12.55,1.91-18.65,3.76-.44.13-1.02.15-1.23.89,2.28,1.83,4.73,3.46,7.22,5.05.58.37,1.15.24,1.75.06,1.66-.5,3.33-.97,5-1.45.48.16.89.05,1.19-.38.31-.05.61-.09.91-.14.55.16,1.1.32,1.65.48-.19.05-.38.11-.58.16-.43-.15-.73.01-.94.39-2.02.76-4.05,1.52-6.37,2.39,2.77,1.79,5.43,3.19,8.15,4.39,1.05-.45,1.99-.89,2.97-1.26,3.08-1.16,6.17-2.28,9.26-3.42.18.15.35.3.53.45-3.42,1.68-6.84,3.36-10.31,5.07,3.77,2.8,20.69,8.34,33.27,10.49,18.53,3.16,36.94,2.38,55.14-2.49,9.45-2.53,18.35-5.75,20.28-7.43-3.87-1.9-7.68-3.77-11.48-5.65.18-.15.35-.3.53-.44,4.05,1.06,7.82,2.86,11.67,4.45.71.3,1.42.59,2.18.9,2.36-1.24,4.67-2.44,6.97-3.67.33-.18.56-.52.95-.89-2.71-1.01-5.23-1.96-7.75-2.9-.21-.38-.51-.54-.93-.39-.19-.05-.39-.11-.58-.16.55-.16,1.1-.32,1.65-.48.31.05.61.09.92.14.3.43.7.53,1.18.37,2.08.61,4.2,1.13,6.23,1.88,1.21.45,2.14.32,3.15-.39,1.85-1.31,3.75-2.54,5.61-3.83.37-.26.64-.66,1-1.05-3.85-1.49-10.3-3.2-14.54-3.85-3.36-.51-6.72-.97-10.08-1.47-.38-.06-.75-.23-1.13-.34,9.72-1.18,18.86,1.29,28.04,4.25,3.8-3.11,7.46-6.31,10.21-10.41.48-.72.86-1.52,1.18-2.32.84-2.09.44-3.92-1.3-5.41-.46-.4-.95-.78-1.34-1.23-.62-.72-.37-1.78.53-2.17.47-.21,1.01-.24,1.5-.4,1.16-.37,2.33-.7,3.44-1.18.5-.21.87-.74,1.29-1.12-.54-1.35-1.55-2.09-2.42-2.91-4.89-4.64-8.45-10.15-10.95-16.38-.78-1.94-1.52-3.89-2.26-5.85-2.58-6.86-5.65-13.48-9.41-19.78-3.42-5.72-7.49-10.91-12.39-15.44-.36-.34-.77-.63-1.23-1.01-.49.72-.86,1.3-1.26,1.85-2.05,2.86-4.46,5.35-7.52,7.15-1.36.8-2.78,1.44-4.38,1.58-3,.28-5.1-1.02-6.01-3.87-.34-1.07-.55-2.22-.56-3.33-.03-4.57.82-9,2.38-13.29.23-.63.5-1.24.72-1.79-.25-.26-.34-.42-.48-.51-5.23-2.99-10.69-5.45-16.48-7.13-.46-.13-.95-.17-1.49-.27-.16.58-.26,1-.38,1.41-.72,2.6-1.31,5.24-2.17,7.79-1.51,4.48-3.59,8.68-6.61,12.37-1.73,2.11-3.72,3.91-6.18,5.14-3.67,1.84-7.37,1.85-11.06.09-1.99-.95-3.71-2.29-5.2-3.9-4.28-4.64-7.06-10.09-8.64-16.17.21-.41.41-.81.62-1.22Zm54.31,156.35c-.03-.32-.07-.63-.11-.99-.86.29-.91.86-.84,1.49-.34.8-.6,1.65-1.04,2.39-.7,1.19-1.38,2.45-2.31,3.45-2.96,3.18-7.19,3.03-10.04-.26-1.04-1.2-1.76-2.58-2.32-4.06-.86-2.3-1.33-4.69-1.58-7.12-.15-1.46-.33-2.9-.6-4.27-8.81-1.57-27.37-1.54-32.44.06-.11.72-.23,1.49-.33,2.26-.22,1.64-.36,3.29-.66,4.92-.43,2.41-1.13,4.74-2.45,6.84-3.22,5.11-8.7,5.29-12.1.33-.87-1.27-1.42-2.78-2.09-4.19-.18-.38-.2-.87-.87-.87-2.76,7.73-4.85,15.64-5.74,23.96,4.34.59,8.6.85,12.85,1.06,11.32.55,22.64.61,33.97.52,10.81-.08,21.59-.62,32.35-1.58.51-.05,1.01-.17,1.78-.31-1.11-8.1-3.27-15.87-5.42-23.64Zm24.68,20.89c-.56-13-16.04-44.96-25.67-53.28-.5.36-.13.78-.05,1.14,1.83,8.77,2.28,17.59,1.16,26.48-.13,1,.04,1.86.49,2.75.54,1.08,1.01,2.22,1.39,3.37,1.81,5.45,3.27,11,4.36,16.64.34,1.78.57,3.58.88,5.54,5.86-.64,11.62-1.35,17.44-2.66Zm-44.04-50.14c-5.37.16-10.49.35-15.61.45-5.2.1-10.37-.46-15.55-.95,0,1.39.04,2.59,0,3.79-.14,3.91-.32,7.83-.46,11.74-.04,1.08-.41,2.19.02,3.15,2.83-.31,5.5-.7,8.19-.87,2.61-.16,5.23-.17,7.84-.12,2.7.05,5.4.18,8.08.42,2.64.23,5.26.62,8.01.96-.3-6.23-1.09-12.29-.5-18.56Zm-48.3-3.74c-.15,1.36-.23,2.57-.41,3.76-.82,5.34-1.1,10.72-1.03,16.11.05,3.74.25,7.48,1.22,11.11.42,1.58.96,3.17,1.71,4.63.58,1.13,1.44,2.2,2.4,3.03,1.93,1.67,4.31,1.48,6.07-.35.59-.62,1.13-1.35,1.48-2.12.57-1.26,1.06-2.57,1.4-3.91.95-3.72,1.19-7.55,1.5-11.36.37-4.59.63-9.19.89-13.79.07-1.29.01-2.6.01-3.92-.1-.08-.23-.25-.38-.28-4.84-.96-9.68-1.9-14.86-2.92Zm65.18.7c-5.09.93-10.09,1.84-15.2,2.77,0,.83-.03,1.6,0,2.36.29,7.38.82,14.75,1.65,22.09.25,2.24.63,4.47,1.44,6.6.5,1.31,1.1,2.56,2.06,3.6,1.88,2.04,4.43,2.24,6.46.34.93-.87,1.77-1.96,2.31-3.1.74-1.55,1.29-3.22,1.7-4.9.8-3.3,1.03-6.68,1.13-10.08.18-6.28-.52-12.49-1.26-18.71-.04-.32-.19-.63-.29-.97Zm7.19-121.38c-.5,2.33-.98,4.26-1.33,6.21-.53,3-1.03,6.01-.77,9.07.08.94.24,1.91.58,2.79.65,1.73,1.79,2.41,3.62,2.38,1.25-.02,2.38-.42,3.48-.98,1.72-.88,3.23-2.05,4.61-3.39,1.37-1.33,2.68-2.73,4-4.12.33-.35.56-.8.86-1.24-4.61-4.11-9.51-7.54-15.04-10.73Zm-92.24,11.41c2.1,2.19,3.95,4.38,6.22,6.14.96.74,1.99,1.41,3.05,1.98.75.4,1.61.69,2.45.83,2.65.44,4.2-.54,4.79-3.16.3-1.34.46-2.76.38-4.13-.25-4.17-1.01-8.26-2.08-12.31-3.28,1.29-10.98,6.8-14.82,10.65Z"/>
      <path class="cls-26" d="m130.82,81.97c-.46.43-.64.91-.45,1.56.34,1.19.62,2.4.92,3.6-.21.41-.41.81-.62,1.22-.64-1.58-1.3-3.16-1.45-4.88.2-.34.41-.68.59-1.04.22-.44.58-.53,1.02-.46Z"/>
      <path class="cls-26" d="m75.4,120.51c.43,1.51.85,3.02,1.29,4.58.18.02.42.05.67.09l-.93,1.7c-.51-1.58-1.02-3.17-1.52-4.75.16-.54.33-1.07.49-1.61Z"/>
      <path class="cls-26" d="m226.47,124.76c.22.08.45.16.74.26.44-1.53.86-3.02,1.29-4.51.16.53.33,1.07.49,1.6-.2,1.33-.5,2.62-1.34,3.72-.76.04-1.2-.25-1.17-1.07Z"/>
      <path class="cls-26" d="m207.11,191.6c-.87-.2-1.81-.26-2.66-1.34,1.65.28,3.06.06,4.31.86-.55.16-1.1.32-1.65.48Z"/>
      <path class="cls-26" d="m92.52,191.12c1.17-.86,2.62-.39,4.03-.66-.23.23-.42.55-.7.67-.54.22-1.12.32-1.68.47-.55-.16-1.1-.32-1.65-.48Z"/>
      <path class="cls-26" d="m194.09,194.7c-.5-.09-1.02-.17-1.28-.78.7-.37,1.29-.25,1.81.33-.18.15-.35.3-.53.44Z"/>
      <path class="cls-26" d="m106.66,194.25c.51-.58,1.1-.7,1.81-.33-.27.61-.78.69-1.28.78-.17-.15-.35-.3-.53-.45Z"/>
      <path class="cls-26" d="m90.42,191.64c.32-.38.71-.51,1.19-.38-.3.43-.7.53-1.19.38Z"/>
      <path class="cls-26" d="m209.67,191.26c.48-.13.87,0,1.18.37-.48.16-.89.06-1.18-.37Z"/>
      <path class="cls-26" d="m93.59,191.76c-.31.13-.63.26-.94.39.21-.38.51-.54.94-.39Z"/>
      <path class="cls-26" d="m208.62,192.15c-.31-.13-.62-.26-.94-.39.43-.15.73.01.94.39Z"/>
      <path class="cls-26" d="m102.77,176.58c-8.52,0-15.49-6.97-15.37-15.47.12-8.93,7.18-15.41,15.54-15.3,8.9.12,15.23,7.15,15.25,15.34.02,8.94-7.25,15.47-15.42,15.44Zm13.81-18.33c-.21-1.34-.52-2.65-1.46-3.71-.96-1.95-2.25-3.62-4.2-4.68-7-5.53-18.79-2.35-21.49,7.28-.8,1.51-.8,3.12-.52,4.75.12,1.03.1,2.1.38,3.08,3.18,11.04,16.5,13.23,23.18,6.3,2.03-1.6,3.27-3.67,3.74-6.22.17-.47.47-.94.47-1.42.02-1.79-.05-3.59-.09-5.38Z"/>
      <path class="cls-26" d="m178.79,161.09c-.03-7.72,6.13-15.35,15.55-15.28,7.87.05,15.17,6.01,15.21,15.36.04,9.64-7.86,15.47-15.41,15.42-8.54-.05-15.4-6.96-15.35-15.5Zm1.52,2.51c.06.71,0,1.47.58,2.03.63,2.29,1.74,4.26,3.69,5.69,3.58,3.54,7.96,4.59,12.71,3.52,4.74-1.08,8.26-3.87,9.85-8.68.5-.45.56-1.03.51-1.64v.02c.59-.81.49-1.76.51-2.67.02-1.18-.03-2.35-.05-3.53.02-.6.15-1.23-.46-1.66-.33-.61-.61-1.24-.98-1.82-.7-1.09-1.35-2.24-2.21-3.19-5.43-5.96-14.71-5.82-19.81-.71-2.53,1.97-3.81,4.63-4.28,7.74-.73,1.63-.66,3.27-.05,4.91Z"/>
      <path class="cls-26" d="m138.03,167.52c.44-1.27,1.5-1.91,2.61-2.38,1.11-.47,2.29-.85,3.48-1.02,2.84-.41,5.72-.43,8.57-.08.85.1,1.72.31,2.51.65,1.3.54,2.46,1.3,2.81,2.82,0,.6,0,1.2,0,1.81-.16,1.64-1.28,2.62-2.47,3.5-1.69,1.26-3.6,2.11-5.63,2.67-.39.11-.77.24-1.22.38.61,3.57,2.4,6.05,5.6,7.47,0,.17,0,.34,0,.52h0c-.72-.15-1.44-.3-2.16-.46-1.41-.6-2.18-1.82-2.99-3.01-.37-.55-.7-1.13-1.05-1.69-.23-.26-.46-.51-.7-.77.07-.68.14-1.36.22-2.15-.83-.19-1.58-.35-2.33-.52-1.8-.42-3.47-1.13-4.95-2.25-.97-.74-1.91-1.51-2.26-2.76-.02-.9-.04-1.81-.06-2.71Zm10.84-2.14c-1.41.08-2.63.1-3.84.24-1.64.19-3.26.49-4.68,1.43-1.47.97-1.72,2.17-.55,3.48,2.17,2.43,4.95,3.72,8.2,3.94.59.04,1.22-.07,1.79-.25,1.75-.54,3.38-1.35,4.81-2.52.47-.38.91-.82,1.26-1.3,1.29-1.73.89-3.38-1.05-4.21-.78-.33-1.66-.53-2.51-.63-1.2-.14-2.42-.14-3.44-.18Z"/>
      <path class="cls-26" d="m95.33,137.76c-1.07-.26-2.65-.45-4.07-1.04-2.62-1.1-3.43-3.44-2.3-6.03.57-1.3,1.47-2.37,2.54-3.28,3.85-3.29,8.38-4.91,13.39-5.11,1.19-.05,2.45.18,3.6.52,3.61,1.06,4.8,4.21,2.75,7.36-.7,1.08-1.64,2.05-2.63,2.87-2.81,2.32-6.1,3.66-9.67,4.28-1.03.18-2.07.25-3.6.43Zm.02-1.42c5.11-.26,9.3-1.73,12.9-4.75,1.01-.85,1.84-1.86,2.34-3.1.65-1.6.26-2.99-1.27-3.77-.98-.5-2.12-.88-3.21-.94-4.99-.3-9.45,1.22-13.33,4.35-.93.75-1.73,1.74-2.34,2.77-1.24,2.09-.54,3.96,1.77,4.78,1.13.4,2.36.51,3.14.67Z"/>
      <path class="cls-26" d="m201.31,137.69c-4.97-.26-9.37-1.7-13.16-4.77-1.29-1.05-2.41-2.27-3.03-3.86-.94-2.39-.18-4.57,2.11-5.73,1.66-.84,3.49-1.13,5.33-1.02,3.99.25,7.7,1.42,11.01,3.67,1.14.78,2.19,1.74,3.12,2.75.63.68,1.13,1.56,1.46,2.44.84,2.21.09,4.13-1.95,5.34-1.56.93-3.31.99-4.89,1.18Zm-8.92-14c-1.42-.04-2.8.07-4.11.64-2.11.91-2.8,2.68-1.65,4.67.6,1.03,1.41,2.01,2.32,2.78,3.15,2.66,6.88,4.03,10.96,4.46,1.74.18,3.49.08,5.13-.66,2.01-.9,2.57-2.52,1.61-4.5-.58-1.2-1.46-2.17-2.48-3-3.44-2.77-7.41-4.12-11.78-4.39Z"/>
      <path class="cls-26" d="m138.03,167.52c.02.9.04,1.81.06,2.71-.28-.51-.56-1.01-.86-1.55-2.66.98-4.54,2.69-5.62,5.21-1.4,3.25-.42,6.26,2.59,8.1,1.51.93,3.17,1.35,4.94,1.46,3.29.19,5.72-1.12,7.34-3.97.3-.52.61-1.03.92-1.55.23.26.46.51.7.77-.62,2.16-2.32,3.54-3.71,5.16-.21.02-.42.04-.62.07-3.27,1.32-6.46.99-9.52-.6-1.05-.54-2.05-1.33-2.82-2.23-1.49-1.73-2.02-3.8-1.43-6.06.95-3.63,3.13-6.1,6.77-7.21.41-.13.84-.19,1.27-.29Z"/>
      <path class="cls-26" d="m158.01,169.31c0-.6,0-1.2,0-1.8,2.62.3,4.82,1.4,6.46,3.49,4.33,5.53,1.66,11.3-3.42,12.76-.39-.18-.78-.36-1.17-.54.9-.48,1.85-.9,2.7-1.46,2.14-1.41,3.06-3.41,2.75-5.97-.38-3.12-3.35-6.5-6.34-7.14-.53-.12-.71.38-.99.67Z"/>
      <path class="cls-26" d="m143.77,183.91c.21-.02.42-.04.62-.07.13.11.28.21.39.33,2.17,2.36,4.68,2.49,6.99.38.37-.33.43-.72.36-1.16.72.15,1.44.31,2.16.46,0,.16,0,.31,0,.47-.74-.11-1.25.1-1.69.8-.81,1.32-2.12,1.96-3.65,2.08-1.93.16-3.54-.44-4.59-2.16-.22-.36-.4-.76-.6-1.13Z"/>
      <path class="cls-26" d="m88.55,119.03c.43-2.75,1.09-5.38,3.98-7.06-.11.53-.13.89-.25,1.22-.83,2.19-2.06,4.13-3.72,5.85Z"/>
      <path class="cls-26" d="m94.12,119c.54-.98,1.05-1.98,1.64-2.94.58-.95,1.24-1.86,2.57-2.39-.06.47,0,.84-.15,1.06-1.16,1.61-2.35,3.19-3.54,4.78-.17-.17-.34-.34-.52-.5Z"/>
      <path class="cls-26" d="m77.09,146.33c-.09-3.53.62-5.5,2.4-6.65-.19,2.45-1.09,4.48-2.4,6.65Z"/>
      <path class="cls-26" d="m83.86,131.29c.5-2.17.79-4.4,2.69-6.09.13.38.31.61.26.78-.61,1.98-1.6,3.76-2.95,5.31Z"/>
      <path class="cls-26" d="m85.35,134.91c-.39,2.44-1.35,4.15-2.29,6.17-.18-1.39-.15-1.9.34-3.35.32-.95.42-2.06,1.95-2.82Z"/>
      <path class="cls-26" d="m74.53,155.46c.43-2.18.74-2.88,2.17-4.81.45-.05.71.25.61.6-.39,1.35-1.42,2.84-2.79,4.22Z"/>
      <path class="cls-26" d="m154.29,184.32c0-.16,0-.31,0-.47h0c1.57,0,3.14,0,4.7,0h0c0,.17,0,.32,0,.48-1.57.51-3.15.53-4.72,0Z"/>
      <path class="cls-26" d="m94.12,119c.17.17.34.34.52.5-.25.5-.39,1.14-1.24.91-.06-.64.23-1.07.72-1.42Z"/>
      <path class="cls-26" d="m159.89,183.21c.39.18.78.36,1.17.54-.17.04-.35.09-.52.13-.51,0-1.02-.02-1.54-.03h0c0-.16,0-.31.01-.46.29-.06.58-.12.88-.18Z"/>
      <path class="cls-26" d="m159.01,183.86c.51,0,1.02.02,1.54.03-.43.43-.95.55-1.53.45,0-.16,0-.32,0-.47Z"/>
      <path class="cls-26" d="m155.21,238.11c-1.5-.07-2.77.26-4.27-.72,1.72-.39,2.92-.27,4.27.72Z"/>
      <path class="cls-26" d="m139.87,237.74c-.91.56-1.83,1.36-3.08.57.22-.24.36-.54.51-.55.85-.05,1.71-.02,2.56-.02Z"/>
      <path class="cls-26" d="m147.11,238.03c-1.38.22-2.26.48-3.19.09q.95-.95,3.19-.09Z"/>
      <path class="cls-26" d="m162.3,238.28c-.74-.03-1.48-.07-2.19-.1-.09-.52-.07-.86.43-.78.58.1,1.14.26,1.71.4.02.16.03.32.05.48Z"/>
      <path class="cls-26" d="m128.62,240.11c-.1,1.59-.43,3.1-1.5,4.34-1.47,1.71-3.72,1.74-5.16.02-.43-.52-.82-1.14-1.02-1.79-.6-1.96-.51-3.93.3-5.83.2-.47.48-.93.81-1.31,1.33-1.54,3.35-1.61,4.79-.17,1.3,1.31,1.68,2.97,1.77,4.73Zm-1.39-.06c.01-1.45-.3-2.56-.97-3.45-.98-1.31-2.48-1.4-3.55-.2-1.73,1.94-1.57,5.63.33,7.39.97.9,2.08.87,2.98-.12.94-1.02,1.21-2.28,1.2-3.62Z"/>
      <path class="cls-26" d="m180.55,240.26c.06,1.49-.28,2.9-1.26,4.1-1.49,1.84-3.83,1.84-5.35,0-1.87-2.26-1.84-6.48.07-8.71,1.56-1.83,3.88-1.77,5.31.15.97,1.31,1.25,2.83,1.23,4.45Zm-.96-.47c-.03-1.43-.37-2.66-1.39-3.62-.91-.85-2.14-.82-3.01.08-1.73,1.79-1.75,5.67-.04,7.44.93.96,2.02.99,2.98.05,1.14-1.11,1.42-2.54,1.47-3.96Z"/>
      <path class="cls-26" d="m208.12,158.33c-.15-.55-.31-1.11-.46-1.66.61.42.48,1.06.46,1.66Z"/>
      <path class="cls-26" d="m154.29,183.33c1.57.02,3.15.04,4.72.06,0,.15,0,.3-.01.46-1.57,0-3.14,0-4.7,0,0-.17,0-.34,0-.52Z"/>
      <path class="cls-26" d="m89.45,161.89c-.06-1.08-.04-2.15.57-3.11.72-.46,1.45-.92,2.23-1.41.18-.42.39-.89.59-1.37,2.61-5.98,9.88-8.95,16.1-6.18.47.21.95.4,1.42.6,1.62,1.38,3.3,2.71,4.34,4.63.45,1.06.9,2.12,1.35,3.19.14,2.28.27,4.56-.39,6.79-.83,2.18-2.27,3.96-3.82,5.66-1.47.91-2.95,1.76-4.65,2.27-4.83,1.44-11.5-.66-14.32-6.7-.18-.39-.33-.8-.47-1.21-.2-.59-.59-.98-1.11-1.36-.68-.5-1.23-1.19-1.84-1.79Zm4.33,2.84c2.17,5.43,7.04,8.14,12.55,7.06,4.89-.96,8.66-5.62,8.66-10.71,0-5.11-3.77-9.69-8.66-10.71-5.71-1.18-11.08,2.34-12.4,6.84.47.15.96.27,1.42.46.63.27,1.31.5,1.85.91,2.02,1.53,1.77,4.21-.52,5.29-.85.4-1.81.54-2.9.86Zm.01-5.98c-.92-.07-1.82.21-2.58.85-.65.55-.74,1.44-.24,2.08,1.15,1.48,3.84,1.9,5.4.83,1.1-.75,1.15-1.93.1-2.8-.75-.63-1.63-.96-2.69-.96Z"/>
      <path class="cls-26" d="m181.36,165.06c-.16-.87-.33-1.74-.49-2.62,0-1.07.02-2.13.03-3.2.39-2.65,1.56-4.9,3.44-6.8.3-.3.55-.65.82-.98,2.32-1.63,4.81-2.73,7.72-2.66,5.05.12,8.76,2.39,11.08,6.89.28.54.5,1.1.81,1.79,1.06.51,2.27,1.07,2.75,2.41.39,1.1-.14,2.02-.57,2.97-.43.28-.85.6-1.3.84-.57.3-.96.72-1.11,1.35-.04.17-.09.34-.15.5-2.82,7.1-11.41,10.14-18.11,5.86-.36-.23-.73-.45-1.1-.67-1.55-1.71-3.09-3.43-3.84-5.69Zm21.71-7.83c-1.41-4.39-6.54-8.31-12.8-6.76-5.81,1.44-8.52,6.7-8.27,11.23.28,4.96,4.15,9.39,8.97,10.14,5.54.86,10.38-1.97,12.14-7.09-.98-.3-2.02-.47-2.93-.92-2.17-1.07-2.43-3.57-.58-5.13.52-.43,1.18-.71,1.81-.99.46-.2.97-.29,1.66-.49Zm-.81,5.86c1.73.01,2.78-.33,3.58-1.23.6-.68.5-1.74-.21-2.33-1.47-1.22-4.2-.97-5.47.51-.62.72-.6,1.78.21,2.28.71.44,1.56.65,1.88.77Z"/>
    </g>
  </g>
</svg>