<?xml version="1.0" encoding="UTF-8"?>
<svg id="Layer_1" data-name="Layer 1" xmlns="http://www.w3.org/2000/svg" viewBox="0 0 300 299.76">
  <defs>
    <style>
      .cls-1 {
        fill: #fff;
      }

      .cls-2 {
        fill: #ef9861;
      }

      .cls-3 {
        fill: #f9f2e1;
      }

      .cls-4 {
        fill: #e77c24;
      }

      .cls-5 {
        fill: #d58669;
      }

      .cls-6 {
        fill: #dbae6e;
      }

      .cls-7 {
        fill: #ecd69a;
      }

      .cls-8 {
        fill: #6c4b3e;
      }

      .cls-9 {
        fill: #e0926c;
      }

      .cls-10 {
        fill: #aa345b;
      }

      .cls-11 {
        fill: #d24a78;
      }

      .cls-12 {
        fill: #d04a77;
      }

      .cls-13 {
        fill: #d67e70;
      }

      .cls-14 {
        fill: #ec9622;
      }

      .cls-15 {
        fill: #c9203b;
      }

      .cls-16 {
        fill: #cc7e70;
      }

      .cls-17 {
        fill: #6d4b3e;
      }

      .cls-18 {
        fill: #824a47;
      }

      .cls-19 {
        fill: #dbb56d;
      }

      .cls-20 {
        fill: #d7e9e6;
      }

      .cls-21 {
        fill: #7b4728;
      }

      .cls-22 {
        fill: #c8203b;
      }

      .cls-23 {
        fill: #e55182;
      }

      .cls-24 {
        fill: #823e3f;
      }

      .cls-25 {
        fill: #714e40;
      }

      .cls-26 {
        fill: #e11d40;
      }

      .cls-27 {
        fill: #785143;
      }
    </style>
  </defs>
  <rect class="cls-20" x="35" y="30.7" width="230" height="237.22" rx="68.69" ry="68.69"/>
  <g>
    <g>
      <path class="cls-1" d="m171.38,78.4c.98,0,1.87.41,2.76.75,9.84,3.72,18.97,8.7,27.26,15.19,4.9,3.84,9.11,8.34,12.9,13.25,5.74,7.43,10.3,15.5,13.16,24.48,2.13,6.69,3.23,13.56,2.85,20.57-.52,9.53-3.01,18.53-7.87,26.79-3.41,5.79-8.09,10.42-13.52,14.33-3.57,1.59-6.49,4.39-10.31,5.51-9.38,3.39-19.07,5.06-29,5.88-4.51.37-9.06.63-13.53.67-17.41.14-34.52-1.94-49.55-11.73-12.69-8.26-20.86-19.92-23.32-35.02-1.57-9.64.04-19.06,3.66-28.12,3.4-8.49,8.24-16.04,14.27-22.93,8.51-9.72,18.69-17.19,30.32-22.63,8.71-4.07,17.86-6.7,27.52-7.63,4.24-.41,8.3-.06,12.4.65Z"/>
      <path class="cls-1" d="m195.36,212.8c3.36,1.14,6.25,3.01,8.6,5.67.46.52.85,1.1,1.19,1.71.97,1.75.91,3.46-.21,5.16-1.66,2.53-1.65,2.66.99,4.36,1.47.94,2.88,1.94,4.22,3.06,1.48,1.25,2.67,2.74,3.62,4.41.51.9.92,1.88,1.2,2.87.61,2.13.32,4.13-1.15,5.88-.61.73-1.22,1.47-1.82,2.22-.38.47-.37.97.06,1.4.55.55,1.11,1.11,1.72,1.59,3.02,2.37,4.6,5.6,5.51,9.22.06.25.1.52.08.77-.05.56-.32,1.07-.91,1.1-5.31.24-10.48,1.6-15.78,1.87-1.2-.58-1.34-1.75-1.52-2.85-.56-3.45-1.94-6.47-4.57-8.83-1.81-1.62-3.28-3.35-2.84-6.03.11-.65-.43-1.1-.77-1.6.58,1.18.55,2.38-.3,3.36-.98,1.12-.57,1.85.17,2.91,2.32,3.34,3.35,7.19,3.97,11.16.17,1.06-.02,2.09-.95,2.82-1.83.66-3.78.55-5.66.86-2.31.38-4.66.54-6.99.75-3.55.32-7.09.65-10.65.87-2.69.17-5.39.09-8.08.25-7.64.46-15.29.47-22.94.33-5.99-.11-11.98-.38-17.96-.8-4.51-.32-9-.78-13.49-1.27-5.26-.58-10.52-1.27-15.67-2.59-.31-.27-.76-.18-1.08-.43h0c-1.7-1.96-1.08-4.3-.82-6.48.42-3.46,1.97-6.44,4.46-8.93,2.23-2.24,4.03-4.57,2.39-8.06-.68-1.45.35-2.47,1.63-3.1,1.56-.77,3.15-1.48,4.67-2.31,2.47-1.35,4.64-3.03,6.05-5.57.79-1.43,1.83-2.6,3.68-2.4,1.77.19,2.33,1.62,2.89,3.01,2.93,7.26,7.86,12.33,15.81,13.57,3.93.62,7.92.19,10.98-3.01.59-.92,1.53-1.4,2.46-1.85,4.31-2.1,7.26-5.51,9.33-9.74.35-.73.65-1.4,1.43-1.74,3.01-.47,5.99.45,9.06.03,6.61-.91,12.95-2.48,18.79-5.82,2.85-1.63,5.16-3.81,7.18-6.35.55-.69,1.03-1.41,2.02-1.48Z"/>
      <path class="cls-3" d="m171.38,78.4c-1.65.02-3.31.03-4.96.04-2.35.01-4.67.19-7.01.42-2.69.26-5.34.61-7.99,1.13-3.67.72-7.3,1.63-10.79,3.01-.16.06-.33.12-.5.16-4.75,1.28-9.1,3.51-13.38,5.83-4.74,2.57-9.25,5.55-13.42,8.99-2.95,2.43-5.99,4.78-8.58,7.6-4.42,4.8-8.47,9.88-11.82,15.53-3.72,6.28-6.34,12.96-7.99,20.04-.57,2.45-1.06,4.93-.97,7.47.02.69,0,1.4-.16,2.07-.17.79-.2,1.52-.02,2.31.15.67.18,1.38.18,2.07,0,4.51,1.17,8.77,2.73,12.94,1.75,4.68,4.22,8.96,7.25,12.93,4.71,6.19,10.51,11.06,17.39,14.68,6.84,3.6,14.11,5.9,21.7,7.25,2.56.46,5.14.81,7.72,1.13,2.61.33,5.2.37,7.8.43.78.02,1.57.08,2.33.25,1.64.37,3.33.43,4.93.13,1.91-.37,3.8-.36,5.71-.39,2.43-.04,4.85-.18,7.28-.39,2.68-.23,5.36-.49,8.04-.75,3.53-.35,7.04-1.04,10.53-1.72,3.33-.65,6.62-1.48,9.93-2.21.42-.09.86-.07,1.3-.1-.87.75-1.95,1.1-2.99,1.49-5.74,2.15-11.51,4.2-17.44,5.76-.41.11-.78.35-1.16.52-.9,1.94-2.84,1.77-4.47,2.09-5.86,1.14-11.85,1.16-17.76,1.95-2.82.75-5.69.29-8.5.1-5.95-.4-11.89-.98-17.8-1.67-5.89-.7-11.45-2.63-16.97-4.68-.55-.23-1.12-.41-1.73-.33-.24.02-.48,0-.71-.05-1.75-.86-4.08-.78-4.97-3.04-.77-.9-1.9-1.2-2.91-1.68-6.59-3.15-12.41-7.36-17.52-12.58-4.47-4.56-7.63-9.92-10.05-15.76-1.95-4.7-3-9.62-3.25-14.71-.08-1.56-.37-3.12-.36-4.68.02-9.6,1.79-18.84,5.64-27.68,3.09-7.08,7.03-13.61,11.82-19.64,2.77-3.49,5.92-6.61,9.36-9.45,5.4-4.44,11.17-8.32,17.41-11.48,7.59-3.84,15.6-6.42,23.96-7.95,3.43-.63,6.86-1.17,10.36-1.13.87,0,1.75-.04,2.55-.46,2.38-1.7,5.09-1.49,7.05.55.76.85,1.79.94,2.82,1.02,3.37.24,6.56,1.26,9.77,2.2.24.07.44.26.66.39Z"/>
      <path class="cls-26" d="m158.13,74.79c-2.32-.53-4.69-.55-7.05-.55-1.61-.59-3.27-.28-4.91-.28-.69,0-1.39.04-2.08.07-5.35-.82-10.25-2.74-14.33-6.32-4.95-4.33-7.1-9.72-5.61-16.33.28-1.23.81-2.27,1.64-3.19,3.89-.45,7.09,1.15,10.02,3.44,1.85,1.44,3.41,3.18,4.83,5.05,1.15,1.51,2.3,3.03,3.45,4.54.61.19.83-.03.66-.64.01-.32.02-.64.03-.97,1.8-5.9,5.89-9.29,11.37-9.42,3.26,2.04,4.36,5.26,4.67,8.84.13,1.55-.05,3.12-.06,4.69,0,.99.41,1.2,1.32.66.75-.44,1.46-.94,2.2-1.4,1.11-.7,2.3-1.2,3.6-1.46,2.47-.5,4.43.35,6.01,2.21.69.81,1.14,1.76,1.37,2.79.68,2.99.29,5.89-1,8.64-.76,1.62-2.08,2.21-3.88,1.87-1.28-.24-2.52-.65-3.79-.92-2.8-.58-5.55-1.43-8.46-1.3Z"/>
      <path class="cls-3" d="m145.69,239.99c-.08.97-.68,1.6-1.48,2.01-3.49,1.77-7.1,2.65-11.06,1.78-4.4-.96-8.15-3-11.12-6.34-2.32-2.61-4.16-5.56-5.09-8.98-.23-.84-.61-1.42-1.53-1.51-.96-.1-1.69.23-2.16,1.11-.69,1.3-1.32,2.62-2.41,3.69-1.38,1.36-2.87,2.52-4.6,3.38-1.79.89-3.54,1.85-5.44,2.52-.89.31-1.05.78-.52,1.6,1.53,2.37,1.21,4.56-.41,6.76-.63.85-1.29,1.64-2.05,2.35-3.11,2.92-4.37,6.59-4.41,10.77-.01,1.3-.03,2.61-.05,3.91-1.5.02-2.88-.56-4.3-.93-1.01-.26-2-.6-3.02-.75-1.03-.16-1.48-.71-1.71-1.66-.28-1.11-.34-2.22-.22-3.35.46-4.35,1.97-8.24,5.08-11.41.18-.18.33-.4.48-.61.05-.06.05-.16.11-.38-.46-.55-1.23-.3-1.83-.5-1.86-.62-2.47-1.76-1.77-3.61.78-2.07,2.13-3.76,3.77-5.21.78-.69,1.64-1.27,2.46-1.91.07-.25.2-.46.38-.64,1-.83,2.1-1.51,3.27-2.07,4.67-2.21,8.76-5.14,11.91-9.31.88-1.16,1.89-2.26,3.32-2.81.67-.14,1.34-.1,2.02-.12,1.13-.16,2.2.25,3.3.36,1.44.47,2.93.69,4.42.87,1.3.63,1.72,1.91,2.28,3.07,1.85,3.85,3.88,7.59,6.53,10.97,3.43,4.38,7.62,7.1,13.47,6.3.87-.12,1.75-.18,2.38.65Z"/>
      <path class="cls-23" d="m111.17,218.57c-1.41,1.65-2.8,3.32-4.25,4.94-2.82,3.15-6.19,5.55-10.06,7.27-.63.28-1.21.66-1.78,1.05-.67.45-1.36.76-2.18.7-1.79-.72-3.74-.61-5.57-1.25-10.73-3.76-13.78-15.85-6.15-24.26,3.97-4.38,9.19-5.67,14.68-6.48.42-.06.87.07,1.22-.29,1.56-.17,3.05.1,4.53.57.81.26,1.65.41,2.47.62,1.85.83,3.85,1.34,5.53,2.54.2.14.34.32.43.54.17.59.08,1.17-.02,1.75-.02.24-.07.47-.13.71-.16.59-.33,1.17-.49,1.76-.62,1.28-.39,2.74-.88,4.05-.98,1.2-2.46,1.2-3.78,1.51-3.58.84-7.11,1.84-10.06,4.13-1.36,1.06-3.38,2.33-2.17,4.4,1.22,2.07,2.95.37,4.36-.2,3.19-1.29,5.9-3.31,8.4-5.65,1-.94,1.93-2.06,3.51-2.04,1.46.78,3.25,1.35,2.4,3.65Z"/>
      <path class="cls-10" d="m154.56,210.34c.4-.54.97-.67,1.6-.71,2.16-.14,4.32-.32,6.48-.45,4.85-.29,9.62-1.09,14.36-2.13,2.55,0,4.98-.74,7.42-1.32,2.37-.56,4.69-1.29,7.02-1.99.84-.25,1.67-.49,2.55-.45.88.03,1.46.63,1.48,1.5.02.88-.27,1.7-.53,2.54-.52,1.6-1.6,2.88-2.3,4.38.02,2.29-1.75,3.25-3.31,4.29-4.56,3.06-9.82,4.15-15.1,5.16-3.85.73-7.75.63-11.64.58-1.13-.01-2.26,0-3.23-.73-1.14-.81-1.57-2.1-2.18-3.27-.11-.22-.19-.45-.24-.69-.03-.98-.58-1.72-1.17-2.44-.65-1.35-2.24-2.44-1.21-4.27Z"/>
      <path class="cls-22" d="m125.79,48.19c.15,1.25-.34,2.39-.61,3.56-1.04,4.5-.15,8.53,2.61,12.24,2.46,3.31,5.77,5.42,9.47,7,1.51.65,3.08,1.16,4.62,1.72.82.3,1.62.62,2.21,1.3-3.01.34-6.04.54-9.02,1.17-2.29.49-4.58,1.01-6.76,1.86-.92.36-1.68.31-2.46-.15-4.27-2.5-7.89-5.67-10.02-10.25-1.64-3.53-1.98-7.19-.47-10.85,1.54-3.74,4.18-6.31,8.24-7.21.51-.34,1.16-.06,1.68-.39.17-.07.33-.07.5-.02Z"/>
      <path class="cls-3" d="m159.32,220.11c.76.49,1.62.59,2.5.62,7.17.24,14.21-.53,21.04-2.86,1.98-.67,3.87-1.54,5.67-2.61,1.59-.95,2.86-2.24,4.12-3.55,1.09-.08,2.1,0,2.72,1.1-1.37,3.24-3.86,5.54-6.63,7.51-4.45,3.16-9.53,4.87-14.79,6.14-3.05.74-6.18.83-9.23,1.43-.25.05-.54.07-.78,0-1.84-.54-3.81-.31-5.63-.96-.59-.33-.73-.9-.81-1.51.07-1.32.14-2.64.37-3.94.33-.62.4-1.55,1.48-1.36Z"/>
      <path class="cls-12" d="m97.07,200.24c-.92.74-2.1.76-3.17,1.06-3.36.92-6.62,2.07-9.43,4.21-3.28,2.51-5.52,5.67-6.28,9.83-.76,4.15.49,7.64,3.15,10.77,1.86,2.19,4.26,3.51,6.93,4.41,1.23.42,2.48.78,3.73,1.15.46.14.72.44.9.85-.17.07-.34.13-.5.2-.96-.03-1.92-.03-2.87-.08-3.22-.18-6.16-1.18-8.61-3.31-3.16-2.74-5.45-6.08-6.74-10.08-.21-.66-.41-1.34-.51-2.02-.82-5.25,2.56-11.61,7.36-13.89.55-.26,1.12-.5,1.69-.68,4.67-1.48,9.46-2.26,14.36-2.42Z"/>
      <path class="cls-3" d="m195.88,265.05c.28-3.02-.6-5.84-1.57-8.64-.37-1.06-.97-2.04-1.13-3.18-.09-.63-.53-1.08-.99-1.49-.39-.35-.83-.64-1.19-1-.88-.88-.85-1.63.04-2.44.56-.51,1.47-.71,1.56-1.63.1-.94-.5-1.62-.98-2.35-.38-.57-.74-1.15-1.11-1.72.53-.5.92-.13,1.23.09.57.38,1.07.88,1.61,1.31,1.18.95,1.73,2.19,1.45,3.67-.2,1.07.07,1.79.95,2.46.83.62,1.49,1.45,2.24,2.17,2.42,2.33,3.61,5.25,4.15,8.49.18,1.11.35,2.22.53,3.33-2.23.6-4.51.81-6.81.93Z"/>
      <path class="cls-15" d="m156.16,50.19c-.52.64-1.24.88-2.01,1.06-2.16.51-3.82,1.74-5.38,3.33-1.52,1.55-2.62,3.38-3.98,5.03-.3-1.81-.22-3.6.27-5.38,1.5-5.41,6.3-7.16,11.1-4.04Z"/>
      <path class="cls-2" d="m144.76,60.58c.11.22.29.43.32.67.03.23-.07.47-.12.71-.21-.1-.45-.16-.63-.3-.12-.09-.16-.29-.24-.43l.66-.64Z"/>
      <path class="cls-26" d="m125.29,48.21c-.49.43-1.08.45-1.68.39.49-.42,1.07-.47,1.68-.39Z"/>
      <path class="cls-3" d="m93.37,263.03c.42-.02.78.13,1.08.43-.43.04-.81-.07-1.08-.43Z"/>
      <path class="cls-27" d="m100.75,159.49c.35-1.4.03-2.63-.97-3.68-.18-2.46-.28-4.92.53-7.3,1.46-.49,2.89-1.14,4.39-1.44,5.24-1.05,11.38,2.89,12.74,8.09.63,2.4.71,4.79-.39,7.11-3.53,2.89-7.5,3.85-11.83,2.29-2.3-.83-4.37-2.16-4.48-5.07Z"/>
      <path class="cls-27" d="m190.13,148.48c1.41-1.34,3.03-1.66,4.98-1.62,2.64.06,4.98.69,7.11,2.18,2.07,1.44,3.47,3.37,4.1,5.93-1.04.34-2.03.59-2.96.99-1.01.43-1.79,1.11-1.7,2.36.09,1.2.87,1.83,1.92,2.23.81.31,1.65.52,2.7.58-.36,1.12-.67,2.07-.98,3.03-2.53,1.04-5.17,1.25-7.88,1.1-4.62-.25-8.09-3.72-8.36-8.35-.17-2.88.11-5.69,1.07-8.43Z"/>
      <path class="cls-7" d="m203.47,133.89c-5.01-.24-9.53-1.71-13.19-5.3-.76-.74-1.3-1.61-1.75-2.56-.6-1.26-.33-2.37.49-3.39.85-1.06,1.99-1.62,3.33-1.85,1.81-.31,3.61-.33,5.42,0,4.02.73,7.7,2.09,10.51,5.24.7.78,1.33,1.61,1.82,2.53.96,1.83.6,3.13-1.12,4.21-1.04.65-2.15,1.13-3.42,1.13-.69,0-1.39,0-2.08,0Z"/>
      <path class="cls-7" d="m108.1,120.21c1.45-.24,3.18.39,4.74,1.68.66.54.98,1.18,1.02,2.01.08,1.48-.47,2.7-1.4,3.81-2.02,2.4-4.64,3.91-7.51,5.01-2.47.95-5.03,1.31-7.68,1.15-1.35-.08-2.56-.5-3.66-1.24-1.46-.98-1.86-2.38-1.33-4.09.46-1.47,1.33-2.65,2.52-3.56,3.75-2.87,7.92-4.66,13.3-4.77Z"/>
      <path class="cls-14" d="m145.68,155.35c4.24-.39,8.44.17,12.65.58,1.01.1,2.03.44,2.97.85,2.1.9,2.61,2.1,2.01,4.37-.09.33-.23.65-.35.97-1.07,1.92-1.65,4.18-3.61,5.52-.85.59-1.69,1.22-2.82,1.05-2.52-.9-5.21-1.32-7.54-2.75-2.18-1.34-4.18-2.83-4.57-5.63-.02-.26-.02-.52,0-.78.32-1.42-.49-3.18,1.27-4.16Z"/>
      <path class="cls-8" d="m190.13,148.48c.41.15.85.31.77.87-.04.34-.11.69-.22,1.02-.71,2.2-.52,4.47-.56,6.73-.06,3.41,3.63,7.14,7.07,7.08,2.34-.04,4.71.24,6.95-.72.63-.27.96.12,1.14.69-.77,1.26-1.56,2.49-3.04,3.04-2.16,2.24-4.96,2.18-7.75,2.1-2.36-.07-4.33-1.1-6.1-2.56-1.8-1.48-2.98-3.37-3.61-5.61-1.25-4.45.22-8.87,4.01-11.84.4-.32.88-.53,1.33-.79Z"/>
      <path class="cls-3" d="m156.67,168.3c2.06-1.25,3.71-2.93,5.19-4.8.37-.46.73-.92,1.1-1.39-.58,4.27-2.84,7.6-6,10.33-1.6,1.38-3.6,2.02-5.74,2.21-3.4.31-6.34-.81-8.96-2.84-2.65-2.06-4.68-4.55-5.56-7.94-.52-2.01-.18-3.56,1.28-4.94,1.12.02,1.32.98,1.7,1.71,1.74,3.32,4.43,5.67,7.6,7.55,2.16,1.29,4.35,1.51,6.68.52.86-.37,1.72-.87,2.72-.41Z"/>
      <path class="cls-4" d="m156.67,168.3c-.9.84-2,1.34-3.14,1.76-1.61.59-3.22.63-4.81,0-3.97-1.58-7.06-4.26-9.47-7.77-.7-1.03-.7-2.29-1.28-3.35.06-.12.04-.24-.05-.34.2-.39.07-.98.68-1.12,1.41-.4,2.82-.82,4.24-1.19.52-.14.94-.41,1.35-.73.44-.35.97-.31,1.49-.2-.27,1.05-.58,2.08-.12,3.18.1.23-.17.61-.27.92-.6.02-.54.23-.16.53.51,2.29,2.11,3.7,3.99,4.84,1.48.89,3.08,1.55,4.77,1.95.67.16,1.32.37,1.98.58.45.14.67.51.8.94Z"/>
      <path class="cls-17" d="m100.75,159.49c.47.26.79.66,1.08,1.11,2.25,3.61,6.58,4.09,9.96,3.27,1.37-.33,2.58-1.03,3.83-1.65.48-.24.97-.43,1.43.04-.27,1.84-1.37,3.21-2.74,4.3-3.85,3.07-8.14,3.8-12.7,1.8-3.03-1.33-4.87-3.76-5.93-7.15,2.04.06,3.8-.19,5.06-1.73Z"/>
      <path class="cls-25" d="m100.31,148.51c.34.13.75.34.67.69-.39,1.72-.2,3.47-.27,5.2-.03.67-.26,1.18-.93,1.41-.73-.26-1.45-.58-2.19-.78-1.88-.49-1.95-.56-.95-2.26.83-1.41,1.69-2.83,3.1-3.78.13-.16.27-.29.44-.4l.13-.08Z"/>
      <path class="cls-3" d="m138.61,157.48c-.23.37-.46.74-.68,1.11-.05-.54.15-.93.68-1.11Z"/>
      <path class="cls-27" d="m100.18,148.59c-.15.13-.3.27-.44.4.03-.27.16-.42.44-.4Z"/>
      <path class="cls-12" d="m158.36,225.33c-.02.53-.04,1.06-.06,1.59-.15.31-.33.62-.45.94-1.93,5.38-5.63,9.09-10.77,11.45-.47.22-.93.45-1.4.68-1.55.19-3.05.59-4.63.6-2.61,0-4.96-.72-7.12-2.14-1.98-1.3-3.62-2.98-5.05-4.85-3.3-4.31-5.84-9.04-7.78-14.09-.6-1.86.78-1.99,1.99-2.26.24.08.53.17.66.39,2.95,5.11,6.79,9.55,10.59,14.02,2.61,3.55,6.48,3.8,10.23,3.33,4.62-.58,7.96-3.48,10.55-7.31.76-1.13,1.29-2.79,3.25-2.35Z"/>
      <path class="cls-23" d="m158.36,225.33c-.59.25-.95.72-1.28,1.25-.65,1.02-1.3,2.06-2.03,3.02-2.38,3.14-5.46,5.24-9.28,6.32-2.66.76-5.18.25-7.65-.58-1.46-.49-2.88-1.22-4.14-2.17-.36-.27-.62-.63-.25-1.1.16-.15.35-.23.57-.25.22,0,.43.03.64.09.1.03.21.06.31.08.42.12.84.23,1.27.31.69.11,1.35.32,2.06.31,1.95-.04,2.69-.82,2.44-2.78-.31-2.38-1.79-4.08-3.56-5.55-3.03-2.53-6.54-4.23-10.13-5.79-1.03-.45-2.14-.74-2.99-1.54-.73-.82-.18-1.58.09-2.36.04-.23.12-.45.21-.67.16-.43.34-.87.5-1.3.79-1.48,1.15-3.26,2.88-4.06,1.12-.01,2.25-.12,3.36-.01,2.41.23,4.8.56,7.2.85.26.03.52.09.77.08,3.55-.05,7.05.71,10.61.59.95-.03,1.91-.04,2.83.28.61.21,1.2.07,1.79-.01.29,1.52,1.51,2.54,2.11,3.89.4.9.56,1.89,1.07,2.75h0c.41,1.48,1,2.95.79,4.56.19,1.27.4,2.55-.17,3.79Z"/>
      <path class="cls-10" d="m124.29,216.32c5.17,1.61,9.97,3.95,14.16,7.41,1.9,1.57,3.34,3.49,3.77,6.03.12.71.06,1.37-.16,2.03-.4,1.19-1.21,1.83-2.47,1.95-1.33.12-2.58-.18-3.82-.57-.28-.32-.78-.19-1.04-.53h0c-.17-.16-.35-.31-.54-.45-.15-.04-.3-.08-.45-.12-.72-.75-1.42-1.53-2.17-2.24-3.33-3.14-5.74-6.96-8.02-10.86-.25-.43-.29-.99-.43-1.49-2.12.85-4.04,2.48-6.59,1.69-1.1-.02-2.14-.32-3.17-.68-.21-.18-.41-.38-.57-.6-1.27-2.82-1.4-5.87-1.58-8.87-.1-1.7-.38-3.24-1.43-4.59-.03-.17-.08-.32-.16-.47,0,0,.14-.12.14-.12.49-.25.98-.3,1.45.05,2.73,1.06,5.59,1.67,8.4,2.44,1.9.52,3.87.86,5.63,1.82.43.24.79.16,1.21-.03.63-.28,1.17-.12,1.59.43-.12.74-.34,1.44-.75,2.09-.53.85-.96,1.75-1.43,2.63-.32.29-.2.81-.56,1.08h0c-.25.69-1.17,1.05-1,1.96Z"/>
      <path class="cls-23" d="m111.18,203.9c-.48-.02-.97-.03-1.45-.05.51-.69.98-.31,1.45.05Z"/>
      <path class="cls-19" d="m116.52,219.18c2.08-.13,4.02-.64,5.73-1.91.29-.21.65-.15.86.21-.61.73-1.75.95-2.01,2.02-1.52-.23-3.09.33-4.58-.33Z"/>
      <path class="cls-6" d="m113.26,218.07c.03.14.06.29.09.43-.72.02-1.45.05-2.17.07-.04-.61-.26-1.12-.74-1.54-.63-.55-1.24-1.13-1.85-1.69.38-1.44.65-1.57,1.8-.85,1.37.86,1.98,2.33,2.87,3.57Z"/>
      <path class="cls-10" d="m113.26,218.07c-.9-.11-1.54-.62-2.09-1.29-.53-.65-1-1.37-1.61-1.94-.63-.59-.81.03-.98.51-.71.64-1.43,1.26-2.12,1.92-2.9,2.79-6.04,5.22-9.87,6.63-.56.21-1.06.59-1.62.83-1.32.56-2.46.23-3.46-.96-.93-1.11-.9-2.27-.06-3.55,1.23-1.87,2.89-3.23,4.89-4.17,3.71-1.75,7.56-3.04,11.7-3.32.69-1.5-.17-3.18.52-4.68.18-.51.37-1.02.55-1.53.12-.09.17-.2.14-.31-.02-.12-.05-.17-.09-.17-.02-.61.24-1.12.59-1.6.26,0,.52-.02.77.03,1.22.26,1.52.56,1.66,1.61.01.08.02.17.01.26-.21,2.5.42,4.94.55,7.41.08,1.45.73,2.84.5,4.32Z"/>
      <path class="cls-11" d="m105.19,207.96c-1.03.24-2.13.2-3.21-.07-1.72-.43-3.44-.44-5.16.01-.25.07-.51.12-.77.14-3.9.28-7.17,1.96-10.03,4.53-.19.17-.41.33-.65.42-.12.05-.36,0-.45-.1-.1-.1-.15-.32-.12-.46.06-.25.17-.49.29-.72.37-.71.93-1.27,1.57-1.73,2.66-1.91,5.56-3.22,8.87-3.48.6-.05,1.19-.22,1.8-.31.43-.06.89-.2,1.29-.12,2.04.44,4.15.51,6.13,1.21.23.08.52.17.45.67Z"/>
      <path class="cls-9" d="m108.56,208.05c0,1.2.02,2.41.03,3.61,0,.44-.09.85-.55,1.07,0-1.01,0-2.02,0-3.03,0-.6.1-1.18.52-1.65Z"/>
      <path class="cls-10" d="m109.17,206.04c.03.11.07.23.07.35,0,.04-.08.09-.13.14-.01-.16,0-.33.06-.48Z"/>
      <path class="cls-13" d="m158.52,221.54c-.35-1.51-.84-3-.79-4.58.53,1.05,1.06,2.09,1.59,3.14-.59.3-.69.87-.8,1.43Z"/>
      <path class="cls-13" d="m157.74,216.98c-.87-.72-1.09-1.69-1.07-2.75.69.79,1.14,1.67,1.07,2.75Z"/>
      <path class="cls-24" d="m145.13,159.99c-.46.37-.9.75-1.38,1.09-.1.07-.35.03-.45-.05-.11-.09-.17-.31-.15-.45.11-.69.48-1.25.99-1.72.45-.41.79-.24,1.14.59-.05.18-.1.35-.16.53Z"/>
      <path class="cls-18" d="m158.08,160.74c-.18.26-.44.25-.66.14-.66-.31-1.02-.88-1.2-1.56-.04-.14.02-.35.11-.46.07-.08.3-.13.41-.07.62.32,1.08.82,1.33,1.48.06.14,0,.32,0,.48Z"/>
      <path class="cls-11" d="m130.59,213.63c.35-.65.88-.73,1.39-.78,3.18-.3,6.26.1,9.19,1.38,1.43.62,2.83,1.35,4.21,2.09,1.48.8,2.64,1.97,3.46,3.44.07.12.05.37-.03.47-.08.1-.32.16-.45.11-.98-.37-1.88-.89-2.74-1.5-2.88-2.04-6.11-3.28-9.52-4.12-.94-.23-1.87-.37-2.83-.36-.96,0-1.86-.2-2.68-.73Z"/>
      <path class="cls-5" d="m124.29,216.32c-.38-.18-.45-.49-.25-.81.3-.5.67-.95,1.25-1.17.02.84-.56,1.37-1,1.98Z"/>
      <path class="cls-16" d="m125.28,214.36c0-.45.21-.8.56-1.08-.03.44-.18.82-.56,1.08Z"/>
      <path class="cls-12" d="m134.72,232.65c.42.03.77.2,1.04.53-.43-.02-.78-.18-1.04-.53Z"/>
      <path class="cls-12" d="m134.18,232.2l.54.45c-.18-.15-.36-.3-.54-.45Z"/>
      <path class="cls-10" d="m109.09,212.05c.06-.39.07-.67.39-.65.12.01.29.19.33.32.11.39.2.79.24,1.19.01.12-.15.34-.26.36-.12.03-.36-.09-.4-.21-.14-.38-.23-.78-.29-1.02Z"/>
    </g>
    <g>
      <path class="cls-21" d="m124.74,77.75c-1.03-.61-1.79-1.03-2.52-1.5-2.9-1.86-5.36-4.18-7.08-7.2-2.21-3.88-2.92-7.99-1.63-12.33,2.3-7.71,10.26-11.77,18.09-9.28,3.69,1.17,6.59,3.48,9.09,6.34.73.84,1.42,1.73,2.29,2.8.2-.9.38-1.54.47-2.2.72-5.48,6.33-8.88,12.06-6.43,3.68,1.57,5.71,4.47,6.36,8.33.24,1.44.15,2.95.17,4.43,0,.68-.07,1.35-.12,2.33.86-.54,1.49-.94,2.13-1.33,1.51-.92,3.11-1.53,4.91-1.56,2.88-.05,5.05,1.18,6.52,3.6,1.36,2.24,1.78,4.71,1.42,7.29-.24,1.73-.71,3.41-1.5,4.98-.23.45-.45.9-.75,1.52.94.37,1.72.68,2.51.99,12.44,4.76,23.58,11.57,32.92,21.14,10.14,10.38,16.92,22.68,20.49,36.74,1.69,6.67,1.81,13.43,1.08,20.24-.49,4.61-1.48,9.1-2.93,13.5-3.22,9.72-9.13,17.53-17.09,23.87-3.9,3.1-8.11,5.7-12.6,7.87-.77.37-1.53.77-2.34,1.18.63,3.19-.59,5.86-2.14,8.55.82.26,1.56.48,2.29.72,2.34.75,4.52,1.81,6.45,3.35,1.38,1.1,2.55,2.39,3.33,3.98,1.21,2.48,1.19,4.86-.62,7.09-.27.33-.52.66-.9,1.13.86.45,1.62.84,2.38,1.25,2.01,1.07,3.86,2.36,5.41,4.06,1.86,2.04,3.11,4.38,3.56,7.14.49,2.98-.19,5.52-2.51,7.55-.32.28-.62.57-1.08,1,.77.6,1.43,1.12,2.1,1.63,2.21,1.68,3.82,3.8,4.64,6.47.15.5.29,1,.37,1.52.43,3.08-.07,3.8-3.08,4.62-4.38,1.2-8.85,1.93-13.34,2.47-6.57.78-13.15,1.5-19.75,2.03-8.25.66-16.51,1.09-24.79,1.34-9.76.3-19.52.08-29.27-.26-7.83-.27-15.65-.88-23.43-1.84-5.27-.65-10.54-1.33-15.66-2.78-1.84-.52-3.63-1.21-5.44-1.81-1.09-.36-1.69-1.12-1.95-2.24-.45-1.9-.51-3.8-.1-5.7.64-2.94,1.89-5.6,3.85-7.9.39-.46.79-.92,1.3-1.51-.49-.27-.92-.49-1.34-.73-1.81-1.04-2.39-2.43-1.77-4.4.4-1.26,1.13-2.35,2.03-3.31.65-.69,1.33-1.36,1.96-1.99-.14-.67-.64-.59-1.04-.65-2.73-.41-5.2-1.47-7.36-3.15-4.78-3.71-7.6-8.61-8.12-14.64-.46-5.38,1.7-9.67,6.21-12.71,2.94-1.98,6.25-3.04,9.72-3.56,2.13-.31,4.27-.48,6.43-.72.04-.58-.47-.66-.79-.89-2.19-1.58-4.46-3.05-6.56-4.74-9.81-7.91-15.84-18.12-18.33-30.46-.83-4.11-1.33-8.26-1.42-12.44-.19-8.03,1.45-15.73,4.36-23.2,7.89-20.26,21.88-34.89,41.17-44.61,3.1-1.56,6.36-2.81,9.54-4.2.47-.21.95-.41,1.73-.74Zm-2.04,141.24q-.83,1.07-.03,2.24c1.94,5.37,4.67,10.28,8.64,14.42.96,1,2.05,1.9,3.21,2.65,3.25,2.12,6.79,2.57,10.49,1.45,7.9-2.4,13.29-10.85,12.81-18.09-.26-3.88-1.85-7.19-4.03-10.45-2.85,0-5.72.07-8.59-.02-2.87-.09-5.74-.31-8.6-.5-2.83-.19-5.63-.69-8.49-.84-.33,2.17-.85,4.07-2.23,5.62-.74.36-.58,1.06-.62,1.68-.74.21-1.16.76-1.49,1.41-.36.14-.72.28-1.08.43Zm-14.77-3.58c-.16-.81-.32-1.61-.49-2.42,0-1.15.01-2.3.02-3.46.25-1.43.51-2.87.78-4.39-.11-.08-.3-.27-.53-.37-2.7-1.2-5.39-2.41-8.11-3.56-.62-.26-1.33-.41-2-.41-3.58.02-7.13.42-10.61,1.21-2.55.58-5.02,1.44-7.2,2.95-3.45,2.39-5.38,5.63-5.35,9.89.04,6.2,2.68,11.1,7.68,14.65,3.17,2.26,6.76,3.03,10.67,2.26,2.88-.57,5.43-1.8,7.82-3.44,3.86-2.64,6.89-6.09,9.55-9.96-.56-.79-1.11-1.56-1.66-2.33-.19-.21-.38-.43-.57-.64Zm84.33,32.97c-.49.4-.98.79-1.53,1.24,4.96,3.89,6.49,8.98,5.92,14.95.82-.04,1.51-.04,2.19-.12,2.51-.31,5.02-.56,7.51-.99,3.51-.61,7-1.34,10.5-2.07.47-.1.88-.45,1.19-.62-.2-4.57-2.45-7.69-6.1-9.92-.37-.22-.71-.51-1.01-.82-.6-.61-.67-1.5-.11-2.12.46-.51,1.01-.95,1.55-1.39,1.78-1.47,2.34-3.37,2.04-5.61-.34-2.52-1.48-4.62-3.2-6.44-1.58-1.66-3.43-2.94-5.51-3.91-.71-.33-1.43-.65-2.1-1.06-1.22-.75-1.38-1.75-.48-2.82.28-.33.6-.63.92-.92,1.85-1.66,1.6-4.09.62-5.73-.77-1.29-1.79-2.36-2.96-3.27-1.93-1.51-4.09-2.65-6.38-3.51-.55-.21-1.13-.33-1.61-.47-3.94,3.4-5.93,4.6-10.43,6.04-6.79,2.16-13.76,3-20.87,2.55-.83-.05-1.69-.37-2.62.13,0,.45.03.88,0,1.31-.62,8.38-4.72,14.46-12.33,17.97-5.14,2.37-10.18,1.79-14.86-1.45-1.8-1.25-3.32-2.81-4.7-4.51-2.88-3.57-4.93-7.57-6.3-11.94-.26-.81-.5-1.63-.79-2.55-3.32.99-6.42.57-9.28-1.04-.18.14-.27.18-.31.25-.14.22-.26.46-.38.68-2.67,4.85-6.46,8.61-11.26,11.35-1.98,1.13-4.07,2.02-6.36,2.23-1.32.12-2.3.65-3.13,1.64-.73.87-1.55,1.65-2.25,2.54-.48.61-.9,1.3-1.17,2.02-.65,1.73.09,2.92,1.93,3.16.85.11,1.71.11,2.74.16-.09.53-.05.99-.24,1.31-.21.35-.63.59-.96.87-2.99,2.53-4.68,5.8-5.39,9.59-.34,1.82-.26,3.62.51,5.42,6.35,2.53,12.97,3.76,19.77,4.44.17-.9.31-1.66.45-2.42.15.44.36.87.44,1.32.08.47-.01.99.52,1.27,5.19.5,10.38,1.13,15.58,1.47,10.85.72,21.73.81,32.6.73,9.14-.07,18.25-.63,27.36-1.26,3.9-.27,7.8-.67,11.69-1.04.5-.05.99-.24,1.45-.35.61-6.08-1.52-11.02-5.22-13.85-.14-.11-.27-.22-.39-.34-1.35-1.3-1.21-1.84.62-2.45.33-.11.68-.12,1.02-.18l1.1.56Zm-42.01-39.85c5.1-.08,10.4-.32,15.69-.82,5.64-.53,11.23-1.35,16.73-2.75,9.72-2.46,18.76-6.39,26.78-12.49,7.22-5.5,12.73-12.34,16.09-20.82,1.74-4.39,2.87-8.94,3.52-13.61,1.01-7.33.88-14.61-1.05-21.77-4.13-15.36-11.94-28.54-23.94-39.05-13.49-11.82-29.1-19.23-46.93-21.73-2.67-.37-5.39-.66-8.07-.56-4.35.17-8.66.81-12.93,1.73-9.19,1.96-17.75,5.52-25.86,10.21-16.4,9.48-28.35,22.86-35.39,40.52-2.01,5.03-3.5,10.19-4.14,15.59-.56,4.7-.48,9.38.08,14.07.69,5.75,2.12,11.29,4.47,16.57,3.64,8.16,9.34,14.63,16.55,19.82,9.88,7.1,21.03,11.07,32.93,13.09,8.35,1.41,16.78,1.92,25.46,2.01Zm21.9-131.72c1.82-2.37,2.63-4.89,2.71-7.65.05-1.59-.37-3.11-1.25-4.46-1.07-1.65-2.57-2.51-4.59-2.51-1.54,0-2.93.44-4.18,1.28-.94.62-1.8,1.37-2.67,2.09-.59.49-1.11,1.32-1.98.94-1.06-.46-.67-1.43-.55-2.28.34-2.42.64-4.85.19-7.28-.61-3.33-2.38-5.77-5.63-6.95-3.69-1.33-7.38.39-8.38,3.96-.32,1.15-.45,2.42-.35,3.61.16,1.81.59,3.6.93,5.39.08.42.28.83.37,1.25.11.52.15,1.06-.46,1.34-.44.21-.98-.02-1.28-.58-.25-.46-.42-.96-.68-1.41-1.22-2.11-2.36-4.27-3.71-6.29-1.66-2.48-3.81-4.52-6.37-6.1-2.36-1.45-4.91-2.16-7.69-2.12-6.03.09-10.17,4.56-11.25,9.21-.97,4.19.06,7.94,2.48,11.37,2,2.83,4.65,4.91,7.67,6.57,1.12.62,2.13.77,3.45.39,6.12-1.78,12.38-2.84,18.77-3.05,3.84-.12,7.66.09,11.47.58,4.33.55,8.56,1.52,12.97,2.72Zm22.28,127.13c-12.24,4.96-25.06,6.49-38.11,7.26.74,1.54,1.48,2.9,2.05,4.33.57,1.43.96,2.94,1.46,4.52,5.27-.38,10.5-.23,15.66-1.1,3.17-.53,6.3-1.26,9.29-2.5,2.01-.84,3.93-1.86,5.6-3.27,1.7-1.43,3.03-3.14,3.68-5.27.37-1.21.83-2.45.37-3.96Zm-84.71,1.66c-.82,1.8-.7,3.72-.67,5.61.05,3.08,1.56,5.28,4.33,6.56,2.89,1.34,5.72,1.3,8.35-.7,2.14-1.62,3.79-4.41,4.43-7.52-2.69-.56-5.4-1.06-8.08-1.7-2.77-.67-5.5-1.48-8.35-2.26Z"/>
      <path class="cls-21" d="m123.78,218.56c.5.68,1.02,1.35,1.49,2.06,1.29,1.96,2.45,4.02,3.86,5.88,1.31,1.72,2.84,3.28,4.37,4.82.98.99,2.19,1.73,3.56,2.09.66.18,1.36.32,2.04.3,1.73-.05,2.87-1.27,2.93-3.02.04-1.08-.34-2.04-.84-2.97-.92-1.72-2.23-3.1-3.72-4.32-2.58-2.12-5.53-3.58-8.62-4.77-1.2-.46-2.39-.98-3.58-1.47.04-.62-.12-1.32.62-1.68-.05.26-.09.51-.16.91.53.19,1.07.41,1.63.57,3.63,1.03,7.01,2.57,10.08,4.78,1.78,1.28,3.35,2.77,4.55,4.63.77,1.19,1.28,2.48,1.35,3.9.15,2.78-1.64,4.63-4.43,4.66-1.72.02-3.24-.58-4.65-1.49-1.7-1.09-3.12-2.5-4.43-4.02-1.72-1.98-3.12-4.18-4.41-6.45-.34-.6-.71-1.17-1.06-1.76-.18-.38-.36-.77-.54-1.15,0,0,.02.03.02.03q-.21-1.05-1.14-1.09c.36-.14.72-.28,1.08-.43Z"/>
      <path class="cls-21" d="m107.45,212.99c-1.07-.33-2.05.14-3.06.33-2.39.44-4.7,1.16-6.91,2.16-1.99.9-3.78,2.08-5.16,3.82-.66.84-1.13,1.75-1.23,2.81-.12,1.13.59,2.11,1.73,2.17,1.02.06,2.08-.02,3.07-.26,1.95-.48,3.68-1.5,5.3-2.66,1.05-.75,2.07-1.55,3.11-2.33.23.22.46.44.69.66-1.77,1.95-3.91,3.4-6.21,4.62-1.31.69-2.71,1.17-4.19,1.32-.59.06-1.22.06-1.8-.05-2.34-.45-3.35-2.13-2.7-4.4.55-1.91,1.76-3.36,3.26-4.59,2.39-1.97,5.21-3.08,8.19-3.74,1.76-.39,3.57-.58,5.38-.86.18-.8.37-1.63.56-2.46,0,1.15-.01,2.3-.02,3.46Z"/>
      <path class="cls-21" d="m105.49,262.5c-.01-1.9.84-3.53,1.71-5.12.66-1.21,1.49-2.34,2.24-3.51-2.58-1.53-2.7-1.82-1.87-4.44.18.2.36.4.54.6.04.58.09,1.16.12,1.64,1.29.95,2.67-.25,3.96.54-.06.29-.03.67-.2.9-.36.48-.82.87-1.24,1.31-2.84,2.99-4.53,6.45-4.33,10.67-.54-.28-.44-.79-.52-1.27-.08-.45-.28-.88-.44-1.32Z"/>
      <path class="cls-21" d="m189.21,241.51c1.4.56,2.5,1.51,3.45,2.66.7.84.96,1.83.71,2.91-.14.62-.44,1.12-1.1,1.3-.37-.19-.73-.37-1.1-.56,1.29-1.39,1.4-1.98.25-3.22-.87-.93-1.91-1.71-2.87-2.56.22-.18.44-.36.65-.54Z"/>
      <path class="cls-21" d="m104.98,219.68c-.23-.22-.46-.44-.69-.66,1.22-1.21,2.43-2.41,3.65-3.62.19.21.38.43.57.64-.41.42-.82.85-1.23,1.27-.77.79-1.53,1.58-2.3,2.37Z"/>
      <path class="cls-21" d="m105.52,173.76c-8.57.05-15.47-6.79-15.46-15.33,0-8.69,6.87-15.43,15.41-15.41,8.73.03,15.26,6.97,15.34,15.22.08,8.89-7.12,15.55-15.29,15.52Zm11.45-7.42c2.98-4,3.29-8.36,1.65-12.93-.76-2.11-1.84-4.07-3.79-5.37-7.89-7.33-20.75-3.16-23.04,7.22-.74,2.13-.73,4.24.02,6.37.22.74.36,1.52.67,2.23,3.7,8.57,14.17,11.06,20.82,6.06,1.61-.79,2.74-2.08,3.68-3.56Z"/>
      <path class="cls-21" d="m196.86,173.76c-7.74.11-15.45-5.91-15.43-15.39.02-9.07,7.18-15.37,15.48-15.36,8.45,0,15.22,6.83,15.27,15.28.06,8.58-6.75,15.45-15.32,15.47Zm-10.94-24.23c-1.73,1.76-2.59,3.93-3.01,6.32-.04,1.53-.12,3.07-.1,4.6,0,.38.28.77.43,1.15.67,3.67,2.57,6.49,5.8,8.39,3.47,2.47,7.3,3.03,11.38,2,5.54-1.39,9.74-6.31,10.17-11.82.1-.5.31-1.01.3-1.5-.1-5.35-2.31-9.6-6.96-12.32-4.72-2.75-9.55-2.79-14.29.1-1.6.59-2.7,1.79-3.71,3.09Z"/>
      <path class="cls-21" d="m151.94,154.3c2.14.29,5.15.66,8.15,1.14.92.15,1.83.56,2.69.96,1.41.66,2.05,1.85,1.89,3.4-.07.68-.23,1.38-.52,2-.39.86-.86,1.71-1.43,2.47-2.23,2.97-5.13,5.15-8.41,6.86-2.16,1.12-4.33,1.21-6.51.12-3.63-1.81-6.81-4.2-9.1-7.6-.62-.92-1.12-1.98-1.39-3.05-.54-2.16.18-3.49,2.21-4.41.71-.32,1.45-.59,2.21-.75,3.07-.65,6.18-.97,10.21-1.14Zm-1.29,16.14c.37-.02.55,0,.72-.04.34-.08.68-.15,1-.28,4.2-1.59,7.58-4.2,9.94-8.05.31-.51.54-1.1.69-1.68.39-1.49.03-2.35-1.38-2.94-1.11-.47-2.29-.82-3.47-1.08-3.95-.87-7.95-.86-11.95-.48-2.07.2-4.12.68-6.02,1.59-1.29.62-1.68,1.37-1.32,2.75.22.82.58,1.65,1.04,2.36,2.24,3.48,5.41,5.83,9.2,7.4.56.23,1.16.34,1.56.46Z"/>
      <path class="cls-21" d="m107.65,119.38c1.43.32,2.94.46,4.28.99,2.83,1.12,3.75,3.71,2.3,6.4-.61,1.12-1.46,2.19-2.43,3.03-3.9,3.38-8.52,4.96-13.65,5.08-1.49.03-2.95-.28-4.3-.93-2.54-1.22-3.36-3.51-2.21-6.09.62-1.39,1.59-2.5,2.75-3.44,3.85-3.11,8.25-4.76,13.25-5.04Zm-9.07,14.08c4.38-.13,8.33-1.51,11.76-4.22.93-.74,1.79-1.67,2.43-2.67,1.46-2.27.74-4.28-1.77-5.13-.97-.33-2.03-.55-3.05-.54-4.74.06-9.04,1.48-12.68,4.58-.9.77-1.69,1.76-2.28,2.8-1.08,1.91-.45,3.56,1.51,4.49,1.29.61,2.67.71,4.07.7Z"/>
      <path class="cls-21" d="m194.7,119.56c4.86.14,9.03,1.68,12.74,4.5,1.26.96,2.34,2.09,3.06,3.52,1.39,2.74.52,5.19-2.29,6.45-1.54.68-3.17.95-4.84.85-4.45-.28-8.52-1.65-12.09-4.36-.82-.63-1.58-1.38-2.24-2.18-.55-.66-1.02-1.43-1.33-2.22-.87-2.29-.05-4.34,2.1-5.53,1.58-.88,3.32-.94,4.88-1.01Zm8.93,13.84c.52,0,1.06.08,1.56-.02.93-.18,1.89-.34,2.74-.73,1.74-.8,2.31-2.36,1.49-4.11-.39-.85-.95-1.68-1.63-2.32-3.97-3.79-8.78-5.43-14.21-5.29-1.21.03-2.41.37-3.44,1.05-1.31.86-1.69,2.13-1.15,3.61.53,1.43,1.5,2.53,2.67,3.46,3.5,2.79,7.5,4.26,11.98,4.35Z"/>
      <path class="cls-21" d="m113.24,102.03c.39-2.96,1.99-4.86,4.43-6.1.5.4.15.73-.1,1.04-1.12,1.43-2.24,2.86-3.38,4.26-.25.31-.63.53-.94.79Z"/>
      <path class="cls-21" d="m205.67,109.57c-2.18-1.28-3.47-2.86-4.99-5.45.14-.05.33-.17.42-.12.67.39,1.37.75,1.95,1.26.51.45.93,1.03,1.27,1.62.51.87.91,1.8,1.35,2.7Z"/>
      <path class="cls-21" d="m96.89,104.75c-1.13,2.36-2.37,4.61-4.23,6.59-.07-2.44,1.58-5.09,4.23-6.59Z"/>
      <path class="cls-21" d="m84,120.22c-.28,2.67-1.45,5.55-2.94,7.35.22-2.77.54-5.22,2.94-7.35Z"/>
      <path class="cls-21" d="m85.02,131.01c.31-2.55.54-5.11,2.48-7.05.05-.05.29.09.59.19-.77,2.4-1.75,4.7-3.07,6.86Z"/>
      <path class="cls-21" d="m128.97,89.39c-1.44,1.55-2.87,3.12-4.65,4.3-.21-.02-.43-.05-.64-.07.04-.25-.02-.59.13-.75,1.38-1.51,2.6-3.22,4.57-4.06.2.19.39.39.59.58Z"/>
      <path class="cls-21" d="m219.66,160.02c-.07-4.34.12-5.61,1.03-6.99.76,2.46.47,4.72-1.03,6.99Z"/>
      <path class="cls-21" d="m193.87,95.11c2.89.66,4.02,2.55,5.24,4.57-1.7-.47-2.88-1.49-5.24-4.57Z"/>
      <path class="cls-21" d="m210.05,110.58c2.35,1.52,2.88,3.58,3.15,6-1.07-.42-1.27-1.31-1.66-1.99-.66-1.15-1.26-2.35-1.49-4.02Z"/>
      <path class="cls-21" d="m224.26,154.1c-.31-2.68-.25-5.09.08-7.78,1.34,1.72,1.27,4.15-.08,7.78Z"/>
      <path class="cls-21" d="m108.48,101.08c-1.39,2.15-2.65,4.08-4.57,5.8.55-2.93,2.21-5.08,4.57-5.8Z"/>
      <path class="cls-21" d="m123.29,86.3c-1.61,1.34-3.21,2.69-4.82,4.03,0-.32,0-.63,0-.94,1.13-1.5,2.38-2.87,4.14-3.66.23.19.46.39.68.58Z"/>
      <path class="cls-21" d="m192.42,101.89c2.28.41,3.53,1.69,4.97,4.64-.15,0-.35.06-.42,0-1.53-1.54-3.04-3.09-4.55-4.63Z"/>
      <path class="cls-21" d="m105.87,96.68c1.72-2.51,2.08-2.83,3.88-3.48,0,.14.08.34.01.41-1.07,1.24-2.17,2.47-3.25,3.69-.21-.21-.42-.41-.64-.62Z"/>
      <path class="cls-21" d="m80.16,134.42c.2,2.02-.1,3.4-1.36,6.12-.39-1.47-.22-2.73.06-3.94.19-.79.4-1.7,1.29-2.18Z"/>
      <path class="cls-21" d="m219.03,131.61c-.32-.97-.67-1.93-.96-2.91-.24-.79-.49-1.59-.08-2.53,1.2,1.16,1.42,2.56,1.56,4-.17.48-.35.95-.52,1.43Z"/>
      <path class="cls-21" d="m105.87,96.68c.21.21.42.41.64.62-.54.61-1.08,1.23-2.02,2.29.09-.85.03-1.17.16-1.36.37-.55.81-1.04,1.23-1.56Z"/>
      <path class="cls-21" d="m123.29,86.3c-.23-.19-.46-.39-.68-.58.54-.31,1.08-.61,1.86-1.05-.03,1.1-.59,1.38-1.17,1.63Z"/>
      <path class="cls-21" d="m219.03,131.61c.17-.48.35-.95.52-1.43.12.46.29.92.34,1.39.02.15-.27.33-.41.5-.15-.15-.3-.3-.45-.46Z"/>
      <path class="cls-21" d="m128.97,89.39c-.2-.19-.39-.39-.59-.58.26-.19.5-.44.79-.56.18-.07.44.05.67.09-.08.22-.1.49-.24.65-.15.18-.41.27-.63.4Z"/>
      <path class="cls-21" d="m118.47,89.38c0,.31,0,.63,0,.94-.37.38-.68.21-.65-.21.02-.26.42-.49.64-.73Z"/>
      <path class="cls-21" d="m123.69,93.62c.21.02.43.05.64.07-.16.15-.3.33-.49.42-.08.04-.25-.1-.38-.16.07-.11.15-.23.22-.34Z"/>
      <path class="cls-21" d="m108.12,250.03c-.18-.2-.36-.4-.54-.6,1.17-2.87,2.8-4.74,5.48-6.28.45.52-.08.75-.33.98-1.89,1.69-3.42,3.66-4.6,5.9Z"/>
      <path class="cls-21" d="m189.21,241.51c-.22.18-.44.36-.65.54-.63-.25-1.33-.41-1.58-1.37.92-.05,1.63.21,2.24.83Z"/>
      <path class="cls-21" d="m86.1,211.81c2.89-2.61,6.35-3.82,10.15-4.3,2.61-.33,5.2-.42,7.8.07.31.06.61.19,1.36.43-.79.12-1.13.22-1.46.21-6.11-.08-11.92,1.13-17.29,4.14-.19-.19-.37-.37-.56-.56Z"/>
      <path class="cls-21" d="m102.6,204.84c-3.77.16-7.36.31-11.38.48,2.95-1.47,5.69-1.59,8.47-1.41.99.07,2.03.05,2.92.93Z"/>
      <path class="cls-21" d="m86.1,211.81c.19.19.37.37.56.56-.55.54-1.13,1-2.2,1.04.38-.9.98-1.28,1.64-1.6Z"/>
      <path class="cls-21" d="m133.97,213.71c2.93.33,5.75,1.12,8.48,2.22,2.18.88,4.14,2.11,5.88,3.71-.19.18-.37.35-.56.53-4.55-2.41-9.26-4.4-14.28-5.58-.42-.1-.86-.15-1.28-.23.25-.19.47-.44.75-.54.31-.11.68-.08,1.02-.11Z"/>
      <path class="cls-21" d="m141.25,212.46c3-.12,5.13.6,8.14,2.79-.25.1-.47.26-.61.22-2.42-.85-4.84-1.73-7.25-2.62-.13-.05-.19-.26-.29-.39Z"/>
      <path class="cls-21" d="m133.97,213.71c-.34.03-.71,0-1.02.11-.28.1-.5.35-.75.54-1.56.05-1.56.03-2.47-.6,1.58-.61,2.14-.61,4.24-.05Z"/>
      <path class="cls-21" d="m147.77,220.17c.19-.18.37-.35.56-.53q.74.52.92,1.28c-.66.05-1.12-.25-1.48-.75Z"/>
      <path class="cls-21" d="m92.37,159.49c-.32-1.04-.3-2.07.04-3.1.83-.62,1.8-1.11,2.44-1.88.64-.78.88-1.88,1.42-2.77,2.84-4.66,9.46-7.58,15.79-4.49.78.38,1.5.88,2.24,1.32.34.38.65.79,1.01,1.14,2.26,2.22,3.33,4.99,3.59,8.06.18,2.09-.44,4.08-1.35,5.96-.33.69-.73,1.36-1.1,2.03-1.16,1.51-2.76,2.51-4.25,3.64-1.65.47-3.25,1.08-5.03,1.16-5.24.24-10.05-2.99-11.89-7.64-.19-.48-.38-.96-.49-1.26-.9-.81-1.67-1.49-2.43-2.17Zm4.24-5c.4.1.82.15,1.18.32.78.36,1.64.65,2.28,1.19,1.79,1.52,1.52,3.8-.52,4.98-.52.3-1.12.45-1.71.6-.41.11-.85.12-1.28.17.95,4.41,5.86,7.84,10.64,7.51,5.64-.39,10.02-4.78,10.37-10.23.34-5.4-3.17-10.29-8.64-11.46-5.37-1.15-10.62,1.81-12.32,6.92Zm.44,5.95c.48-.16,1.25-.33,1.92-.67,1.02-.53,1.17-1.79.39-2.63-1.23-1.33-3.68-1.57-5.23-.52-.96.65-1.03,1.83-.19,2.65.79.77,1.78,1,3.11,1.18Z"/>
      <path class="cls-21" d="m183.79,161.61c-.4-1.9-.47-3.81-.27-5.74.71-2.07,1.64-4.03,2.95-5.79,1.26-1,2.53-1.99,3.79-2.99.49-.16.98-.34,1.47-.49,6.22-1.9,12.34.82,15.09,6.72.18.39.34.79.52,1.23.62.41,1.3.79,1.91,1.26.47.37.89.83.8,1.53v1.17s.03-.04.03-.04c-.52.25-.56.7-.51,1.19-.03.08-.03.19-.08.24-.68.63-1.49,1.17-2.03,1.9-.5.68-.67,1.6-1.07,2.36-2.48,4.69-8.23,7.65-14.25,5.88-.66-.2-1.32-.42-1.98-.63-.12-.12-.22-.28-.36-.36-3.02-1.67-4.96-4.19-5.99-7.45Zm21.88-7.22c-1.95-5.19-7.22-8.02-12.56-6.79-5.35,1.23-8.96,6.44-8.4,11.87.45,4.39,4.01,9.57,10.75,9.78,2.67.08,5.14-.81,7.19-2.6,1.49-1.3,2.78-2.76,3.11-4.79-.97-.24-1.86-.34-2.63-.68-2.59-1.14-2.85-3.97-.48-5.53.84-.56,1.89-.79,3.02-1.25Zm-.55,6.05c1.45-.15,2.53-.43,3.35-1.31.67-.72.65-1.66-.06-2.3-1.51-1.35-4.34-1.13-5.64.44-.6.73-.56,1.76.25,2.27.71.45,1.55.67,2.09.89Z"/>
      <path class="cls-21" d="m209.56,159.66c-.05-.49,0-.94.51-1.19-.02.34-.04.68-.05,1.02-.15.07-.3.12-.46.17Z"/>
      <path class="cls-21" d="m210.06,158.51v-1.17c.37.39.4.78,0,1.17Z"/>
      <path class="cls-21" d="m156.65,158.09c.6.47,1.25.89,1.79,1.42.28.28.47.75.49,1.15.02.38-.15.91-.42,1.1-.26.18-.86.13-1.16-.05-1.01-.63-1.42-1.66-1.64-2.79.31-.28.63-.56.94-.83Z"/>
      <path class="cls-21" d="m145.63,158.93c-.22,1.12-.63,2.16-1.64,2.79-.3.19-.89.23-1.16.05-.27-.19-.48-.75-.43-1.1.2-1.31,1.13-2.06,2.29-2.57.31.28.63.56.94.84Z"/>
      <path class="cls-21" d="m145.63,158.93c-.31-.28-.63-.56-.94-.84q1.04-.3.94.84Z"/>
      <path class="cls-21" d="m156.65,158.09c-.31.28-.63.56-.94.83q-.1-1.13.94-.83Z"/>
    </g>
  </g>
</svg>