<?xml version="1.0" encoding="UTF-8"?>
<svg xmlns="http://www.w3.org/2000/svg" viewBox="0 0 300.74 300.84">
  <defs>
    <style>
      .cls-1 {
        fill: #fff;
      }

      .cls-2, .cls-3, .cls-4 {
        fill: #4b4a6c;
      }

      .cls-3 {
        opacity: .3;
      }

      .cls-3, .cls-4 {
        mix-blend-mode: multiply;
      }

      .cls-5 {
        isolation: isolate;
      }

      .cls-6 {
        mix-blend-mode: overlay;
        opacity: .8;
      }

      .cls-7 {
        fill: #403c6b;
      }

      .cls-8 {
        fill: #c5e3c5;
      }

      .cls-9 {
        fill: #eaeaf5;
      }

      .cls-10 {
        fill: #232345;
      }

      .cls-11 {
        fill: #6d6a9c;
      }

      .cls-4 {
        opacity: .2;
      }

      .cls-12 {
        fill: #f8b4c2;
      }
    </style>
  </defs>
  <g class="cls-5">
    <g id="Layer_1" data-name="Layer 1">
      <g>
        <g>
          <path class="cls-8" d="m117.03,45.13c-31.78,7.98-58.32,31.73-69.77,51.46-11.45,19.73,20.25,15.29,16.82,29.86-3.43,14.56-26.2,48.7,4.64,92.65,30.84,43.95,118.06,55.38,169.6-4.82,68.19-79.65,0-199.59-121.3-169.14Z"/>
          <path class="cls-8" d="m35.81,124.12c-3.83,13.68,18.62,14.31,23.6,4.05s-19.26-19.58-23.6-4.05Z"/>
          <path class="cls-8" d="m44.08,140.21c-7.99,6.97.11,16.56,8.06,7.68,7.95-8.88-.07-14.66-8.06-7.68Z"/>
        </g>
        <g>
          <g>
            <path class="cls-7" d="m178.37,206.23h-57.09c-28.54,2.63-41.77,34.83-41.77,34.83,22.39,19.9,70.31,19.49,70.31,19.49,0,0,47.92.41,70.31-19.49,0,0-13.23-32.2-41.77-34.83Z"/>
            <g>
              <g>
                <path class="cls-10" d="m100.78,219.02c-2.47,1.44-4.63,3.52-6.12,5.96-.26.42.37.77.65.38,1.6-2.26,3.51-4.23,5.75-5.86.28-.2.03-.66-.28-.48h0Z"/>
                <path class="cls-10" d="m99.04,223.83c-2.09,1.58-3.82,3.76-4.68,6.25-.15.43.55.73.74.31.52-1.14,1.1-2.24,1.84-3.25s1.61-1.92,2.56-2.71c.33-.27-.12-.86-.46-.6h0Z"/>
                <path class="cls-10" d="m103.8,222.12c-1.82,1.75-3.48,3.77-4.55,6.07-.18.38.34.69.57.33,1.34-2.09,2.75-4.12,4.5-5.88.33-.33-.18-.84-.51-.51h0Z"/>
              </g>
              <g>
                <path class="cls-10" d="m118.38,243.09c-1.04,1.04-1.99,2.18-2.81,3.4s-1.58,2.51-1.91,3.94c-.06.27.29.41.44.19.77-1.18,1.39-2.46,2.18-3.64s1.69-2.28,2.7-3.29c.38-.38-.21-.97-.59-.59h0Z"/>
                <path class="cls-10" d="m113.57,245.5c-1.33,1.9-2.62,3.86-3.63,5.95-.2.41.38.76.62.36,1.21-1.99,2.37-3.99,3.71-5.9.3-.43-.4-.83-.7-.41h0Z"/>
              </g>
              <g>
                <path class="cls-10" d="m182.14,227.25c.92.89,1.75,1.88,2.46,2.94s1.26,2.22,1.78,3.4c.21.48,1.02.14.85-.36-.86-2.52-2.56-4.78-4.54-6.53-.37-.32-.9.2-.54.54h0Z"/>
                <path class="cls-10" d="m186.65,228.54c1.18,1.84,2.22,3.77,3.11,5.76.11.24.46.3.67.17.24-.14.29-.43.17-.67-.94-1.97-2.02-3.87-3.25-5.68-.29-.43-.98-.03-.7.41h0Z"/>
                <path class="cls-10" d="m187.37,224.53c1.48,1.4,2.72,2.99,3.77,4.74.31.52,1.11.05.81-.47-1.06-1.81-2.44-3.45-3.99-4.85-.4-.36-.98.22-.59.59h0Z"/>
              </g>
              <g>
                <path class="cls-10" d="m210.98,232.73c1.62,2.12,3,4.4,4.23,6.77.28.54,1.09.06.82-.48-1.21-2.42-2.73-4.67-4.43-6.77-.28-.35-.9.12-.63.48h0Z"/>
                <path class="cls-10" d="m210.98,237.3c.63.85,1.22,1.73,1.75,2.64s.99,1.87,1.52,2.78c.26.46,1.08.15.88-.37-.39-1.02-.97-1.99-1.56-2.9s-1.25-1.8-1.95-2.64c-.29-.35-.91.12-.63.49h0Z"/>
              </g>
            </g>
            <path class="cls-9" d="m174.19,239.74s12.36,1.85,9.67-4.62-9.67-11.55-9.67-11.55c0,0,11.13,2.32,3.74-6.61-2.96-3.58-8.08-7.06-13.14-9.95h-29.93c-5.06,2.89-10.17,6.37-13.14,9.95-7.39,8.93,3.74,6.61,3.74,6.61,0,0-6.98,5.09-9.67,11.55-2.69,6.46,9.67,4.62,9.67,4.62,0,0-7.87,7.48-10.65,16.96,18.3,3.98,35.01,3.84,35.01,3.84,0,0,16.71.14,35.01-3.84-2.78-9.48-10.65-16.96-10.65-16.96Z"/>
            <g>
              <path class="cls-1" d="m167.51,237.28c1.14,1.39,2.2,2.86,3.17,4.37s1.69,3.14,2.73,4.58c.25.34.83.15.71-.3-.47-1.78-1.57-3.36-2.64-4.84s-2.3-2.87-3.66-4.13c-.22-.2-.5.1-.32.32h0Z"/>
              <path class="cls-1" d="m168.17,242.42c.74,1.06,1.37,2.22,1.9,3.39s.87,2.44,1.36,3.65c.17.42.9.42.86-.12-.09-1.39-.65-2.7-1.31-3.92s-1.48-2.3-2.45-3.28c-.18-.19-.52.06-.37.28h0Z"/>
              <path class="cls-1" d="m163.39,239.32c.76,1.01,1.48,2.05,2.14,3.12s1.23,2.22,1.87,3.33c.28.48,1.09.16.91-.39-.41-1.25-1.1-2.41-1.86-3.48s-1.65-2.04-2.66-2.89c-.2-.17-.58.06-.39.3h0Z"/>
              <path class="cls-1" d="m131.86,221.86c-1.4.39-2.57,1.38-3.6,2.37-.52.5-1.01,1.03-1.48,1.58-.49.58-.98,1.17-1.25,1.89-.14.36.38.61.63.36.49-.48.84-1.08,1.27-1.61s.88-1.06,1.36-1.55.96-.93,1.46-1.37c.53-.47,1.1-.89,1.77-1.14.32-.12.2-.62-.15-.53h0Z"/>
              <path class="cls-1" d="m130.58,224.97c-1.15.89-2.15,1.89-3.03,3.03-.43.56-.84,1.15-1.2,1.75s-.74,1.26-.84,1.99c-.04.26.29.56.51.3.44-.53.73-1.13,1.06-1.73s.71-1.22,1.12-1.8c.8-1.14,1.73-2.22,2.73-3.19.24-.23-.11-.54-.35-.35h0Z"/>
              <path class="cls-1" d="m134.4,223.57c-1.1.75-2.03,1.7-2.86,2.73s-1.61,2.14-2.02,3.42c-.13.4.43.58.64.27.72-1.03,1.34-2.13,2.11-3.13s1.66-1.88,2.54-2.76c.26-.26-.08-.75-.41-.53h0Z"/>
              <path class="cls-1" d="m139.39,244.02c-.45,1.27-.79,2.56-1.04,3.89-.12.64-.23,1.28-.32,1.92s-.17,1.33-.02,1.97c.07.29.44.23.53,0,.23-.56.27-1.22.35-1.82.09-.67.17-1.33.28-1.99.22-1.28.5-2.55.79-3.81.09-.38-.45-.52-.57-.16h0Z"/>
              <path class="cls-1" d="m140.76,247.25c-.3,1.37-.45,2.73-.49,4.13s-.04,2.81.33,4.15c.13.47.83.37.84-.11.03-1.35-.14-2.69-.14-4.04s.07-2.7.18-4.03c.03-.41-.63-.5-.72-.1h0Z"/>
              <path class="cls-1" d="m143.37,244.3c-.18,1.31-.22,2.63-.13,3.95.05.63.11,1.26.18,1.89.08.69.22,1.28.49,1.92.15.36.67.15.68-.19.04-1.27-.29-2.51-.43-3.77s-.3-2.53-.45-3.8c-.03-.22-.31-.22-.34,0h0Z"/>
            </g>
            <path class="cls-3" d="m184.75,218.25c2.88,4.61,9.98-2.09,9.98-2.09,1.39,2.27,3.91,1.26,6.22-.5-6.03-4.8-13.54-8.61-22.58-9.44h-57.09c-9.07.83-16.58,4.65-22.62,9.48,2.3,1.73,4.79,2.72,6.17.46,0,0,7.11,6.7,9.98,2.09,0,0,12.22,5.97,34.96,6.25,22.75-.27,34.96-6.25,34.96-6.25Z"/>
            <path class="cls-10" d="m220.82,240.79c-1.18-2.86-2.71-5.6-4.32-8.23-3.59-5.87-7.95-11.35-13.14-15.88-6.31-5.52-13.9-9.58-22.23-10.91-3.3-.53-6.63-.35-9.97-.35-12.94,0-25.87,0-38.81,0-3.63,0-7.28-.11-10.91,0-7.3.21-14.75,3.53-20.65,7.66-9.44,6.6-17.06,16.48-21.74,27-.11.24-.21.48-.31.73-.37.89,1.08,1.28,1.45.4.06-.15-.1.2,0,0,.08-.16.14-.33.22-.49.26-.58.53-1.15.82-1.72.96-1.94,2.01-3.83,3.14-5.67,3.53-5.77,7.81-11.12,12.9-15.58,6.28-5.49,13.9-9.45,22.21-10.62,3.08-.43,6.26-.2,9.36-.2h38.07c3.69,0,7.39-.07,11.08,0,2.87.05,5.85.82,8.57,1.69,3.96,1.27,7.68,3.17,11.1,5.52,9.39,6.45,16.87,16.25,21.52,26.62.07.15.13.3.2.45.1.23-.06-.15,0,0,.36.88,1.81.49,1.45-.4h0Z"/>
          </g>
          <g>
            <g>
              <path class="cls-2" d="m194.1,85.14c-24.12-16.98-64.51-16.98-88.63,0-35.95,25.31-39.47,74.46-28.76,95.87,16.05,32.1,73.08,33.03,73.08,33.03,0,0,57.03-.93,73.08-33.03,10.71-21.41,7.19-70.57-28.76-95.87Z"/>
              <g>
                <path class="cls-9" d="m228.18,157.91c-7.32-9.1-19.2-10.09-40.08,4.17-15.7,10.73-38.31,6.59-38.31,6.59,0,0-22.61,4.14-38.31-6.59-20.88-14.26-32.76-13.27-40.08-4.17-7.32,9.1-7.58,19.29-1.81,15.65,0,0-3.45,13.71,4.8,11.04,0,0,3.64,14.92,9.58,9.95,0,0,6.43,12.37,9.46,6.79,0,0,8.37,10.63,11.4,5.68,0,0,7.11,6.7,9.98,2.09,0,0,12.22,5.97,34.96,6.25,22.75-.27,34.96-6.25,34.96-6.25,2.88,4.61,9.98-2.09,9.98-2.09,3.03,4.95,11.4-5.68,11.4-5.68,3.03,5.58,9.46-6.79,9.46-6.79,5.94,4.97,9.58-9.95,9.58-9.95,8.25,2.67,4.8-11.04,4.8-11.04,5.77,3.64,5.51-6.55-1.81-15.65Z"/>
                <g>
                  <g>
                    <path class="cls-1" d="m79.42,155.86c-2.54,1.35-4.93,3-6.8,5.21-.89,1.05-1.63,2.23-2.18,3.49-.52,1.19-1.08,2.67-.92,3.99.05.41.62.55.75.1.37-1.29.51-2.57,1.06-3.82s1.27-2.36,2.11-3.4c1.7-2.12,3.9-3.8,6.15-5.31.17-.11.02-.36-.16-.27h0Z"/>
                    <path class="cls-1" d="m77.86,161.7c-2.25,2.4-3.92,5.27-4.84,8.43-.45,1.56-.73,3.16-.83,4.78-.05.83-.05,1.67,0,2.51.04.75.05,1.58.42,2.25.14.24.57.21.63-.08.12-.67-.03-1.35-.09-2.03-.06-.79-.07-1.58-.04-2.37.06-1.59.31-3.16.73-4.69.84-3.07,2.35-5.97,4.43-8.39.24-.28-.15-.68-.41-.41h0Z"/>
                    <path class="cls-1" d="m78.71,168.68c-1.44,3.68-2.01,7.64-1.63,11.58.18,1.87.54,3.72,1.09,5.51s1.19,3.74,2.43,5.14c.26.3.76-.02.65-.38-.51-1.74-1.43-3.33-1.97-5.07s-.94-3.68-1.1-5.56c-.32-3.72.06-7.47,1.16-11.04.13-.41-.48-.56-.63-.17h0Z"/>
                    <path class="cls-1" d="m83.65,180.15c.06,3.07.8,6.01,1.99,8.84s2.57,5.71,4.43,8.14c.21.27.78.13.61-.26-1.14-2.71-2.78-5.17-3.98-7.85s-2.22-5.8-2.46-8.88c-.03-.38-.6-.39-.59,0h0Z"/>
                    <path class="cls-1" d="m90.86,187.75c.94,3.19,2.38,6.22,4.21,9,1.74,2.63,3.83,5.55,6.52,7.27.33.21.59-.24.39-.5-.95-1.23-2.08-2.31-3.1-3.49-1.07-1.24-2.06-2.56-2.96-3.93-1.76-2.68-3.21-5.55-4.39-8.53-.16-.4-.79-.25-.66.18h0Z"/>
                  </g>
                  <g>
                    <path class="cls-1" d="m219.99,156.13c2.25,1.51,4.44,3.19,6.15,5.31.81,1.01,1.53,2.12,2.06,3.31.29.63.52,1.29.69,1.97s.23,1.31.41,1.94c.13.44.7.31.75-.1.15-1.29-.38-2.73-.88-3.89-.56-1.3-1.31-2.51-2.22-3.59-1.87-2.21-4.26-3.87-6.8-5.21-.18-.09-.32.16-.16.27h0Z"/>
                    <path class="cls-1" d="m221.3,162.11c2.08,2.42,3.58,5.32,4.43,8.39.41,1.49.65,3.01.72,4.55.04.79.03,1.58-.03,2.37-.05.72-.23,1.45-.1,2.17.05.3.49.33.63.08.69-1.25.51-3.24.43-4.62-.09-1.66-.37-3.32-.84-4.92-.92-3.16-2.58-6.03-4.84-8.43-.26-.27-.65.13-.41.41h0Z"/>
                    <path class="cls-1" d="m220.23,168.85c1.1,3.57,1.49,7.32,1.16,11.04-.16,1.89-.54,3.76-1.1,5.56s-1.46,3.33-1.97,5.07c-.11.36.39.68.65.38,1.21-1.36,1.84-3.25,2.38-4.96.58-1.85.96-3.75,1.14-5.68.38-3.94-.19-7.9-1.63-11.58-.15-.38-.76-.24-.63.17h0Z"/>
                    <path class="cls-1" d="m215.33,180.15c-.24,3.08-1.2,6.07-2.46,8.88s-2.84,5.14-3.98,7.85c-.16.38.41.53.61.26,1.86-2.43,3.26-5.32,4.43-8.14s1.93-5.77,1.99-8.84c0-.39-.56-.38-.59,0h0Z"/>
                    <path class="cls-1" d="m208.05,187.57c-1.18,2.98-2.63,5.85-4.39,8.53-.88,1.33-1.84,2.61-2.88,3.83s-2.2,2.33-3.18,3.59c-.2.26.05.72.39.5,2.69-1.72,4.78-4.64,6.52-7.27,1.83-2.78,3.27-5.8,4.21-9,.13-.43-.5-.58-.66-.18h0Z"/>
                  </g>
                </g>
                <path class="cls-4" d="m230.64,161.42c1.85,5.38.74,9.1-3.04,6.72,0,0,3.35,13.3-4.66,10.71,0,0-3.53,14.48-9.3,9.65,0,0-6.24,12.01-9.18,6.59,0,0-8.12,10.31-11.06,5.51,0,0-6.9,6.5-9.69,2.02,0,0-11.85,5.8-33.92,6.06-22.07-.27-33.92-6.06-33.92-6.06-2.79,4.47-9.69-2.02-9.69-2.02-2.94,4.8-11.06-5.51-11.06-5.51-2.94,5.41-9.18-6.59-9.18-6.59-5.77,4.83-9.3-9.65-9.3-9.65-8,2.59-4.66-10.71-4.66-10.71-3.77,2.38-4.89-1.34-3.04-6.72-4.82,7.97-4.38,15.31.65,12.14,0,0-3.45,13.71,4.8,11.04,0,0,3.64,14.92,9.58,9.95,0,0,6.43,12.37,9.46,6.79,0,0,8.37,10.63,11.4,5.68,0,0,7.11,6.7,9.98,2.09,0,0,12.22,5.97,34.96,6.25,22.75-.27,34.96-6.25,34.96-6.25,2.88,4.61,9.98-2.09,9.98-2.09,3.03,4.95,11.4-5.68,11.4-5.68,3.03,5.58,9.46-6.79,9.46-6.79,5.94,4.97,9.58-9.95,9.58-9.95,8.25,2.67,4.8-11.04,4.8-11.04,5.03,3.17,5.48-4.17.65-12.14Z"/>
              </g>
              <path class="cls-10" d="m227.65,158.44c2.58,3.25,4.87,7.18,5.5,11.34.15.98.36,2.52-.3,3.38s-1.79.17-2.49-.25c-.57-.35-1.26.23-1.1.85.46,1.86.72,3.82.69,5.74-.02,1.24-.13,2.72-.89,3.76-.89,1.21-2.39,1.01-3.67.62-.38-.12-.83.14-.92.52-.72,2.95-3.82,13.25-8.33,9.62-.35-.29-.93-.32-1.18.15-.95,1.83-5.94,10.69-8.17,6.79-.22-.38-.87-.54-1.18-.15-1.48,1.87-7.85,9.48-10.23,5.83-.27-.41-.81-.49-1.18-.15-1.92,1.79-6.68,5.43-8.81,2.24-.24-.36-.64-.46-1.03-.27-1.62.79-3.51,1.4-5.32,1.97-5.17,1.61-10.52,2.65-15.89,3.31-13.67,1.67-27.9.95-41.18-2.87-2.28-.66-4.72-1.4-6.78-2.4-.38-.19-.79-.09-1.03.27-2.13,3.19-6.89-.44-8.81-2.24-.36-.34-.91-.26-1.18.15-2.38,3.65-8.75-3.96-10.23-5.83-.3-.38-.96-.23-1.18.15-2.23,3.9-7.21-4.97-8.17-6.79-.24-.47-.82-.44-1.18-.15-4.51,3.63-7.6-6.66-8.33-9.62-.09-.39-.54-.64-.92-.52-1.28.39-2.78.59-3.67-.62-.76-1.04-.87-2.52-.89-3.76-.03-1.92.22-3.88.69-5.74.15-.62-.53-1.2-1.1-.85-1.38.84-2.6.97-2.86-.89-.32-2.3.61-4.87,1.51-6.93.6-1.35,1.31-2.66,2.1-3.9.39-.62.81-1.22,1.24-1.81.35-.47.84-.88.94-1.46.03-.18-.02-.4-.03-.58-.13-3.56.07-7.15.42-10.69,1.51-15.38,6.53-30.65,15.56-43.28,13.89-19.44,37.7-31.79,61.64-31.45,20.74.3,41.27,9.88,55.85,24.47,7.68,7.68,12.82,17.34,16.23,27.59,3.06,9.23,4.87,18.93,5.45,28.64.11,1.77.17,3.53.17,5.3,0,.97,1.5.97,1.5,0-.01-9.28-1.37-18.63-3.69-27.61-2.84-10.98-7.37-21.78-14.61-30.61-6.05-7.38-13.91-13.43-22.14-18.17-9.78-5.63-20.62-9.43-31.85-10.68-24.85-2.76-50.63,8.22-66.51,27.44-10.71,12.96-16.74,29.21-18.8,45.79-.53,4.23-.83,8.51-.72,12.77,0,.29.09.69.04.97,0,.03.01.06,0,.08.13-.5-.56.49-.46.36-1.03,1.37-1.97,2.81-2.77,4.33-1.22,2.3-2.21,4.81-2.53,7.41-.18,1.46-.2,3.39.99,4.47s2.88.48,4.09-.25l-1.1-.85c-.58,2.34-.92,4.89-.68,7.3.15,1.47.52,3.06,1.66,4.09,1.31,1.2,3.16,1.06,4.74.58l-.92-.52c1.05,4.27,4.85,15.11,10.84,10.28l-1.18-.15c1.47,2.81,7.39,12.68,10.76,6.79l-1.18.15c2.2,2.79,9.2,10.73,12.58,5.53l-1.18.15c2.73,2.56,8.31,6.21,11.16,1.93l-1.03.27c1.78.87,3.7,1.5,5.58,2.09,5.27,1.65,10.72,2.69,16.2,3.37,13.86,1.72,28.31.97,41.77-2.9,2.41-.69,4.87-1.45,7.14-2.55l-1.03-.27c2.85,4.28,8.43.62,11.16-1.93l-1.18-.15c3.38,5.2,10.38-2.74,12.58-5.53l-1.18-.15c3.37,5.89,9.29-3.98,10.76-6.79l-1.18.15c5.99,4.83,9.79-6.01,10.84-10.28l-.92.52c1.58.49,3.43.62,4.74-.58,1.13-1.03,1.51-2.62,1.66-4.09.24-2.4-.09-4.96-.68-7.3l-1.1.85c1.12.68,2.61,1.27,3.83.46,1.12-.75,1.35-2.29,1.33-3.54-.06-5.01-3.05-9.96-6.06-13.75-.6-.76-1.65.31-1.06,1.06Z"/>
              <g>
                <g>
                  <g>
                    <path class="cls-1" d="m111.82,135.77c-15.28-.39-18.19,17.99-12.96,26.31,2.61,4.16,5.88,7.05,12.96,7.05s10.35-2.89,12.96-7.05c5.22-8.32,2.32-26.7-12.96-26.31Z"/>
                    <path class="cls-10" d="m127.2,147.03c-1.12-4.13-3.5-7.98-7.3-10.13s-8.98-2.49-13.18-1.25c-7.09,2.08-10.71,9.22-10.99,16.2-.14,3.64.55,7.48,2.48,10.61.51.82,1.8.07,1.3-.76-3.11-5.06-2.99-12.22-.45-17.48,1.36-2.82,3.53-5.2,6.4-6.51,3.53-1.62,8.2-1.67,11.82-.37,4.47,1.61,7.27,5.64,8.47,10.09.25.93,1.7.54,1.45-.4h0Z"/>
                    <ellipse class="cls-10" cx="115.8" cy="152.99" rx="9.67" ry="11.95"/>
                  </g>
                  <g>
                    <path class="cls-1" d="m187.75,135.77c15.28-.39,18.19,17.99,12.96,26.31-2.61,4.16-5.88,7.05-12.96,7.05s-10.35-2.89-12.96-7.05c-5.22-8.32-2.32-26.7,12.96-26.31Z"/>
                    <path class="cls-10" d="m173.82,147.43c1.05-3.88,3.27-7.45,6.89-9.39s8.43-2.08,12.26-.79c6.25,2.1,9.24,8.75,9.39,14.96.07,3.28-.55,6.67-2.28,9.49-.51.82.79,1.58,1.3.76,3.48-5.65,3.24-13.65.23-19.43-1.62-3.12-4.21-5.64-7.49-6.95-3.94-1.57-9-1.54-12.91.08-4.62,1.92-7.54,6.15-8.82,10.87-.25.93,1.19,1.33,1.45.4h0Z"/>
                    <ellipse class="cls-10" cx="183.77" cy="152.99" rx="9.67" ry="11.95"/>
                  </g>
                  <g>
                    <path class="cls-12" d="m96.72,180.09c-14.73-3.38-10.02-13.45,0-11.06,13.87,3.32,12.06,13.82,0,11.06Z"/>
                    <path class="cls-12" d="m202.85,180.09c14.73-3.38,10.02-13.45,0-11.06-13.87,3.32-12.06,13.82,0,11.06Z"/>
                  </g>
                  <path class="cls-10" d="m105.1,133.92c2.59-1.11,6.13-1.89,10.22-.42,2.93,1.05,4.56-1.29,2.41-2.98-2.47-1.94-8.68-3.06-13.02-.93-4.34,2.13-4.04,3.58-3.69,4.41.35.83,1.65.95,4.08-.09Z"/>
                  <path class="cls-10" d="m194.47,133.92c-2.59-1.11-6.13-1.89-10.22-.42-2.93,1.05-4.56-1.29-2.41-2.98,2.47-1.94,8.68-3.06,13.02-.93,4.34,2.13,4.04,3.58,3.69,4.41-.35.83-1.65.95-4.08-.09Z"/>
                </g>
                <g>
                  <path class="cls-11" d="m149.79,163.32c-12.15,0-28.86,21.44-24.62,32.9,4.24,11.47,24.62,9.47,24.62,9.47,0,0,20.38,1.99,24.62-9.47,4.24-11.47-12.46-32.9-24.62-32.9Z"/>
                  <g>
                    <g>
                      <path class="cls-10" d="m149.04,174.07v15.54c0,.97,1.5.97,1.5,0v-15.54c0-.97-1.5-.97-1.5,0h0Z"/>
                      <path class="cls-10" d="m131.54,184.32c1.22.41,2.44.81,3.66,1.22l-.55-.72c.02,2.97,1.98,5.73,4.68,6.87,3.44,1.45,7.72.38,10.85-1.43.84-.48.08-1.78-.76-1.3-2.64,1.53-6.28,2.54-9.23,1.46-2.3-.84-4.02-3.17-4.03-5.61,0-.34-.23-.62-.55-.72-1.22-.41-2.44-.81-3.66-1.22-.92-.31-1.31,1.14-.4,1.45h0Z"/>
                      <path class="cls-10" d="m167.64,182.87l-3.66,1.22c-.32.11-.55.38-.55.72-.01,2.43-1.73,4.76-4.03,5.61-2.95,1.08-6.59.07-9.23-1.46-.84-.48-1.59.81-.76,1.3,3.12,1.81,7.41,2.88,10.85,1.43,2.69-1.14,4.66-3.91,4.68-6.87l-.55.72,3.66-1.22c.91-.3.52-1.75-.4-1.45h0Z"/>
                    </g>
                    <path class="cls-10" d="m149.79,156.42c-7.65,0-17.52,12.47,0,21.14,17.52-8.67,7.65-21.14,0-21.14Z"/>
                    <g class="cls-6">
                      <path class="cls-1" d="m142.33,166.11c.49-1.66,1.34-3.17,2.55-4.41,1.37-1.39,2.97-2.01,4.91-1.95,1.68.06,3.43.48,4.8,1.48,1.5,1.1,2.06,2.67,2.34,4.43.05.28.46.24.53,0,.55-1.79-.61-3.74-1.94-4.86-1.56-1.31-3.6-1.86-5.6-1.94-2.14-.09-3.96.54-5.44,2.11-1.32,1.4-2.14,3.2-2.29,5.12,0,.08.12.09.14.02h0Z"/>
                    </g>
                  </g>
                </g>
              </g>
              <g>
                <g>
                  <path class="cls-10" d="m93.2,104.42c-1.59,1.42-3.02,2.99-4.33,4.68s-2.6,3.42-3.23,5.39c-.09.28.32.54.51.3.62-.79,1.12-1.64,1.65-2.49.56-.89,1.16-1.76,1.78-2.61,1.24-1.69,2.63-3.28,4.1-4.77.31-.32-.16-.78-.49-.49h0Z"/>
                  <path class="cls-10" d="m91.88,110.63c-1.87,1.77-3.46,3.77-4.78,5.98s-2.41,4.56-2.85,7.09c-.06.35.4.47.53.15.93-2.31,1.83-4.63,3.09-6.79s2.78-4.15,4.49-5.94c.31-.32-.17-.8-.49-.49h0Z"/>
                  <path class="cls-10" d="m96.93,107.46c-2.94,3.5-5.64,7.65-6.81,12.11-.08.31.37.52.52.22,1.02-2.01,1.96-4.06,3.07-6.02s2.41-3.9,3.81-5.71c.32-.42-.24-1.02-.6-.6h0Z"/>
                </g>
                <g>
                  <path class="cls-10" d="m218.02,123.14c1.08,2.68,2.03,5.44,2.78,8.23s1.21,5.67,1.95,8.47c.09.34.63.28.62-.08-.04-2.93-.78-5.85-1.62-8.65s-1.91-5.54-3.21-8.19c-.14-.29-.66-.08-.54.23h0Z"/>
                  <path class="cls-10" d="m217.91,132.77c.77,1.99,1.44,4.02,1.97,6.09s.88,4.17,1.37,6.25c.1.45.82.35.81-.11-.07-2.17-.57-4.34-1.18-6.42s-1.4-4.11-2.34-6.08c-.16-.34-.76-.1-.62.26h0Z"/>
                  <path class="cls-10" d="m213.7,128.61c.6,1.76,1.2,3.52,1.84,5.27s1.18,3.49,2.08,5.08c.19.34.69.1.61-.26-.38-1.79-1.13-3.48-1.79-5.18s-1.36-3.41-2.06-5.11c-.17-.41-.83-.25-.68.19h0Z"/>
                </g>
              </g>
            </g>
            <g>
              <path class="cls-3" d="m163.6,109.61s22.7,6.76,12.65-11.58c0,0,10.56-.78,8.59-6.94-1.84-5.74-9.66-7.37-11.84-15.62-20.5-5.63-44.65-3.48-62.37,6.44-1.83,5.76-4.16,16.36,5.64,10.66,0,0,4.01,37.56,18.29,15.19,0,0,2.45,13.78,15.22,23.79,12.76,10.01,27.43,6.84,13.82-21.94Z"/>
              <path class="cls-9" d="m191.02,84.57s-.64-10.5-7.25-17.66c-6.61-7.16-8.01-7.61-9.67-1.83,0,0-3.64-8.22-12.47-14.62-8.83-6.39-10.35.3-8.53,9.74,0,0-7.46-10.05-16.44-14.01-8.98-3.96-16.75-1.67-7.76,11.27,0,0-7.31-3.35-15.68,2.59-8.37,5.94-1.37,8.22,9.13,6.7,0,0-9.94,4.94-11.9,16.55-1.96,11.61,10.22,1.56,10.22,1.56,0,0-3.81,10.81,3.5,20.55,7.31,9.74,11.57-8.37,11.57-8.37,0,0,2.44,15.99,11.42,26.03,8.98,10.05,20.16,10.32,15.75-2.01-4.42-12.33-3.72-20.37-3.72-20.37,0,0,3.82,5.81,10.52,5.5,6.7-.3,4.86-4.44-.01-10.38,0,0,12.25-.76,11.15-4.26-1.1-3.5-8.95-5.42-9.98-15.35,0,0,12.66,3.42,20.14,8.34Z"/>
              <path class="cls-10" d="m191.77,84.57c-.25-4.01-1.46-8.09-3.16-11.7-1.56-3.31-3.77-6-6.31-8.61-1.34-1.38-3.39-3.9-5.56-3.9s-2.89,2.9-3.36,4.53l1.37-.18c-1.98-4.45-5.39-8.52-8.94-11.79-2.86-2.63-11.12-9.6-13.57-2.83-1.16,3.2-.46,7.08.15,10.32l1.37-.58c-3.67-4.92-8.37-9.48-13.62-12.66-2.99-1.81-6.49-3.3-10.02-3.47-2.22-.11-4.76.51-5.63,2.79-1.45,3.77,1.79,8.45,3.78,11.35l1.03-1.03c-4.19-1.89-9.45-1.11-13.46.82-1.76.85-3.44,1.96-4.89,3.28-.82.74-1.7,1.66-2.03,2.75-.59,1.95,1,3.17,2.67,3.71,3.45,1.1,7.47.6,10.98.11l-.58-1.37c-4.8,2.41-8.75,7.12-10.79,12-.88,2.1-1.49,4.35-1.66,6.62-.1,1.29-.05,2.81.8,3.86,1.49,1.86,4.2.88,5.97.02s3.41-1.98,4.91-3.22l-1.25-.73c-2.41,6.91-.75,15.37,3.58,21.13,1.52,2.02,3.89,4.12,6.56,2.85,2.26-1.07,3.58-3.7,4.52-5.87.77-1.78,1.42-3.64,1.87-5.53h-1.45c.54,3.48,1.53,6.94,2.68,10.26,2.21,6.36,5.36,12.6,10.15,17.4,2.24,2.25,4.86,4.25,7.82,5.45,1.92.78,4.26,1.3,6.24.44,1.87-.81,2.67-2.7,2.73-4.64.12-3.63-1.76-7.16-2.7-10.59-1.29-4.7-2.43-9.94-2.01-14.86l-1.4.38c2.84,3.83,7.7,6.61,12.54,6.12,2.15-.22,4.4-1.19,4.08-3.72-.39-3.07-3.08-5.91-4.94-8.19l-.53,1.28c1.43-.09,2.85-.27,4.26-.49,2.1-.33,4.51-.72,6.32-1.93,4.03-2.71-2.06-6.58-3.92-8.38-2.69-2.61-4.32-5.81-4.74-9.55-.11-.95-1.61-.96-1.5,0,.34,2.99,1.28,5.82,3.09,8.25,1.36,1.83,3.08,3.26,4.78,4.76.74.65,2.88,2.26,1.86,3.36-1.22,1.32-3.85,1.63-5.51,1.93-1.53.27-3.09.47-4.65.57-.68.04-.94.77-.53,1.28,1.61,1.97,3.82,4.34,4.44,6.91s-2.56,2.58-4.3,2.48c-2.59-.14-5.03-1.35-7.01-2.97-.64-.52-1.23-1.09-1.79-1.69-.18-.2-.36-.4-.53-.61-.09-.11-.22-.28-.13-.16-.45-.6-1.33-.39-1.4.38-.28,3.33.26,6.83.87,10.09.71,3.77,1.86,7.38,3.06,11.02.66,2,1.52,5.11-.08,6.92-1.28,1.45-3.59,1.06-5.21.55-2.82-.9-5.35-2.75-7.48-4.76-4.8-4.52-7.98-10.53-10.2-16.67-1.28-3.55-2.37-7.26-2.94-10.99-.11-.75-1.28-.68-1.45,0-.78,3.3-2.02,7.32-4.54,9.7-1.95,1.85-3.94.62-5.41-1.19-2.98-3.67-4.54-8.41-4.64-13.11-.05-2.38.17-4.92.96-7.18.27-.78-.73-1.16-1.25-.73-.99.81-2.15,1.6-3.3,2.28s-3.82,2.33-5.16,1.25c-.87-.7-.73-2.31-.65-3.27.18-2.02.75-4.06,1.53-5.92,1.33-3.18,3.43-5.99,5.98-8.28,1.26-1.13,2.66-2.22,4.18-2.98.83-.42.19-1.48-.58-1.37-3.25.46-7.22.98-10.4-.18-.7-.25-1.59-.67-1.48-1.54.16-1.21,1.65-2.33,2.52-3.01,3.17-2.49,7.06-4.08,11.12-4.02,1.16.02,2.31.16,3.43.46.31.08.61.18.91.28.12.04.47.19.26.1.61.28,1.5-.34,1.03-1.03-1.24-1.81-2.45-3.71-3.23-5.77-.45-1.19-.85-2.56-.58-3.84.46-2.2,2.99-2.41,4.84-2.25,7.03.63,13.22,5.88,17.9,10.75,1.39,1.45,2.83,3.05,3.99,4.6.5.68,1.54.29,1.37-.58-.5-2.62-2.32-12.6,3.17-11.16,3.29.86,6.25,3.65,8.62,5.96,2.16,2.11,4.1,4.45,5.74,6.98.77,1.17,1.51,2.39,2.09,3.68.28.62,1.2.39,1.37-.18.27-.94.57-2.56,1.41-3.21.61-.47,1.28,0,1.83.37,1.34.9,2.49,2.16,3.6,3.32,1.5,1.57,2.94,3.15,4.09,5,2.52,4.03,4.2,9.03,4.51,13.8.06.96,1.56.97,1.5,0h0Z"/>
              <g>
                <path class="cls-1" d="m140.1,91.62c1.38,5.98,3.07,11.86,5.64,17.44,2.42,5.25,5.65,10.71,10.43,14.15.24.18.48-.19.3-.39-3.86-4.52-7.29-9.1-9.85-14.51s-4.42-11.1-6.21-16.78c-.06-.2-.36-.12-.32.09h0Z"/>
                <path class="cls-1" d="m126.45,78.7c-1.79,4.32-1.99,9.05-2.1,13.67-.09,3.7,0,9.12,3.52,11.42.34.22.83-.23.58-.58-1.19-1.64-2.18-3.12-2.63-5.13-.49-2.17-.4-4.42-.35-6.62.1-4.25.18-8.53,1.43-12.63.09-.3-.34-.39-.45-.12h0Z"/>
                <path class="cls-1" d="m126.34,68.07c-2.96,1.44-5.92,3.03-8,5.66-1,1.26-1.77,2.68-2.42,4.14-.71,1.6-1.44,3.32-1.7,5.07-.08.55.73,1.04,1,.42,1.31-2.98,2.07-6.15,4.08-8.79s4.75-4.22,7.38-5.93c.37-.24.05-.77-.34-.58h0Z"/>
                <path class="cls-1" d="m130.87,61.77c-4.07-2.52-9.61-2.71-13.82-.4-.59.32-.07,1.17.52.89,4.17-2,8.89-2.11,13.12-.18.21.09.38-.19.18-.31h0Z"/>
                <path class="cls-1" d="m155.91,89.4c1.39,6.26,6.45,11.92,12.59,13.87.78.25,1.06-.92.33-1.21-5.83-2.3-10.22-6.89-12.12-12.88-.16-.51-.91-.3-.8.22h0Z"/>
                <path class="cls-1" d="m160.9,85.47c.57,2.43,2.01,4.53,4.05,5.97s5.3,2.32,7.81,1.44c.53-.18.48-1.06-.14-1.03-1.2.07-2.41.17-3.6-.03s-2.39-.65-3.44-1.3c-1.92-1.18-3.38-3.09-4.09-5.22-.13-.38-.7-.23-.6.17h0Z"/>
                <path class="cls-1" d="m147.26,61.05c-1.72-3.18-4.12-5.86-7.06-7.96-1.45-1.04-3-1.9-4.65-2.59-.86-.36-1.73-.67-2.62-.94-.8-.23-1.77-.6-2.61-.51-.4.04-.66.61-.22.83.7.35,1.55.42,2.31.63.81.23,1.62.49,2.4.81,1.64.65,3.22,1.5,4.68,2.49,2.91,1.95,5.42,4.57,7.26,7.54.2.32.7.04.51-.3h0Z"/>
              </g>
            </g>
            <g>
              <path class="cls-2" d="m98,98.03s-13.55-.61-18.73-13.09c-5.18-12.48,8.46-23.75,19.27-16.75,10.81,7,8.74,21.47,8.74,21.47l-9.29,8.37Z"/>
              <path class="cls-10" d="m98,97.28c-9.18-.44-19.17-8.22-19.11-17.93.04-6.3,5.13-11.92,11.43-12.51,6.82-.63,12.53,4.76,14.79,10.8.98,2.61,1.47,5.39,1.56,8.17.03.9.02,1.8-.04,2.7-.02.27-.04.53-.06.8,0,.09-.07.54-.01.15-.13.94,1.31,1.35,1.45.4,1.43-10.15-4.05-23.65-15.61-24.53-6.68-.51-13.01,4.33-14.6,10.77-1.74,7.02,2.42,14.25,8.02,18.28,3.44,2.47,7.9,4.21,12.17,4.41.96.05.96-1.45,0-1.5h0Z"/>
              <g>
                <path class="cls-11" d="m99.67,93.92s-7.31.91-12.33-6.7c-5.02-7.61-.33-17.31,9.12-12.18,9.45,5.13,7.01,15.53,7.01,15.53"/>
                <path class="cls-10" d="m99.67,93.17c-2.31.28-4.84-.5-6.82-1.64-3.91-2.25-7.08-6.74-6.79-11.39.11-1.71.75-3.47,2.08-4.6,1.43-1.22,3.38-1.39,5.15-.96,4.34,1.06,7.92,4.57,9.15,8.83.63,2.2.81,4.82.31,6.96-.22.94,1.23,1.34,1.45.4.53-2.29.4-4.85-.14-7.12-1.14-4.79-4.77-8.63-9.41-10.23-2.05-.71-4.35-.82-6.32.21-1.71.89-2.87,2.56-3.4,4.38-1.43,4.89,1.25,10.1,4.94,13.23,2.58,2.19,6.34,3.85,9.81,3.43.95-.11.96-1.62,0-1.5h0Z"/>
              </g>
            </g>
            <g>
              <path class="cls-2" d="m201.57,98.03s13.55-.61,18.73-13.09c5.18-12.48-8.46-23.75-19.27-16.75-10.81,7-8.74,21.47-8.74,21.47l9.29,8.37Z"/>
              <path class="cls-10" d="m201.57,98.78c3.54-.17,7.2-1.44,10.25-3.18,5.88-3.36,10.79-10.01,10.32-17.04s-5.81-12.36-12.46-13.17c-7.2-.88-13.52,4.44-16.24,10.75-1.81,4.19-2.53,9.17-1.89,13.72.13.95,1.58.55,1.45-.4.05.38-.05-.56-.06-.72-.05-.72-.07-1.45-.07-2.18.02-2.35.32-4.7.94-6.97,1.69-6.09,6.5-12.15,13.2-12.76,6.26-.57,12.13,4.01,13.41,10.1,1.39,6.63-3.03,13.37-8.45,16.83-3.02,1.92-6.79,3.35-10.4,3.52-.96.05-.97,1.55,0,1.5h0Z"/>
              <g>
                <path class="cls-11" d="m199.9,93.92s7.31.91,12.33-6.7c5.02-7.61.33-17.31-9.12-12.18-9.45,5.13-7.01,15.53-7.01,15.53"/>
                <path class="cls-10" d="m199.9,94.67c2.81.34,5.95-.75,8.27-2.27,4.14-2.72,7.4-7.75,6.78-12.86-.51-4.23-3.84-7.22-8.17-6.58-4.9.72-9.21,4.64-10.84,9.23-.94,2.65-1.21,5.81-.57,8.58.22.94,1.66.54,1.45-.4-.4-1.74-.35-3.86.01-5.7.84-4.29,3.69-7.73,7.69-9.49,1.82-.8,4.03-1.22,5.9-.3,1.54.76,2.49,2.27,2.89,3.9,1.09,4.49-1.69,9.18-5.17,11.82-2.24,1.7-5.36,2.92-8.23,2.57-.96-.12-.95,1.39,0,1.5h0Z"/>
              </g>
            </g>
          </g>
        </g>
      </g>
    </g>
  </g>
</svg>