<?xml version="1.0" encoding="UTF-8"?>
<svg id="Layer_1" data-name="Layer 1" xmlns="http://www.w3.org/2000/svg" viewBox="0 0 300 299.76">
  <defs>
    <style>
      .cls-1 {
        fill: #d1a960;
      }

      .cls-2 {
        fill: #fff;
      }

      .cls-3 {
        fill: #e8b55e;
      }

      .cls-4 {
        fill: #819faa;
      }

      .cls-5 {
        fill: #58304d;
      }

      .cls-6 {
        fill: #6b4a3d;
      }

      .cls-7 {
        fill: #eec96b;
      }

      .cls-8 {
        fill: #ec9248;
      }

      .cls-9 {
        fill: #819eaa;
      }

      .cls-10 {
        fill: #776bb0;
      }

      .cls-11 {
        fill: #594ca0;
      }

      .cls-12 {
        fill: #7865ac;
      }

      .cls-13 {
        fill: #d2b784;
      }

      .cls-14 {
        fill: #d3b062;
      }

      .cls-15 {
        fill: #663256;
      }

      .cls-16 {
        fill: #592f4b;
      }

      .cls-17 {
        fill: #a8735e;
      }

      .cls-18 {
        fill: #df9188;
      }

      .cls-19 {
        fill: #5f54a4;
      }

      .cls-20 {
        fill: #caa45d;
      }

      .cls-21 {
        fill: #eea84c;
      }

      .cls-22 {
        fill: #e6be63;
      }

      .cls-23 {
        fill: #e6b961;
      }

      .cls-24 {
        fill: #e6be62;
      }

      .cls-25 {
        fill: #594c9f;
      }

      .cls-26 {
        fill: #e1d373;
      }

      .cls-27 {
        fill: #809baa;
      }

      .cls-28 {
        fill: #653457;
      }

      .cls-29 {
        fill: #e0bc62;
      }

      .cls-30 {
        fill: #b295a2;
      }

      .cls-31 {
        fill: #5b304d;
      }

      .cls-32 {
        fill: #d7e9e6;
      }

      .cls-33 {
        fill: #7b4728;
      }

      .cls-34 {
        fill: #c3c685;
      }

      .cls-35 {
        fill: #d9b681;
      }

      .cls-36 {
        fill: #d1af86;
      }

      .cls-37 {
        fill: #dfc978;
      }

      .cls-38 {
        fill: #6055a4;
      }

      .cls-39 {
        fill: #dcc07f;
      }

      .cls-40 {
        fill: #c7b988;
      }

      .cls-41 {
        fill: #e7a27f;
      }

      .cls-42 {
        fill: #bba79a;
      }

      .cls-43 {
        fill: #97634e;
      }

      .cls-44 {
        fill: #785143;
      }

      .cls-45 {
        fill: #dfc178;
      }

      .cls-46 {
        fill: #ec9147;
      }

      .cls-47 {
        fill: #dab763;
      }
    </style>
  </defs>
  <rect class="cls-32" x="35" y="31.09" width="230" height="237.22" rx="68.69" ry="68.69"/>
  <g>
    <g>
      <path class="cls-21" d="m138.16,76.78c.25-.07.53-.1.74-.23.52-.32.61-.77.17-1.02-1.34-.77-2.04-2.11-2.98-3.23-.46-.54-.78-1.16-.94-1.84-.33-1.35.18-2.45,1.46-2.98.71-.29,1.49-.46,2.25-.61,1.64-.31,1.61-.3,1.97-2.08.19-.93.45-1.86.81-2.74.55-1.35,1.58-2.26,2.92-2.83,1.48-.62,1.67-.56,2.79.75.34.4.71.77,1.08,1.13,1.44,1.39,2.83,2.8,3.66,4.69.44,1.01.89,1.09,1.89.68.48-.2.95-.43,1.41-.67,1.15-.6,2.29-.57,3.53-.18,1.72.55,2.57,1.73,2.75,3.42.15,1.38.12,2.78-.42,4.11-.23.56-.45,1.13-.66,1.7-.42,1.14-.18,1.65.99,1.85,3.85.67,7.64,1.61,11.4,2.65,3.93,1.09,7.85,2.23,11.52,4.09,1.08.55,2.19,1.11,3.47.7.59.57,1.04,1.23,1.3,2.01.09.21.13.43.15.65-.02.22-.08.43-.19.62-.08.11-.13.17-.13.17-.03.07.04.06.23-.05.23.04.43.13.61.28.35.38.49.83.49,1.33-.31,2.47,1,4.52,1.9,6.61,2.66,6.14,5.31,12.28,7.19,18.72.44,1.5,1,3.16-1.27,3.82-3.15,0-6.1-1.25-9.27-1.29-8.19-.11-14.33,3.36-18.99,9.97-4.06,5.75-5.22,12.16-5.14,19.03.11,9.66,2.93,18.45,8.97,25.89,5.98,7.36,13.27,13.02,23.16,14.38,2.69.37,5.18-.18,7.72-.74,1.53-.34,2.94-1.08,4.45-1.51.41-.1.83-.11,1.24-.05.27.05.52.17.74.33,1.28,1.97,2.48,3.98,2.38,6.47-1.06,1.43-2.59,2.29-4.01,3.25-4.32,2.91-8.87,5.39-13.69,7.42-5.85,2.46-11.88,4.26-18.06,5.71-4.9,1.15-9.87,1.83-14.78,2.83-.42.08-.86.03-1.3.04-2.85-.56-5.7.11-8.55.08-17.31-.2-33.58-3.94-48.09-13.8-4.04-2.75-7.61-5.98-10.46-10.07-3.36-4.84-4.06-10.08-3.22-15.67.49-3.26,1.45-6.45,1.33-9.79-.04-1.05.13-2.12,1.32-2.6,1.58.66,1.43,2.14,1.3,3.35-1.05,9.2,10.76,17.25,20.23,11.55,5.4-3.25,7.81-9.77,5.68-16.05-2.16-6.37-7.26-9.38-13.98-8.53-3.55.45-6.41,1.96-8.88,4.45-.74.75-1.44,1.87-2.81,1.02-.9-2.09-.02-4.12.45-6.07.85-3.5.81-7.21,2.47-10.51.84-.91,1.96-1.01,3.11-1.05,4.31-.14,8.13-1.67,11.59-4.18.64-.46,1.23-.98,1.69-1.62.82-1.14,1.68-2.34.97-3.83-.69-1.45-2.08-1.63-3.52-1.81-3.12-.39-5.96,1.07-8.99,1.27-1.92-.39-1.89-1.76-1.56-3.23.45-2.04,1.24-3.98,1.97-5.93,6.55-17.64,17.91-31.17,34.47-40.24Z"/>
      <path class="cls-19" d="m198.81,227.44c.18.19.39.35.52.57,4,6.63,7.47,13.53,9.72,20.96.95,3.15,1.54,6.41,2.27,9.62.15.68.28,1.32.77,1.89.41.48.21.99-.36,1.24-.64.27-1.29.51-1.96.7-4.09,1.18-8.26,1.95-12.49,2.47-.56-.44-.96-.98-1.16-1.68-1.19-4.29-3.48-8.07-5.61-11.93,2.37,3.61,2.66,7.92,3.91,11.9.24.76.19,1.55-.34,2.22-2.1.62-4.29.7-6.45.99-2.41.32-4.85.53-7.28.62-16.1.62-32.21.88-48.32.48-9.31-.23-18.62-.78-27.86-2.08-3.35-.47-6.73-.84-9.97-1.91,1.64-6.55,3.33-13.08,5.8-19.39,1.44-3.66,3.26-7.1,5.54-10.29,2.21-3.1,3.82-3.57,7.37-2.09,9.53,3.97,19.54,5.95,29.7,7.34,1.27.22,2.53.58,3.84.48,3.11-.48,6.24-.18,9.36-.25,9.39-.21,18.66-1.29,27.7-3.88,4.95-1.42,9.6-3.53,13.47-7.06.52-.48,1.09-.86,1.82-.92Z"/>
      <path class="cls-44" d="m188.88,86.66c-.83-.64-1.22-1.45-.92-2.51.79-.07,1.53,0,2.29.33,4.14,1.81,8.33,3.53,12.47,5.36,4.79,2.11,9.33,4.68,13.56,7.77,4.07,2.98,8.21,5.88,12.22,8.94,5.49,4.2,10.3,9.1,14.48,14.61,3.21,4.23,6.17,8.63,8.94,13.17,3.89,6.39,6.48,13.27,7.98,20.58,1.09,5.3,1.96,10.62,1.63,16.05-.17,2.68-.32,5.38-1.45,7.89-.39.07-.33-.95-.7-.46-5.93,7.95-16.39,8.8-24.03,2.04-5.05-4.47-8.11-10.13-10.37-16.34-2.66-7.29-4.29-14.86-6.21-22.36-2.66-10.38-5.81-20.59-10.23-30.37-3.17-7.01-7.27-13.47-12.44-19.2-2.04-2.26-4.57-3.98-7.21-5.51Z"/>
      <path class="cls-44" d="m87,155.74c-1.24,5.06-2.49,10.13-3.73,15.19-.77,3.12-1.57,6.24-2.64,9.28-1.17,3.31-2.77,6.38-5.06,9.06-.33.39-.75.71-1.13,1.06-7.51-.53-13.13-4.35-17.33-10.31-3.44-4.88-4.92-10.46-5.28-16.43-.95-15.79,5.21-29.26,13.68-41.9,5.98-8.91,13.13-16.88,21.02-24.18,1.4-1.29,3.39-1.84,4.39-3.6.44-.57,1.11-.81,1.72-1.14,5.82-3.09,11.84-5.73,17.98-8.11.4-.16.81-.32,1.22-.43.77-.19,1.12.24,1.25.93.45.99-.04,1.77-.55,2.55-4.55,5.91-7.51,12.69-10.68,19.35-1.05,2.19-1.91,4.48-2.84,6.72-3.52,8.75-6.87,17.56-8.3,26.95-.76,3.47-1.28,6.99-1.99,10.47-.32,1.59-.41,3.31-1.74,4.52Z"/>
      <path class="cls-10" d="m108.84,204.45c1.65.55,3.3,1.09,4.95,1.65,6.69,2.3,13.55,3.89,20.54,4.91,5.79.85,11.63.82,17.47.74,9.37-.14,18.52-1.77,27.58-4.02,5.41-1.34,10.74-2.94,15.94-4.97,1.16-.45,1.52-.22,1.99.88.5,1.15.25,2.18-.25,3.25-.43.92-1.75,1.54-1.37,2.64.34.98,1.65,1.18,2.45,1.85.4.34.82.66,1.14,1.06.99,1.24,1.29,2.62.78,4.16-.56,1.72-1.66,3.06-3.04,4.15-1.09.86-2.27,1.6-3.42,2.4-.93,1.81-2.87,2.09-4.47,2.75-2.14.89-4.36,1.59-6.61,2.18-.76.07-1.45.48-2.21.55-.5.09-.96.33-1.45.44-.39.06-.78.06-1.17.07-.41,0-.81,0-1.22,0-1.69-.02-3.38-.06-5.02.47-15.78.77-31.38-.46-46.73-4.36-4.29-1.09-8.61-2.2-12.29-4.85-2.85-2.05-4.91-4.5-3.56-8.37.41-1.17-.22-2.2-.56-3.27-.48-1.5-.95-3.04.52-4.33Z"/>
      <path class="cls-6" d="m90.94,93.9c.19.19.38.47.21.68-.43.54-.84,1.15-1.4,1.52-1.77,1.16-3.14,2.74-4.63,4.2-1.25,1.22-2.52,2.41-3.69,3.7-2.33,2.57-4.56,5.23-6.89,7.81-1.81,2-3.48,4.11-5.1,6.26-5.16,6.84-9.46,14.18-12.59,22.16-1.78,4.54-3.08,9.24-3.78,14.08-.1.68-.1,1.39-.1,2.08-.01,2.26-.02,4.53,0,6.79.05,5.81,1.66,11.2,4.89,15.98,3.26,4.82,7.61,8.32,13.47,9.61.59.13,1.18.32,1.77.45.65.14,1.06.56,1.38,1.1-2.69,3.23-6.21,4.98-10.32,5.52-2.95.38-5.9.19-8.79-.63-2.47-.71-4.65-1.91-6.6-3.57-4.98-4.25-7.84-9.7-8.87-16.1-1.73-10.75-.29-21.12,3.92-31.15,4.09-9.72,9.69-18.45,16.77-26.26,3.22-3.55,6.58-6.95,10.1-10.19.76-.7,1.48-1.41,2.55-1.73.7-.21,1.3-.84,1.89-1.35,4.18-3.56,8.61-6.78,13.3-9.64.81-.49,1.68-.89,2.53-1.33Z"/>
      <path class="cls-6" d="m188.88,86.66c.07-.25.16-.54.45-.56.24-.01.53.05.74.18,2.94,1.7,5.69,3.59,7.85,6.33,1.99,2.52,4.05,4.99,5.79,7.69,3.54,5.5,6.38,11.35,8.7,17.47,2.25,5.94,4.17,11.98,5.9,18.09,1.66,5.86,2.96,11.8,4.55,17.67,1.62,5.96,3.37,11.88,6.29,17.37,2.29,4.3,5.37,7.9,9.42,10.61,2.59,1.73,5.46,2.58,8.63,2.47,2.24-.08,4.31-.72,6.2-1.78,1.81-1.01,3.6-2.12,5.01-3.71.23-.26.5-.48.77-.7.37-.3.6-.15.81.56.05.16.05.34.08.51-.06,1.16-.59,2.17-1.04,3.2-2.02,4.57-5.12,8.26-9.34,10.94-7.84,4.99-17.15,3.72-23.41-3.15-2.2-2.41-3.76-5.2-5-8.19-.7-1.68-1.36-3.37-2.03-5.06-1.08-.87-1.46-2.16-1.75-3.39-1.98-8.37-4.21-16.68-5.87-25.12-.52-2.59-.99-5.19-1.59-7.76-.85-3.22-1.55-6.48-2.48-9.68-.13-.74-.49-1.41-.63-2.14-.05-.23-.11-.47-.18-.7-.14-.33-.29-.67-.39-1.02-.74-1.83-1.25-3.74-1.98-5.58-2.12-5.91-4.62-11.66-7.34-17.31-1.89-3.8-3.74-7.62-5.72-11.37-.75-1.12-1.41-2.27-1.36-3.68-.23-.38-.45-.77-.68-1.15-.16-.12-.27-.28-.33-.47l-.07-.58Z"/>
      <path class="cls-46" d="m112.02,86.96c.36-.6.73-1.2,1.09-1.8,1.05-.18,1.95-.74,2.86-1.23,6.57-3.53,13.67-5.48,20.9-7.07.42-.09.87-.06,1.3-.08-1.1,1.87-2.99,2.87-4.64,4.12-2.77,2.09-5.67,4-8.37,6.17-1.75,1.41-3.24,3.14-4.87,4.71-3.28,3.15-5.87,6.85-8.25,10.69-2.7,4.36-4.99,8.95-6.88,13.72-1.05,2.66-2.04,5.35-2.75,8.13-.18.69.22.94.78,1.09.14,1.45-1.16,1.79-1.97,2.47-1.2.99-2.65,1.69-3.64,2.94-1.57,1.98-1.46,3.17.4,4.9.49.45,1.22.77.98,1.66-.14,2.52-.74,4.97-1.18,7.44-.57,3.16-1.25,6.29-1.89,9.44.85,1.93.21,3.26-1.66,4.09-.49.58-.55,1.28-.49,1.97.29,3.52-.6,6.89-1.22,10.31-.76,4.19-.7,8.37,1.34,12.19,1.84,3.45,4.13,6.6,7.28,9.07,1.98,1.55,3.92,3.14,6.03,4.52,3.87,2.53,7.94,4.63,12.25,6.31,6.5,2.54,13.17,4.38,20.08,5.37,3.09.44,6.19.71,9.28,1.04,3.82.41,7.62.38,11.44.44.53,0,1.03.12,1.45.48-3.54.32-7.09.67-10.63.95-1.73.14-3.45.16-5.19-.18-2.13-.42-4.27-.72-6.46-.77-1.99-.05-3.98-.34-5.95-.63-7.41-1.12-14.67-2.91-21.8-5.21-8.17-2.64-15.81-6.41-22.57-11.76-2.11-1.67-4.21-3.37-6.04-5.37-.7-.77-1.41-1.51-2.57-1.66-.63-.08-.82-.6-.6-1.19.21-.57.47-1.12.75-1.67,2.85-5.64,4.61-11.64,5.82-17.8.45-2.3,1-4.59,1.07-6.95.31-5.79,1.77-11.4,2.74-17.08,1.64-9.29,4.77-18.13,8.25-26.86,3.46-8.43,7.47-16.59,12.21-24.39.5-.82,1-1.62,1.35-2.51Z"/>
      <path class="cls-25" d="m142.9,239.88c-2.2.24-4.33-.29-6.47-.6-2.32-.34-4.6-.86-6.9-1.31-6-1.16-11.76-3.07-17.41-5.37-3.22-1.31-2.98-1.48-5.4,1.51-2.12,2.63-3.71,5.67-5.03,8.81-1.82,4.33-3.28,8.78-4.37,13.36-.48,2.02-1.28,3.97-1.91,5.96-.2.63-.57,1.06-1.2,1.26-1.41,0-2.72-.52-4.07-.83-.85-.2-1.68-.4-2.55-.47-.78-.06-1.19-.73-1.01-1.5.33-1.35.67-2.69,1.03-4.03,2.86-10.91,7.04-21.27,12.99-30.88,1.04-1.69,1.97-3.48,3.56-4.77.3-.22.64-.31,1.01-.32.99.35,1.88.95,2.89,1.27,1,.56,1.98,1.16,3.11,1.44.24.02.46.08.69.16.43.2.84.43,1.29.6,2.09,1.06,4.32,1.73,6.58,2.31,1.19.42,2.45.61,3.65,1,1.77.32,3.45.98,5.25,1.15.38.01.76.02,1.14.07.72.2,1.42.48,2.18.45.37.01.75.03,1.12.1.83.33,1.69.45,2.57.43.39,0,.78.02,1.16.11,1.01.4,2.07.43,3.14.41.71.01,1.42-.02,2.12.12,1.9.62,3.86.34,5.81.41,3.96,0,7.92,0,11.88,0,1.62-.04,3.26.16,4.84-.4.69-.15,1.38-.11,2.08-.12.92.02,1.82-.05,2.69-.41.25-.05.5-.09.76-.1,1.01,0,2.02,0,2.96-.44.25-.05.5-.08.75-.09,1.49-.07,2.96-.27,4.44-.42.35-.12.72-.14,1.06-.28.48-.1.95-.21,1.42-.37.71-.23,1.46-.3,2.17-.54,2.75-.78,5.48-1.58,8.07-2.81,1.17-.56,2.41-.87,3.7-1.04.24-.08.5-.12.72-.24.65-.36,1.14-.2,1.48.42.66,1.17,1.3,2.35,1.95,3.53-.44,1.63-1.75,2.57-3,3.45-3.79,2.67-7.96,4.59-12.43,5.79-2.68.72-5.38,1.34-8.1,1.87-1.95.38-3.94.56-5.91.81-2.57.32-5.15.63-7.72.92-.77.09-1.56.12-2.34.12-4.43,0-8.85,0-13.28,0-.8-1.59-1.76-2.27-3.12-.51Z"/>
      <path class="cls-43" d="m218.27,177.6c-.04.2-.08.39-.12.59-.41,3.37-3.16,4.56-5.62,5.99-.74.43-1.52.17-2.19-.35-1.73-1.87-1.62-4.34-2.04-6.58-1.36-7.14-1.57-14.46-2.99-21.59-1.09-5.43-1.91-10.91-2.92-16.35-.17-.94-.42-1.87-.15-2.82,2.31-3.36,1.3-6.02-1.71-8.31-.34-.25-.46-.73-.54-1.17.17-1.85-.69-3.53-.93-5.31-.17-1.24-.69-2.58.7-3.53,1.72-.58,2.82.61,4.05,1.41.6.56.79,1.36,1.19,2.04.97,2.09,1.51,4.34,2.41,6.46.02.81.38,1.53.59,2.3,1.05,3.57,1.7,7.24,2.67,10.83.5,2.76.96,5.53,1.65,8.25,1.62,8.93,3.59,17.78,6.22,26.47-.01.57-.08,1.13-.26,1.67Z"/>
      <path class="cls-19" d="m105.19,221.04c-.35,0-.7-.02-1.04-.03.3-.51.72-.99.06-1.58-.45-.4-.83-.89-1.21-1.36-.72-.89-1.27-1.87-1.6-2.96-.65-2.11-.67-4.11,1.05-5.8.17-.17.27-.42.43-.67-.26-.56-.53-1.1-.77-1.65-.74-1.64-.24-3.05.86-4.32.37-.43.85-.58,1.4-.32,1.49.7,2.98,1.4,4.48,2.1-.05,1.84.09,3.64,1.14,5.26.56.86.55,1.82.05,2.73-1.16,2.11-.49,3.81,1.09,5.38,1.63,1.63,3.52,2.79,5.63,3.68,2.73,1.16,5.57,1.95,8.43,2.69,4.62,1.2,9.3,2.11,14.04,2.68,3.18.38,6.34.91,9.51,1.37.09.01.17.03.26.04,3.03.2,6.05.5,9.08.57,4.52.09,9.04.01,13.56,0,.59-.34,1.03-.3,1.17.48-.52.87-1.5.45-2.21.8-.27.04-.54.07-.82.08-1.21.4-2.51.11-3.72.5-1.18-.03-2.33.4-3.52.27-4.48.29-8.96.29-13.44.26-1.02-.23-2.05-.29-3.09-.25-1.27-.05-2.55.11-3.82-.13-.63-.28-1.3-.43-1.99-.39-.93-.02-1.86.04-2.79-.06-.5-.13-.93-.49-1.48-.46-.77-.04-1.55.04-2.32-.1-.47-.21-.93-.47-1.48-.43-.79-.04-1.6.07-2.35-.28-1.85-.31-3.71-.59-5.54-1.03-1.41-.41-2.88-.58-4.27-1.06-2.5-.73-5.02-1.43-7.41-2.51-.37-.11-.79-.06-1.09-.36l.04.02c-1.25-.54-2.52-1.03-3.67-1.78-.91-.41-1.79-.88-2.65-1.38Z"/>
      <path class="cls-46" d="m210.86,183.97c2.45-1.07,4.51-2.67,6.25-4.68.33-.38.69-.74,1.03-1.1,1.15,1.75,1.4,3.87,2.28,5.73.21.45.01.86-.45,1.04-.75.29-1.39.77-1.8,1.42-1.19,1.88-3.01,3.05-4.67,4.4-1.47-1.87-2.39-3.97-2.66-6.35-.13-.11-.17-.22-.12-.32.05-.1.09-.15.14-.15Z"/>
      <path class="cls-11" d="m194.08,265.4c-.69-2.42-1.43-4.82-2.05-7.25-.62-2.45-1.23-4.88-2.52-7.09-.17-.3-.33-.62-.42-.95-.06-.23-.07-.55.05-.72.17-.24.47-.1.65.08.44.42.92.82,1.27,1.31,2.55,3.54,4.64,7.33,5.91,11.53.26.85.26,1.71.3,2.58-1.06.23-2.08.63-3.2.52Z"/>
      <path class="cls-7" d="m218.12,176.12c-.62-.56-.71-1.37-.92-2.1-2.12-7.56-3.83-15.22-5.24-22.95-.09-.51-.09-1.03-.13-1.55-.09-.64-.71-1.45.54-1.64,1.21,5.22,2.43,10.43,3.64,15.65.94,4.04,1.89,8.08,3.1,12.05.1.32.09.68.14,1.02-.17.02-.34.03-.51.04-.34-.01-.4-.36-.62-.52Z"/>
      <path class="cls-3" d="m90.58,140.55c-.53,2.97-1.04,5.95-1.6,8.91-.45,2.37-.81,4.76-1.05,7.16-.04.41-.3.79-.46,1.18-.06-.71.08-1.47-.47-2.07.59-3.14,1.14-6.28,1.77-9.41.39-1.94.48-3.94,1.2-5.81.22-.33.42-.32.61.03Z"/>
      <path class="cls-39" d="m194.66,223.72c-3.81,1.86-7.74,3.36-11.9,4.21-.57.26-.69-.04-.65-.53,3.93-1.16,7.75-2.61,11.5-4.25.35.19.7.37,1.05.56Z"/>
      <path class="cls-46" d="m218.12,176.12c.21.17.41.34.62.52-.16.32-.31.64-.47.96-.05-.49-.1-.98-.15-1.47Z"/>
      <path class="cls-17" d="m210.86,183.97c0,.16-.01.31-.02.47-.19.04-.38.09-.57.13-.17.12-.33.24-.49.37-.65.25-1.3.48-1.94.75-6.39,2.63-12.77,2.38-18.98-.45-7.28-3.32-13.17-8.43-17.74-14.96-3.54-5.06-5.53-10.81-6.78-16.83-.84-4.04-.75-8.14-.49-12.21.19-2.95.88-5.84,1.68-8.69.07-.25.15-.51.28-.73,2-3.24,3.7-6.7,6.48-9.41,4.3-4.2,9.41-6.39,15.46-6.49,3.62-.06,7.06.78,10.52,1.65.41.57,1.62-.26,1.66.95-.42,1.11,0,2.18.21,3.25.29,1.42.58,2.84.87,4.27.1.51-.12.81-.62.93-1.22.66-2.16-.21-3.17-.6-2.85-1.1-5.7-2.16-8.82-1.96-1.68.11-3.41.39-4.13,2.17-.72,1.79.55,2.98,1.73,4.01,4.38,3.84,9.35,5.9,15.3,4.72.38-.04.76,0,1.12.11.23.11.42.27.58.47-.1,1.33.42,2.56.61,3.84.62,4.19,1.34,8.36,2.02,12.54.64,3.92,1.33,7.84,1.93,11.77.46,2.99.77,6,1.22,8.99.55,3.68,1.2,7.34,2.09,10.95Z"/>
      <path class="cls-2" d="m94.21,158.33c.55-1.36,1.11-2.73,1.66-4.09,1.38-1.67,2.83-3.28,4.63-4.54,1.43-1,2.87-1.77,4.73-1.92,1.72-.14,3.43-.53,5.17-.46,4.96.18,8.64,2.45,10.79,6.93,1.7,3.53,2.31,7.26,1.34,11.15-2.03,8.16-10.99,12.88-18.83,9.81-4.41-1.73-7.69-4.66-9.1-9.37-.48-1.61-.49-3.26-.48-4.91,0-.87.06-1.73.09-2.6Z"/>
      <path class="cls-44" d="m98.94,137.37c-.61-.3-1.25-.57-1.84-.91-1.87-1.09-2.39-2.94-1.37-4.87.65-1.24,1.57-2.27,2.72-3.06,1.56-1.07,3.15-2.09,4.72-3.13,1.5-.42,3-.83,4.49-1.26,1.69-.49,3.42-.54,5.15-.39.51.04,1.04.13,1.53.29,2.8.95,3.74,3.45,2.26,6.02-.75,1.3-1.78,2.34-2.99,3.21-3.92,2.81-8.25,4.34-13.12,4.15-.52-.02-1.04-.03-1.56-.04Z"/>
      <path class="cls-15" d="m144.43,159.34c1.3-1.01,2.9-1.12,4.41-1.4,1.88-.34,3.8-.31,5.71-.14.88.08,1.71.33,2.5.69,2.44,1.14,3.25,3.36,2.15,5.84-.25.56-.53,1.1-1.07,1.44-6.33,1.07-10.47-.88-13.7-6.43Z"/>
      <path class="cls-16" d="m144.43,159.34c1.03,0,1.84.37,2.25,1.39.58,1.46,1.75,2.25,3.11,2.91,1.89.91,3.83,1.49,5.93,1.49.86,0,1.74-.07,2.4.65-2.37,2.94-5.46,3.87-9.08,3.13-2.86-.58-5.08-2.22-6.78-4.55-.93-1.27-.93-2.05-.08-3.34.54-.82,1.23-1.47,2.24-1.66Z"/>
      <path class="cls-8" d="m199.93,118.51c-.55-.32-1.11-.63-1.66-.95.42-.13.87-.27.8-.84-.06-.43-.2-.84-.33-1.25-1.54-4.79-3.24-9.52-5.15-14.18-1.51-3.69-2.86-7.45-4.35-11.14-.36-.89.18-1.03.72-1.28.85.89,1.36,1.98,1.89,3.07,1.55,4.08,3.8,7.82,5.67,11.75,1.93,4.37,3.89,8.73,5.61,13.18.4,1.04,1.39,2.11.42,3.37-1.2-.59-2.27-1.46-3.63-1.72Z"/>
      <polygon class="cls-8" points="188.9 87.76 188.75 87.88 188.87 87.73 188.9 87.76"/>
      <path class="cls-46" d="m209.78,184.94c.17-.12.33-.24.49-.37-.17.12-.33.24-.49.37Z"/>
      <path class="cls-8" d="m188.95,87.24c.22.08.34.23.33.47-.13.02-.25.04-.38.05,0,0-.03-.03-.03-.03.02-.17.04-.33.08-.49Z"/>
      <path class="cls-9" d="m144.5,262.89c-1.19-.06-2.11-1.04-2.07-2.18.04-1.01,1.27-1.96,2.4-1.85.84.08,1.68,1.31,1.59,2.35-.09,1.02-.9,1.73-1.91,1.68Z"/>
      <path class="cls-4" d="m144.54,252.92c-1.01.05-1.94-.91-1.97-2.02-.03-.99.75-1.93,1.66-2.03,1.2-.12,2.25.8,2.26,1.99,0,1.09-.87,2.01-1.95,2.06Z"/>
      <path class="cls-27" d="m142.9,239.88c.02-.6-.03-1.21.07-1.8.17-1.06.93-1.36,1.92-.84,1.43.75,1.64,1.33,1.13,3.15-1.2.82-2.18.27-3.12-.51Z"/>
      <path class="cls-24" d="m112.02,86.96c0,1-.46,1.86-.96,2.67-3.7,6.01-6.71,12.39-9.83,18.7-.88,1.79-1.55,3.68-2.32,5.52-.46.09-.75.03-.5-.54.12-.41.21-.83.37-1.23,2.88-7.04,6.21-13.87,10.04-20.44.95-1.64,1.84-3.33,3.2-4.69Z"/>
      <path class="cls-23" d="m98.4,113.33c.17.18.34.36.5.54-2.31,5.23-3.99,10.69-5.68,16.13-1.08,3.47-1.88,7-2.65,10.55-.2,0-.4-.02-.61-.03.19-3.05,1.05-5.97,1.85-8.89,1.61-5.94,3.73-11.72,6.07-17.41.13-.31.34-.59.52-.89Z"/>
      <path class="cls-38" d="m163.27,218.61c.96-.24,1.79-.61,2.62-.61,2.35,0,4.66-.39,6.99-.6,3.99-.36,7.89-1.14,11.65-2.54,1.87-.7,3.72-1.45,5.59-2.13.45-.16,1.16-.63,1.42-.14.37.71-.58.89-.95,1.3-.6.64-1.39,1.03-2.17,1.41-2.83,1.36-5.8,2.27-8.88,2.89-4.26.86-8.53,1.52-12.9,1.31-1.12-.05-2.25-.02-3.36-.88Z"/>
      <path class="cls-38" d="m146.03,219.3c-3.89.95-7.58.87-11.31.41-2.34-.28-4.66-.57-6.91-1.25-1.84-.55-3.63-1.22-5.31-2.14-.37-.2-.68-.52-1.01-.8-.05-.04-.09-.2-.05-.23.1-.1.25-.26.35-.24,1.36.3,2.71.61,4.06.95,3.8.95,7.63,1.64,11.54,2.02,2.17.21,4.32.38,6.49.44.68.02,1.4-.02,2.16.83Z"/>
      <path class="cls-36" d="m178.55,229c-1.58.61-3.21.95-4.9,1-.16-.24-.17-.49-.04-.75.92-1.1,2.34-.23,3.38-.84.32.01.64.02.95.03.21.18.58.18.61.56Z"/>
      <path class="cls-12" d="m176.99,228.4c-.97.69-2.24.4-3.24.97-.39.42-.75.39-1.09-.06-.34-.15-.69-.3-1.03-.45.5-.41,1.1-.48,1.72-.48,1.21,0,2.43.01,3.64.02Z"/>
      <path class="cls-35" d="m182.11,227.41c.21.18.43.35.64.53-.61.49-1.33.53-2.06.55-.57.22-.72-.05-.67-.57.7-.17,1.39-.34,2.09-.51Z"/>
      <path class="cls-36" d="m180.02,227.92c.22.19.45.38.67.57-.35.31-.77.41-1.23.38-.2-.19-.56-.21-.62-.56.35-.26.74-.4,1.18-.38Z"/>
      <path class="cls-35" d="m178.84,228.3c.21.19.41.38.62.56-.3.04-.61.09-.91.13-.2-.19-.4-.37-.61-.56.3-.05.6-.09.9-.14Z"/>
      <path class="cls-22" d="m203.55,120.22c-.05-1.25-.53-2.37-.99-3.5-1.53-3.79-3.01-7.61-4.82-11.28-.31-.63-.53-1.29-.54-2,.16-.21.33-.21.49,0,2.91,5.72,5.45,11.58,7.5,17.66.19.59-.11.71-.61.63-.34-.5-.69-1-1.03-1.51Z"/>
      <path class="cls-14" d="m210.23,141.22c-.42-1.68-.87-3.35-1.25-5.03-.46-2.02-.87-4.06-1.3-6.09.17-.17.34-.17.51,0,1.14,3.25,1.97,6.57,2.61,9.95-.34.32-.01.95-.56,1.17Z"/>
      <path class="cls-29" d="m197.69,103.44c-.16,0-.33,0-.49,0-.32-.5-.69-.98-.96-1.51-1.4-2.76-2.78-5.54-4.15-8.32-.26-.53-.63-1.06-.23-1.69,2.22,3.7,4.17,7.54,5.84,11.51Z"/>
      <path class="cls-47" d="m210.23,141.22c.1-.43.21-.86.56-1.17.66,2.59,1.33,5.17,1.58,7.84-.48.45-.44,1.07-.54,1.64-.64-.99-.49-2.16-.73-3.24-.36-1.68-.59-3.38-.87-5.07Z"/>
      <path class="cls-20" d="m204.58,121.73c.2-.21.41-.42.61-.63,1.01,1.83,1.43,3.88,2.11,5.83.1.2.2.41.31.61.02.16.01.31-.02.47-.15.36-.29.36-.43,0-.5-.4-.54-1.03-.75-1.57-.61-1.57-1.22-3.14-1.84-4.71Z"/>
      <path class="cls-1" d="m207.17,128.01c.14,0,.28,0,.43,0,.2.69.39,1.39.59,2.08-.17,0-.34,0-.51,0-.53-.61-.55-1.34-.51-2.09Z"/>
      <path class="cls-43" d="m207.61,127.54c-.1-.2-.2-.41-.31-.61.1.2.2.41.31.61Z"/>
      <path class="cls-37" d="m142.01,230.4c1.31.07,2.62.14,3.93.22-1.33,1.26-2.86.51-4.32.43-.64.14-1.27.06-1.89-.09-1.04-.55-2.23.08-3.28-.43l-.89-.07c-.87-.57-1.93.02-2.81-.45-.28-.02-.56-.05-.84-.07-.7-.51-1.6-.05-2.32-.46l-.8-.07c-.02-1.06.64-.73,1.2-.58.87-.04,1.72.03,2.56.28.37.04.73.12,1.08.25.85.08,1.71.16,2.56.24.39.07.77.17,1.16.27,1.02-.08,2.02.02,3.02.24.54.16,1.13.04,1.66.29Z"/>
      <path class="cls-37" d="m148.82,230.92c4.64-.11,9.28-.22,13.91-.32.14.24.08.44-.14.6-.83.2-1.72-.19-2.51.28-4.16.21-8.32.24-12.48,0,0-1.07.67-.69,1.22-.56Z"/>
      <path class="cls-30" d="m112.54,224.27c2.46.82,4.93,1.65,7.39,2.47,0,.34-.34.36-.52.53-2.38-.6-4.74-1.25-6.88-2.49-.35-.17-.35-.34,0-.51Z"/>
      <path class="cls-45" d="m129.98,228.83c-.46.08-.89.21-1.2.58-1.97-.04-3.82-.69-5.71-1.17.04-.97.64-.57,1.13-.46,1.96.17,3.9.46,5.79,1.05Z"/>
      <path class="cls-45" d="m148.82,230.92c-.46.07-.9.19-1.22.56-2.01.04-4.03.22-5.98-.44,1.43-.23,2.93.28,4.32-.43.98-.08,1.96-.11,2.89.31Z"/>
      <path class="cls-40" d="m124.19,227.78c-.38.15-.75.31-1.13.46-1.22-.32-2.44-.65-3.66-.97.17-.18.34-.35.52-.53,1.43.29,2.91.41,4.27,1.04Z"/>
      <path class="cls-42" d="m107.83,222.11c1.29.59,2.7.98,3.69,2.1-1.45.09-2.58-.67-3.72-1.39-.33-.25-.32-.49.04-.7Z"/>
      <path class="cls-13" d="m107.83,222.11c-.01.23-.02.47-.04.7-1.01-.37-2.11-.63-2.6-1.77.41-.31.8-.16,1.17.08.5.32.98.66,1.47.99Z"/>
      <path class="cls-41" d="m160.08,231.48c.79-.67,1.78-.42,2.68-.56.77-.23,1.54-.4,2.26.13-1.6.63-3.28.48-4.94.43Z"/>
      <path class="cls-26" d="m165.02,231.06c-.75-.04-1.51-.09-2.26-.13,0-.11-.02-.22-.03-.32,1.18-.07,2.36-.14,3.54-.22.23-.12.47-.14.7-.02.14.24.1.44-.14.6-.61.03-1.21.06-1.82.09Z"/>
      <path class="cls-34" d="m166.86,230.52c-.2-.05-.39-.09-.59-.14,1.22-.61,2.54-.44,3.82-.51.32.28.28.51-.12.66l-.16-.04c-.98.33-1.97.37-2.96.03Z"/>
      <path class="cls-45" d="m136.45,230.53c1.11,0,2.27-.35,3.28.43-1.12.06-2.23.06-3.28-.43Z"/>
      <path class="cls-36" d="m169.98,230.53c.04-.22.08-.44.12-.66,0,0,.23.04.23.04,1.04-.29,2.07-.46,3.07.12-1.08.53-2.25.54-3.42.5Z"/>
      <path class="cls-34" d="m173.4,230.03c-1.02-.04-2.05-.08-3.07-.12.71-.45,1.54-.44,2.33-.59.36.02.73.04,1.09.06-.03.21-.07.41-.1.62,0,0-.12.05-.12.05h-.13Z"/>
      <path class="cls-18" d="m166.86,230.52c.99-.01,1.97-.02,2.96-.03-.92.59-1.95.57-2.98.47.04-.14.05-.29.02-.44Z"/>
      <path class="cls-45" d="m132.74,230c.96-.01,1.97-.28,2.81.45-.97.06-1.93.04-2.81-.45Z"/>
      <path class="cls-45" d="m129.57,229.48c.81-.03,1.64-.18,2.32.46-.82.06-1.61.02-2.32-.46Z"/>
      <path class="cls-42" d="m112.54,224.27c0,.17,0,.34,0,.51-.43-.05-.86-.1-1.05-.59.35.03.7.05,1.05.08Z"/>
      <path class="cls-44" d="m201.93,136.32c-.26.02-.53,0-.78.07-4.33,1.16-8.21-.28-12-2.13-1.81-.88-3.39-2.09-4.73-3.61-.17-.2-.36-.37-.52-.58-2.34-2.95-.62-5.38,1.69-6.26,1.93-.74,3.96-.72,5.91-.35,3.16.59,6.24,1.55,8.9,3.49,1.13,1.04,2.31,2.05,3.39,3.14,1.76,1.79,1.73,3.31-.04,5.09-.24.24-.5.47-.75.7,0,0-.25,0-.25,0h-.25c-.19.15-.37.3-.56.44Z"/>
      <path class="cls-45" d="m142.01,230.4c-.58.05-1.16.1-1.66-.29.59-.1,1.14,0,1.66.29Z"/>
      <path class="cls-45" d="m133.61,229.36c-.39.03-.76,0-1.08-.25.4-.08.75.03,1.08.25Z"/>
      <path class="cls-45" d="m137.33,229.87c-.42.03-.82,0-1.16-.27.43-.07.81.03,1.16.27Z"/>
      <path class="cls-2" d="m191.14,175.23c-1.16-.06-2.61-.21-4.05-.62-10.83-3.08-12.56-16.05-6.64-22.8.46-.52.97-1,1.46-1.49,3.71-3.69,8.17-4.24,13.03-3.07,1.88.45,3.62,1.25,5.23,2.3,4.08,2.66,5.85,6.56,5.77,11.32-.03,1.91-.46,3.78-1.17,5.59-2.14,5.41-7.61,8.98-13.62,8.78Z"/>
      <path class="cls-43" d="m201.93,136.32c.19-.14.38-.29.56-.43-.19.14-.38.29-.56.43Z"/>
      <path class="cls-28" d="m103.62,162.49c-.11-.87.59-1.72.05-2.6-.98-2.4-.28-4.94-.65-7.39,2.96-1.8,5.47-2.49,8.02-2.21,5.2.58,9.29,4.62,9.83,9.83.16,1.53.36,3.1-.42,4.56-5,5-12.66,4-16.83-2.19Z"/>
      <path class="cls-5" d="m103.62,162.49c.95-.58,1.01-.6,1.36.08.48.95,1.23,1.66,1.94,2.42,1.14,1.21,2.51,1.65,4.17,1.73,3.04.15,5.83-.46,8.41-2.04.32-.2.63-.26.95,0-.18,1.81-1.08,3.29-2.34,4.51-3.29,3.18-7.28,4.25-11.73,3.56-2.32-.36-4.15-1.67-5.53-3.59-.92-1.28-1.54-2.69-1.89-4.14.52-.74,1.18-.45,1.74-.47,1.45-.05,2.41-.73,2.93-2.07Z"/>
      <path class="cls-31" d="m103.02,152.51c1.43.39,1.4.39,1.34,1.35-.08,1.28-.13,2.56-.17,3.84-.03.77.05,1.56-.51,2.2-1.3-1.08-2.88-1.45-4.58-1.71.74-2.37,1.93-4.3,3.92-5.68Z"/>
      <path class="cls-28" d="m184.09,151.47c6.74-4.91,14.65-.48,16.66,5.3.17.48.02.81-.53.95-.67.17-1.34.37-1.98.61-.66.25-1.21.68-1.65,1.23-1.11,1.39-.7,3.13.91,3.91,1.03.49,2.18.48,3.27.68.13.92-.27,1.57-.79,2.18-2.82,1.89-5.86,2.48-9.14,1.52-5.27-1.54-8.18-6.09-7.44-11.52.22-1.62.56-3.23.69-4.87Z"/>
      <path class="cls-5" d="m184.09,151.47c.78.22,1.16.71,1.02,1.54-.18,1.11-.26,2.25-.58,3.32-.59,1.97.01,3.81.69,5.55,1.35,3.44,4.29,4.84,7.73,5.31,1.56.21,3.1-.1,4.59-.65.77-.29,1.57-.86,2.44-.19-.84,2.27-2.54,3.74-4.65,4.68-4.42,1.97-8.62,1.58-12.5-1.48-3.53-2.78-4.74-8.16-3.47-11.53.91-2.41,1.84-4.7,4.03-6.23.21-.15.47-.21.7-.32Z"/>
    </g>
    <g>
      <path class="cls-33" d="m197.13,208.96c.82.49,1.44.79,1.99,1.19,2.09,1.53,2.92,3.6,2.51,6.16-.3,1.87-1.23,3.43-2.5,4.79-.59.63-1.25,1.2-1.87,1.79.16.31.25.57.41.77,5.86,7.63,9.78,16.23,12.63,25.34.99,3.15,1.79,6.37,2.52,9.59.72,3.19.33,3.87-2.82,4.64-3.55.86-7.13,1.62-10.74,2.15-5.68.84-11.39,1.58-17.1,2.12-8.59.82-17.21,1.19-25.84,1.17-6.36-.02-12.72.04-19.08-.1-7.92-.18-15.84-.58-23.73-1.35-6.68-.66-13.33-1.43-19.91-2.75-2.04-.41-4.05-.99-6.08-1.5-.42-.11-.84-.23-1.24-.4-1.18-.49-1.53-.99-1.33-2.21.25-1.54.57-3.08.94-4.6,2.15-8.84,5.3-17.29,9.89-25.18,2.06-3.55,4.36-6.92,7.38-9.97-.37-.49-.76-.94-1.06-1.43-.54-.89-1.13-1.77-1.53-2.72-.91-2.15-.7-4.25.53-6.24.22-.36.47-.71.64-.96-.42-1.25-.9-2.36-1.15-3.52-.27-1.25.46-2.33,1.16-3.52-.68-.38-1.25-.74-1.84-1.03-5.01-2.47-9.87-5.21-14.07-8.93-2.08-1.84-4.02-3.85-6.14-5.9-.29.34-.63.7-.92,1.09-.78,1.05-1.45,2.18-2.31,3.16-5.68,6.53-12.75,8.46-20.99,6.09-5.3-1.52-9.45-4.71-12.6-9.23-2.91-4.16-4.46-8.83-5.07-13.83-1.19-9.74.56-19.09,3.97-28.17,4.8-12.78,12.41-23.72,22.22-33.13,9.81-9.41,20.89-17.05,33-23.2,4.35-2.21,8.85-4.12,13.64-5.13,2.59-.54,4.95-1.5,7.29-2.66,5.66-2.8,11.65-4.57,17.95-5.21.41-.04.8-.16,1.48-.31-.57-.64-1-1.04-1.33-1.5-.7-.99-1.48-1.95-1.99-3.03-1.18-2.5.4-4.79,2.82-5.42.74-.19,1.53-.21,2.39-.32.06-.47.1-.89.16-1.31.13-.86.21-1.74.44-2.57,1.09-4.05,4.72-5.51,8.37-3.37,1.61.94,2.84,2.3,3.87,3.82.49.71.92,1.46,1.46,2.31.83-.29,1.61-.61,2.43-.84,3.73-1.08,6.85,1,7.31,4.87.21,1.76-.04,3.48-.7,5.12-.26.64-.56,1.26-.9,2.02.39.1.69.24,1,.26,8.28.62,16.05,2.95,23.33,6.95.53.29,1.1.57,1.69.66,4.51.71,8.77,2.26,12.86,4.2,16.49,7.79,31.12,18.13,43.06,32.03,7.51,8.74,13.19,18.58,16.68,29.61,2.25,7.12,3.35,14.41,2.87,21.89-.28,4.38-1.2,8.62-3.15,12.58-2.88,5.87-7.23,10.22-13.43,12.48-8.83,3.23-17.55.87-23.24-6.8-.72-.97-1.4-1.97-2.1-2.97-10.2,9.45-6.69,7.29-22.77,16.09,1.2,2.31.65,4.36-1.3,6.37Zm-7.21,42.45c2.11,4.09,3.53,8.44,4.53,13.06,4.28-.74,8.41-1.39,12.5-2.19,1.33-.26,2.75-.39,4.05-1.38-2.8-13.19-7.35-25.65-15.24-36.92-.59.3-1.03.56-1.49.77-2.3,1.03-4.55,2.2-6.92,3.03-5.69,1.99-11.6,3.06-17.58,3.73-5.46.62-10.94.86-16.43.88-.48,0-.96.14-1.48.22,0,.52,0,.86,0,1.2.08,4.61.2,9.23.25,13.84.06,5.92.06,11.85.1,17.77,0,.49.11.98.18,1.6,1.02,0,1.88,0,2.74,0,7.58-.07,15.16-.25,22.71-.91,4.34-.37,8.67-.82,13-1.26.58-.06,1.14-.29,1.8-.47-.51-1.8-.98-3.47-1.46-5.13-.59-2.09-1.19-4.18-1.79-6.27.19-.52-.16-1.23.54-1.58Zm-83.11-.52c.21.39.42.78.62,1.17-.29,1.18-.56,2.37-.87,3.54-.75,2.85-1.52,5.69-1.96,8.61,5.11,1.66,39.78,3.58,45.94,2.53-.33-11.35-.34-22.72.44-34.25-.72-.1-1.38-.24-2.05-.26-4.97-.16-9.91-.57-14.84-1.21-5.96-.77-11.87-1.82-17.63-3.59-4.27-1.31-8.36-2.97-11.95-5.7-.17-.13-.45-.12-.63-.16-8.66,11.87-13.92,25.09-16.83,39.3,3.23,1.43,11.6,3.11,15.94,3.2.21-1.07.42-2.17.66-3.27.73-3.41,1.62-6.77,3.15-9.92Zm95.72-132.4c-.36-1.84-1.03-3.16-1.55-4.51-3.55-9.28-7.74-18.26-12.85-26.8-.7-1.16-1.5-2.09-2.74-2.66-2.29-1.05-4.52-2.23-6.85-3.2-4.28-1.78-8.81-2.66-13.35-3.51-1.87-.35-3.78-.55-5.45-1.41-.38-.81-.04-1.43.21-2.08.37-.97.77-1.95,1.02-2.95.32-1.3.19-2.59-.37-3.83-.34-.75-.85-1.41-1.63-1.59-1.66-.4-3.25-.24-4.48,1.06.25,1.32.51,2.51.7,3.71.25,1.56.25,3.13-.24,4.65-.19.57-.42,1.15-.77,1.63-.74,1.03-2.04,1.21-2.96.33-.61-.58-1.15-1.33-1.45-2.11-.94-2.42-.58-4.79.58-7.06.35-.69.79-1.34,1.18-1.97-.75-1.89-1.79-3.5-3.25-4.78-.7-.62-1.54-1.14-2.41-1.49-1.52-.61-2.76-.11-3.49,1.35-.8,1.6-.95,3.29-.56,4.97.88.51,1.66.89,2.38,1.38,1.91,1.3,3.46,2.91,4.13,5.21.23.78.28,1.53,0,2.3-.52,1.4-1.82,2-3.14,1.31-.83-.44-1.6-1.05-2.25-1.73-1.22-1.27-1.97-2.86-2.59-4.5-.27-.72-.5-1.46-.78-2.3-.72-.03-1.41-.14-2.09-.07-1.57.16-2.32,1.27-1.87,2.76.17.57.48,1.12.8,1.63.95,1.47,2.1,2.77,3.62,3.7.27.17.69.22.64.69-.11.12-.2.31-.33.33-2.56.49-5.13.94-7.69,1.44-6.01,1.17-11.75,3.1-17.13,6.09-1.51.84-2.58,1.92-3.45,3.4-5.52,9.32-9.86,19.18-13.67,29.29-2.79,7.42-5.38,14.89-6.94,22.68-1.52,7.59-2.99,15.19-4.49,22.79-1.37,6.92-3.06,13.76-5.86,20.27-.1.23-.13.5-.21.82.3.39.6.82.93,1.21,3.6,4.2,7.76,7.74,12.5,10.6,4.33,2.61,8.85,4.84,13.56,6.68,9.53,3.72,19.42,6.02,29.53,7.44,7.9,1.11,15.8,1.27,23.71.32,8.39-1.01,16.66-2.71,24.73-5.23,6.91-2.16,13.53-5.02,19.79-8.67,5.01-2.92,9.44-6.54,13.22-10.94.38-.45.67-.97.99-1.43-.63-1.47-1.2-2.83-1.84-4.34-.59.59-1.07,1.07-1.54,1.55-6.15,6.33-13.68,8.35-22.21,6.96-5.8-.95-10.85-3.62-15.4-7.29-11.65-9.4-18.61-26.14-16.1-41.47.93-5.68,2.97-10.93,6.78-15.33,6.06-7,13.75-9.77,22.91-8.51,3.4.47,6.56,1.65,10.06,3.23Zm-13.75-33.3c.45.79.77,1.39,1.13,1.97,4.46,7.39,8.41,15.04,11.78,22.99,4.8,11.33,8.68,22.93,10.9,35.07,1.35,7.36,2.94,14.68,4.53,21.99,1.18,5.45,2.8,10.78,5.18,15.85,1.08,2.3,2.35,4.47,4.03,6.39,2.8,3.21,6.27,5.19,10.51,5.79,3.01.42,5.91-.05,8.72-1.09,6.64-2.47,10.93-7.27,13.35-13.81,1.75-4.72,2.24-9.66,1.96-14.66-.39-6.83-1.85-13.44-4.33-19.82-4.62-11.87-11.66-22.15-20.53-31.22-7.35-7.52-15.75-13.71-24.55-19.4-6.69-4.33-13.93-7.5-21.49-9.94-.3-.1-.65-.07-1.19-.12Zm-76.88,0c-.55.05-.89.01-1.2.11-7.38,2.42-14.46,5.48-21.04,9.66-6.11,3.88-11.97,8.1-17.51,12.74-8.28,6.92-15.34,14.92-21.02,24.11-5.03,8.14-8.76,16.8-10.46,26.26-1.04,5.78-1.31,11.58-.28,17.4.66,3.73,1.96,7.21,4.11,10.35,3.69,5.41,8.76,8.66,15.26,9.45,5.13.63,9.62-1,13.37-4.57,2.37-2.26,4.01-5.02,5.37-7.96,1.54-3.32,2.73-6.78,3.7-10.3,2.18-7.89,3.59-15.95,5.24-23.95,1.07-5.19,2.03-10.43,3.45-15.53,4.45-16.01,11.04-31.12,19.59-45.37.44-.73.87-1.47,1.42-2.4Zm105.64,92.88c-.7-2.48-1.41-4.8-2-7.15-2.14-8.44-3.63-17.01-5.23-25.56-1.46-7.8-3.43-15.45-6.12-22.91-.45-1.26-1.15-2.06-2.28-2.67-4.55-2.44-9.37-3.68-14.55-3.41-6.22.32-11.41,2.85-15.66,7.35-2.05,2.17-3.63,4.66-4.84,7.39-2.24,5.03-3.17,10.31-2.91,15.78.48,9.95,3.86,18.85,10.13,26.62,2.92,3.62,6.35,6.68,10.39,9.04,4.36,2.55,9.01,4.1,14.09,4.2,7.74.16,13.96-2.96,18.98-8.67Zm-114.86,31.71c-1.12,2.77-1.07,5.15.46,7.44,1.23,1.85,2.92,3.21,4.8,4.35,2.69,1.64,5.6,2.78,8.59,3.72,6.93,2.17,14.06,3.3,21.25,4.03,8.15.83,16.31,1.24,24.52.73,5.75-.35,11.45-.97,17.07-2.21,4.6-1.01,9.11-2.34,13.23-4.68,1.5-.85,2.91-1.9,4.28-2.96,1.04-.81,1.77-1.91,2.24-3.17.86-2.33.14-4.35-1.98-5.6-.3-.18-.63-.29-.94-.45-2-.99-2.08-1.41-.59-2.95.42-.44.86-.87,1.2-1.36.76-1.09.8-2.2.02-3.48-1.4.55-2.68,1.07-3.96,1.55-7.76,2.91-15.75,4.99-23.92,6.33-4.12.67-8.26,1.29-12.42,1.57-7.93.53-15.82-.07-23.67-1.42-9.63-1.66-19.05-4.02-28.07-7.84-.47-.2-.96-.35-1.43-.51-1.29,2.36-1.16,3.84.62,5.39.84.74,1.83,1.33,2.81,1.87,1.14.62,2.36,1.1,3.54,1.67.36.17.69.42,1.44.88-3.53-.05-6.24-1.05-9.08-2.91Zm49.99-140.59c-.37.2-.59.25-.65.37-.94,1.76-1.11,3.58-.28,5.42.14.31.51.51.88.86,1.04-2.31.47-4.39.06-6.65Zm-10.42-.03c1.03,2.34,1.67,4.17,3.71,5.07,0-1.52-.02-1.66-.45-2.27-.73-1.03-1.52-2-3.26-2.81Z"/>
      <path class="cls-33" d="m189.39,252.99c-.73-1.26-.98-2.62-1.01-4.33,1.01.86,1.34,1.77,1.55,2.75-.69.35-.34,1.06-.54,1.58Z"/>
      <path class="cls-33" d="m106.82,250.89c.07-.99.67-1.72,1.18-2.61q.51,1.19-.56,3.78c-.21-.39-.42-.78-.62-1.17Z"/>
      <path class="cls-33" d="m151.55,174.46c-.44.66-.8,1.25-1.22,1.81-.65.86-1.53,1.42-2.54,1.75-3.01.98-5.99-1.52-5.49-4.62.07-.44.34-.87.84-.83.27.02.54.34.77.57.11.11.11.32.16.49.07.25.13.51.21.75.65,1.95,2.44,2.59,4.05,1.33.66-.51,1.21-1.26,1.57-2.02.44-.92.64-1.96.97-3.07-1.06-.26-1.96-.5-2.87-.72-1.8-.43-3.44-1.21-4.9-2.35-.97-.76-1.79-1.65-2.35-2.76-.96-1.91-.7-3.76.83-5.24.49-.48,1.06-.92,1.67-1.23,4.1-2.08,8.42-2.67,12.91-1.63.75.17,1.5.47,2.18.85,3.23,1.8,4,5.2,1.85,8.2-1.41,1.97-3.38,3.23-5.61,4.09-.73.28-1.49.45-2.23.66.18,1.76.73,3.25,1.56,4.24,1.1,1.31,2.58,1.68,3.96,1.04.86-.4,1.32-1.1,1.58-1.96.15-.49.22-1.01.42-1.48.07-.17.44-.32.64-.29.21.03.51.25.56.44.57,2.19-1.23,4.84-3.56,5.25-1.75.31-3.29-.14-4.51-1.45-.52-.56-.96-1.2-1.45-1.82Zm.67-16.37c-2.86.11-5.58.63-8.07,1.99-2.54,1.39-2.78,3.08-.86,5.25.17.2.35.38.55.56,1.64,1.52,3.59,2.5,5.76,2.86,3.81.65,6.75-1,9.08-3.9.27-.33.43-.75.6-1.15.59-1.36.27-2.59-.76-3.57-.55-.52-1.25-1-1.97-1.2-1.41-.39-2.87-.57-4.32-.84Z"/>
      <path class="cls-33" d="m108.74,146.31c7.86-.02,15.36,6.34,15.27,15.57-.08,8.16-6.44,15.2-15.39,15.19-9.43-.01-15.5-7.62-15.4-15.44.13-9.72,8.15-15.51,15.51-15.32Zm12.2,22.01c.16-.2.37-.38.48-.6,1.47-3.03,1.61-6.26.88-9.42-.82-3.55-2.67-6.56-6.07-8.34-7.11-4.96-18.4-1.73-21,7.77-.73,1.36-.77,2.8-.47,4.27-.03.34-.12.7-.08,1.03.55,5.3,3.27,9.19,8.05,11.36,4.84,2.2,9.64,1.86,14.03-1.41,1.93-1.07,3.23-2.71,4.18-4.67Z"/>
      <path class="cls-33" d="m101.77,138.27c-1.36-.25-2.74-.43-4.07-.8-.73-.2-1.45-.64-2.01-1.15-1.27-1.13-1.71-2.58-1.21-4.26.52-1.73,1.6-3.09,2.94-4.23,2.78-2.35,5.98-3.84,9.54-4.58,2.33-.48,4.64-.68,6.98-.03,4.18,1.16,5.39,4.51,2.78,7.99-.77,1.03-1.74,1.96-2.78,2.73-3.59,2.67-7.66,4.05-12.17,4.32Zm8.93-14.05c-4.31.1-8.2,1.43-11.65,4.01-1.19.89-2.23,1.95-2.9,3.31-.97,2-.45,3.66,1.59,4.48,1.11.44,2.36.76,3.54.75,4.96-.06,9.4-1.64,13.11-5,.75-.69,1.39-1.57,1.86-2.48.97-1.85.4-3.37-1.48-4.32-1.28-.65-2.67-.72-4.08-.74Z"/>
      <path class="cls-33" d="m123.21,89.2c1.17-1.89,2.44-3.65,4.4-4.7.95-.51,1.92-1.13,3.31-.85-2.22,2.54-4.66,4.45-7.72,5.55Z"/>
      <path class="cls-33" d="m124.5,94.99c1.54-2.16,3.32-4.03,5.91-4.93.37-.13.68-.04.82.58-1.85,1.8-3.83,3.59-6.13,4.99-.2-.21-.4-.43-.6-.64Z"/>
      <path class="cls-33" d="m117.66,94.66c-1.32,2.37-2.79,4.48-4.99,6.23.6-3.57,2.48-5.94,4.99-6.23Z"/>
      <path class="cls-33" d="m124.5,94.99c.2.21.4.43.6.64-.25.22-.48.47-.75.66-.19.13-.43.19-.81.35-.09-.89.39-1.29.96-1.65Z"/>
      <path class="cls-33" d="m224.44,173.51c2.15,4.6,2.93,6.8,3.06,8.64-2-1.4-3.2-3.49-3.68-6.39.28-.73-.25-1.68.61-2.25Z"/>
      <path class="cls-33" d="m231.47,186.84c.28-.1.47-.24.58-.19,2.68,1.13,5.36,2.27,8.02,3.43.11.05.14.29.26.56-3.36-.41-6.72-.56-8.87-3.8Z"/>
      <path class="cls-33" d="m226.08,163.37c1.51,2.29,2.67,4.67,3.19,7.72-1.57-.99-2.11-2.33-2.78-3.54-.73-1.32-.6-2.73-.4-4.17Z"/>
      <path class="cls-33" d="m231.24,177.7c1.59,1.72,3.18,3.43,4.77,5.15-.2.21-.41.41-.61.62-2.35-1.32-4.12-3.11-4.81-5.8.22,0,.43.02.65.03Z"/>
      <path class="cls-33" d="m248.69,182.37c-1.38,1.19-2.87,1.46-4.41,1.48-.56,0-1.17-.43-2.1-1.22.12-.09.24-.25.36-.25,2.05-.02,4.1-.01,6.14-.01Z"/>
      <path class="cls-33" d="m224.44,173.51c-.86.57-.33,1.52-.61,2.25-.67-1.31-.48-2.69-.43-4.31.81.61.98,1.3,1.04,2.06Z"/>
      <path class="cls-33" d="m235.4,183.47c.2-.21.41-.41.61-.62.53.27.97.61.98,1.28q-.82-.06-1.59-.66Z"/>
      <path class="cls-33" d="m231.24,177.7c-.22,0-.43-.02-.65-.03-.38-.15-.43-.43-.23-.72.04-.06.42.03.56.15.16.14.22.4.32.6Z"/>
      <path class="cls-33" d="m51.03,170.53c-1.01-.89-1.5-1.96-1.73-3.75-.26-2.08.17-3.84,1.34-5.5.52,3.2.7,7.47.38,9.25Z"/>
      <path class="cls-33" d="m46.79,172.09c.81,2.82,2.02,5.5,2.54,8.48-1.25-.6-1.9-1.37-2.54-2.98-.72-1.81-.83-3.63,0-5.49Z"/>
      <path class="cls-33" d="m54.13,177.34c1.32,1.41,3.9,5.26,4.45,6.64-3.11-1.08-4.83-3.65-4.45-6.64Z"/>
      <path class="cls-33" d="m52.48,184.69c2.23,1.99,4.34,3.27,6.41,5.37-2.03-.26-3.4-.89-4.61-1.85-.9-.71-1.35-1.6-1.8-3.53Z"/>
      <path class="cls-33" d="m45.69,160.01c-.2,1.89-.4,3.78-.65,6.21-.49-.8-.83-1.14-.91-1.54-.49-2.39-.13-4.67,1.04-6.82.78.57.23,1.46.53,2.15Z"/>
      <path class="cls-33" d="m50.66,154.09c-.46-3.82.13-5.55,2.24-7.71.08.13.26.27.24.37-.51,2.28-1.25,4.49-2.21,6.62-.1.23-.18.48-.26.71Z"/>
      <path class="cls-33" d="m45.69,160.01c-.3-.69.25-1.58-.53-2.15.22-.53.44-1.06.74-1.77.25.34.51.53.48.67-.2,1.09-.46,2.16-.69,3.24Z"/>
      <path class="cls-33" d="m144.35,254.2c-1.92-.05-3.26-1.49-3.15-3.37.1-1.64,1.65-2.98,3.38-2.93,1.76.06,3.16,1.45,3.16,3.15,0,1.82-1.48,3.2-3.4,3.15Zm1.71-3.23c-.04-.78-.76-1.37-1.63-1.34-.85.03-1.54.67-1.57,1.44-.03.87.78,1.53,1.78,1.44.88-.07,1.47-.71,1.42-1.55Z"/>
      <path class="cls-33" d="m144.27,257.99c1.88-.04,3.43,1.36,3.48,3.15.04,1.72-1.34,3.15-3.11,3.2-1.8.06-3.39-1.43-3.45-3.21-.06-1.8,1.22-3.1,3.09-3.15Zm1.79,3.34c.05-.93-.59-1.6-1.58-1.66-.88-.06-1.59.49-1.65,1.27-.06.87.62,1.59,1.61,1.67.85.08,1.58-.51,1.62-1.28Z"/>
      <path class="cls-33" d="m147.58,239.05c.04,1.65-1.19,3.02-2.82,3.11-1.8.11-3.33-1.31-3.4-3.15-.06-1.68,1.41-3.2,3.08-3.17,1.63.03,3.09,1.53,3.14,3.2Zm-3.12,1.44c.73.05,1.36-.44,1.45-1.15.11-.86-.56-1.71-1.43-1.8-.72-.07-1.49.68-1.47,1.44.01.77.67,1.45,1.45,1.5Z"/>
      <path class="cls-33" d="m191.44,145.69c7.67-.17,15.32,6.19,15.34,15.47.01,6.86-5.21,15.16-15.32,15.25-8.87.08-15.5-6.77-15.46-15.36.05-10.09,8.38-15.61,15.44-15.36Zm-13.97,17.36c.33,1.25.51,2.56,1.02,3.72.79,1.82,1.79,3.56,3.56,4.67,3.86,3.47,8.34,4.43,13.29,3.07,5.44-1.5,9.43-6.36,9.84-11.8.7-2.2.17-4.33-.57-6.36-3.23-9-13.9-11.98-20.99-6.93-3.8,2.24-5.7,5.67-6.17,9.98,0,1.22.01,2.44.02,3.66Z"/>
      <path class="cls-33" d="m188.85,122.16c5.36.21,9.53,1.75,13.21,4.61,1.31,1.02,2.45,2.22,3.13,3.78,1.09,2.51.38,4.74-2.07,5.91-1.07.51-2.31.87-3.49.94-5.46.34-10.28-1.39-14.49-4.83-.86-.71-1.62-1.6-2.24-2.53-1.68-2.55-1.44-6,2.52-7.26,1.31-.41,2.71-.51,3.42-.63Zm10.08,13.99c.69-.15,2.01-.28,3.21-.74,2.19-.85,2.74-2.55,1.64-4.64-.66-1.26-1.63-2.25-2.74-3.11-2.68-2.07-5.72-3.27-9.03-3.85-1.82-.32-3.64-.43-5.44.06-.66.18-1.33.43-1.91.8-1.34.85-1.67,2.12-1.1,3.63.51,1.35,1.42,2.4,2.5,3.29,3.56,2.91,7.67,4.37,12.87,4.57Z"/>
      <path class="cls-33" d="m192.73,211.22c-1.33,1.87-3.28,2.81-5.29,3.63-2.83,1.15-5.78,1.9-8.76,2.52-4.88,1.01-9.83,1.33-14.8,1.44-.41,0-.82-.05-1.61-.09,1.24-.99,2.41-.65,3.45-.83,1.2-.21,2.41-.34,3.62-.53,1.12-.17,2.24-.35,3.35-.55,1.11-.2,2.23-.41,3.33-.65,1.19-.26,2.38-.53,3.56-.83,1.1-.28,2.19-.58,3.27-.9,1.08-.33,2.15-.69,3.22-1.05,1.15-.39,2.3-.8,3.46-1.18,1.06-.34,2.14-.65,3.21-.97Z"/>
      <path class="cls-33" d="m146,218.91c-7.44.64-14.66-.43-21.75-2.68-.15-.05-.27-.2-.41-.31.5-.04.99-.08,1.49-.12,1.37.21,2.74.44,4.11.62,3.87.51,7.75,1,11.63,1.49,1.64.21,3.28.41,4.91.61,0,.13,0,.26.02.39Z"/>
      <path class="cls-33" d="m123.04,215.82c-.95-.08-1.8-.37-2.76-1.31,1.39-.01,2.39.14,3.29.76-.18.18-.36.37-.54.55Z"/>
      <path class="cls-33" d="m123.04,215.82c.18-.18.36-.37.54-.55.58.18,1.17.35,1.76.53-.49.04-.99.08-1.49.12-.27-.03-.54-.07-.81-.1Z"/>
      <path class="cls-33" d="m146,218.91c-.02-.13-.02-.26-.02-.39.28.02.56.05.84.07,0,.09,0,.17,0,.26-.27.02-.55.04-.82.06Z"/>
      <path class="cls-33" d="m144.46,240.49c-.78-.05-1.44-.73-1.45-1.5-.01-.76.75-1.51,1.47-1.44.86.08,1.54.94,1.43,1.8-.09.7-.72,1.2-1.45,1.15Z"/>
      <path class="cls-33" d="m95.2,162.03c.2-.88.39-1.76.59-2.64,1.49-.91,2.57-2.04,3.38-3.72,2.13-4.42,7.57-7.56,13.99-5.91.84.21,1.64.58,2.45.87.33.27.63.57.98.81,5.01,3.3,6.8,9.78,4.37,15.14-.18.39-.31.8-.47,1.2-1.12,1.87-2.75,3.25-4.44,4.58-.97.37-1.91.82-2.91,1.08-5.99,1.63-12.08-1.29-14.57-7.01-.46-1.06-.89-1.97-1.96-2.59-.61-.36-.95-1.19-1.41-1.81Zm4.47,3.21c1.88,5.19,6.93,8.18,12.2,7.12,6.18-1.24,9.06-6.43,8.95-10.98-.11-4.76-3.35-9.87-9.88-10.71-2.51-.32-4.83.36-6.96,1.69-2.12,1.33-3.43,3.06-4.13,5.38.58.18,1.16.34,1.73.55.4.15.81.33,1.17.56,1.09.71,1.76,1.69,1.63,3.05-.13,1.38-1.01,2.19-2.21,2.66-.79.31-1.66.45-2.49.67Zm.39-1.62c.98.02,1.87-.23,2.58-.96.52-.54.56-1.26.16-1.89-1.11-1.76-4.43-1.92-5.8-.63-.6.57-.68,1.47-.15,2.1.83.99,1.92,1.42,3.21,1.38Z"/>
      <path class="cls-33" d="m182.7,170.81c-.53-.56-1.08-1.11-1.58-1.7-1.38-1.59-2.48-3.33-2.71-5.49,0-1.78,0-3.56,0-5.34.32-2.86,1.94-4.95,4.01-6.77.58-.51,1.21-.97,1.81-1.45,2.5-1.1,5.06-1.74,7.82-1.25,4.13.73,7.19,2.89,9.04,6.65.55,1.11,1.03,2.11,2.26,2.67,1,.46,1.48,1.42,1.39,2.58-.03.43-.08.86-.13,1.29-.85.73-1.85,1.34-2.5,2.21-.66.88-.88,2.07-1.46,3.04-3.18,5.38-9.99,7.45-15.69,4.8-.78-.36-1.52-.83-2.28-1.24Zm17.68-6.15c-1.37-.49-2.51-.71-3.44-1.28-1.65-1.02-1.84-3.12-.48-4.48.53-.53,1.26-.91,1.95-1.24.58-.28,1.25-.4,1.88-.59-1.59-4.79-7.03-8.06-12.39-6.85-5.65,1.26-8.89,6.08-8.69,11.15.22,5.48,4.35,9.88,9.78,10.49,2.6.29,5.01-.35,7.18-1.78,1.99-1.32,3.48-3.05,4.21-5.39Zm-.77-1.63c1.59-.05,2.61-.45,3.43-1.3.67-.7.61-1.63-.12-2.28-1.48-1.31-4.37-1.04-5.6.52-.58.74-.51,1.75.32,2.25.71.43,1.55.65,1.98.82Z"/>
      <path class="cls-33" d="m178.41,158.28c0,1.78,0,3.56,0,5.34-.16-.19-.32-.38-.49-.57-.02-1.22-.03-2.44-.05-3.66.18-.37.35-.74.53-1.11Z"/>
    </g>
  </g>
</svg>