<?xml version="1.0" encoding="UTF-8"?>
<svg id="Layer_1" data-name="Layer 1" xmlns="http://www.w3.org/2000/svg" viewBox="0 0 300 299.76">
  <defs>
    <style>
      .cls-1 {
        fill: #448860;
      }

      .cls-2 {
        fill: #fff;
      }

      .cls-3 {
        fill: #ea8d42;
      }

      .cls-4 {
        fill: #eace6d;
      }

      .cls-5 {
        fill: #c3965a;
      }

      .cls-6 {
        fill: #e77c24;
      }

      .cls-7 {
        fill: #dfb464;
      }

      .cls-8 {
        fill: #85c37e;
      }

      .cls-9 {
        fill: #f1e1b5;
      }

      .cls-10 {
        fill: #9ab368;
      }

      .cls-11 {
        fill: #cb5827;
      }

      .cls-12 {
        fill: #bbb266;
      }

      .cls-13 {
        fill: #713a50;
      }

      .cls-14 {
        fill: #ec9622;
      }

      .cls-15 {
        fill: #eea84c;
      }

      .cls-16 {
        fill: #6d4b3e;
      }

      .cls-17 {
        fill: #6c4a3d;
      }

      .cls-18 {
        fill: #71c38a;
      }

      .cls-19 {
        fill: #5fb880;
      }

      .cls-20 {
        fill: #79404a;
      }

      .cls-21 {
        fill: #d7e9e6;
      }

      .cls-22 {
        fill: #7b4728;
      }

      .cls-23 {
        fill: #eac467;
      }

      .cls-24 {
        fill: #785143;
      }

      .cls-25 {
        fill: #704e41;
      }
    </style>
  </defs>
  <rect class="cls-21" x="35" y="30.06" width="230" height="237.22" rx="68.69" ry="68.69"/>
  <g>
    <g>
      <path class="cls-18" d="m134.64,77.92c.98-.33,1.96-.68,2.95-.99,1.21-.39,2.1-1.12,2.82-2.17,1.37-2,2.79-3.98,4.28-5.9,2.61-3.34,6.23-4.88,10.29-5.53,1.25-.2,2.38.08,3.32,1.07.71.75,1.73,1.19,2.3,2.09.72,1.13,1.8,1.57,3.03,1.81,1.8.34,3.54.89,5.13,1.81,3.48,2,5.63,4.9,5.68,9,.02,1.58.67,2.4,2,2.93-.06,2.04-1.5,3.3-2.83,4.49-1.45,1.31-2.08,2.71-1.61,4.61.63,2.56-.19,4.58-2.24,6.22-2.85,2.28-5.49,4.81-8.28,7.17-2.77,2.35-8,2.3-11.31-.74-2.98-2.74-5.84-5.47-9.35-7.59-2.06-1.25-3.44-3.45-3.35-6.33.19,4.02,2.01,7.03,5.46,8.95,1.34.75,2.53,1.62,3.06,3.07,2,5.53,9.65,8.57,16.4,7.04,4.24-.96,7.88-3.06,10.57-6.68,2.36-3.18,2.98-6.66,2.07-10.36-.9-3.68.83-6.49,2.51-9.39,2.75.58,5.24,1.87,7.75,3.05,6.49,3.06,12.35,7.09,17.78,11.78,5.1,4.41,9.61,9.34,13.32,14.96,6.07,9.21,10.01,19.27,11.65,30.18.44,2.92.75,5.86.73,8.83-.01,1.9-.14,3.82.4,5.7.16.56.03,1.21-.02,1.81-.71,7.57-3.11,14.58-6.85,21.17-.52.91-1.02,1.82-1.5,2.74-.45.86-.86,1.71-1.96,1.92-.75.15-1.05.87-1.45,1.42-2.11,2.9-4.54,5.51-7.2,7.89-4.44,3.97-9.37,7.19-14.96,9.34-6.06,1.08-12.02,2.69-18.15,3.44-11.34,1.39-22.66,1.96-34.06.49-11.23-1.45-22.01-4.35-32.24-9.19-10.37-4.91-19.19-11.68-24.89-21.88-3.84-6.86-5.93-14.3-6.2-22.17-.57-17.07,5.69-31.76,15.85-45.09,8.85-11.61,20.1-20.4,32.49-27.88,2.08-1.26,4.47-1.92,6.6-3.11Z"/>
      <path class="cls-15" d="m185.88,212.25c1.74,1.74,2.93,3.87,4.21,5.92,2.03,3.24,4.03,6.5,5.9,9.84,1.49,2.65,2.89,5.37,4.12,8.15,2.56,5.81,4.86,11.72,6.89,17.74.8,2.39,1.15,4.91,2.16,7.24.24.55-.05,1.02-.62,1.23-.08.03-.16.06-.25.08-4.83,1.09-9.68,2.02-14.6,2.58-.57-.54-1.09-1.11-1.31-1.89-.92-3.28-2.65-6.16-4.28-8.52.99,2.49,1.69,5.62,2.68,8.66.25.76.22,1.53-.2,2.25-2.23.31-4.47.63-6.7.94-.6.08-1.21.14-1.82.15-1.13.03-2.26.03-3.37.35-.41.12-.86.15-1.29.15-5.22-.02-10.4.84-15.63.57-1.39-.07-2.77-.01-4.15.33-.74.19-1.56.14-2.34.14-3.48.02-6.97.02-10.45.04-1.74,0-3.46.08-5.2.35-1.7.26-3.51.29-5.2.02-1.91-.3-3.81-.33-5.72-.37-2.6-.05-5.2-.12-7.8-.39-2.49-.26-5.02-.43-7.51-.74-3.7-.45-7.43-.84-11.06-1.73-1.26-.31-2.63-.1-3.8-.82-.9-.99-.59-2.13-.33-3.22,3.52-14.8,9.33-28.71,16.57-42.04,1.66-3.06,2.98-3.53,6.43-2.87,1.95.37,3.86,1.08,5.9.74,1.36.12,1.79,1.24,2.32,2.23,2.33,4.39,4.97,8.56,8.26,12.32,2.52,2.88,5.43,5.1,9.13,6.23,3.06.94,5.83.39,8.37-1.51,5.24-3.92,9.29-8.83,12.45-14.56,1.11-2.01,1.76-4.4,3.89-5.74,3.82-.49,7.31-2.08,10.87-3.41,1.14-.42,2.23-1.01,3.49-.45Z"/>
      <path class="cls-19" d="m134.64,77.92c-.64,1-1.71,1.46-2.66,2.05-3.38,2.13-6.87,4.11-10.18,6.35-3.89,2.62-7.63,5.44-11.23,8.47-2.54,2.14-4.84,4.49-7.21,6.79-3.5,3.41-6.43,7.29-9.27,11.25-2.18,3.04-4.28,6.17-5.92,9.52-1.48,3.03-3.13,6.01-3.88,9.38-.57,2.54-1.4,5.02-2.11,7.53-1.02,3.62-1.59,7.3-1.42,11.07.02.43.01.87,0,1.31-.16,6.63,1.39,12.91,3.75,19.05,1.58,4.11,3.76,7.88,6.58,11.19,2.8,3.31,5.9,6.38,9.48,8.92,3.06,2.17,6.27,4.11,9.62,5.76,5.86,2.88,11.98,5.15,18.33,6.74,3.88.98,7.76,1.93,11.72,2.5,2.23.32,4.48.48,6.73.7.26.03.53-.03.78.02,3.87.83,7.8.43,11.71.48,2.34.03,4.7.21,7.01-.44.24-.07.52-.04.78-.05,4.35-.06,8.62-.81,12.92-1.42,4.05-.57,8.02-1.53,12.05-2.14,1.02-.15,2.08-.36,3.02.34-2.68,1.42-5.57,2.3-8.44,3.23-1.55.5-3.1,1.01-4.66,1.51-2.38,2.47-5.61,2.11-8.59,2.57-1.63.61-3.37.54-5.05.85-.86.23-1.73.41-2.63.37-2.51-.41-5.01-.64-7.52.05-.45.09-.9.1-1.36.11-1.08,0-2.15,0-3.23,0-11.07-.48-22.15-.81-33.04-3.15-1.18-.25-2.41-.4-3.37-1.25-1.37-.26-2.73-.56-4.1-.78-6.55-1.04-12.49-3.58-18.15-6.99-9.72-5.86-17.22-13.74-22.38-23.86-2.46-4.82-3.6-9.95-3.98-15.3-.15-2.08-.29-4.17-.35-6.25-.18-6.28.17-12.53,1.57-18.67.82-3.58,2.11-7,3.7-10.3,2.27-4.71,4.88-9.23,7.77-13.59,2.57-3.85,5.48-7.41,8.78-10.67,3.28-3.25,6.71-6.33,10.4-9.12,5.05-3.81,10.68-6.54,16.57-8.74,5.3-1.98,10.71-3.66,16.15-5.2.41-.12.86-.13,1.28-.19Z"/>
      <path class="cls-3" d="m127.31,217.49c-.25,1.01-1.02,1.11-1.84.95-1.45-.28-2.89-.59-4.32-.94-3.54-.87-3.65-1.05-5.48,2.46-2.45,4.69-4.8,9.43-7.01,14.25-2.65,5.78-4.74,11.74-6.7,17.76-1.35,4.12-2.35,8.34-3.42,12.55-2.67-.37-5.29-.95-7.85-1.81-1.49-.5-1.76-.98-1.48-2.52.12-.68.34-1.35.55-2.01,2.06-6.37,4.36-12.64,7.18-18.71,1.8-3.86,3.48-7.77,5.34-11.59,2.66-5.48,5.85-10.65,9.37-15.62,1.09-1.54,2.22-3.14,4.18-3.75.75-.28,1.56-.15,2.31-.41.5-.02,1.01-.04,1.51.07.45.15.87.42,1.37.41.46.02.93,0,1.38.15.52.28,1.08.4,1.67.46.23.08.44.21.62.37.31.39.67.74.92,1.18.73,1.33,1.25,2.76,1.81,4.16.34.85.7,1.76-.1,2.59Z"/>
      <path class="cls-19" d="m177.58,82.49c.08,1.97-.32,3.81-1.51,5.42-.51.69-.68,1.39-.33,2.2,1.02,2.33.69,4.79.71,7.22,0,.81-.31,1.52-.63,2.24-2.04,4.64-5.55,7.7-10.2,9.57-3.77,1.52-7.63,1.59-11.53.66-2.5-.6-4.63-1.95-6.58-3.6-1.31-1.11-1.97-2.65-2.61-4.17-.4-.95-.92-1.57-1.91-1.95-2.97-1.12-4.76-3.43-5.88-6.29-.72-1.84-.47-3.77-.18-5.67.03-.22.24-.56.42-.6.45-.1.5.35.58.65.15.59.3,1.18.34,1.78.12,1.64.87,2.99,1.91,4.2,1.39,1.6,2.94,2.98,5.11,3.42,1.19.24,1.98.97,2.55,2.04,2.17,4.11,5.82,5.48,10.21,5.46.92,0,1.67-.3,2.35-.93,1.97-1.84,3.96-3.65,5.97-5.44,1.23-1.1,2.48-2.18,3.79-3.18.87-.67,1.17-1.49,1.03-2.5-.09-.69-.27-1.36-.38-2.05-.32-2.01-.13-3.82,1.86-5,.75-.45,1.29-1.16,1.75-1.91.51-.82,1.18-1.5,2.01-2.02.42.03.82.14,1.13.45Z"/>
      <path class="cls-3" d="m173.32,209.78c2.94-.58,5.88-1.16,8.82-1.74,1.12-.06,1.96.09,2.28,1.49.22.97.95,1.82,1.45,2.72-3.71,1.97-7.71,3.2-11.68,4.49-.57.19-1.19.27-1.79.33-.41.04-.58-.29-.68-.65-.96-2.57.81-4.48,1.6-6.64Z"/>
      <path class="cls-3" d="m190.58,265.53c-.44-1.22-.94-2.42-1.32-3.65-.91-2.97-1.77-5.96-2.65-8.94-.1-.32-.2-.66.16-.99.8.17,1.28.82,1.72,1.42,2.16,2.94,4.08,6.01,4.95,9.61.16.66.18,1.36.26,2.04-.33.02-.67.04-1,.07-.46.42-1.14.03-1.6.44h-.25s-.25,0-.25,0Z"/>
      <path class="cls-4" d="m119.94,208.62c-.52-.03-1.03-.06-1.55-.09-.28-.3-.8-.06-1.03-.48,0-.15,0-.31,0-.46,1.59-.18,3.09.36,4.62.59,3.68.55,7.33,1.29,11.02,1.78,2.74.37,5.52.52,8.28.67,4.24.24,8.48.39,12.71.58.14.34.07.63-.18.89-.39.37-.86.64-1.39.64-7.18,0-14.38.78-21.5-.82-1.08-.52-2.12-1.15-3.36-1.19-1.03.17-1.96-.13-2.84-.64-.21-.13-.4-.27-.57-.44h0c-.43-.5-1.15-.07-1.6-.5-.52-.03-1.03-.06-1.55-.08-.3-.28-.77-.16-1.07-.44Z"/>
      <path class="cls-23" d="m117.37,208.05c.39.05.75.18,1.03.48-.85,0-1.71-.02-2.56-.02.43-.42.98-.44,1.53-.46Z"/>
      <path class="cls-15" d="m191.09,265.53c.45-.44,1.01-.49,1.6-.44-.45.43-1.01.5-1.6.44Z"/>
      <path class="cls-14" d="m151.53,157.31c1.97,0,3.41,1.16,4.82,2.3.94.76,1.81,1.62,2.6,2.54,2.74,3.17,6.28,4.48,10.36,4.61,1.39.04,2.78.04,4.12.47.66.21,1.33.42,1.93.74,1.4.76,2.15,1.97,2.25,3.57.09,1.4,0,2.77-.6,4.07-.9,1.98-1.98,3.84-3.73,5.22-3.95,2.35-7.72,5.07-12.37,5.98-9.7,1.91-19.05,1.44-27.65-4.09-.66-.42-1.3-.87-1.89-1.4-3.87-3.47-3.47-7.14,1.17-9.5,2.8-1.42,5.52-2.96,8.04-4.82,1.45-1.02,2.35-2.53,3.42-3.89,1.95-2.66,3.64-5.65,7.52-5.81Z"/>
      <path class="cls-6" d="m141.42,167.25c-1.1,1.64-2.77,2.6-4.43,3.54-1.44.82-2.96,1.49-4.43,2.24-.54.28-1.1.54-1.59.9-1.3.97-1.66,2.18-1,3.66.61,1.35,1.46,2.49,2.71,3.42,4.09,3.06,8.81,4.47,13.68,5.53.59.13,1.21.09,1.82.1,1.57.01,3.14,0,4.7,0,5.22,0,10.18-1.09,14.84-3.49,1.55-.8,3.07-1.64,4.6-2.46.34-.18.67-.12.95.13-1.69,2.02-3.84,3.45-6.1,4.73-3.63,2.07-7.48,3.54-11.6,4.31-.81.86-1.83,1.22-2.99,1.2-2.8-.07-5.63.32-8.4-.41-2.18.03-4.07-.88-5.92-1.89-2.56-1.07-5.18-2.01-7.55-3.5-2.75-1.72-5.29-3.67-7.18-6.34-1.39-1.96-2.3-4.07-2.16-6.55.09-1.55.68-2.85,1.77-3.95,1.02-1.02,2.19-1.66,3.69-1.64,1.3.01,2.61-.02,3.9-.18,3.66-.47,6.74-2.17,9.45-4.62,1.22-1.11,2.44-2.24,3.76-3.21,1.87-1.38,3.98-2.13,6.35-1.87.41.05.81.27,1.21.41-2.83,1.53-4.92,3.87-6.91,6.32-2.05.34-2.55,2.05-3.2,3.63Z"/>
      <path class="cls-2" d="m193.99,143.8c1.44-.02,2.72.14,4.01.41,7.39,1.55,12.5,9.39,10.36,16.93-1.86,6.57-6.16,10.42-13.19,11.25-7.58.9-14.53-5.04-15.16-12.65-.41-4.9.95-9.12,4.64-12.48,1.84-1.68,4.03-2.7,6.37-3.48,1.05-.35,2.06-.15,2.96.01Z"/>
      <path class="cls-2" d="m88.39,157.83c.36-5.62,3.07-10.32,8.66-13.03,2.71-1.31,5.72-1.39,8.69-.81,10.63,2.07,12.75,12.57,10.06,19.38-2.44,6.18-7.33,8.96-13.68,8.9-6.1-.06-11.39-4.15-13.16-9.78-.43-1.35-.5-2.73-.58-4.65Z"/>
      <path class="cls-1" d="m104.82,120.24c1.71-.11,3.44.4,5.1,1.24.9.45,1.22,1.13,1.23,2.1.02,1.88-.83,3.39-2.12,4.62-2.92,2.78-6.42,4.46-10.4,5.09-1.7.27-3.41.43-5.18.08-4.6-.92-4.69-4.78-2.61-7.21,1.21-1.42,2.73-2.42,4.32-3.33,2.59-1.48,6.61-2.59,9.65-2.59Z"/>
      <path class="cls-1" d="m192.81,120.19c3.84.01,7.35,1.09,10.5,3.29,2.14,1.5,3.59,3.5,4.22,6.05.31,1.24.12,1.69-.99,2.36-2.51,1.51-5.27,1.71-8.06,1.25-3.47-.58-6.63-1.98-9.51-4.02-1.09-.77-1.95-1.72-2.58-2.88-1.13-2.07-.47-4.17,1.59-5.29,1.53-.83,3.18-.75,4.83-.77Z"/>
      <path class="cls-11" d="m157.66,191.87c-3.12,2.13-6.56,3.03-10.33,2.63-2.92-.31-5.5-1.42-7.79-3.24-.54-.42-.76-.94-.21-1.54,1.26-.56,2.22.72,3.42.56,4.49.47,8.99.17,13.48.27.81.02,1.94-.19,1.43,1.32Z"/>
      <path class="cls-10" d="m157.66,191.87c-.08-.55-.27-1.02-.92-1.04-.86-.02-1.73,0-2.59-.01-4.06-.02-8.13-.05-12.19-.07.2-1.41,1.45-.33,2.03-.85,1.46.12,2.92.26,4.38.36,2.43.18,4.83-.14,7.23-.39.49.45,1.14.32,1.71.47.75.2.82.54.36,1.54Z"/>
      <path class="cls-8" d="m143.98,189.9c-.68.29-1.35.57-2.03.85-.46.05-.84-.13-1.22-.35-.45-.25-.93-.45-1.4-.67-.35-.32-.7-.65-1.05-.97,1.9.38,3.8.76,5.69,1.14Z"/>
      <path class="cls-9" d="m124.73,209.66c.85-.07,1.69.42,2.54,0,1.6,1,2.16,2.71,2.79,4.31,1.72,4.43,4.41,8.28,7.04,12.17.45.67,1.06,1.15,1.78,1.5,1.25.82,2.24,1.93,3.3,2.95,4.26,4.09,9.07,4.17,13.44.17,5.1-4.67,8.67-10.4,11.31-16.73.5-1.2,1.08-2.35,1.68-3.49,1.55-.36,3.11-.69,4.71-.74.47.79.43,1.59.09,2.42-.58,1.4-1.12,2.81-1.68,4.22-1.6,2.89-3.16,5.8-4.81,8.65-2.91,5.06-6.87,9.19-11.58,12.59-2.55,1.84-5.42,2.25-8.45,1.43-3.9-1.06-7.02-3.34-9.68-6.34-3.91-4.39-7.09-9.24-9.46-14.62-.1-.23-.3-.42-.45-.63-.88-2.27-1.76-4.55-2.64-6.82-.26-.36-.34-.7.07-1.02Z"/>
      <path class="cls-1" d="m168.61,210.52c.28.36.42.75.27,1.2-.22.66-.43,1.32-.68,1.97-2.46,6.5-6.13,12.22-11.06,17.12-1.17,1.17-2.47,2.17-3.95,2.94-3.21,1.68-6.32,1.54-9.36-.43-1.17-.76-2.21-1.67-3.19-2.66-.73-.74-1.44-1.49-2.16-2.24-4.37-4.79-7.28-10.44-9.67-16.39-.69-1.71.39-1.7,1.59-1.49,1.93.95,4.06.91,6.11,1.07,5.8.43,11.62.41,17.43.07,1-.45,2.06-.12,3.08-.22,1.46-.17,2.94-.2,4.39-.49,1.61-.19,3.25.26,4.84-.29.79-.05,1.57-.11,2.36-.16Z"/>
      <path class="cls-12" d="m166.25,210.68c-1.56.78-3.25.54-4.9.57-1.11.28-2.22.44-3.31-.1.77-.5,1.65-.44,2.51-.44,1.9-.02,3.8-.02,5.69-.03Z"/>
      <path class="cls-5" d="m158.05,211.16c1.1.03,2.2.07,3.31.1-1.37.66-2.83.5-4.27.41-.17-.15-.21-.27-.12-.36.07-.07.15-.1.23-.1.28-.02.57-.03.85-.05Z"/>
      <path class="cls-7" d="m157.2,211.21c-.05.15-.09.3-.12.46-1.05,0-2.09.02-3.14.03.02-.16.04-.32.06-.48,1.07,0,2.13,0,3.2,0Z"/>
      <path class="cls-23" d="m122.56,209.15c.6-.04,1.17,0,1.6.5-.58-.01-1.15-.07-1.6-.5Z"/>
      <path class="cls-23" d="m124.73,209.66c-.02.34-.05.68-.07,1.02-.31-.27-.44-.63-.5-1.02.19,0,.38,0,.57,0Z"/>
      <path class="cls-23" d="m119.94,208.62c.42,0,.78.13,1.07.44-.42,0-.78-.14-1.07-.44Z"/>
      <path class="cls-23" d="m130.4,210.55c-1.45.32-1.52.44-1.07,1.59,2.12,5.46,4.92,10.53,8.5,15.17.26.34.44.74.66,1.11-1.1-.29-1.66-1.19-2.27-2.04-3.56-4.97-6.5-10.28-8.61-16.02-.09-.24-.22-.47-.33-.71,1.05.26,2.15.37,3.13.9Z"/>
      <path class="cls-13" d="m157.59,166.03c.05.38-.48.87-.85.79-.25-.05-.52-.1-.72-.24-.92-.68-1.57-1.58-2.01-2.63-.14-.32-.13-.68.12-.97.29-.32.62-.19.92-.03,1.09.6,1.84,1.53,2.43,2.6.08.14.08.33.11.47Z"/>
      <path class="cls-20" d="m141.42,167.25c-.56-.65-.68-1.35-.18-2.09.58-.85,1.27-1.59,2.09-2.2.45-.33.68-.21,1.29.66-.23.34-.58.65-.69,1.03-.39,1.33-1.33,2.07-2.52,2.59Z"/>
      <path class="cls-24" d="m188.89,147.36c.49-.57,1.2-.84,1.85-.69,1.3.3,2.58.03,3.87.12,4.13.28,7.64,2.92,8.94,6.81.25.75.13.91-.74,1.23-.89.32-1.8.62-2.63,1.06-.91.48-1.34,1.33-1.24,2.38.09.98.76,1.48,1.56,1.9.94.49,2.02.29,3.03.58.17,1-.23,1.73-.77,2.41-3.26,3.13-8.64,2.37-11.62.49-3.52-2.22-5.04-6.52-4.11-11.49.32-1.72,1-3.29,1.85-4.8Z"/>
      <path class="cls-17" d="m188.89,147.36c.33.33.47.7.33,1.17-.36,1.25-.78,2.49-1.03,3.77-.41,2.15-.47,4.32.31,6.42.79,2.14,2.25,3.59,4.35,4.56,2.26,1.05,4.51,1.08,6.86.53,1.01-.24,2.04-.44,3.05-.65-1.43,3.35-4.2,4.97-7.58,5.64-1.97.39-3.96.2-5.9-.44-7.8-2.59-9.56-11.68-5.21-17.18,1.29-1.64,2.78-3.08,4.81-3.82Z"/>
      <path class="cls-24" d="m98.93,147.87c.65-.76,1.4-1.24,2.46-1.09.33.05.69,0,1.03-.05,7.89-1.05,13.91,5.12,12.59,12.95-.14.83-.07,1.75-.74,2.43-3.24,2.4-6.78,3.39-10.67,1.91-2.8-1.06-4.87-2.88-5.1-6.15-.15-.52-.3-1.04-.45-1.56-1.19-2.97-.26-5.71.88-8.44Z"/>
      <path class="cls-16" d="m98.5,157.87c.99.87,1.38,2.15,2.3,3.1,2.58,2.63,5.62,3.15,9.04,2.28,1.36-.35,2.53-1.09,3.76-1.71.42-.21.55.25.65.57-1.53,4.6-5.89,7.48-10.84,7.15-4.89-.32-8.52-3.27-9.95-8.1.19-.52.68-.47,1.08-.48,1.94-.07,3.28-.95,3.94-2.81Z"/>
      <path class="cls-25" d="m98.93,147.87c.33.3.63.67.5,1.12-.61,2.17-.95,4.38-1.02,6.64,0,.23-.24.45-.37.67-1-.86-2.1-1.48-3.4-1.78-.97-.22-1.08-.57-.63-1.49,1.1-2.23,2.73-3.96,4.92-5.17Z"/>
    </g>
    <g>
      <path class="cls-22" d="m162.5,66.12c8.69.86,13.61,5.7,14.17,13.31.26.15.53.38.85.5,20.78,7.53,35.54,21.73,45.67,41.1,4.09,7.81,6.46,16.11,7.28,24.9.61,6.63.53,13.22-.6,19.79-1.3,7.53-4.33,14.29-9.05,20.3-7.41,9.45-16.98,15.88-28.19,19.96-2.45.89-4.96,1.61-7.61,2.46.19.33.32.73.58,1,2.75,2.82,5.1,5.96,7.17,9.29,7.67,12.36,13.33,25.6,17.27,39.59.28,1,.47,2.03.64,3.06.14.88-.26,1.56-1.09,1.86-.89.33-1.81.6-2.74.82-6.2,1.44-12.46,2.47-18.78,3.21-9.96,1.17-19.95,1.75-29.97,2.08-7.75.25-15.51.53-23.26.25-6.09-.22-12.2-.43-18.27-.94-8.77-.74-17.45-2.14-25.93-4.6-3.96-1.15-4.06-1.25-3.08-5.24,1.3-5.25,3.16-10.31,5.13-15.34,2.86-7.31,6.17-14.4,10.1-21.19,2.71-4.68,5.73-9.15,9.53-13.05.12-.12.17-.3.34-.59-.37-.18-.71-.41-1.09-.52-6.93-1.86-13.51-4.56-19.63-8.34-6.3-3.89-11.65-8.82-16.11-14.73-4.94-6.55-7.78-13.94-8.74-22.07-1.19-10.06-.58-20,2.16-29.77,1.9-6.76,5.01-12.98,8.72-18.91,7.33-11.72,16.71-21.37,28.75-28.32,9.08-5.24,18.84-8.52,29.2-10.01,1.11-.16,2.23-.17,3.41-.26.19-.53.36-1.02.52-1.5,1.13-3.25,2.77-6.2,5.28-8.6,2.39-2.29,5.18-3.87,8.5-4.22,3.43-.37,6.4.52,8.23,3.78.17.3.37.58.6.94Zm23.86,186.46c.47-.08.54.29.67.59,1.37,3.21,2.48,6.5,3.13,9.94.12.66.3,1.31.47,2.05.59-.03,1.02-.01,1.44-.09,5.05-.91,10.1-1.84,15.14-2.78.39-.07.74-.38,1.17-.6-5.55-19.04-13.45-36.82-25.61-52.71-2.49.51-5.02,1.04-7.53,1.55-.18.45-.32.76-.43,1.09-3.01,8.19-7.64,15.42-13.18,22.09-1.27,1.53-2.76,2.9-4.26,4.22-.9.8-1.96,1.46-3.03,2.03-2.41,1.29-4.95,1.48-7.59.72-1.78-.51-3.43-1.26-4.98-2.24-2.22-1.4-4.27-3.05-5.9-5.11-1.73-2.18-3.4-4.42-4.88-6.77-2.69-4.28-4.88-8.83-6.81-13.51-.33-.79-.7-1.56-1.05-2.34-1.48-.31-2.82-.68-4.2-.85-1.44-.17-2.81-.94-4.23-.67-8.7,12.72-11.21,16.92-15.09,25.17-4.59,9.79-9.46,23.2-9.95,27.5,1.67.89,3.58,1.15,5.41,1.62,1.94.5,3.9.89,5.87,1.25,1.85.34,3.67.95,5.58.78,1.41-9.33,2.28-12.41,4.12-14.44.12,1.11-.04,2.13-.25,3.14-.36,1.79-.79,3.57-1.11,5.37-.38,2.09-.92,4.17-.99,6.3,18.38,3.47,66.58,1.96,80.43-.57-.14-.77-.25-1.54-.41-2.3-.54-2.47-1.13-4.92-1.62-7.39-.2-1.01-.19-2.06-.28-3.09l-.05.04Zm-40.69-154.05c-.56-.18-1.07-.31-1.55-.49-4.86-1.78-7.52-6.31-6.65-11.36.07-.43.34-.83.61-1.46,1.3,7.03,3.17,9.83,6.68,10.2.1-1.2.15-2.4.3-3.6.19-1.5.83-2.84,1.81-3.99,1.51-1.78,3.57-2.48,5.34-1.8,2.14.82,2.96,2.57,3.2,4.69.05.42-.02.87-.09,1.3-.48,2.59-1.99,4.4-4.3,5.58-.66.34-1.37.61-2.05.91.14.28.19.46.3.59,1.8,2.24,4.17,3.37,7.02,3.48,5.11.19,9.14-1.82,11.93-6.14,1.1-1.7,1.7-3.58,1.38-5.64-1.58.09-3.04.34-4.47.21-2.96-.27-5.32-1.62-6.56-4.46-1.34-3.06.39-6.36,4.4-6.39.34,0,.69.08,1.03.15,2.44.44,4.31,1.78,5.79,3.72.46.6.9,1.2,1.33,1.78.3-.15.49-.19.58-.31,2.54-3.41,2.81-7.04.89-10.8-1.79-3.5-5.99-5.81-9.87-5.58-.09.14-.21.27-.26.42-.09.25-.1.51-.19.76-1.18,3.37-3.63,5.2-7.06,5.86-1.07.2-2.09.02-3.07-.38-1.87-.76-2.61-2.65-1.82-4.51.42-1,1.15-1.74,2-2.36,1.27-.94,2.69-1.59,4.22-2,.97-.26,1.94-.5,3.07-.79-.28-.44-.41-.77-.64-.99-.98-.94-2.19-1.37-3.54-1.47-2.74-.19-5.14.7-7.35,2.23-2.11,1.46-3.79,3.34-5.14,5.5-1.1,1.77-2.14,3.57-3.18,5.31-4.48,1.32-8.9,2.61-13.31,3.92-18.93,5.6-34.07,16.36-44.93,32.95-4.12,6.29-7.6,12.91-9.63,20.19-2.53,9.08-3.17,18.32-2.17,27.7,1,9.39,4.54,17.62,10.75,24.74,7.41,8.49,16.64,14.17,27.25,17.74,6.79,2.28,13.78,3.67,20.86,4.69,3.71.53,7.41,1.07,11.17,1.09,7.41.05,14.8.06,22.2-.46,9.52-.67,18.83-2.36,27.87-5.37,10.62-3.52,19.83-9.27,27.21-17.79,5.2-5.99,8.64-12.83,10.08-20.63,1.57-8.49,1.3-16.99-.14-25.48-1.19-7.03-3.73-13.58-7.12-19.81-9.53-17.49-23.36-30.15-42.1-37.24-.45-.17-.95-.21-1.56-.33-.67,2.65-2.21,4.63-3.88,6.32,0,.78-.02,1.39,0,2,.13,3.48-1.03,6.51-3.33,9.09-3.05,3.41-6.91,5.33-11.47,5.47-4.75.14-8.68-1.62-11.2-5.88-.22-.37-.44-.74-.64-1.07Zm-15.65,113.23c.21,1.45.9,2.58,1.42,3.75,1.96,4.39,4.26,8.57,7.29,12.33,1.54,1.91,3.26,3.61,5.31,4.99,2.99,2.01,6.02,2.01,9.09.22,1.75-1.02,3.24-2.35,4.6-3.83,4.1-4.47,7.34-9.49,9.6-15.13.28-.71.48-1.45.8-2.45-12.82,1.13-25.42,1.06-38.11.12Zm-4.9-.64c1.04,2.34,1.84,4.26,2.75,6.13,2.23,4.63,4.63,9.16,7.78,13.25,1.88,2.43,4.02,4.57,6.58,6.28,1.68,1.11,3.48,1.96,5.45,2.44,1.56.38,3.13.44,4.61-.22,1.18-.52,2.36-1.12,3.41-1.86,2.01-1.41,3.65-3.22,5.2-5.11,3.97-4.87,7.37-10.12,10.15-15.76.62-1.25,1.17-2.53,1.67-3.82.16-.42.58-.91.04-1.52-.36.06-.78.11-1.19.19-.5.09-.99.2-1.48.3-.16.42-.29.74-.4,1.06-2.2,6.53-5.73,12.27-10.29,17.4-1.39,1.57-2.94,2.97-4.68,4.14-4.03,2.71-8.23,2.73-12.12-.18-.7-.52-1.39-1.05-2.03-1.63-2.09-1.87-3.83-4.04-5.39-6.36-2.29-3.4-4.16-7.03-5.78-10.79-.52-1.19-1.02-2.39-1.57-3.68-.77-.07-1.52-.14-2.71-.24Zm22.67-115.18c1.92-.16,3.3-.97,4.38-2.31.73-.91,1.1-1.96,1.01-3.13-.08-1.09-.51-2.02-1.59-2.48-.86-.37-1.88-.01-2.74.95-.23.26-.46.53-.61.83-.96,1.91-1.37,3.88-.45,6.14Zm21.16-8.26c-.77-1.99-1.93-3.43-3.65-4.42-.92-.53-1.91-.78-2.98-.65-1.16.14-1.83.99-1.71,2.16.09.91.53,1.62,1.2,2.22,1.85,1.67,4.5,1.97,7.14.69Zm-8.99-18.55c-2.58-.21-5.49.8-6.94,2.37-.12.13-.21.27-.31.42-.52.74-.18,1.6.73,1.77,1.44.28,2.75-.09,3.96-.88,1.35-.88,2.36-1.98,2.56-3.68Z"/>
      <path class="cls-22" d="m138.84,190.82c-.61-.66-1.42-.94-2.23-1.28-1.85-.76-3.7-1.52-5.47-2.44-3.52-1.84-6.51-4.34-8.82-7.6-1.22-1.72-2.14-3.57-2.53-5.67-.78-4.12,1.13-7.27,5.18-8.29,1.08-.27,2.23-.32,3.36-.39,1.3-.08,2.61-.05,3.92-.12,2.26-.13,4.22-.99,5.84-2.58.81-.79,1.59-1.61,2.41-2.39.76-.72,1.5-1.46,2.33-2.09,4-3.03,9.05-3.06,13.09-.08.84.62,1.59,1.35,2.36,2.06.7.65,1.37,1.34,2.03,2.04,1.95,2.1,4.38,3.07,7.22,3.1,1.39.02,2.79,0,4.18.12,1.03.09,2.08.25,3.06.57,2.71.88,4.26,3.01,4.43,5.84.1,1.78-.27,3.45-1.02,5.06-1.34,2.9-3.36,5.27-5.79,7.3-3.18,2.67-6.84,4.48-10.74,5.76-1.37.45-2.47,1.15-3.41,2.18-.18-.35-.37-.69-.55-1.04q-1.17-.03-2.07.42c-1.63.2-3.26.47-4.89.59-2.87.21-5.71-.2-8.54-.62-.58-.17-1.16-.34-1.74-.52-.55-.78-1.04.02-1.56.06Zm10.55-.82c6.93-.1,13.33-2.11,19.25-5.67,2.56-1.54,4.7-3.59,6.4-6.06,1.04-1.52,1.88-3.12,2.14-4.99.41-2.99-.87-4.97-3.8-5.48-1.7-.3-3.46-.42-5.19-.44-3.59-.05-6.61-1.31-9.04-3.96-.82-.9-1.69-1.76-2.55-2.61-1.12-1.11-2.4-2.01-3.85-2.65-2.27-1.02-4.52-1.07-6.79.06-1.5.75-2.83,1.7-4,2.89-.92.93-1.82,1.87-2.74,2.8-2.19,2.2-4.84,3.34-7.93,3.44-.96.03-1.92.02-2.87.1-1.12.1-2.26.2-3.36.45-2.24.5-3.42,1.97-3.46,4.27-.01.77.05,1.6.34,2.3.55,1.36,1.16,2.72,1.97,3.94,1.65,2.51,3.85,4.51,6.41,6.04,5.86,3.49,12.18,5.47,19.08,5.59Z"/>
      <path class="cls-22" d="m87.5,158.05c-.06-9.23,7.65-15.46,15.36-15.46,7.04,0,15.38,5.36,15.39,15.46,0,8.67-6.73,15.42-15.51,15.31-10.12-.13-15.41-8.46-15.24-15.3Zm29.28,1.94c0-1.22.01-2.44.02-3.66,0-1.88-.66-3.59-1.56-5.17-1.12-1.97-2.44-3.8-4.6-4.8-7.08-5.05-17.75-2.07-20.98,6.93-.73,2.04-1.27,4.16-.57,6.36.13.85.15,1.73.41,2.54,3.17,9.98,15.49,12.98,22.72,6.2,2.8-2.1,4.11-5.02,4.58-8.39Z"/>
      <path class="cls-22" d="m178.88,157.93c.09-9.28,7.79-15.39,15.51-15.34,7.26.04,15.29,5.83,15.26,15.58-.03,7.63-5.95,15.18-15.36,15.19-9.37,0-15.44-7.53-15.4-15.43Zm3.84-7.91c-2.84,3.94-3.44,8.16-1.62,12.69.65,2.26,1.83,4.17,3.76,5.58,3.85,3.52,8.37,4.63,13.31,3.13,5.3-1.62,8.8-5.1,9.73-10.78.1-.23.28-.46.3-.7.62-5.99-1.53-10.79-6.65-13.91-5-3.04-10.17-2.96-15.12.41-1.62.79-2.76,2.08-3.7,3.58Z"/>
      <path class="cls-22" d="m191.7,119.09c5.49.21,9.83,1.82,13.58,4.91.92.76,1.77,1.71,2.4,2.73,1.87,3.01.79,5.91-2.53,7.11-1.94.7-3.95.73-5.94.47-3.77-.48-7.25-1.79-10.32-4.08-1.26-.94-2.4-2.02-3.2-3.4-1.8-3.1-.83-5.93,2.54-7.07,1.3-.44,2.71-.53,3.47-.67Zm9.54,13.97c1.46-.1,2.86-.15,4.13-.83,1.75-.93,2.26-2.33,1.47-4.14-.64-1.48-1.74-2.6-2.99-3.56-3.36-2.55-7.2-3.82-11.38-4.07-1.48-.09-2.96.11-4.32.78-1.88.92-2.51,2.47-1.55,4.3.56,1.05,1.34,2.06,2.25,2.84,3.57,3.05,7.78,4.51,12.39,4.67Z"/>
      <path class="cls-22" d="m95.9,134.56c-1.52-.08-2.98-.31-4.36-.9-2.81-1.21-3.78-3.73-2.34-6.41.6-1.12,1.45-2.21,2.42-3.03,4.3-3.63,9.28-5.42,14.94-4.98,1.1.09,2.23.44,3.22.92,2.33,1.13,3.09,3.31,2.14,5.71-.56,1.41-1.54,2.52-2.65,3.51-2.53,2.25-5.51,3.64-8.76,4.44-1.51.37-3.08.5-4.62.74Zm0-1.5c4.62-.16,8.8-1.65,12.41-4.66,1.01-.84,1.8-1.87,2.35-3.09.67-1.48.27-2.91-1.22-3.81-.65-.39-1.44-.67-2.19-.77-6.1-.76-11.31,1.15-15.68,5.42-.55.53-.97,1.24-1.29,1.95-.81,1.79-.25,3.25,1.48,4.15,1.28.67,2.67.72,4.13.81Z"/>
      <path class="cls-22" d="m155.57,191.3q.9-.45,2.07-.42c.18.35.37.69.55,1.04-2.32,2.69-5.41,3.67-8.8,3.57-3.53-.1-6.8-1.16-9.5-3.6.16-.18.33-.37.5-.55.33.16.66.33,1,.49,1.85,1.35,3.95,2.09,6.19,2.43,3.49.53,6.54-.47,9.57-2.77-.75-.09-1.16-.13-1.57-.18Z"/>
      <path class="cls-22" d="m109.26,94.15c-2.5,3.25-4.99,5.62-7.82,7.79q.31-1.41,2.02-3.51c1.78-2.2,2.62-2.84,5.8-4.28Z"/>
      <path class="cls-22" d="m80.82,132.75c.93-3,.82-6.08,3.36-8.3.14.35.32.58.28.75-.59,2.62-1.62,5.06-3.04,7.34-.04.06-.16.06-.61.21Z"/>
      <path class="cls-22" d="m106.91,105.06c1.39-1.92,2.93-3.68,5.01-4.88.21-.12.47-.18.71-.24.06-.02.15.06.41.17-1.58,2.46-3.94,4.03-6.09,5.81-.01-.29-.02-.58-.04-.86Z"/>
      <path class="cls-22" d="m101.53,107.46c-.97,2.53-2.9,4.24-5.05,6.23,1.16-3.13,2.59-4.93,5.05-6.23Z"/>
      <path class="cls-22" d="m88.06,114.46c1.13-1.98,2.16-4.03,4.29-5.4-.14,1.54-.61,2.26-3.78,5.94-.17-.18-.34-.36-.51-.54Z"/>
      <path class="cls-22" d="m88.06,114.46c.17.18.34.36.51.54-.4.54-.78,1.1-1.2,1.62-.14.17-.39.26-.83.55.21-1.26.89-1.97,1.52-2.71Z"/>
      <path class="cls-22" d="m140.38,191.33c-.17.18-.33.37-.5.55-.35-.35-.7-.71-1.05-1.06.52-.05,1.01-.85,1.56-.06,0,.19,0,.38,0,.57Z"/>
      <path class="cls-22" d="m106.91,105.06c.01.29.02.58.04.86-.28.26-.55.51-1,.93-.09-1.07.41-1.45.97-1.79Z"/>
      <path class="cls-22" d="m114.96,253.65c-.35-4,.22-6.06,1.94-7.45.02,2.73-1,5.07-1.94,7.45Z"/>
      <path class="cls-22" d="m119.6,256.82c-.34-1.98-.47-3.94.38-5.8.16-.34.47-.61.91-1.17.39,2.71-.58,4.81-1.29,6.97Z"/>
      <path class="cls-22" d="m115.71,257.66c.65,1.96.39,3.79.06,5.81-1.32-2.72-1.34-4.19-.06-5.81Z"/>
      <path class="cls-22" d="m186.41,252.53c-.12-.17-.24-.34-.35-.51.09-.04.18-.09.27-.13.01.22.02.45.03.67,0,0,.05-.04.05-.04Z"/>
      <path class="cls-22" d="m142.13,191.27c-.25.18-.5.36-.75.55-.33-.16-.66-.33-1-.49,0-.19,0-.38,0-.57.58.17,1.16.34,1.74.52Z"/>
      <path class="cls-22" d="m145.04,162.64c-.16,1.68-.83,2.96-1.83,4.05-.81.88-1.84,1.1-2.53.61-.73-.52-.67-1.76.18-2.76.79-.93,1.75-1.67,2.94-2,.35-.1.78.05,1.23.09Zm-3.81,3.71q1.75-.66,2.35-2.49-1.39.77-2.35,2.49Z"/>
      <path class="cls-22" d="m153.58,162.68c.31-.07.65-.25.93-.19,1.4.32,2.46,1.17,3.37,2.25.06.07.1.14.15.21.53.87.48,1.92-.12,2.35-.57.41-1.4.31-2.14-.26-1.06-.81-1.72-2.12-2.17-4.37Zm3.65,3.75c-.81-1.94-.94-2.07-2.5-2.51.57,1.06.95,2.08,2.5,2.51Z"/>
      <path class="cls-22" d="m115.84,160.57c-.23,2.16-1.33,3.9-2.71,5.49-.51.58-1.05,1.13-1.58,1.7-2.54,1.68-5.29,2.61-8.36,2.34-4.62-.4-8.03-2.69-10.08-6.82-.7-1.42-1.28-2.8-2.78-3.56-.29-.15-.47-.5-.7-.76-.14-.39-.28-.79-.46-1.31.4-1.2.96-2.42,2.4-2.97.72-.28.93-.95,1.26-1.56.61-1.14,1.21-2.32,2.03-3.3,3.32-3.9,8.77-5.21,13.47-3.46.57.21,1.13.44,1.69.66.61.48,1.23.94,1.81,1.45,2.07,1.82,3.69,3.91,4.01,6.77,0,1.78,0,3.56,0,5.34Zm-21.83-6.72c1.25.59,2.46.94,3.39,1.65,1.94,1.48,1.64,3.95-.52,5.11-.52.28-1.14.38-1.72.54-.39.11-.79.17-1.38.29.87,2.47,2.3,4.25,4.3,5.56,2.17,1.43,4.58,2.07,7.18,1.78,5.43-.61,9.56-5,9.78-10.48.2-5.08-3.04-9.89-8.68-11.15-5.35-1.2-10.79,2.04-12.35,6.7Zm-.64,1.64c-.51.23-1.34.48-2.03.94-.72.48-.76,1.39-.26,2.05,1.25,1.63,3.98,1.96,5.58.67.82-.66.86-1.7.11-2.48-.84-.87-1.94-1.06-3.4-1.19Z"/>
      <path class="cls-22" d="m115.84,160.57c0-1.78,0-3.56,0-5.34.18.37.35.74.53,1.11-.02,1.22-.03,2.44-.05,3.66-.16.19-.32.38-.49.57Z"/>
      <path class="cls-22" d="m183.16,150.55c1.29-1.18,2.57-2.36,3.86-3.54,1.15-.38,2.27-.88,3.44-1.13,6.35-1.36,11.83,2.34,13.73,6.92.2.48.42.95.61,1.36.96.78,2.38.98,2.59,2.44,0,.65-.01,1.29-.02,1.94-.05.29-.09.59-.14.88-.2.16-.38.36-.61.47-1.22.61-1.86,1.61-2.38,2.87-1.35,3.28-3.79,5.53-7.16,6.68-3.25,1.11-6.46.92-9.56-.58-.7-.34-1.35-.76-2.03-1.14-1.59-1.68-3.17-3.38-3.98-5.62-.1-.42-.17-.84-.29-1.25-.98-3.45-.21-6.61,1.59-9.61.13-.22.23-.46.34-.69Zm19.99,3.46c-1.91-5.7-8.36-8.08-12.93-6.73-5.52,1.63-8.82,6.64-7.99,12.4.75,5.21,5.69,9.32,11.07,9.14,2.8-.09,5.27-1.11,7.29-3.06,1.23-1.19,2.32-2.51,2.54-4.21-1.21-.43-2.35-.65-3.28-1.22-1.69-1.04-1.88-3.05-.52-4.48.46-.49,1.09-.86,1.7-1.16.61-.3,1.31-.43,2.12-.69Zm-.7,5.95c1.59-.04,2.61-.42,3.43-1.27.66-.68.62-1.67-.05-2.29-1.41-1.3-4.42-1.05-5.6.45-.56.71-.5,1.82.27,2.28.71.43,1.54.66,1.97.83Z"/>
      <path class="cls-22" d="m207.37,158.55c0-.65.01-1.29.02-1.94.63.65.58,1.3-.02,1.94Z"/>
    </g>
  </g>
</svg>