<?xml version="1.0" encoding="UTF-8"?>
<svg xmlns="http://www.w3.org/2000/svg" viewBox="0 0 300 299.76">
  <defs>
    <style>
      .cls-1 {
        fill: #fff;
      }

      .cls-2 {
        fill: #ffe7d3;
      }

      .cls-3, .cls-4, .cls-5 {
        fill: #fed2a8;
      }

      .cls-4 {
        opacity: .6;
      }

      .cls-4, .cls-5, .cls-6 {
        mix-blend-mode: multiply;
      }

      .cls-7 {
        isolation: isolate;
      }

      .cls-8, .cls-6 {
        fill: #c36c4f;
      }

      .cls-9 {
        fill: #ffc531;
      }

      .cls-5 {
        opacity: .9;
      }

      .cls-10 {
        fill: #a3472e;
      }

      .cls-11 {
        fill: #692410;
      }

      .cls-12 {
        fill: #f38186;
      }

      .cls-13 {
        mix-blend-mode: overlay;
        opacity: .3;
      }

      .cls-14 {
        fill: none;
        stroke: #692410;
        stroke-linecap: round;
        stroke-linejoin: round;
        stroke-width: 1.5px;
      }

      .cls-6 {
        opacity: .5;
      }

      .cls-15 {
        fill: #b8acd4;
      }
    </style>
  </defs>
  <g class="cls-7">
    <g id="Layer_1" data-name="Layer 1">
      <g>
        <g>
          <path class="cls-15" d="m104.01,39.44c64.97-22.46,113.75,6.11,129.29,43.18,11.66,27.82.35,51.87,18.98,53.93,18.63,2.06,18.21,67.95-10.74,94.67-28.95,26.72-72.84,29.85-99.14,29.85-33.74,0-77.76-15.94-86.07-35.4-11.22-26.27,17.51-12.45,2.14-33.04-15.38-20.59-51.36-119.68,45.54-153.18Z"/>
          <path class="cls-15" d="m249.41,131.46c-7.32-4.69,0-32.01,8.47-26.09,8.47,5.92,8.47,36.95-8.47,26.09Z"/>
          <path class="cls-15" d="m243.76,105.78c-5.86-1.71-1.04-17.94,4.85-14.22,5.89,3.72,2.86,16.47-4.85,14.22Z"/>
          <path class="cls-15" d="m57.6,202.47c2.28,8.72-17.67,4.77-20.42-4.46-2.75-9.23,18.46-3.06,20.42,4.46Z"/>
          <path class="cls-15" d="m36.93,168.76c-6.96,5.17,6.78,23.89,11.47,20.39,4.68-3.5-3.27-26.47-11.47-20.39Z"/>
        </g>
        <g>
          <g>
            <g>
              <path class="cls-3" d="m181.86,207.7h-63.66c-31.83,2.93-46.58,38.84-46.58,38.84,24.97,22.19,78.41,21.73,78.41,21.73,0,0,53.44.46,78.41-21.73,0,0-14.75-35.91-46.58-38.84Z"/>
              <path class="cls-4" d="m159.02,249.9c8.43,4.46,12.02-2.11,12.02-2.11,8.64,3.23,12.11-3.17,12.11-3.17,12.69,1.72,11.5-8.01,11.5-8.01,18.12,3.86,12.4-10.27,12.4-10.27,2.58-.25,4.64-1.34,6.14-2.48-7.52-7.81-17.9-14.92-31.34-16.16h-63.66c-13.2,1.21-23.46,8.11-30.95,15.75,1.53,1.28,3.77,2.61,6.65,2.89,0,0-5.72,14.13,12.4,10.27,0,0-1.19,9.73,11.5,8.01,0,0,3.48,6.4,12.11,3.17,0,0,3.6,6.57,12.02,2.11,0,0,3.25,6.2,8.54,6.06,5.29.14,8.54-6.06,8.54-6.06Z"/>
              <g>
                <path class="cls-11" d="m90.95,228.25c-2.97,2.21-5.35,5.59-6.22,9.21-.4,1.64-.27,3.33.91,4.62,1.01,1.1,2.64,1.76,4.11,1.39.39-.1.32-.76-.1-.72-1.43.13-2.79-.3-3.68-1.48-1.08-1.43-.7-3.26-.15-4.82,1.07-3.07,2.96-5.72,5.34-7.92.14-.13-.05-.39-.21-.27h0Z"/>
                <path class="cls-11" d="m96.28,242.02c-.8,1.51-1.47,3.05-2.04,4.66s-1.12,3.23-1.11,4.91c0,1.35.44,2.66,1.41,3.62.81.81,2.11,1.47,3.22.94.29-.14.11-.51-.15-.54-1.23-.14-2.22-.42-2.98-1.48-.82-1.14-.89-2.61-.68-3.96.42-2.73,1.6-5.43,2.68-7.95.1-.23-.23-.44-.35-.21h0Z"/>
                <path class="cls-11" d="m108.23,242.12c-1.46,2.19-2.67,5.07-2.28,7.75.17,1.19.72,2.28,1.67,3.03.8.63,1.91,1.08,2.89.6.26-.13.1-.47-.13-.49-.97-.11-1.81-.3-2.52-1.01-.8-.8-1.11-1.91-1.14-3.01-.05-2.26.91-4.64,1.94-6.61.15-.29-.25-.52-.43-.25h0Z"/>
                <path class="cls-11" d="m117.76,251.89c-1.16,2.62-1.92,5.58-.79,8.35.89,2.18,3.45,4.39,5.94,3.48.33-.12.29-.62-.09-.63-1.08-.03-2.16-.23-3.08-.83-1-.65-1.69-1.68-2.08-2.8-.85-2.41-.31-5.07.45-7.43.07-.21-.27-.36-.36-.15h0Z"/>
                <path class="cls-11" d="m128.99,249.85c-.69,2.69-.79,5.94,1.27,8.09.86.9,2.02,1.46,3.27,1.52.61.03,1.24-.07,1.81-.3.47-.19,1.15-.49,1.18-1.06,0-.15-.13-.26-.27-.27-.46-.01-.88.45-1.31.6-.49.18-1.02.24-1.54.21-1.09-.08-2.04-.65-2.76-1.45-1.77-1.99-1.78-4.76-1.27-7.23.05-.25-.33-.36-.39-.11h0Z"/>
                <path class="cls-11" d="m208.89,228.52c2.38,2.2,4.27,4.85,5.34,7.92.53,1.51.92,3.29-.06,4.7-.88,1.25-2.3,1.73-3.77,1.6-.42-.04-.49.62-.1.72,1.45.36,3.03-.26,4.04-1.32,1.23-1.29,1.39-3.02.98-4.69-.89-3.62-3.25-7-6.22-9.21-.16-.12-.35.14-.21.27h0Z"/>
                <path class="cls-11" d="m203.42,242.22c1.08,2.53,2.25,5.22,2.68,7.95.21,1.35.14,2.82-.68,3.96-.77,1.06-1.75,1.34-2.98,1.48-.25.03-.43.4-.15.54,1.09.52,2.34-.1,3.15-.87,1.02-.97,1.46-2.31,1.48-3.69.02-1.65-.52-3.26-1.06-4.79-.58-1.65-1.26-3.24-2.08-4.78-.13-.24-.45-.03-.35.21h0Z"/>
                <path class="cls-11" d="m191.39,242.38c1.03,1.97,1.99,4.35,1.94,6.61-.02,1.08-.31,2.16-1.08,2.96-.72.75-1.58.95-2.58,1.07-.23.03-.4.37-.13.49.97.48,2.09.03,2.89-.6.95-.75,1.5-1.84,1.67-3.03.39-2.69-.82-5.57-2.28-7.75-.18-.27-.58-.03-.43.25h0Z"/>
                <path class="cls-11" d="m181.93,252.04c.76,2.36,1.3,5.02.45,7.43-.38,1.09-1.04,2.1-2.01,2.75s-2.03.84-3.15.88c-.37.01-.42.51-.09.63,2.49.91,5.05-1.31,5.94-3.48,1.13-2.78.37-5.73-.79-8.35-.09-.2-.42-.06-.36.15h0Z"/>
                <path class="cls-11" d="m170.67,249.95c.51,2.47.5,5.24-1.27,7.23-.72.81-1.67,1.37-2.76,1.45-.5.04-1.01-.02-1.48-.18-.44-.15-.89-.63-1.37-.62-.14,0-.27.12-.27.27.03.57.72.88,1.18,1.06.57.23,1.2.33,1.81.3,1.25-.06,2.41-.62,3.27-1.52,2.07-2.15,1.97-5.4,1.27-8.09-.07-.25-.44-.15-.39.11h0Z"/>
                <path class="cls-11" d="m144.01,256.57c-.31,2.98,1.16,5.93,3.74,7.46.7.42,1.5.74,2.32.79.96.06,1.89-.27,2.76-.63.78-.33,1.58-.67,2.21-1.27.55-.52.9-1.21,1.15-1.92.34-.97.51-2.01.68-3.02.19-1.15.33-2.28.26-3.45-.02-.29-.47-.39-.54-.07-.46,2.05-.52,4.21-1.19,6.22-.32.96-.86,1.7-1.75,2.2s-1.97.99-3,1.09c-1.78.19-3.57-1.18-4.62-2.51-1.1-1.4-1.77-3.11-1.8-4.9,0-.14-.2-.14-.22,0h0Z"/>
              </g>
              <path class="cls-11" d="m229.11,246.26c-1.33-3.22-3.05-6.3-4.87-9.26-4-6.52-8.85-12.59-14.62-17.63-7.09-6.19-15.64-10.72-25-12.15-3.59-.55-7.24-.35-10.87-.35h-43.22c-4.05,0-8.11-.11-12.15,0-3.59.1-7.32,1.07-10.7,2.23-4.37,1.5-8.51,3.66-12.29,6.31-10.52,7.36-18.99,18.37-24.2,30.08-.11.26-.23.52-.33.78-.37.89,1.08,1.28,1.45.4.05-.13-.1.23,0-.02.08-.19.17-.38.25-.57.29-.64.59-1.28.9-1.91,1.08-2.19,2.28-4.33,3.55-6.41,3.93-6.41,8.7-12.37,14.38-17.33,7.09-6.19,15.72-10.64,25.11-11.88,3.3-.43,6.72-.18,10.04-.18,14.15,0,28.31,0,42.46,0,4.14,0,8.29-.07,12.43,0,3.2.06,6.53.91,9.56,1.88,4.39,1.41,8.54,3.52,12.34,6.12,10.52,7.2,18.89,18.16,24.09,29.76.07.16.15.33.22.5.11.25-.03-.08.01.03.36.88,1.81.49,1.45-.4h0Z"/>
            </g>
            <g>
              <path class="cls-8" d="m209.51,216.41c.39-5.81-6.66-13.94-6.66-13.94h-105.7s-7.05,8.13-6.66,13.94c.39,5.81,6.51,6.85,6.51,6.85,0,0-2.34,6.53,1.76,9.26,4.1,2.73,10.04-.19,10.04-.19,0,0-1.37,9.07,10.24,8.97,0,0,3.41,6.63,11.12,2.44,0,0,4.1,7.41,12.09,1.27,0,0,2.54,5.66,7.75,5.17,5.22.49,7.75-5.17,7.75-5.17,8,6.14,12.09-1.27,12.09-1.27,7.7,4.19,11.12-2.44,11.12-2.44,11.6.1,10.24-8.97,10.24-8.97,0,0,5.95,2.92,10.04.19,4.1-2.73,1.76-9.26,1.76-9.26,0,0,6.12-1.04,6.51-6.85Z"/>
              <path class="cls-6" d="m149.94,230.78c8.96,0,33.66-1.71,59.46-16.17-.85-5.56-6.55-12.14-6.55-12.14h-105.7s-5.74,6.63-6.56,12.2c25.78,14.41,50.4,16.11,59.35,16.11Z"/>
              <g>
                <path class="cls-14" d="m97.15,202.47s-7.05,8.13-6.66,13.94c.39,5.81,6.51,6.85,6.51,6.85,0,0-4.48,14.65,11.8,9.07,0,0-1.37,9.07,10.24,8.97,0,0,3.41,6.63,11.12,2.44,0,0,4.1,7.41,12.09,1.27,0,0,2.54,5.66,7.75,5.17,5.22.49,7.75-5.17,7.75-5.17,8,6.14,12.09-1.27,12.09-1.27,7.7,4.19,11.12-2.44,11.12-2.44,11.6.1,10.24-8.97,10.24-8.97,0,0,15.46,5.6,11.8-9.07,0,0,6.12-1.04,6.51-6.85.39-5.81-6.66-13.94-6.66-13.94"/>
                <g>
                  <path class="cls-11" d="m101.85,216.57c-.75.5-1.46,1.07-2.11,1.71s-1.2,1.45-1.71,2.22-.98,1.6-1.43,2.41c-.35.65-1.12,2.09-.28,2.64.14.1.37.06.48-.06.3-.32.21-.75.31-1.15.12-.44.33-.84.54-1.24.4-.76.82-1.51,1.24-2.26.83-1.48,1.77-3.02,3.03-4.16.06-.05-.02-.15-.09-.11h0Z"/>
                  <path class="cls-11" d="m113.04,223.21c-1.54,1.21-2.55,2.92-3.39,4.66-.43.9-.92,1.83-1.18,2.8-.2.77-.53,2.19.25,2.73.1.07.27.02.32-.08.18-.37.09-.75.1-1.15,0-.52.13-1.02.27-1.52.26-.9.6-1.78.95-2.65.68-1.69,1.47-3.37,2.81-4.65.09-.09-.04-.21-.13-.13h0Z"/>
                  <path class="cls-11" d="m123.28,226.41c-2.63,1.48-4.43,4.24-5.21,7.11-.43,1.58-.51,3.28-.32,4.91.1.82.26,1.64.5,2.43.2.66.35,1.47,1.06,1.72.2.07.36-.08.43-.25.25-.59-.17-1.22-.34-1.79-.22-.73-.39-1.49-.48-2.25-.18-1.54-.06-3.08.29-4.58.66-2.78,2.24-5.11,4.15-7.19.05-.06-.01-.15-.09-.11h0Z"/>
                  <path class="cls-11" d="m130.9,231.19c-.35.62-.81,1.15-1.13,1.79-.3.61-.53,1.23-.74,1.87-.41,1.27-.72,2.6-.77,3.93-.05,1.15.07,2.33.39,3.44.26.9.71,2.44,1.72,2.7.2.05.39-.1.4-.31.02-.55-.28-.88-.52-1.35s-.41-.95-.55-1.45c-.29-1.06-.36-2.16-.28-3.25.08-1.25.35-2.48.71-3.68.17-.56.34-1.12.5-1.69.18-.65.21-1.32.38-1.97.02-.06-.07-.1-.11-.05h0Z"/>
                  <path class="cls-11" d="m141.19,234.77c-1.06,3.12-1.04,6.52.25,9.56.26.61.61,1.68,1.22,2.03.23.13.53.09.7-.1.29-.32.08-.7-.09-1.01-.4-.74-.82-1.45-1.13-2.24s-.51-1.57-.72-2.37c-.5-1.93-.54-3.9-.13-5.85.02-.07-.09-.1-.11-.03h0Z"/>
                  <path class="cls-11" d="m198.02,216.68c1.26,1.14,2.2,2.68,3.03,4.16.41.73.81,1.46,1.21,2.19.21.4.43.8.56,1.24.12.41.02.9.33,1.22.12.12.34.16.48.06.81-.54.09-1.93-.25-2.57-.45-.84-.94-1.68-1.46-2.48-.5-.75-1.02-1.54-1.66-2.17s-1.38-1.25-2.16-1.76c-.07-.04-.14.06-.09.11h0Z"/>
                  <path class="cls-11" d="m186.78,223.34c1.34,1.28,2.13,2.96,2.81,4.65.34.84.68,1.69.93,2.57.14.5.27,1,.29,1.52.01.42-.09.84.1,1.23.05.11.22.15.32.08.76-.53.46-1.89.27-2.64-.25-1-.75-1.96-1.2-2.88-.84-1.75-1.84-3.45-3.39-4.66-.09-.07-.22.05-.13.13h0Z"/>
                  <path class="cls-11" d="m176.58,226.52c1.91,2.07,3.49,4.41,4.15,7.19.34,1.46.47,2.96.31,4.45-.08.76-.24,1.52-.45,2.25-.18.6-.64,1.3-.38,1.92.07.17.23.32.43.25.67-.24.82-.96,1.02-1.59.25-.79.42-1.6.52-2.43.21-1.67.14-3.41-.3-5.04-.77-2.88-2.58-5.63-5.21-7.11-.07-.04-.14.05-.09.11h0Z"/>
                  <path class="cls-11" d="m168.94,231.23c.18.65.21,1.32.38,1.97.15.57.33,1.12.5,1.69.36,1.2.63,2.42.71,3.68.07,1.09,0,2.19-.28,3.25-.13.5-.31.99-.55,1.45s-.54.8-.52,1.35c0,.21.2.36.4.31.98-.25,1.43-1.73,1.69-2.6.35-1.14.47-2.35.42-3.54-.06-1.3-.35-2.58-.74-3.81-.2-.65-.42-1.27-.72-1.88-.34-.69-.81-1.25-1.18-1.91-.03-.06-.12-.02-.11.05h0Z"/>
                  <path class="cls-11" d="m158.64,234.81c.69,3.32.02,6.96-1.66,9.89-.23.41-.98,1.43-.19,1.71.73.27,1.23-1.02,1.46-1.5.7-1.47,1.17-3.04,1.26-4.67.09-1.84-.16-3.72-.75-5.47-.02-.07-.13-.04-.11.03h0Z"/>
                </g>
              </g>
            </g>
          </g>
          <g>
            <g>
              <path class="cls-3" d="m199.37,79.96c-26.89-18.93-71.94-18.93-98.83,0-40.09,28.22-44.01,80.12-32.07,104,17.9,35.79,81.49,43.16,81.49,43.16,0,0,63.6-7.37,81.49-43.16,11.94-23.88,8.01-75.78-32.07-104Z"/>
              <path class="cls-4" d="m231.44,176.63c-17.9,35.79-81.49,43.16-81.49,43.16,0,0-63.6-7.37-81.49-43.16-3.34-6.67-5.43-15.53-5.85-25.45-.52,12.86,1.71,24.5,5.85,32.78,17.9,35.79,81.49,43.16,81.49,43.16,0,0,63.6-7.37,81.49-43.16,4.14-8.28,6.36-19.92,5.85-32.78-.42,9.92-2.51,18.78-5.85,25.45Z"/>
              <g>
                <path class="cls-2" d="m75.99,117.28c-1.34,2.38-2.42,4.95-3.36,7.5-2.36,6.36-3.95,12.96-4.85,19.68-1.15,8.57-1.38,17.84.61,26.31,1.73,7.31,5.49,14.01,10.19,19.82,3.94,4.87,8.69,9.74,14.29,12.7.54.28.98-.48.47-.81-4.48-2.91-8.54-6.61-12.07-10.6-4.89-5.53-8.93-11.98-11.08-19.08-2.47-8.19-2.34-17.28-1.54-25.72.66-6.92,2.11-13.79,4.16-20.42.97-3.13,1.98-6.3,3.35-9.28.05-.11-.1-.2-.16-.09h0Z"/>
                <path class="cls-2" d="m223.74,117.38c1.11,2.42,1.95,4.97,2.78,7.49,2.06,6.26,3.58,12.75,4.41,19.29,1.08,8.46,1.39,17.56-.5,25.93-1.67,7.35-5.44,14.11-10.19,19.91-3.89,4.76-8.51,9.13-13.68,12.49-.51.33-.06,1.09.47.81,4.84-2.56,8.99-6.58,12.57-10.66,4.86-5.53,8.88-11.92,11.1-18.97,1.29-4.09,1.8-8.35,2.05-12.62.26-4.51.17-9.06-.28-13.56-.71-7.07-2.21-14.06-4.53-20.78-1.11-3.21-2.38-6.45-4.04-9.41-.06-.11-.21-.01-.16.09h0Z"/>
              </g>
              <path class="cls-11" d="m199.74,79.31c-18.78-13.15-43.74-16.59-66.02-13-11.13,1.79-22.13,5.51-31.62,11.68s-17.38,14.08-23.71,23.19c-11.26,16.22-17.11,36.27-16.59,55.99.21,7.9,1.41,15.95,4.31,23.34,3.05,7.78,8.23,14.48,14.47,19.97,13.07,11.49,29.97,18.23,46.58,22.74,5.8,1.57,11.67,2.88,17.59,3.88,1.76.3,3.81.91,5.61.72,3.79-.4,7.58-1.18,11.3-1.95,7.19-1.49,14.31-3.4,21.27-5.76,16.43-5.57,33.39-13.9,44.2-27.94,10.18-13.22,12.16-30.96,10.45-47.12-2.17-20.39-10.81-40.05-25.1-54.85-3.89-4.03-8.17-7.66-12.75-10.89-.79-.56-1.54.74-.76,1.3,17.52,12.38,29.71,30.93,34.85,51.7,2.2,8.9,3.15,18.14,2.65,27.31-.41,7.51-1.77,15.18-4.82,22.1-7.06,16.04-22.96,26.22-38.49,32.9-12.53,5.38-25.91,9.01-39.35,11.2-1.73.28-3.02.69-4.62.47.15.02-.41-.06-.56-.08-.36-.05-.73-.11-1.09-.16-.86-.13-1.72-.27-2.57-.41-2.49-.42-4.98-.91-7.45-1.43-15.55-3.33-31.09-8.41-44.74-16.69-7.47-4.53-14.47-10.18-19.63-17.29-4.51-6.21-7.18-13.3-8.58-20.81-3.35-17.96-.28-37.29,7.33-53.79,9.07-19.67,25.38-36.27,45.93-43.68s46.2-7.38,67.2,1.13c4.91,1.99,9.62,4.51,13.96,7.55.79.55,1.54-.75.76-1.3Z"/>
              <path class="cls-2" d="m190.64,103.99c-10.13-6.42-26.7,27.81-40.22,27.26-16.05-.65-29.15-34.88-41.16-27.26-33.01,20.91-36.24,61.54-26.41,79.23,14.74,26.52,67.11,34.1,67.11,34.1,0,0,52.37-7.58,67.11-34.1,9.83-17.69,6.6-58.32-26.41-79.23Z"/>
              <g>
                <path class="cls-11" d="m159.26,82c1.24,2.47,4,4,6.75,3.75.67-.06,1.37-.2,1.97-.5.75-.38,1.05-1.06,1.18-1.86.28-1.62.23-3.28-.13-4.88-.39-1.78-1.15-3.56-2.42-4.9-.27-.29-.76.08-.55.43.93,1.55,1.74,3.12,2.11,4.9.19.92.27,1.85.23,2.79-.03.77,0,2.09-.68,2.61-.57.44-1.49.55-2.18.58-.79.03-1.56-.1-2.31-.34-1.5-.48-2.8-1.43-3.61-2.79-.15-.24-.5-.03-.38.22h0Z"/>
                <path class="cls-11" d="m174.57,77.06c.95,1.57,2.41,2.98,4.36,2.94.84-.02,1.68-.31,2.27-.92.69-.72.95-1.77,1.07-2.74.11-.9.08-2.33-.87-2.81-.22-.11-.45.07-.4.31.1.47.32.9.38,1.39.06.45.03.93-.04,1.38-.17.99-.51,1.99-1.52,2.39-1.98.79-3.81-.71-5.12-2.04-.07-.07-.19.02-.13.1h0Z"/>
                <path class="cls-11" d="m153.35,71.45c.13,1.26.61,2.44,1.35,3.45s1.53,1.98,2.83,2.08c1.14.08,2.24-.52,2.9-1.42.36-.5.62-1.09.74-1.7.1-.53.15-1.25-.14-1.72-.06-.1-.23-.12-.28,0-.19.43-.2.94-.3,1.4-.12.51-.26.99-.54,1.43-.51.8-1.45,1.33-2.42,1.23s-1.79-1.1-2.38-1.84c-.7-.88-1.3-1.84-1.59-2.94-.02-.08-.16-.07-.15.02h0Z"/>
                <path class="cls-11" d="m140.26,81.78c-.82,1.36-2.11,2.31-3.61,2.79-.75.24-1.52.37-2.31.34-.69-.03-1.62-.14-2.18-.58-.69-.53-.65-1.83-.68-2.61-.03-.93.04-1.87.23-2.79.37-1.78,1.18-3.35,2.11-4.9.2-.34-.27-.72-.55-.43-2.23,2.36-3.02,6.05-2.63,9.2.09.74.19,1.55.77,2.09.52.48,1.29.68,1.98.79,1.35.21,2.76.02,4-.56,1.4-.65,2.56-1.75,3.25-3.13.13-.25-.23-.46-.38-.22h0Z"/>
                <path class="cls-11" d="m125.2,76.95c-1.3,1.33-3.14,2.83-5.12,2.04-.99-.4-1.33-1.36-1.51-2.34-.08-.47-.12-.96-.05-1.43s.28-.92.38-1.39c.05-.24-.19-.42-.4-.31-.82.42-.95,1.62-.9,2.43.05.97.28,2.06.87,2.85,1.11,1.47,3.22,1.45,4.69.59.92-.54,1.62-1.44,2.17-2.34.05-.08-.07-.17-.13-.1h0Z"/>
                <path class="cls-11" d="m146.39,71.43c-.29,1.08-.87,2.02-1.55,2.89-.6.76-1.4,1.78-2.42,1.89-.94.1-1.87-.41-2.39-1.18-.29-.44-.45-.92-.56-1.43-.11-.47-.11-1.01-.32-1.46-.05-.12-.22-.1-.28,0-.3.48-.25,1.2-.14,1.72.12.6.37,1.2.74,1.7.66.9,1.77,1.5,2.9,1.42,1.3-.09,2.12-1.09,2.83-2.08s1.22-2.2,1.35-3.45c0-.09-.13-.1-.15-.02h0Z"/>
                <path class="cls-11" d="m153.63,82.69c.85,2.04,1.3,4.23,1.33,6.45.03,2.06-.25,4.38-1.25,6.22-.94,1.74-2.69,2.53-4.58,1.9-1.78-.59-3.08-2.07-3.65-3.83-.37-1.16-.49-2.38-.48-3.59s.24-2.47.17-3.7c-.02-.41-.62-.52-.74-.1-.34,1.2-.39,2.56-.4,3.8s.1,2.44.44,3.61c.58,1.99,1.91,3.66,3.83,4.5,1.77.77,3.82.62,5.22-.8,1.56-1.58,2.03-4.07,2.21-6.2.25-2.93-.33-5.82-1.6-8.47-.14-.28-.64-.08-.51.22h0Z"/>
              </g>
            </g>
            <g>
              <path class="cls-5" d="m186.79,125.46c-24.11,11.34-27.2,36.27-27.6,42.41-4.22-3.51-9.25-3.52-9.25-3.52,0,0-5.02.01-9.25,3.52-.4-6.14-3.49-31.07-27.6-42.41-27.61-12.99-39.14,8.61-37.87,31.44,1.43,25.58,20.98,37.57,40.07,30.7,11.16-4.02,17.94-9.59,21.68-13.54.78,3.74,4.08,16.61,12.97,18.56,8.88-1.96,12.19-14.82,12.97-18.56,3.73,3.95,10.52,9.52,21.68,13.54,19.08,6.88,38.64-5.11,40.07-30.7,1.27-22.83-10.26-44.43-37.87-31.44Z"/>
              <g>
                <g>
                  <path class="cls-8" d="m140.76,163.43s-.05-30.81-27.66-43.8c-27.61-12.99-39.14,8.61-37.87,31.44,1.43,25.58,20.98,37.57,40.07,30.7,19.08-6.88,25.46-18.33,25.46-18.33Z"/>
                  <g>
                    <path class="cls-11" d="m84.46,175.29c2.55-1.86,4.95-3.94,7.38-5.95s5.13-3.94,7.37-6.24c.3-.31-.09-.84-.47-.61-2.69,1.65-5.06,3.85-7.47,5.88s-4.93,4.16-7.14,6.49c-.2.21.07.61.33.42h0Z"/>
                    <path class="cls-11" d="m76,146.39c3.1.53,6.25.79,9.38,1.13s6.43.93,9.65.93c.43,0,.53-.65.1-.76-3.05-.77-6.26-.93-9.38-1.24s-6.45-.63-9.68-.59c-.29,0-.38.48-.07.53h0Z"/>
                    <path class="cls-11" d="m76.49,161.53c3.11-.85,6.15-1.98,9.2-3.03s6.06-1.85,8.91-3.17c.42-.2.11-.78-.3-.71-3.16.61-6.22,1.86-9.24,2.93s-5.95,2.12-8.78,3.49c-.28.14-.08.57.21.49h0Z"/>
                    <path class="cls-11" d="m77.94,129.06c3.07,2.08,6.28,3.95,9.45,5.87s6.25,4.04,9.57,5.67c.37.18.84-.32.47-.61-2.89-2.28-6.18-4.06-9.34-5.94s-6.47-3.87-9.87-5.46c-.31-.15-.56.27-.27.47h0Z"/>
                    <path class="cls-11" d="m91.62,116.95c1.58,3.35,3.4,6.6,5.15,9.87s3.32,6.66,5.34,9.75c.23.35.87.13.71-.3-1.33-3.44-3.25-6.64-5.02-9.87s-3.6-6.62-5.72-9.73c-.2-.29-.61-.04-.47.27h0Z"/>
                    <path class="cls-11" d="m106.01,116.89c.46,3.15,1.19,6.26,1.85,9.37s1.09,6.28,2.06,9.29c.13.4.79.35.76-.1-.21-3.14-1.04-6.24-1.71-9.31s-1.39-6.34-2.43-9.39c-.11-.34-.57-.19-.52.14h0Z"/>
                    <path class="cls-11" d="m120.75,123.86c-1.38,2.83-2.51,5.79-3.71,8.7s-2.69,5.9-3.59,8.99c-.12.42.49.68.71.3,1.6-2.71,2.65-5.76,3.82-8.68s2.41-6,3.27-9.11c.08-.29-.36-.49-.49-.21h0Z"/>
                    <path class="cls-11" d="m131.11,135.29c-2.55,1.86-4.94,3.95-7.36,5.97s-5.12,3.96-7.36,6.26c-.3.31.09.84.47.61,2.69-1.66,5.05-3.86,7.45-5.9s4.92-4.17,7.13-6.51c.2-.21-.07-.61-.33-.42h0Z"/>
                    <path class="cls-11" d="m136.72,146.79c-2.94,1.13-5.78,2.52-8.64,3.84s-5.99,2.49-8.75,4.14c-.37.22-.13.83.3.71,3.02-.9,5.87-2.41,8.71-3.75s5.85-2.76,8.6-4.44c.25-.15.09-.61-.21-.49h0Z"/>
                    <path class="cls-11" d="m141.05,163.37c-2.99-1.07-6.08-1.87-9.13-2.74s-6.07-1.98-9.19-2.52c-.4-.07-.73.51-.3.71,2.87,1.28,5.99,2,9.02,2.83s6.26,1.73,9.45,2.24c.34.05.48-.4.14-.52h0Z"/>
                    <path class="cls-11" d="m128.23,175.48c-1.79-2.67-3.82-5.17-5.77-7.72s-3.69-5.19-5.86-7.48c-.31-.32-.82.09-.61.47,1.55,2.75,3.66,5.2,5.6,7.68s3.97,5.08,6.22,7.38c.21.21.6-.07.42-.33h0Z"/>
                    <path class="cls-11" d="m115.23,182.05c-.16-3.22-.62-6.43-.99-9.63s-.5-6.32-1.19-9.39c-.1-.44-.75-.32-.76.1-.08,3.22.49,6.47.89,9.66s.79,6.27,1.52,9.33c.07.29.55.23.53-.07h0Z"/>
                    <path class="cls-11" d="m101,183.38c.99-2.71,1.52-5.56,2.12-8.37s1.26-5.5,1.51-8.31c.04-.49-.69-.55-.83-.11-.85,2.76-1.27,5.63-1.78,8.47s-1.06,5.51-1.17,8.31c0,.08.11.09.14.02h0Z"/>
                    <path class="cls-11" d="m141.51,163.43c0-2.66-.42-5.35-.92-7.95-1.13-5.93-3.17-11.72-6.14-16.99-3.93-6.98-9.57-12.9-16.42-17.07-7.26-4.42-16.5-7.85-25.08-5.92-15.5,3.49-19.3,22.49-18.44,35.96.55,8.66,3.33,17.38,9.3,23.84,5.11,5.54,12.26,8.82,19.79,9.1,8.92.33,17.79-3.63,25.11-8.4,4.66-3.04,9.17-6.84,12.27-11.52.15-.22.29-.45.42-.68.47-.84-.82-1.6-1.3-.76-1.73,3.08-4.53,5.73-7.19,7.98-3.24,2.74-6.85,5.03-10.63,6.93-4.08,2.05-8.42,3.84-12.94,4.59-7.15,1.18-14.56-.43-20.44-4.69-6.61-4.78-10.52-12.36-12.1-20.22s-1.29-16.51,1.06-24.19c1.92-6.28,5.62-12.35,11.75-15.24,7.51-3.54,16.34-1.17,23.43,2.23s13.56,8.82,18.08,15.53c5.31,7.89,8.41,17.48,8.86,26.97,0,.16.01.33.01.49,0,.97,1.5.97,1.5,0Z"/>
                  </g>
                </g>
                <g>
                  <path class="cls-8" d="m159.14,163.43s.05-30.81,27.66-43.8c27.61-12.99,39.14,8.61,37.87,31.44-1.43,25.58-20.98,37.57-40.07,30.7-19.08-6.88-25.46-18.33-25.46-18.33Z"/>
                  <g>
                    <path class="cls-11" d="m215.76,174.87c-2.21-2.33-4.69-4.42-7.14-6.49s-4.78-4.23-7.47-5.88c-.38-.23-.77.3-.47.61,2.24,2.29,4.9,4.19,7.37,6.24s4.82,4.1,7.38,5.95c.26.19.53-.21.33-.42h0Z"/>
                    <path class="cls-11" d="m223.82,145.86c-3.23-.05-6.47.28-9.68.59s-6.34.47-9.38,1.24c-.42.11-.33.76.1.76,3.22,0,6.45-.59,9.65-.93s6.28-.59,9.38-1.13c.31-.05.22-.53-.07-.53h0Z"/>
                    <path class="cls-11" d="m223.61,161.04c-2.83-1.37-5.82-2.44-8.78-3.49s-6.08-2.33-9.24-2.93c-.4-.08-.72.51-.3.71,2.85,1.33,5.94,2.15,8.91,3.17s6.09,2.18,9.2,3.03c.29.08.49-.36.21-.49h0Z"/>
                    <path class="cls-11" d="m221.69,128.59c-3.4,1.59-6.65,3.54-9.87,5.46s-6.45,3.66-9.34,5.94c-.36.29.1.79.47.61,3.32-1.64,6.4-3.76,9.57-5.67s6.39-3.79,9.45-5.87c.29-.2.04-.61-.27-.47h0Z"/>
                    <path class="cls-11" d="m207.81,116.68c-2.12,3.1-3.92,6.43-5.72,9.73s-3.69,6.43-5.02,9.87c-.16.43.48.65.71.3,2.02-3.1,3.59-6.49,5.34-9.75s3.57-6.52,5.15-9.87c.15-.31-.27-.56-.47-.27h0Z"/>
                    <path class="cls-11" d="m193.36,116.75c-1.04,3.06-1.74,6.24-2.43,9.39s-1.5,6.17-1.71,9.31c-.03.45.63.5.76.1.97-3.01,1.41-6.2,2.06-9.29s1.39-6.22,1.85-9.37c.05-.34-.41-.48-.52-.14h0Z"/>
                    <path class="cls-11" d="m178.65,124.07c.86,3.1,2.07,6.12,3.27,9.11s2.22,5.96,3.82,8.68c.22.37.83.13.71-.3-.91-3.09-2.37-6.02-3.59-8.99s-2.33-5.87-3.71-8.7c-.14-.28-.57-.08-.49.21h0Z"/>
                    <path class="cls-11" d="m168.46,135.71c2.2,2.34,4.68,4.43,7.13,6.51s4.76,4.24,7.45,5.9c.38.23.77-.3.47-.61-2.24-2.3-4.89-4.2-7.36-6.26s-4.81-4.11-7.36-5.97c-.25-.19-.53.21-.33.42h0Z"/>
                    <path class="cls-11" d="m162.98,147.28c2.74,1.69,5.69,3.07,8.6,4.44s5.69,2.85,8.71,3.75c.42.13.67-.48.3-.71-2.76-1.64-5.83-2.79-8.75-4.14s-5.7-2.71-8.64-3.84c-.29-.11-.46.34-.21.49h0Z"/>
                    <path class="cls-11" d="m158.99,163.89c3.19-.51,6.34-1.38,9.45-2.24s6.15-1.55,9.02-2.83c.43-.19.1-.78-.3-.71-3.12.55-6.15,1.65-9.19,2.52s-6.14,1.67-9.13,2.74c-.33.12-.2.57.14.52h0Z"/>
                    <path class="cls-11" d="m172.09,175.8c2.25-2.29,4.24-4.85,6.22-7.38s4.05-4.93,5.6-7.68c.21-.38-.3-.79-.61-.47-2.17,2.29-3.94,4.97-5.86,7.48s-3.99,5.05-5.77,7.72c-.17.26.21.54.42.33h0Z"/>
                    <path class="cls-11" d="m185.19,182.12c.73-3.06,1.13-6.21,1.52-9.33s.97-6.44.89-9.66c-.01-.42-.66-.54-.76-.1-.69,3.07-.83,6.27-1.19,9.39s-.83,6.41-.99,9.63c-.02.3.46.37.53.07h0Z"/>
                    <path class="cls-11" d="m199.03,183.36c-.11-2.8-.67-5.56-1.17-8.31s-.93-5.71-1.78-8.47c-.13-.43-.87-.38-.83.11.26,2.81.93,5.56,1.51,8.31s1.13,5.66,2.12,8.37c.03.07.14.07.14-.02h0Z"/>
                    <path class="cls-11" d="m159.89,163.43c0-2.35.35-4.72.77-7.03,1.02-5.6,2.83-11.07,5.5-16.09,3.56-6.7,8.68-12.49,15.02-16.68,6.94-4.58,16.1-8.4,24.58-6.85,15.12,2.77,18.83,21.05,18.17,33.97-.43,8.49-3.04,17.14-8.9,23.5-4.91,5.32-11.77,8.48-19.02,8.67-8.67.23-17.26-3.7-24.35-8.39-4.34-2.87-8.61-6.46-11.49-10.86-.13-.2-.26-.4-.38-.61-.47-.84-1.77-.09-1.3.76,1.92,3.42,5.06,6.37,8.06,8.81,3.43,2.8,7.2,5.15,11.18,7.07s8.55,3.76,13.15,4.41c7.4,1.05,15.05-.65,21.09-5.12,6.69-4.95,10.8-12.54,12.49-20.6s1.47-17.08-.91-25.07c-1.96-6.57-5.77-13-12.07-16.19-7.35-3.71-15.91-2.09-23.17,1-8.01,3.41-14.96,8.83-20.04,15.91-5.91,8.23-9.5,18.69-9.87,28.84,0,.18-.01.36-.01.54,0,.97,1.5.97,1.5,0Z"/>
                  </g>
                </g>
                <g>
                  <g>
                    <path class="cls-9" d="m107.61,136.41c-17.04-.43-20.28,20.06-14.45,29.34,2.91,4.64,6.55,7.86,14.45,7.86s11.54-3.22,14.45-7.86c5.82-9.28,2.59-29.77-14.45-29.34Z"/>
                    <path class="cls-11" d="m124.68,148.99c-1.26-4.64-3.95-8.97-8.25-11.33s-9.89-2.66-14.5-1.29c-7.9,2.34-11.91,10.35-12.16,18.14-.13,3.99.64,8.19,2.76,11.63.51.82,1.8.07,1.3-.76-3.5-5.67-3.35-13.71-.49-19.6,1.54-3.17,3.97-5.83,7.21-7.3,3.97-1.8,9.21-1.85,13.27-.37,4.98,1.81,8.1,6.33,9.44,11.29.25.93,1.7.54,1.45-.4h0Z"/>
                    <ellipse class="cls-11" cx="112.05" cy="155.62" rx="10.78" ry="13.33"/>
                  </g>
                  <g>
                    <path class="cls-9" d="m192.28,136.41c17.04-.43,20.28,20.06,14.45,29.34-2.91,4.64-6.55,7.86-14.45,7.86s-11.54-3.22-14.45-7.86c-5.82-9.28-2.59-29.77,14.45-29.34Z"/>
                    <path class="cls-11" d="m176.67,149.38c1.17-4.34,3.66-8.34,7.71-10.51s9.44-2.34,13.72-.91c7.03,2.35,10.4,9.8,10.56,16.78.08,3.66-.61,7.47-2.56,10.62-.51.82.79,1.58,1.3.76,3.87-6.26,3.59-15.14.27-21.56-1.77-3.42-4.6-6.21-8.18-7.68-4.43-1.82-10.16-1.79-14.56.07-5.08,2.14-8.29,6.83-9.7,12.02-.25.93,1.19,1.33,1.45.4h0Z"/>
                    <ellipse class="cls-11" cx="187.85" cy="155.62" rx="10.78" ry="13.33"/>
                  </g>
                  <path class="cls-12" d="m217.89,182.55c13.94-9.48,4.96-18.04-4.48-11.49-13.07,9.07-6.92,19.24,4.48,11.49Z"/>
                  <path class="cls-12" d="m82.04,182.55c-13.94-9.48-4.96-18.04,4.48-11.49,13.07,9.07,6.92,19.24-4.48,11.49Z"/>
                  <path class="cls-11" d="m100.12,134.35c2.88-1.24,6.83-2.11,11.4-.46,3.27,1.18,5.08-1.44,2.69-3.32-2.76-2.16-9.68-3.41-14.52-1.04-4.84,2.38-4.51,4-4.12,4.92.39.92,1.84,1.06,4.55-.1Z"/>
                  <path class="cls-11" d="m199.78,134.35c-2.88-1.24-6.83-2.11-11.4-.46-3.27,1.18-5.08-1.44-2.69-3.32,2.76-2.16,9.68-3.41,14.52-1.04,4.84,2.38,4.51,4,4.12,4.92-.39.92-1.84,1.06-4.55-.1Z"/>
                </g>
              </g>
            </g>
            <g>
              <path class="cls-5" d="m217.35,96.9c-8.27-1.61-17.81-3.15-28.5-.22-24.74,6.79-34.12,37.96-38.9,48.48-4.78-10.53-14.17-41.69-38.9-48.48-10.69-2.94-20.23-1.39-28.5.22-4.77,5.98-8.6,12.38-11.57,18.95,5.85,3.43,13.73,5.8,24.4,5.84,39.1.13,45.21,40.36,46.4,48.85l8.18-4.15,8.18,4.15c1.19-8.49,7.3-48.72,46.4-48.85,10.66-.03,18.55-2.41,24.4-5.84-2.97-6.57-6.8-12.97-11.57-18.95Z"/>
              <g>
                <path class="cls-11" d="m178.97,83.25c-22.84,7.81-28.97,33.43-28.97,33.43,0,0-6.12-25.62-28.97-33.43-22.84-7.81-44.06-4.53-54.25-17.63,0,0,2.21,24.59,22.58,30.02,20.37,5.43,45.21,5.88,60.63,48.95,15.42-43.07,40.26-43.51,60.63-48.95,20.37-5.43,22.58-30.02,22.58-30.02-10.19,13.1-31.41,9.82-54.25,17.63Z"/>
                <path class="cls-10" d="m188.9,90.72c-24.74,6.79-34.12,37.96-38.9,48.48-4.78-10.53-14.17-41.69-38.9-48.48-26.59-7.3-46.01,13.07-56.7-6.62,0,0,1.93,31.49,41.03,31.62,39.1.13,45.21,40.36,46.4,48.85l8.18-4.15,8.18,4.15c1.19-8.49,7.3-48.72,46.4-48.85,39.1-.13,41.03-31.62,41.03-31.62-10.7,19.69-30.12-.68-56.7,6.62Z"/>
                <path class="cls-11" d="m188.7,89.99c-18.31,5.12-28.46,22.86-35.36,39.23-1.35,3.19-2.57,6.44-3.99,9.6h1.3c-2.59-5.72-4.71-11.63-7.45-17.28-3.63-7.48-8.05-14.74-13.94-20.67-6.62-6.68-14.84-10.88-24.18-12.12s-18.84.82-28.21,2.54c-4.02.73-8.33,1.45-12.36.48-4.36-1.05-7.36-4.22-9.47-8.04-.35-.63-1.44-.37-1.4.38.25,4.06,1.68,8.18,3.44,11.8,4.02,8.26,11.15,14.37,19.73,17.54,6.53,2.41,13.26,2.84,20.15,3.05,6.28.19,12.56,1.53,18.18,4.38,9.12,4.61,15.65,12.74,19.84,21.91,2.98,6.52,4.84,13.54,5.9,20.62.07.45.13.91.2,1.37.07.51.72.64,1.1.45,2.73-1.38,5.45-2.77,8.18-4.15h-.76c2.73,1.38,5.45,2.77,8.18,4.15.38.19,1.03.06,1.1-.45.9-6.45,2.4-12.81,4.79-18.88,3.59-9.15,9.37-17.69,17.75-23.06,5.01-3.22,10.73-5.17,16.63-5.94,3.6-.47,7.21-.33,10.83-.57,3.42-.23,6.83-.72,10.14-1.58,9.38-2.43,17.67-8.02,22.61-16.45,1.63-2.78,2.88-5.78,3.73-8.89.43-1.59.96-3.4.97-5.06,0-.08.02-.16.02-.24.05-.75-1.05-1.01-1.4-.38-1.71,3.1-4.02,5.93-7.35,7.36-2.85,1.22-6.04,1.27-9.08.99-7.93-.72-15.58-3.16-23.56-3.65-5.48-.34-10.96.14-16.26,1.57-.93.25-.54,1.7.4,1.45,9.47-2.55,18.97-1.57,28.46.28,6.47,1.26,14.01,3.43,20.41.81,3.73-1.52,6.37-4.6,8.28-8.06l-1.4-.38c-.07,1.12-.27,2.13-.56,3.39-.64,2.83-1.63,5.59-2.95,8.18-4.3,8.48-11.95,14.4-21.01,17.13-3.21.97-6.53,1.57-9.86,1.88-3.69.34-7.41.17-11.1.54-5.88.6-11.65,2.24-16.82,5.15-8.74,4.92-15.05,13.09-19.09,22.14-2.91,6.51-4.77,13.44-5.83,20.48-.07.45-.13.91-.2,1.37l1.1-.45-4.31-2.19-2.9-1.48c-.36-.18-.91-.59-1.34-.59s-.97.4-1.34.59l-2.9,1.48-4.31,2.19,1.1.45c-.9-6.41-2.39-12.74-4.75-18.78-3.53-9.02-9-17.39-16.99-23.05-4.67-3.31-10.06-5.53-15.66-6.63-6.91-1.36-13.99-.61-20.91-1.96-9.9-1.94-18.92-7.13-24.26-15.87-1.69-2.77-2.98-5.77-3.86-8.89-.29-1.05-.54-2.11-.73-3.19-.12-.7-.04-1.05-.23-1.65-.02-.07-.02-.17-.02-.24l-1.4.38c1.83,3.33,4.35,6.33,7.89,7.89,3.17,1.4,6.7,1.51,10.1,1.17,4.13-.4,8.18-1.35,12.25-2.12,4.82-.91,9.69-1.62,14.6-1.62,9.96.02,19.42,3.08,26.98,9.65,6.4,5.56,11.17,12.75,15.04,20.24,3.33,6.46,5.76,13.27,8.75,19.88.22.49,1.07.49,1.3,0,2.82-6.22,5.11-12.65,8.18-18.76,4.05-8.07,9.11-15.87,16.07-21.75,4.15-3.51,8.96-6.16,14.21-7.62.93-.26.53-1.71-.4-1.45Z"/>
                <g>
                  <g>
                    <path class="cls-11" d="m231.65,102.71c-3.04,2.99-6.84,5.19-10.88,6.51-4.5,1.47-9.23,1.44-13.91,1.26-7.39-.29-16.83-1.06-22.57,4.67-.27.27.09.79.43.55,3.36-2.45,7.09-3.77,11.22-4.22,4.51-.48,9.04-.01,13.55.07s8.76-.3,12.86-1.95c3.66-1.47,6.79-3.88,9.39-6.82.05-.05-.03-.13-.08-.08h0Z"/>
                    <path class="cls-11" d="m192.97,105.07c-14.74,2.2-26.5,13.29-32.57,26.49-1.75,3.81-3.28,7.89-3.86,12.06-.06.45.55.65.69.19,1.09-3.47,2.04-6.96,3.43-10.32s3.2-6.73,5.3-9.79c4.05-5.89,9.43-10.91,15.72-14.33,3.54-1.93,7.38-3.35,11.32-4.21.06-.01.03-.1-.02-.09h0Z"/>
                    <path class="cls-11" d="m214.92,96.53c-9.2-1.04-18.65-1.4-27.69.99-7.03,1.86-14.89,5.57-19.08,11.79-.19.28.23.6.47.36,2.7-2.74,5.42-5.28,8.76-7.25s6.92-3.37,10.64-4.33c8.75-2.26,17.96-1.93,26.91-1.37.12,0,.12-.17,0-.19h0Z"/>
                  </g>
                  <g>
                    <path class="cls-11" d="m68.27,102.78c2.55,2.89,5.62,5.27,9.2,6.75,4.15,1.71,8.59,2.11,13.04,2.03s8.91-.54,13.35-.09c4.2.42,8,1.74,11.41,4.24.33.24.7-.28.43-.55-5.74-5.73-15.18-4.96-22.57-4.67-4.68.18-9.41.21-13.91-1.26-4.04-1.32-7.85-3.53-10.88-6.51-.05-.05-.12.02-.08.08h0Z"/>
                    <path class="cls-11" d="m107.01,105.16c14.33,3.15,25.65,13.53,31.64,26.72,1.75,3.86,2.86,7.9,4.13,11.93.14.45.76.26.69-.19-1.03-7.34-4.59-14.74-8.87-20.73s-9.69-10.82-16.16-14.12c-3.61-1.84-7.41-3.1-11.41-3.7-.06,0-.09.08-.02.09h0Z"/>
                    <path class="cls-11" d="m85.08,96.72c8.88-.56,18.01-.88,26.71,1.32,3.72.94,7.33,2.34,10.66,4.28s6.18,4.56,8.93,7.35c.23.23.66-.07.47-.36-4.22-6.27-12.17-10-19.27-11.84-8.98-2.33-18.35-1.97-27.49-.93-.12.01-.12.2,0,.19h0Z"/>
                  </g>
                </g>
              </g>
              <path class="cls-11" d="m150,158.38s-9.19,0-13.16,8.68c0,0,2.75,17.3,13.16,19.59,10.41-2.29,13.16-19.59,13.16-19.59-3.97-8.68-13.16-8.68-13.16-8.68Z"/>
              <g class="cls-13">
                <path class="cls-1" d="m148.71,183.03c-3.04-3.85-5.39-8.3-6.49-13.1-.13-.55-.24-1.1-.34-1.66-.17-.95-.09-1.5.72-2.09,1.01-.74,2.09-1.41,3.2-1.97s2.4-1.07,3.68-1.31c.63-.12,1.27-.18,1.91-.17.69.01,1.36.2,2.05.16.38-.02.54-.53.2-.73-1.05-.63-2.57-.53-3.75-.37-1.44.19-2.82.67-4.13,1.28-1.4.66-2.74,1.49-3.98,2.41-1.03.76-1.18,1.51-.98,2.75.91,5.63,3.63,11.02,7.73,14.98.12.11.27-.05.17-.17h0Z"/>
              </g>
            </g>
          </g>
        </g>
      </g>
    </g>
  </g>
</svg>