<?xml version="1.0" encoding="UTF-8"?>
<svg xmlns="http://www.w3.org/2000/svg" viewBox="0 0 300 299.76">
  <defs>
    <style>
      .cls-1 {
        fill: #fff;
      }

      .cls-2 {
        fill: #ffe7d3;
      }

      .cls-3, .cls-4 {
        fill: #fed2a8;
      }

      .cls-5 {
        opacity: .3;
      }

      .cls-5, .cls-4 {
        mix-blend-mode: multiply;
      }

      .cls-5, .cls-6 {
        fill: #8a322e;
      }

      .cls-7 {
        isolation: isolate;
      }

      .cls-4, .cls-8 {
        opacity: .5;
      }

      .cls-9 {
        opacity: .6;
      }

      .cls-9, .cls-8 {
        mix-blend-mode: overlay;
      }

      .cls-10 {
        fill: #f38186;
      }

      .cls-11 {
        fill: #4f1514;
      }

      .cls-12 {
        fill: #f8aeb1;
      }
    </style>
  </defs>
  <g class="cls-7">
    <g id="Layer_1" data-name="Layer 1">
      <g>
        <g>
          <path class="cls-12" d="m239.41,130.02c29-.72,36.05-32.18,7.05-30.56-29,1.62-36.05,31.27-7.05,30.56Z"/>
          <path class="cls-12" d="m232.16,77.41c10,13.4-3.96,27.27-14.97,13.34-11.01-13.93,3.44-28.79,14.97-13.34Z"/>
          <path class="cls-12" d="m156.51,248.81c23.13,0,86.11-18.84,101.67-73.43,15.56-54.59-41.44-38.63-54.18-32.39-12.74,6.24,33.34-76.08-32.29-99.22C107.05,20.97,44.1,62.9,35.83,132.09c-6.87,57.45,28.24,116.73,120.67,116.73Z"/>
        </g>
        <g>
          <g>
            <path class="cls-6" d="m244.61,172.17c.79-3.68-7.09-10.97-7.09-10.97,0,0,4.2-2.69,3.94-4.15-.26-1.46-7.88-7.38-7.88-7.38,0,0,7.09-7.17,6.83-10.59s-8.67-7.61-8.67-7.61c0,0,2.89-2.36,2.63-4.73-.26-2.36-6.83-4.99-6.83-4.99,0,0,3.94-5.78,3.15-9.72-.79-3.94-9.45-6.5-9.45-6.5,0,0,4.99-8.99,1.84-13.98-3.15-4.99-15.55-7.09-15.55-7.09,0,0,1.9-6.83-.04-9.19-1.94-2.36-13.56-3.41-13.56-3.41,0,0,.79-6.04-3.25-9.45-4.04-3.41-16.99,1.84-16.99,1.84,0,0-1.02-9.45-4.7-10.24-3.68-.79-12.34,5.51-12.34,5.51-1.58-9.45-8.4-15.75-11.31-15.75s-9.74,6.3-11.31,15.75c0,0-8.67-6.3-12.34-5.51-3.68.79-4.7,10.24-4.7,10.24,0,0-12.95-5.25-16.99-1.84-4.04,3.41-3.25,9.45-3.25,9.45,0,0-11.62,1.05-13.56,3.41-1.94,2.36-.04,9.19-.04,9.19,0,0-12.4,2.1-15.55,7.09-3.15,4.99,1.84,13.98,1.84,13.98,0,0-8.67,2.56-9.45,6.5-.79,3.94,3.15,9.72,3.15,9.72,0,0-6.56,2.63-6.83,4.99-.26,2.36,2.63,4.73,2.63,4.73,0,0-8.4,4.2-8.67,7.61s6.83,10.59,6.83,10.59c0,0-7.61,5.92-7.88,7.38-.26,1.46,3.94,4.15,3.94,4.15,0,0-7.88,7.29-7.09,10.97s7.88,8.1,7.88,8.1c0,0-5.78,7.73-4.73,10.19,1.05,2.46,4.2,3.35,4.2,3.35,0,0-5.25,5.15-4.46,8.56.79,3.41,6.56,3.94,6.56,3.94,0,0-2.63,3.08-1.31,5.48,1.31,2.4,4.99,2.66,4.99,2.66,0,0-4.2,8.4-2.63,10.24,1.58,1.84,9.19,2.89,9.19,2.89,0,0-1.84,6.59,0,7.23,1.84.64,7.35,0,7.35,0,0,0,0,5.38,1.84,6.56s13.13,0,13.13,0h114.53s11.29,1.18,13.13,0c1.84-1.18,1.84-6.56,1.84-6.56,0,0,5.51.64,7.35,0,1.84-.64,0-7.23,0-7.23,0,0,7.61-1.05,9.19-2.89,1.58-1.84-2.63-10.24-2.63-10.24,0,0,3.68-.26,4.99-2.66,1.31-2.4-1.31-5.48-1.31-5.48,0,0,5.78-.53,6.56-3.94s-4.46-8.56-4.46-8.56c0,0,3.15-.89,4.2-3.35,1.05-2.46-4.73-10.19-4.73-10.19,0,0,7.09-4.42,7.88-8.1Z"/>
            <path class="cls-5" d="m228.65,171.62c.66-3.09-5.95-9.2-5.95-9.2,0,0,3.53-2.25,3.31-3.48-.22-1.23-6.61-6.2-6.61-6.2,0,0,5.95-6.02,5.73-8.89-.22-2.86-7.27-6.39-7.27-6.39,0,0,2.42-1.98,2.2-3.97-.22-1.98-5.73-4.19-5.73-4.19,0,0,3.31-4.85,2.64-8.15s-7.93-5.45-7.93-5.45c0,0,4.19-7.55,1.54-11.73-2.64-4.19-13.05-5.95-13.05-5.95,0,0,1.59-5.73-.03-7.71-1.62-1.98-11.38-2.86-11.38-2.86,0,0,.66-5.07-2.73-7.93-3.39-2.86-14.26,1.54-14.26,1.54,0,0-.86-7.93-3.94-8.59-3.09-.66-10.36,4.63-10.36,4.63-1.32-7.93-7.05-13.22-9.49-13.22s-8.17,5.29-9.49,13.22c0,0-7.27-5.29-10.36-4.63-3.09.66-3.94,8.59-3.94,8.59,0,0-10.87-4.41-14.26-1.54-3.39,2.86-2.73,7.93-2.73,7.93,0,0-9.75.88-11.38,2.86-1.62,1.98-.03,7.71-.03,7.71,0,0-10.41,1.76-13.05,5.95-2.64,4.19,1.54,11.73,1.54,11.73,0,0-7.27,2.15-7.93,5.45s2.64,8.15,2.64,8.15c0,0-5.51,2.2-5.73,4.19-.22,1.98,2.2,3.97,2.2,3.97,0,0-7.05,3.53-7.27,6.39-.22,2.86,5.73,8.89,5.73,8.89,0,0-6.39,4.97-6.61,6.2-.22,1.23,3.31,3.48,3.31,3.48,0,0-6.61,6.12-5.95,9.2.66,3.09,6.61,6.8,6.61,6.8,0,0-4.85,6.49-3.97,8.55.88,2.06,3.53,2.81,3.53,2.81,0,0-4.41,4.32-3.75,7.19.66,2.86,5.51,3.31,5.51,3.31,0,0-2.2,2.58-1.1,4.6s4.19,2.23,4.19,2.23c0,0-3.53,7.05-2.2,8.59,1.32,1.54,7.71,2.42,7.71,2.42,0,0-1.54,5.53,0,6.07s6.17,0,6.17,0c0,0,0,4.51,1.54,5.5s11.02,0,11.02,0h96.12s9.48.99,11.02,0c1.54-.99,1.54-5.5,1.54-5.5,0,0,4.63.54,6.17,0,1.54-.54,0-6.07,0-6.07,0,0,6.39-.88,7.71-2.42,1.32-1.54-2.2-8.59-2.2-8.59,0,0,3.08-.22,4.19-2.23,1.1-2.01-1.1-4.6-1.1-4.6,0,0,4.85-.44,5.51-3.31.66-2.86-3.75-7.19-3.75-7.19,0,0,2.64-.75,3.53-2.81.88-2.06-3.97-8.55-3.97-8.55,0,0,5.95-3.71,6.61-6.8Z"/>
            <g>
              <path class="cls-11" d="m144.77,104.09c.09,1.79.26,3.58.35,5.38s.03,3.61.06,5.41c0,.55.79.53.84,0,.19-1.84.11-3.68-.04-5.52s-.41-3.58-.95-5.31c-.04-.14-.27-.12-.26.04h0Z"/>
              <path class="cls-11" d="m144.77,44.11c.09,1.79.26,3.58.35,5.38s.03,3.61.06,5.41c0,.55.79.53.84,0,.19-1.84.11-3.68-.04-5.52s-.41-3.58-.95-5.31c-.04-.14-.27-.12-.26.04h0Z"/>
              <path class="cls-11" d="m145.76,72.07c-.24.88-.51,1.71-.65,2.61s-.24,1.78-.32,2.67c-.15,1.82-.18,3.7.06,5.51.07.54.9.58.88,0-.09-1.81-.2-3.6-.17-5.41.02-.9.07-1.8.15-2.7s.09-1.79.2-2.67c0-.08-.12-.09-.14-.02h0Z"/>
              <path class="cls-11" d="m139.76,57.64c.32,2.01.48,4.08.64,6.12s.05,4,.23,5.98c.04.43.74.61.81.11.29-2.04.07-4.17-.17-6.21-.11-.97-.27-1.93-.46-2.89-.21-1.08-.56-2.11-.87-3.16-.03-.12-.2-.07-.18.05h0Z"/>
              <path class="cls-11" d="m138.7,80.29c.68,2.01,1.33,4.05,1.88,6.1s.79,4.2,1.33,6.26c.13.5.86.38.87-.12.08-2.17-.52-4.37-1.15-6.44-.31-1.01-.67-2-1.08-2.98-.45-1.05-1-1.98-1.62-2.93-.08-.12-.29-.05-.24.1h0Z"/>
              <path class="cls-11" d="m135.27,87.86c1.75,4.57,3.14,9.24,4.59,13.91.2.64,1.17.38,1.01-.28-1.16-4.78-3.07-9.39-5.25-13.78-.1-.2-.44-.06-.36.15h0Z"/>
              <path class="cls-11" d="m133.47,99.41c.2.43.31.91.48,1.35.16.4.31.81.47,1.21.31.75.6,1.51.88,2.28.58,1.57,1.06,3.16,1.74,4.69.13.3.67.16.63-.17-.22-1.7-.81-3.32-1.48-4.89-.34-.8-.71-1.6-1.11-2.37-.19-.36-.4-.71-.61-1.06-.24-.4-.56-.75-.8-1.15-.07-.12-.25-.02-.19.11h0Z"/>
              <path class="cls-11" d="m121.94,94.33c1.45,1.66,2.71,3.5,3.74,5.45s1.75,4.02,2.47,6.11c.19.54.94.32.84-.23-.38-2.24-1.33-4.41-2.44-6.38s-2.51-3.8-4.13-5.42c-.32-.32-.77.16-.49.49h0Z"/>
              <path class="cls-11" d="m107.36,93.57c1.57,1.46,3.04,3.07,4.31,4.81s2.23,3.64,3.37,5.46c.22.35.79.13.67-.28-.6-2.1-1.87-4.05-3.17-5.78s-2.86-3.37-4.61-4.76c-.39-.31-.95.21-.56.56h0Z"/>
              <path class="cls-11" d="m123.6,78.99c.59.85,1.06,1.79,1.57,2.69s1.01,1.83,1.45,2.77c.91,1.91,1.55,3.92,2.34,5.88.17.43.76.27.69-.19-.3-2.14-1.18-4.17-2.18-6.07-.51-.95-1.06-1.87-1.69-2.75s-1.36-1.61-2.08-2.41c-.05-.05-.14.02-.1.08h0Z"/>
              <path class="cls-11" d="m128.2,65.7c1.76,3.35,3.49,6.66,4.66,10.27.18.56,1.05.33.89-.25-1.04-3.69-2.75-7.34-5.4-10.14-.08-.08-.2.02-.15.11h0Z"/>
              <path class="cls-11" d="m110.81,73.09c.39.35.67.83,1.02,1.22.37.42.73.84,1.11,1.26.74.82,1.44,1.68,2.11,2.57,1.3,1.75,2.4,3.61,3.6,5.42.22.34.87.13.7-.29-.84-2.04-2.14-3.9-3.53-5.61-.7-.86-1.45-1.69-2.23-2.48-.39-.4-.8-.77-1.24-1.13-.46-.38-1.01-.64-1.45-1.04-.05-.05-.13.03-.08.08h0Z"/>
              <path class="cls-11" d="m114.26,61.69c2.45,2.91,4.28,6.23,5.81,9.7.19.43.9.12.76-.32-1.19-3.72-3.42-7.04-6.13-9.82-.28-.29-.7.14-.44.44h0Z"/>
              <path class="cls-11" d="m131.23,56.92c1.61,2.47,2.78,5.23,3.41,8.11.13.61,1.02.34.92-.25-.5-3.05-1.84-5.88-3.9-8.19-.21-.23-.6.07-.43.33h0Z"/>
              <path class="cls-11" d="m97.45,61.66c1.39,1.25,2.81,2.48,4.17,3.77s2.66,2.65,3.98,3.98c.23.23.67-.08.47-.36-2.23-3.04-5.16-5.73-8.4-7.67-.17-.1-.37.14-.22.28h0Z"/>
              <path class="cls-11" d="m118.69,51.76c2.42,2.85,4.56,5.93,6.56,9.08.21.33.67.04.51-.3-1.6-3.45-4.01-6.48-6.88-8.97-.13-.11-.3.06-.19.19h0Z"/>
              <path class="cls-11" d="m79.4,111.9c1.49.82,2.94,1.78,4.29,2.82s2.51,2.32,3.8,3.45c.31.28.84-.08.6-.46-.92-1.51-2.39-2.71-3.84-3.69s-3.08-1.71-4.82-2.17c-.03,0-.06.04-.02.06h0Z"/>
              <path class="cls-11" d="m60.22,111.96c2.74.47,5.37,1.29,7.99,2.18.31.11.5-.37.22-.53-2.48-1.41-5.29-2.12-8.12-2.38-.41-.04-.51.65-.1.72h0Z"/>
              <path class="cls-11" d="m68.78,117.49c1.56.41,3.13.9,4.62,1.53s2.91,1.43,4.36,2.17c.3.16.69-.26.39-.5-1.29-1.06-2.84-1.84-4.4-2.43s-3.21-1.03-4.91-1.23c-.27-.03-.31.39-.06.46h0Z"/>
              <path class="cls-11" d="m79.86,124.18c1.19.55,2.32,1.21,3.36,1.99s1.98,1.69,2.92,2.61c.39.38.92-.18.59-.59-.86-1.04-1.95-1.92-3.07-2.67s-2.32-1.38-3.58-1.89c-.31-.12-.53.4-.23.54h0Z"/>
              <path class="cls-11" d="m68.92,128.31c3.43,1.1,6.6,2.98,9.21,5.47.54.52,1.36-.3.82-.82-2.74-2.63-6.13-4.49-9.83-5.35-.45-.1-.63.55-.19.69h0Z"/>
              <path class="cls-11" d="m57.93,128.21c1.82-.39,3.7-.32,5.51.08.41.09.58-.52.17-.63-1.91-.53-3.92-.48-5.83.02-.34.09-.2.6.15.53h0Z"/>
              <path class="cls-11" d="m62.96,136.09c1.09.08,2.16.32,3.21.63s2.01.82,2.99,1.27c.22.1.46.08.61-.12.13-.17.15-.48-.04-.63-1.88-1.46-4.44-2-6.78-1.92-.5.02-.49.73,0,.77h0Z"/>
              <path class="cls-11" d="m49.34,139.72c2.81-.37,5.63-.62,8.42-1.06.44-.07.34-.8-.11-.78-2.83.11-5.63.59-8.42,1.09-.42.08-.33.81.1.75h0Z"/>
              <path class="cls-11" d="m65.21,142.73c1.39.06,2.81.4,4.16.71s2.75.79,4.05,1.38,2.41,1.25,3.5,2.05,2,2,3.18,2.66c.38.21.71-.2.56-.56-.53-1.23-1.92-2.17-2.97-2.93-1.21-.88-2.53-1.61-3.9-2.2s-2.75-.97-4.19-1.21-2.9-.14-4.39,0c-.07,0-.07.11,0,.11h0Z"/>
              <path class="cls-11" d="m73.67,136.93c1.08.41,2.15,1.04,3.04,1.77.46.38.87.79,1.26,1.23.19.21.36.42.53.64.2.27.42.47.68.68.28.24.71.02.63-.36-.16-.69-.56-1.19-1.02-1.71-.43-.48-.94-.9-1.46-1.28-1.05-.77-2.22-1.28-3.5-1.54-.38-.08-.51.44-.16.57h0Z"/>
              <path class="cls-11" d="m48.23,157.05c1.76-.28,3.52-.63,5.3-.68.85-.03,1.7.01,2.54.18s1.64.48,2.45.74c.37.11.72-.42.4-.68-1.42-1.15-3.45-1.29-5.21-1.18-1.91.12-3.78.61-5.59,1.22-.26.09-.15.45.11.41h0Z"/>
              <path class="cls-11" d="m62.11,156.09c1.46.52,2.86,1.21,4.18,2,.64.38,1.26.8,1.86,1.25.64.49,1.2.98,1.93,1.34.31.15.69-.17.49-.49-.44-.72-1.02-1.19-1.7-1.68s-1.35-.9-2.07-1.29c-1.43-.78-2.95-1.33-4.53-1.71-.38-.09-.52.45-.16.57h0Z"/>
              <path class="cls-11" d="m69.6,154.08c.17.02.37.2.5.3.15.11.3.23.45.34.25.18.51.35.76.54.54.4,1.07.81,1.57,1.25s.94.89,1.39,1.36c.47.5.88,1.03,1.41,1.48.33.29.76-.07.59-.45-.56-1.27-1.77-2.26-2.86-3.07-.55-.41-1.12-.77-1.74-1.07-.31-.15-.62-.31-.95-.42-.16-.05-.32-.1-.48-.14-.18-.05-.47-.08-.6-.2-.07-.06-.13.08-.04.09h0Z"/>
              <path class="cls-11" d="m68.6,164.16c1.68.53,3.33,1.17,4.93,1.92s3.01,1.79,4.59,2.53c.44.2.89-.31.53-.69-1.26-1.31-3.08-2.14-4.73-2.84s-3.44-1.18-5.25-1.42c-.3-.04-.33.42-.07.51h0Z"/>
              <path class="cls-11" d="m46.03,172.01c1.6-.91,3.31-1.52,5.12-1.83.9-.16,1.82-.2,2.73-.15s1.76.27,2.65.34c.39.03.55-.57.2-.74-1.68-.83-3.94-.65-5.72-.3-1.88.37-3.65,1.28-5.04,2.59-.05.05.01.13.08.1h0Z"/>
              <path class="cls-11" d="m62.39,170.52c1.55.15,3.05.54,4.52,1.05s2.77,1.32,4.19,1.93c.37.16.8-.27.46-.6-1.17-1.16-2.76-1.8-4.31-2.3s-3.23-.72-4.87-.73c-.43,0-.41.62,0,.66h0Z"/>
              <path class="cls-11" d="m49.79,190.29c1.67-1.45,3.56-2.68,5.61-3.54.99-.42,2.03-.74,3.09-.97s2.16-.26,3.23-.49c.27-.06.28-.52,0-.56-1.08-.16-2.19.03-3.25.26-1.13.25-2.24.61-3.3,1.07-2.13.92-4.03,2.3-5.51,4.08-.08.09.04.21.13.13h0Z"/>
              <path class="cls-11" d="m51.95,182.34c1.58-.92,3.27-1.59,5.05-2.04s3.58-.51,5.4-.68c.31-.03.43-.52.08-.58-1.85-.31-3.8,0-5.6.47s-3.63,1.28-5.24,2.3c-.34.21-.03.74.32.54h0Z"/>
              <path class="cls-11" d="m68.65,181.8c1.37-.62,2.8-1.07,4.28-1.37.73-.14,1.47-.27,2.21-.34s1.46-.03,2.17-.21c.42-.1.43-.76,0-.86-.77-.17-1.53-.05-2.3.06s-1.56.25-2.32.46c-1.5.42-2.95,1.02-4.31,1.78-.31.17-.04.61.28.47h0Z"/>
              <path class="cls-11" d="m48.83,204.65c1.19-1.42,2.54-2.8,4.07-3.84.75-.51,1.54-.97,2.37-1.35.88-.41,1.81-.67,2.7-1.04.36-.15.37-.8-.1-.75-1.93.18-3.87,1.26-5.39,2.42s-2.9,2.67-3.72,4.51c-.02.04.03.08.06.05h0Z"/>
              <path class="cls-11" d="m56.45,217.06c.97-1.69,2.28-3.2,3.84-4.38.76-.58,1.59-1.07,2.46-1.47s1.85-.68,2.78-.98c.41-.13.37-.84-.11-.8-2.07.17-4.07,1.25-5.69,2.52s-2.93,2.98-3.7,4.93c-.1.25.3.41.43.18h0Z"/>
              <path class="cls-11" d="m56.19,226.5c.71-1.46,1.69-2.8,2.84-3.95s2.52-2.06,3.92-2.87c.29-.17.1-.67-.23-.56-3.24,1.14-5.76,4.03-7.01,7.17-.11.28.35.47.49.2h0Z"/>
              <path class="cls-11" d="m65.87,235.71c.64-1.83,1.64-3.55,2.89-5.02s2.78-2.64,4.37-3.71c.24-.16.09-.63-.21-.5-3.74,1.56-6.43,5.28-7.46,9.12-.07.26.32.37.41.11h0Z"/>
              <path class="cls-11" d="m75.72,241.63c.55-2.69,1.93-5.08,3.61-7.23.27-.34-.14-.78-.49-.49-2.2,1.88-3.46,4.67-3.92,7.49-.09.52.69.75.8.22h0Z"/>
              <path class="cls-11" d="m82.93,229.56c.69-1.57,1.58-3.05,2.66-4.38s2.32-2.49,3.57-3.66c.29-.27-.08-.76-.43-.55-3.02,1.83-5.16,5.09-6.42,8.33-.14.35.46.61.61.26h0Z"/>
              <path class="cls-11" d="m72.1,222.42c1.53-3.08,3.98-5.57,6.91-7.34.35-.21.04-.74-.32-.55-3.13,1.64-5.5,4.55-6.68,7.86-.02.05.06.08.09.04h0Z"/>
              <path class="cls-11" d="m61.58,206.63c1.22-1.3,2.55-2.52,4.05-3.5.72-.47,1.47-.9,2.25-1.27.84-.4,1.71-.69,2.56-1.05.45-.19.3-.87-.21-.75-1.8.41-3.55,1.41-5.05,2.46s-2.89,2.32-3.99,3.82c-.16.22.19.49.38.29h0Z"/>
              <path class="cls-11" d="m59.72,194.16c2.57-2.2,5.7-3.45,9.02-3.97.42-.07.33-.78-.1-.75-3.5.24-6.82,1.89-9.31,4.33-.26.26.13.63.4.4h0Z"/>
              <path class="cls-11" d="m62.04,199.51c2.4-2,5.21-3.51,8.23-4.34.54-.15.31-1-.23-.84-3.14.92-6.04,2.51-8.45,4.73-.31.28.14.71.45.45h0Z"/>
              <path class="cls-11" d="m76.77,191.54c1.74-1.4,3.79-2.36,5.97-2.83.49-.11.28-.87-.21-.75-2.28.55-4.4,1.64-6.19,3.15-.3.26.13.67.43.43h0Z"/>
              <path class="cls-11" d="m75.56,199.21c1.72-1.7,3.8-3,6.08-3.8.59-.21.33-1.15-.26-.93-2.42.9-4.61,2.3-6.41,4.15-.37.38.21.96.59.59h0Z"/>
              <path class="cls-11" d="m68.77,214.62c.99-1.48,2-2.9,3.24-4.17s2.6-2.37,4.1-3.3c.58-.36.04-1.29-.54-.92-1.56.99-3.01,2.17-4.26,3.52s-2.39,2.86-3.14,4.52c-.18.4.34.72.59.35h0Z"/>
              <path class="cls-11" d="m79.92,208.51c2.08-2.32,4.55-4.16,7.3-5.6.48-.25.06-.95-.42-.72-2.83,1.38-5.31,3.48-7.24,5.97-.19.25.13.6.35.35h0Z"/>
              <path class="cls-11" d="m79.3,223.74c2.09-2.98,4.73-5.55,7.78-7.52.49-.32.03-1.11-.46-.78-3.13,2.09-5.79,4.84-7.72,8.08-.15.25.23.46.39.23h0Z"/>
              <path class="cls-11" d="m93.06,216.44c1.49-2.26,3.64-4.08,6.12-5.16.24-.1.29-.45.17-.65-.14-.24-.42-.28-.65-.17-2.58,1.22-4.75,3.2-6.18,5.67-.2.35.32.65.54.32h0Z"/>
              <path class="cls-11" d="m87.36,209.5c2.54-2.51,5.53-4.35,8.83-5.66.44-.17.27-.88-.2-.72-3.44,1.16-6.58,3.32-9.02,5.99-.24.26.13.64.39.39h0Z"/>
              <path class="cls-11" d="m74.02,102.55c1.44.7,2.83,1.53,4.14,2.45s2.53,1.99,3.74,3.05c.48.42,1.12-.22.7-.7-2.22-2.47-5.26-4.2-8.38-5.29-.28-.1-.48.35-.2.49h0Z"/>
              <path class="cls-11" d="m84.03,99.68c1.02.83,2,1.71,2.93,2.65.46.46.91.93,1.35,1.41.22.24.44.48.67.7.25.24.52.44.79.66.32.25.79-.05.58-.44-.16-.3-.32-.59-.52-.86s-.45-.55-.69-.81c-.46-.49-.93-.95-1.43-1.41-1-.92-2.06-1.78-3.15-2.59-.4-.3-.93.38-.54.7h0Z"/>
              <path class="cls-11" d="m91.39,93.35c1.22.95,2.29,2.04,3.27,3.23.48.58.92,1.19,1.32,1.83s.8,1.33,1.3,1.94c.28.35.82-.03.72-.42-.41-1.52-1.55-2.87-2.59-4.02s-2.32-2.19-3.65-3.05c-.29-.19-.66.27-.38.49h0Z"/>
              <path class="cls-11" d="m96.41,88.24c1.16,1.14,2.17,2.4,3.08,3.75s1.61,2.8,2.43,4.19c.27.46,1.02.16.87-.37-.45-1.63-1.36-3.1-2.37-4.45s-2.21-2.56-3.5-3.64c-.35-.29-.84.18-.51.51h0Z"/>
              <path class="cls-11" d="m104.36,79.35c1.56,1.43,2.96,3.02,4.23,4.71s2.24,3.56,3.5,5.24c.24.32.81.15.69-.29-.59-2.06-1.94-3.9-3.27-5.55s-2.96-3.22-4.67-4.58c-.33-.26-.8.18-.48.48h0Z"/>
              <path class="cls-11" d="m81.68,75.71c1.74.8,3.44,1.81,4.93,3.02s2.77,2.66,4.09,4.07c.37.39,1-.11.74-.57-1.01-1.76-2.54-3.17-4.16-4.36s-3.41-2.12-5.34-2.76c-.35-.11-.59.44-.25.6h0Z"/>
              <path class="cls-11" d="m97.21,79.66c1.19.97,2.26,2.1,3.19,3.32s1.69,2.6,2.47,3.92c.26.45.99.15.84-.36-.93-3.13-3.4-5.68-6.09-7.42-.31-.2-.71.28-.41.53h0Z"/>
              <path class="cls-11" d="m68.38,90.77c1.28.88,2.54,1.79,3.82,2.68s2.47,1.89,3.79,2.69c.43.26.9-.34.54-.7-1.11-1.1-2.47-1.94-3.78-2.78s-2.74-1.55-4.18-2.2c-.21-.09-.38.18-.18.31h0Z"/>
              <path class="cls-11" d="m81.22,91.94c1.28.65,2.48,1.45,3.6,2.36s2.1,1.96,3.15,2.95c.36.34,1-.1.71-.55-.84-1.32-1.98-2.3-3.25-3.19s-2.6-1.53-4.01-2.04c-.27-.1-.46.34-.2.47h0Z"/>
              <path class="cls-11" d="m81.97,84.41c1.32.85,2.53,1.82,3.69,2.88.57.52,1.11,1.06,1.63,1.63s1.08,1.14,1.64,1.69c.33.33.92-.1.66-.51-.44-.69-.91-1.32-1.5-1.9s-1.18-1.11-1.81-1.62c-1.25-1.02-2.62-1.88-4.05-2.62-.3-.15-.54.26-.26.45h0Z"/>
              <path class="cls-11" d="m150.73,57.59c-.31,1.05-.66,2.08-.87,3.16-.19.96-.35,1.92-.46,2.89-.23,2.04-.46,4.17-.17,6.21.07.49.78.32.81-.11.17-1.99.07-3.99.23-5.98s.32-4.1.64-6.12c.02-.12-.15-.17-.18-.05h0Z"/>
              <path class="cls-11" d="m151.73,80.19c-.61.96-1.17,1.88-1.62,2.93-.41.97-.77,1.96-1.08,2.98-.63,2.06-1.23,4.27-1.15,6.44.02.49.74.62.87.12.55-2.06.78-4.19,1.33-6.26s1.2-4.09,1.88-6.1c.05-.15-.16-.23-.24-.1h0Z"/>
              <path class="cls-11" d="m155.04,87.71c-2.18,4.39-4.09,9-5.25,13.78-.16.66.81.92,1.01.28,1.45-4.67,2.84-9.34,4.59-13.91.08-.21-.26-.35-.36-.15h0Z"/>
              <path class="cls-11" d="m157.01,99.3c-.24.4-.56.75-.8,1.15-.21.35-.42.7-.61,1.06-.41.77-.77,1.57-1.11,2.37-.67,1.58-1.26,3.19-1.48,4.89-.04.33.49.47.63.17.68-1.53,1.16-3.12,1.74-4.69.28-.76.57-1.52.88-2.28.15-.37.29-.75.44-1.13.19-.47.3-.97.51-1.43.06-.13-.12-.23-.19-.11h0Z"/>
              <path class="cls-11" d="m168.25,93.84c-1.62,1.62-3.01,3.42-4.13,5.42s-2.06,4.14-2.44,6.38c-.09.55.66.77.84.23.72-2.08,1.43-4.15,2.47-6.11s2.3-3.79,3.74-5.45c.29-.33-.17-.8-.49-.49h0Z"/>
              <path class="cls-11" d="m182.75,93c-1.75,1.39-3.26,2.98-4.61,4.76s-2.57,3.67-3.17,5.78c-.12.41.45.63.67.28,1.14-1.81,2.1-3.72,3.37-5.46s2.74-3.35,4.31-4.81c.38-.36-.17-.88-.56-.56h0Z"/>
              <path class="cls-11" d="m166.97,78.92c-.69.77-1.41,1.49-2.02,2.33-.66.9-1.23,1.84-1.75,2.83-1.01,1.9-1.89,3.93-2.18,6.07-.06.46.52.63.69.19.79-1.96,1.43-3.97,2.34-5.88.45-.94.94-1.86,1.45-2.77s.98-1.84,1.57-2.69c.04-.06-.05-.13-.1-.08h0Z"/>
              <path class="cls-11" d="m162.32,65.58c-2.66,2.8-4.36,6.45-5.4,10.14-.16.57.71.81.89.25,1.17-3.61,2.9-6.93,4.66-10.27.05-.09-.07-.19-.15-.11h0Z"/>
              <path class="cls-11" d="m179.79,73.01c-.42.37-.95.62-1.38.98s-.85.72-1.24,1.12c-.8.81-1.58,1.66-2.3,2.54-1.39,1.71-2.69,3.57-3.53,5.61-.17.42.47.64.7.29,1.2-1.81,2.3-3.67,3.6-5.42.65-.86,1.33-1.7,2.05-2.5.37-.42.74-.84,1.11-1.26s.66-.92,1.07-1.29c.05-.05-.02-.12-.08-.08h0Z"/>
              <path class="cls-11" d="m175.97,61.25c-2.71,2.79-4.94,6.11-6.13,9.82-.14.44.56.75.76.32,1.53-3.47,3.36-6.79,5.81-9.7.26-.3-.16-.73-.44-.44h0Z"/>
              <path class="cls-11" d="m159.01,56.59c-2.05,2.31-3.4,5.14-3.9,8.19-.1.59.79.86.92.25.62-2.88,1.8-5.64,3.41-8.11.17-.26-.22-.56-.43-.33h0Z"/>
              <path class="cls-11" d="m193,61.38c-3.24,1.95-6.17,4.63-8.4,7.67-.2.28.23.59.47.36,1.32-1.33,2.62-2.69,3.98-3.98s2.77-2.52,4.17-3.77c.15-.14-.04-.39-.22-.28h0Z"/>
              <path class="cls-11" d="m171.79,51.57c-2.87,2.49-5.28,5.52-6.88,8.97-.16.34.31.63.51.3,2-3.16,4.13-6.23,6.56-9.08.11-.13-.06-.3-.19-.19h0Z"/>
              <path class="cls-11" d="m211.25,111.85c-1.74.45-3.34,1.16-4.82,2.17s-2.92,2.19-3.84,3.69c-.23.39.28.74.6.46,1.29-1.13,2.43-2.4,3.8-3.45s2.8-2,4.29-2.82c.03-.02,0-.07-.02-.06h0Z"/>
              <path class="cls-11" d="m230.35,111.24c-2.82.26-5.64.97-8.12,2.38-.28.16-.09.64.22.53,2.62-.89,5.26-1.72,7.99-2.18.4-.07.32-.76-.1-.72h0Z"/>
              <path class="cls-11" d="m221.83,117.03c-1.7.2-3.32.61-4.91,1.23s-3.11,1.38-4.4,2.43c-.29.24.08.66.39.5,1.45-.74,2.86-1.53,4.36-2.17s3.06-1.12,4.62-1.53c.25-.06.21-.49-.06-.46h0Z"/>
              <path class="cls-11" d="m210.58,123.64c-1.25.51-2.46,1.13-3.58,1.89s-2.21,1.63-3.07,2.67c-.33.4.2.96.59.59.94-.91,1.87-1.82,2.92-2.61s2.18-1.45,3.36-1.99c.3-.14.08-.67-.23-.54h0Z"/>
              <path class="cls-11" d="m221.56,127.62c-3.7.86-7.09,2.72-9.83,5.35-.54.52.28,1.33.82.82,2.6-2.5,5.77-4.37,9.21-5.47.44-.14.26-.8-.19-.69h0Z"/>
              <path class="cls-11" d="m232.89,127.68c-1.91-.5-3.92-.55-5.83-.02-.41.11-.24.72.17.63,1.81-.4,3.69-.47,5.51-.08.34.07.49-.44.15-.53h0Z"/>
              <path class="cls-11" d="m227.71,135.32c-2.34-.07-4.9.47-6.78,1.92-.19.15-.17.46-.04.63.15.2.4.22.61.12.99-.45,1.95-.95,2.99-1.27s2.12-.55,3.21-.63c.49-.04.5-.75,0-.77h0Z"/>
              <path class="cls-11" d="m241.43,138.97c-2.78-.51-5.59-.98-8.42-1.09-.44-.02-.56.71-.11.78,2.79.45,5.62.69,8.42,1.06.42.06.53-.67.1-.75h0Z"/>
              <path class="cls-11" d="m225.46,142.62c-1.44-.14-2.83-.25-4.27-.02s-2.92.65-4.3,1.23-2.62,1.28-3.81,2.13c-1.09.78-2.53,1.74-3.07,3-.15.35.17.77.56.56,1.15-.64,2.02-1.8,3.08-2.59,1.12-.83,2.33-1.54,3.6-2.12s2.59-1.04,3.94-1.35,2.85-.67,4.28-.73c.07,0,.07-.1,0-.11h0Z"/>
              <path class="cls-11" d="m216.84,136.35c-1.28.26-2.45.77-3.5,1.54-.52.38-1.03.8-1.46,1.28-.47.52-.86,1.02-1.02,1.71-.09.38.34.6.63.36.24-.2.46-.39.65-.65.17-.22.34-.44.52-.64.4-.45.82-.88,1.29-1.26.89-.73,1.96-1.36,3.04-1.77.35-.14.22-.65-.16-.57h0Z"/>
              <path class="cls-11" d="m242.55,156.64c-1.81-.61-3.67-1.1-5.59-1.22-1.77-.11-3.79.03-5.21,1.18-.32.26.03.79.4.68.81-.25,1.62-.57,2.45-.74s1.69-.21,2.54-.18c1.78.06,3.54.4,5.3.68.26.04.37-.32.11-.41h0Z"/>
              <path class="cls-11" d="m228.4,155.52c-1.58.38-3.1.93-4.53,1.71-.69.38-1.37.8-2.01,1.25-.7.5-1.31.97-1.76,1.72-.2.32.18.64.49.49.71-.35,1.25-.82,1.88-1.3s1.25-.9,1.91-1.29c1.33-.79,2.73-1.48,4.18-2,.36-.13.22-.66-.16-.57h0Z"/>
              <path class="cls-11" d="m221.04,153.99c-.13.12-.39.14-.55.19s-.32.09-.48.14c-.33.11-.64.26-.95.41-.63.31-1.22.68-1.78,1.1-1.09.81-2.31,1.8-2.86,3.07-.17.38.25.75.59.45.51-.44.91-.96,1.37-1.45s.92-.96,1.42-1.4,1.01-.83,1.53-1.22c.26-.2.54-.37.8-.57.14-.1.27-.21.41-.31.15-.11.36-.31.55-.33.09,0,.03-.15-.04-.09h0Z"/>
              <path class="cls-11" d="m222,163.65c-1.81.24-3.57.71-5.25,1.42s-3.47,1.53-4.73,2.84c-.36.37.09.89.53.69,1.58-.74,3-1.79,4.59-2.53s3.25-1.38,4.93-1.92c.26-.08.23-.55-.07-.51h0Z"/>
              <path class="cls-11" d="m244.71,171.91c-1.39-1.31-3.17-2.22-5.04-2.59s-4.05-.53-5.72.3c-.35.17-.19.77.2.74.89-.06,1.75-.28,2.65-.34s1.83,0,2.73.15c1.81.31,3.52.92,5.12,1.83.06.03.13-.05.08-.1h0Z"/>
              <path class="cls-11" d="m228.28,169.86c-1.64.02-3.3.23-4.87.73s-3.14,1.15-4.31,2.3c-.33.33.09.76.46.6,1.42-.61,2.73-1.42,4.19-1.93s2.97-.9,4.52-1.05c.41-.04.43-.66,0-.66h0Z"/>
              <path class="cls-11" d="m241.02,190.15c-1.49-1.79-3.38-3.16-5.51-4.08-1.03-.45-2.1-.81-3.21-1.05s-2.23-.45-3.34-.28c-.28.04-.27.5,0,.56,1.03.21,2.1.25,3.14.47s2.16.55,3.18.99c2.05.86,3.94,2.09,5.61,3.54.09.08.21-.04.13-.13h0Z"/>
              <path class="cls-11" d="m239.04,181.8c-1.62-1.02-3.39-1.82-5.24-2.3s-3.76-.78-5.6-.47c-.35.06-.23.55.08.58,1.82.17,3.62.22,5.4.68s3.46,1.12,5.05,2.04c.35.2.66-.33.32-.54h0Z"/>
              <path class="cls-11" d="m222.3,181.33c-1.36-.75-2.81-1.36-4.31-1.78-.76-.21-1.54-.36-2.32-.46s-1.54-.23-2.3-.06c-.43.09-.42.76,0,.86.71.17,1.44.14,2.17.21s1.48.19,2.21.34c1.47.29,2.91.75,4.28,1.37.31.14.59-.3.28-.47h0Z"/>
              <path class="cls-11" d="m241.91,204.6c-.81-1.84-2.13-3.29-3.72-4.51s-3.46-2.25-5.39-2.42c-.47-.04-.46.6-.1.75.87.36,1.78.61,2.64,1.01s1.66.86,2.43,1.38c1.53,1.05,2.88,2.43,4.07,3.84.03.04.08-.01.06-.05h0Z"/>
              <path class="cls-11" d="m234.65,216.88c-.77-1.95-2.05-3.64-3.7-4.93s-3.62-2.35-5.69-2.52c-.47-.04-.53.66-.11.8.91.3,1.84.56,2.71.95s1.74.91,2.52,1.5c1.55,1.18,2.87,2.69,3.84,4.38.13.22.53.07.43-.18h0Z"/>
              <path class="cls-11" d="m234.96,226.3c-1.25-3.14-3.77-6.02-7.01-7.17-.33-.12-.53.39-.23.56,1.4.81,2.77,1.73,3.92,2.87s2.12,2.49,2.84,3.95c.13.27.6.08.49-.2h0Z"/>
              <path class="cls-11" d="m225.21,235.6c-1.03-3.84-3.72-7.57-7.46-9.12-.3-.12-.45.34-.21.5,1.59,1.07,3.13,2.24,4.37,3.71s2.26,3.2,2.89,5.02c.09.25.48.15.41-.11h0Z"/>
              <path class="cls-11" d="m215.75,241.41c-.46-2.82-1.72-5.61-3.92-7.49-.34-.29-.76.14-.49.49,1.68,2.15,3.06,4.53,3.61,7.23.11.53.88.3.8-.22h0Z"/>
              <path class="cls-11" d="m208.36,229.3c-1.26-3.24-3.39-6.5-6.42-8.33-.34-.2-.72.28-.43.55,1.24,1.17,2.49,2.33,3.57,3.66s1.97,2.81,2.66,4.38c.15.34.75.1.61-.26h0Z"/>
              <path class="cls-11" d="m218.66,222.38c-1.18-3.31-3.54-6.22-6.68-7.86-.36-.19-.68.34-.32.55,2.93,1.77,5.38,4.26,6.91,7.34.02.05.1.01.09-.04h0Z"/>
              <path class="cls-11" d="m229.47,206.34c-1.1-1.5-2.46-2.76-3.99-3.82s-3.25-2.05-5.05-2.46c-.5-.11-.66.57-.21.75.83.34,1.68.63,2.5,1.01s1.58.81,2.32,1.3c1.5.98,2.83,2.2,4.05,3.5.18.2.55-.07.38-.29h0Z"/>
              <path class="cls-11" d="m231.35,193.77c-2.5-2.43-5.81-4.08-9.31-4.33-.42-.03-.53.68-.1.75,3.31.52,6.45,1.78,9.02,3.97.27.23.66-.14.4-.4h0Z"/>
              <path class="cls-11" d="m229.08,199.06c-2.41-2.23-5.3-3.82-8.45-4.73-.54-.16-.78.69-.23.84,3.01.83,5.82,2.34,8.23,4.34.31.26.76-.17.45-.45h0Z"/>
              <path class="cls-11" d="m214.34,191.11c-1.79-1.52-3.91-2.6-6.19-3.15-.49-.12-.7.65-.21.75,2.18.47,4.23,1.43,5.97,2.83.3.24.73-.18.43-.43h0Z"/>
              <path class="cls-11" d="m215.7,198.62c-1.8-1.84-4-3.25-6.41-4.15-.58-.22-.85.73-.26.93,2.28.8,4.36,2.1,6.08,3.8.38.37.96-.2.59-.59h0Z"/>
              <path class="cls-11" d="m222.5,214.28c-.75-1.66-1.91-3.19-3.14-4.52s-2.71-2.53-4.26-3.52c-.58-.37-1.12.56-.54.92,1.5.93,2.87,2.03,4.1,3.3s2.25,2.7,3.24,4.17c.25.37.78.05.59-.35h0Z"/>
              <path class="cls-11" d="m211.1,208.15c-1.92-2.48-4.41-4.58-7.24-5.97-.47-.23-.89.47-.42.72,2.75,1.44,5.23,3.29,7.3,5.6.22.25.54-.11.35-.35h0Z"/>
              <path class="cls-11" d="m211.77,223.51c-1.93-3.23-4.58-5.99-7.72-8.08-.49-.32-.95.47-.46.78,3.06,1.98,5.7,4.54,7.78,7.52.16.24.54.03.39-.23h0Z"/>
              <path class="cls-11" d="m198.15,216.13c-1.43-2.48-3.59-4.45-6.18-5.67-.23-.11-.51-.06-.65.17-.12.2-.06.55.17.65,2.48,1.09,4.62,2.9,6.12,5.16.22.33.74.04.54-.32h0Z"/>
              <path class="cls-11" d="m203.69,209.12c-2.44-2.67-5.58-4.83-9.02-5.99-.47-.16-.64.55-.2.72,3.31,1.31,6.29,3.15,8.83,5.66.25.25.62-.13.39-.39h0Z"/>
              <path class="cls-11" d="m216.44,102.06c-3.11,1.09-6.16,2.81-8.38,5.29-.43.47.22,1.11.7.7,1.21-1.06,2.42-2.13,3.74-3.05s2.7-1.75,4.14-2.45c.27-.13.08-.58-.2-.49h0Z"/>
              <path class="cls-11" d="m206.1,98.98c-1.09.81-2.15,1.67-3.15,2.59-.49.45-.97.92-1.43,1.41-.24.26-.47.53-.69.81s-.36.56-.52.86c-.21.39.26.69.58.44.26-.2.52-.39.76-.62s.45-.46.68-.7c.46-.49.92-.97,1.39-1.45.93-.93,1.91-1.82,2.93-2.65.39-.32-.13-1-.54-.7h0Z"/>
              <path class="cls-11" d="m198.9,92.86c-1.33.86-2.59,1.87-3.65,3.05-.53.58-1.02,1.2-1.47,1.84-.48.68-.9,1.37-1.12,2.18-.1.39.43.76.72.42.49-.59.86-1.24,1.27-1.89s.86-1.28,1.35-1.88c.98-1.19,2.06-2.28,3.27-3.23.28-.22-.08-.68-.38-.49h0Z"/>
              <path class="cls-11" d="m193.75,87.73c-1.29,1.08-2.49,2.29-3.5,3.64s-1.92,2.82-2.37,4.45c-.14.52.59.83.87.37.83-1.39,1.53-2.85,2.44-4.19s1.91-2.61,3.08-3.75c.34-.33-.16-.8-.51-.51h0Z"/>
              <path class="cls-11" d="m185.84,78.87c-1.71,1.36-3.3,2.87-4.67,4.58s-2.68,3.49-3.27,5.55c-.13.44.44.61.69.29,1.27-1.68,2.24-3.56,3.5-5.24s2.67-3.28,4.23-4.71c.33-.3-.14-.74-.48-.48h0Z"/>
              <path class="cls-11" d="m208.74,75.11c-1.93.64-3.7,1.55-5.34,2.76s-3.16,2.6-4.16,4.36c-.26.45.36.96.74.57,1.32-1.41,2.59-2.85,4.09-4.07s3.19-2.22,4.93-3.02c.34-.15.1-.72-.25-.6h0Z"/>
              <path class="cls-11" d="m193.05,79.13c-2.69,1.74-5.16,4.29-6.09,7.42-.15.5.58.8.84.36.78-1.33,1.54-2.7,2.47-3.92s1.99-2.35,3.19-3.32c.3-.24-.09-.73-.41-.53h0Z"/>
              <path class="cls-11" d="m222.11,90.46c-1.45.64-2.85,1.35-4.18,2.2s-2.67,1.68-3.78,2.78c-.36.35.1.97.54.7,1.32-.81,2.52-1.81,3.79-2.69s2.54-1.8,3.82-2.68c.19-.13.03-.4-.18-.31h0Z"/>
              <path class="cls-11" d="m209.25,91.46c-1.42.51-2.78,1.17-4.01,2.04s-2.41,1.88-3.25,3.19c-.28.44.34.89.71.55,1.05-.98,2.04-2.04,3.15-2.95s2.32-1.71,3.6-2.36c.26-.13.08-.57-.2-.47h0Z"/>
              <path class="cls-11" d="m208.45,83.96c-1.43.74-2.8,1.6-4.05,2.62-.61.5-1.2,1.02-1.76,1.58-.6.59-1.09,1.23-1.54,1.94-.26.41.33.85.66.51.54-.54,1.08-1.08,1.6-1.65s1.09-1.14,1.67-1.67c1.16-1.06,2.37-2.03,3.69-2.88.28-.18.04-.6-.26-.45h0Z"/>
            </g>
          </g>
          <g>
            <g>
              <path class="cls-3" d="m170.81,213.77h-50.94c-25.47,2.34-37.27,31.08-37.27,31.08,19.98,17.76,62.74,17.39,62.74,17.39,0,0,42.76.37,62.74-17.39,0,0-11.8-28.74-37.27-31.08Z"/>
              <path class="cls-2" d="m164.19,226.79c-1.81-3.39-1.34-8.49-.46-12.61h-36.79c.87,4.13,1.35,9.22-.46,12.61-3.24,6.08-15.6,14.44-15.73,31.24,17.58,4.35,34.59,4.2,34.59,4.2,0,0,17.01.14,34.59-4.2-.13-16.8-12.49-25.16-15.73-31.24Z"/>
              <path class="cls-4" d="m119.86,213.77c-5.94.55-11.13,2.54-15.6,5.25,19.13,8.36,41.07,8.72,41.07,8.72,0,0,21.95-.36,41.07-8.72-4.48-2.72-9.66-4.71-15.6-5.25h-50.94Z"/>
              <path class="cls-11" d="m208.8,244.59c-3.35-8.13-9.04-15.83-15.63-21.59-5.64-4.93-12.44-8.56-19.89-9.73-2.95-.47-5.93-.31-8.91-.31h-34.7c-3.21,0-6.43-.1-9.63,0-6.54.21-13.21,3.17-18.5,6.87-8.41,5.9-15.21,14.7-19.38,24.08-.1.22-.2.45-.29.68-.37.89,1.08,1.28,1.45.4-.09.23.11-.25.19-.43.22-.5.46-.99.7-1.48.86-1.75,1.81-3.45,2.83-5.11,3.15-5.15,6.97-9.93,11.53-13.9,5.65-4.93,12.51-8.47,19.99-9.46,2.66-.35,5.42-.15,8.09-.15h33.95c3.3,0,6.61-.07,9.91,0,6.17.13,12.51,2.98,17.52,6.42,8.37,5.74,15.04,14.49,19.17,23.73.07.16.27.62.16.37.36.88,1.81.49,1.45-.4h0Z"/>
            </g>
            <g>
              <g>
                <path class="cls-3" d="m184.88,105.72c-.2-.14-.4-.27-.6-.4-1.94,2.55-5.18,6.35-6.79,5.38-2.37-1.43-5.3-8.97-10.15-2.85-4.85,6.11-8.11,9.37-9.74,4.69-1.63-4.69-7.2,8.54-12.26,7.22-5.06,1.31-10.63-11.91-12.26-7.22-1.63,4.69-4.89,1.43-9.74-4.69-4.85-6.11-7.78,1.43-10.15,2.85-1.6.97-4.85-2.83-6.79-5.38-.2.14-.4.26-.6.4-32.08,22.58-35.22,66.45-25.67,85.55,14.32,28.64,65.21,29.47,65.21,29.47,0,0,50.89-.83,65.21-29.47,9.55-19.11,6.41-62.97-25.67-85.55Z"/>
                <path class="cls-4" d="m145.87,125.58c-7.92,0-9.57-8.37-11.32-7.48-1.75.89-6.49,3.17-10.7-2.79-4.21-5.96-6.94-.38-10.79,0-2.73.27-4.27-4.84-4.94-7.85,1.79,2.07,3.88,3.96,5.06,3.24,2.37-1.43,5.3-8.97,10.15-2.85,4.85,6.11,8.11,9.37,9.74,4.69,1.63-4.69,7.2,8.54,12.26,7.22,5.06,1.31,10.63-11.91,12.26-7.22,1.63,4.69,4.89,1.43,9.74-4.69,4.85-6.11,7.78,1.43,10.15,2.85.92.56,2.39-.47,3.84-1.92-1.9,3.92-4.67,6.84-6.63,5.36-2.41-1.82-5.7-1.61-9.19,3.84-3.49,5.45-5.76,1.9-9.39,1.27-3.62-.64-2.34,6.34-10.26,6.34Zm64.68,57.55c-14.32,28.64-65.21,29.47-65.21,29.47,0,0-50.89-.83-65.21-29.47-2.56-5.12-4.19-12.02-4.62-19.8-.58,11.08,1.2,21.1,4.62,27.95,14.32,28.64,65.21,29.47,65.21,29.47,0,0,50.89-.83,65.21-29.47,3.42-6.84,5.2-16.87,4.62-27.95-.43,7.78-2.06,14.69-4.62,19.8Z"/>
                <path class="cls-11" d="m105.41,105.07c-12.18,8.63-21.09,21-26.06,35.02-4.26,12.02-5.85,25.27-3.94,37.91.75,4.97,2.08,9.92,4.44,14.38,2.8,5.27,6.94,9.69,11.7,13.25,9.47,7.09,21.16,10.96,32.65,13.3,6.81,1.39,13.86,2.42,20.83,2.56,4.73.09,9.58-.61,14.23-1.3,11.17-1.64,22.41-4.55,32.42-9.88s18.53-13.59,21.92-24.8,3.04-24.17.48-35.77c-3.09-13.99-9.85-27.25-20.07-37.36-2.71-2.68-5.64-5.11-8.75-7.32-.79-.56-1.54.74-.76,1.3,12.02,8.51,20.79,20.85,25.58,34.72,4.06,11.74,5.62,24.7,3.66,37.01-.77,4.85-2.09,9.69-4.47,14.01-2.86,5.19-7.07,9.52-11.88,12.95-9.38,6.68-20.7,10.33-31.89,12.55-6.5,1.29-13.21,2.26-19.85,2.38-4.49.09-9.1-.56-13.52-1.2-10.84-1.56-21.75-4.31-31.53-9.33s-18.6-13.06-22-24.13-3.07-23.56-.61-34.89c2.98-13.74,9.52-26.77,19.51-36.76,2.69-2.68,5.59-5.13,8.69-7.32.78-.55.03-1.85-.76-1.3h0Z"/>
                <g>
                  <path class="cls-3" d="m93.69,119.76s-8.06-7.33-4.81-15.46c3.25-8.12,15.75-9,18.5,0,0,0,10.39,26.41-13.69,15.46Z"/>
                  <path class="cls-3" d="m196.98,119.76s8.06-7.33,4.81-15.46c-3.25-8.12-15.75-9-18.5,0,0,0-10.39,26.41,13.69,15.46Z"/>
                  <path class="cls-11" d="m94.22,119.23c-4.52-4.14-7.56-11.67-3.27-17.01,2.04-2.54,5.39-3.87,8.62-3.48,3.4.41,6.07,2.75,7.15,5.96.79,2.35,1.58,5.65,4.13,6.7,2.82,1.16,4.55-1.63,6.19-3.36.87-.92,2.02-2.03,3.4-1.6.92.29,1.64,1.08,2.23,1.8.89,1.07,1.72,2.18,2.61,3.25,1.69,2.03,4.24,5.04,7.01,2.92.69-.52,1.35-2.03,2.35-1.71s1.93,1.63,2.6,2.4c1.7,1.95,3.51,4.57,6.12,5.34.57.17,1.1.17,1.69.14.48-.02,1.03.07,1.58,0,1.2-.17,2.23-.85,3.13-1.62,2.08-1.77,3.41-4.37,5.59-6,1-.75,1.34-.32,2.03.56.83,1.05,1.95,2.16,3.4,2.02s2.53-1.41,3.4-2.43c1.59-1.88,2.87-4.14,4.69-5.8,2.85-2.61,4.98,1.13,6.83,3,.75.76,1.66,1.48,2.78,1.17,1.38-.38,2.42-1.77,3.23-2.87.89-1.22,1.68-2.54,2.25-3.94.64-1.6,1.45-3.03,2.82-4.13,2.54-2.03,6.13-2.32,9.1-1.13,3.56,1.42,5.86,4.91,5.93,8.72.07,3.61-1.76,7.06-4.06,9.75-.41.48-.84.95-1.3,1.38-.71.65.35,1.71,1.06,1.06,4.57-4.19,7.52-11.25,4.57-17.14s-11.54-8-16.66-3.44c-1.36,1.21-2.19,2.73-2.86,4.4-.59,1.47-1.47,2.9-2.47,4.13-.46.57-1,1.25-1.66,1.6-.6.32-.91.09-1.38-.35-1.08-.98-1.9-2.23-2.99-3.22-1.01-.91-2.24-1.63-3.65-1.43-2.03.28-3.33,2.12-4.49,3.61-1.3,1.68-2.55,3.76-4.26,5.07-1.62,1.23-2.58-.41-3.58-1.58-1.74-2.03-3.8-.23-5.15,1.28-.99,1.11-1.89,2.29-2.9,3.37-.92.99-2.05,2.19-3.43,2.46-.55.11-1.1,0-1.65.03-.67.04-1.22-.06-1.82-.36-1.29-.65-2.31-1.81-3.26-2.88-1.34-1.51-3.3-4.82-5.65-4.74-1.35.04-1.85,1.37-2.8,2.09-1.33,1-2.5-.01-3.49-1-1.8-1.81-3.11-4.07-4.94-5.84-1.09-1.05-2.52-1.82-4.07-1.41-1.33.35-2.36,1.38-3.25,2.37-.78.86-1.59,2.19-2.69,2.67-3.09,1.36-4.27-4.28-4.98-6.16-2.5-6.6-10.7-8.59-16.25-4.42-3.05,2.29-4.67,6.08-4.34,9.87.3,3.55,2.07,6.81,4.33,9.5.45.53.91,1.06,1.43,1.53.71.65,1.77-.41,1.06-1.06h0Z"/>
                  <g>
                    <path class="cls-2" d="m99.01,114.05s-2.87.75-4.63-2.37c-1.7-3.02.06-5.74,1.76-6.75,3.36-2,8.45.59,8.11,5.37"/>
                    <path class="cls-11" d="m98.81,113.33c-.06.02-.13.02-.19.04-.11.02.07,0,.08-.01-.05,0-.1.01-.15.01-.11,0-.22.01-.34.01-.5,0-.98-.09-1.49-.36-1.68-.87-2.65-3.05-2.15-4.87.42-1.5,1.63-2.71,3.16-3.06,1.31-.3,2.7.07,3.79.83,1.43,1,2.08,2.67,1.98,4.38-.06.96,1.44.96,1.5,0,.12-1.97-.62-3.94-2.14-5.22-1.41-1.2-3.27-1.78-5.11-1.51-1.98.29-3.62,1.69-4.39,3.52-.98,2.33-.14,5.16,1.83,6.72,1.09.86,2.63,1.32,4.01.97.93-.24.54-1.69-.4-1.45h0Z"/>
                  </g>
                  <g>
                    <path class="cls-2" d="m191.66,114.05s2.87.75,4.63-2.37c1.7-3.02-.06-5.74-1.76-6.75-3.36-2-8.45.59-8.11,5.37"/>
                    <path class="cls-11" d="m191.46,114.77c3.82.97,6.96-3.41,6.12-6.88-.48-1.97-2.07-3.65-4.03-4.19-1.74-.47-3.68-.1-5.15.93-1.86,1.3-2.86,3.41-2.72,5.67.06.96,1.56.97,1.5,0-.09-1.55.41-3,1.58-4.05,1.01-.91,2.42-1.37,3.76-1.23,1.49.16,2.74,1.17,3.37,2.52.81,1.76.13,4.01-1.41,5.16-.55.41-1.25.65-1.84.67-.22.01-.44,0-.66-.02.25.02-.04,0-.11-.03-.94-.24-1.34,1.21-.4,1.45h0Z"/>
                  </g>
                </g>
                <g>
                  <g class="cls-8">
                    <path class="cls-1" d="m80.96,173.95c-1.99-13.89.69-28.45,7.49-40.72,1.93-3.49,4.21-6.81,6.74-9.89.37-.45-.26-1.11-.65-.65-9.33,10.77-14.59,25-14.85,39.23-.08,4.06.31,8.11,1.06,12.1.03.14.23.08.21-.06h0Z"/>
                  </g>
                  <g class="cls-8">
                    <path class="cls-1" d="m209.93,174.01c2.64-14.07.11-28.78-6.8-41.3-1.98-3.58-4.31-6.93-6.99-10.02-.39-.45-1.03.2-.65.65,8.94,10.89,14.17,24.49,14.79,38.57.18,4.02.01,8.06-.56,12.04-.02.14.19.2.21.06h0Z"/>
                  </g>
                </g>
              </g>
              <g>
                <g>
                  <g>
                    <path class="cls-1" d="m111.46,150.89c-13.64-.35-16.23,16.06-11.57,23.48,2.33,3.71,5.24,6.29,11.57,6.29s9.24-2.58,11.57-6.29c4.66-7.42,2.07-23.82-11.57-23.48Z"/>
                    <path class="cls-11" d="m125.26,160.92c-1-3.69-3.12-7.12-6.5-9.06s-8.02-2.26-11.78-1.18c-6.41,1.83-9.7,8.26-9.95,14.55-.13,3.27.49,6.71,2.22,9.52.5.82,1.8.07,1.3-.76-2.75-4.48-2.66-10.8-.43-15.47,1.21-2.53,3.15-4.67,5.73-5.85,3.13-1.42,7.26-1.46,10.47-.31,3.97,1.43,6.43,5,7.5,8.94.25.93,1.7.54,1.45-.4h0Z"/>
                    <ellipse class="cls-11" cx="115.01" cy="166.26" rx="8.63" ry="10.67"/>
                  </g>
                  <g>
                    <path class="cls-1" d="m179.21,150.89c13.64-.35,16.23,16.06,11.57,23.48-2.33,3.71-5.24,6.29-11.57,6.29s-9.24-2.58-11.57-6.29c-4.66-7.42-2.07-23.82,11.57-23.48Z"/>
                    <path class="cls-11" d="m166.86,161.32c.93-3.43,2.88-6.59,6.08-8.31s7.47-1.85,10.86-.72c5.58,1.86,8.24,7.79,8.35,13.32.06,2.9-.49,5.9-2.03,8.4-.51.82.79,1.58,1.3.76,3.12-5.07,2.91-12.22.21-17.42-1.45-2.79-3.77-5.05-6.7-6.23-3.58-1.44-8.18-1.39-11.72.12-4.08,1.74-6.66,5.52-7.8,9.7-.25.93,1.19,1.33,1.45.4h0Z"/>
                    <ellipse class="cls-11" cx="175.66" cy="166.26" rx="8.63" ry="10.67"/>
                  </g>
                  <g>
                    <path class="cls-10" d="m97.98,190.44c-13.15-3.01-8.94-12,0-9.87,12.38,2.96,10.76,12.33,0,9.87Z"/>
                    <path class="cls-10" d="m192.69,190.44c13.15-3.01,8.94-12,0-9.87-12.38,2.96-10.76,12.33,0,9.87Z"/>
                  </g>
                  <path class="cls-11" d="m105.46,149.25c2.31-.99,5.47-1.69,9.12-.37,2.62.94,4.07-1.16,2.15-2.66-2.21-1.73-7.75-2.73-11.62-.83-3.87,1.9-3.61,3.2-3.3,3.94.31.74,1.47.85,3.64-.08Z"/>
                  <path class="cls-11" d="m185.21,149.25c-2.31-.99-5.47-1.69-9.12-.37-2.62.94-4.07-1.16-2.15-2.66,2.21-1.73,7.75-2.73,11.62-.83,3.87,1.9,3.61,3.2,3.3,3.94-.31.74-1.47.85-3.64-.08Z"/>
                </g>
                <g>
                  <g>
                    <g>
                      <path class="cls-11" d="m144.59,181.57v10.54c0,.97,1.5.97,1.5,0v-10.54c0-.97-1.5-.97-1.5,0h0Z"/>
                      <g>
                        <path class="cls-11" d="m125.16,186.88c.64-.01,1.3.02,1.93.19.47.12.37.17.49.74.29,1.32.63,2.62,1.26,3.83,2.11,4.07,6.92,5.42,11.18,4.29,2.16-.57,4.24-1.72,5.84-3.29.69-.68-.37-1.74-1.06-1.06-3.72,3.66-11.19,4.96-14.33-.11-.86-1.39-1.12-2.89-1.53-4.44s-2.38-1.68-3.79-1.65c-.96.02-.97,1.52,0,1.5h0Z"/>
                        <path class="cls-11" d="m165.51,185.38c-1.37-.03-3.34.04-3.78,1.61s-.67,3.07-1.54,4.48c-3.14,5.07-10.61,3.76-14.33.11-.69-.68-1.75.38-1.06,1.06,3.15,3.09,8.19,4.64,12.42,3.07,3.33-1.24,5.05-4.18,5.78-7.51.05-.24.1-.49.16-.73.02-.08.03-.19.07-.26.09-.17-.07.05.03-.02.54-.4,1.61-.33,2.25-.31.97.02.97-1.48,0-1.5h0Z"/>
                      </g>
                    </g>
                    <path class="cls-11" d="m155.12,170.92c-3.32-4.62-16.25-4.62-19.57,0-3.32,4.62,2.03,12.37,9.79,12,7.76.37,13.11-7.39,9.79-12Z"/>
                    <g class="cls-9">
                      <path class="cls-1" d="m136.98,173.74c1.63-2.74,5.52-2.99,8.34-3.05,1.4-.03,2.81.01,4.19.28,1.45.28,2.63.87,3.92,1.56.44.24.96-.36.55-.72-2.39-2.07-6.22-2.17-9.2-2.05-3.19.12-6.65.6-7.98,3.91-.04.11.13.17.18.08h0Z"/>
                    </g>
                  </g>
                  <path class="cls-11" d="m127.42,178.84c2.39-5.1,6.45-10.12,11.44-12.82,3.87-2.09,8.44-2.43,12.47-.56,3.49,1.62,6.31,4.46,8.53,7.56,1.3,1.81,2.51,3.77,3.39,5.82.38.88,1.67.12,1.3-.76-2.31-5.38-6.49-10.78-11.71-13.54-3.95-2.09-8.56-2.38-12.73-.74s-7.27,4.54-9.89,7.87c-1.56,1.98-3.02,4.13-4.1,6.42-.41.87.89,1.63,1.3.76h0Z"/>
                </g>
              </g>
            </g>
          </g>
        </g>
      </g>
    </g>
  </g>
</svg>