<?xml version="1.0" encoding="UTF-8"?>
<svg id="Layer_1" data-name="Layer 1" xmlns="http://www.w3.org/2000/svg" viewBox="0 0 300 299.76">
  <defs>
    <style>
      .cls-1 {
        fill: #fff;
      }

      .cls-2 {
        fill: #e6cc71;
      }

      .cls-3 {
        fill: #3c489e;
      }

      .cls-4 {
        fill: #427b6f;
      }

      .cls-5 {
        fill: #f9f2e1;
      }

      .cls-6 {
        fill: #e55074;
      }

      .cls-7 {
        fill: #70c38a;
      }

      .cls-8 {
        fill: #cd4c69;
      }

      .cls-9 {
        fill: #d9bf77;
      }

      .cls-10 {
        fill: #3b479d;
      }

      .cls-11 {
        fill: #ecd69a;
      }

      .cls-12 {
        fill: #4f9283;
      }

      .cls-13 {
        fill: #659a76;
      }

      .cls-14 {
        fill: #4753a4;
      }

      .cls-15 {
        fill: #66ac84;
      }

      .cls-16 {
        fill: #427c6f;
      }

      .cls-17 {
        fill: #ed9eb9;
      }

      .cls-18 {
        fill: #d7e9e6;
      }

      .cls-19 {
        fill: #7b4728;
      }

      .cls-20 {
        fill: #f1e2b6;
      }

      .cls-21 {
        fill: #fefaf2;
      }

      .cls-22 {
        fill: #568771;
      }

      .cls-23 {
        fill: #729b72;
      }

      .cls-24 {
        fill: #7dad80;
      }

      .cls-25 {
        fill: #454ea1;
      }

      .cls-26 {
        fill: #759a76;
      }

      .cls-27 {
        fill: #efafc7;
      }
    </style>
  </defs>
  <rect class="cls-18" x="35" y="43.5" width="230" height="237.22" rx="65" ry="65"/>
  <g>
    <g>
      <path class="cls-20" d="m185.96,18.74c2.49.69,4.57,2.18,6.52,3.76,3.5,2.84,6.11,6.42,7.89,10.57,2.18,5.07,3.54,10.39,4.26,15.83.33,2.48.84,4.99.63,7.52-.24,2.85-.49,5.71-.82,8.55-.22,1.9-.36,3.8-.64,5.7-.85,5.78-2.16,11.43-4.09,16.96-1.81,5.19-3.8,10.29-6.37,15.15-.12.23-.23.47-.33.71-.3.65-.14,1.18.44,1.59,1.12.82,2.24,1.66,3.37,2.47,4.4,3.16,8.44,6.74,12.05,10.77,2.37,2.65,4.61,5.46,6.66,8.36,3.56,5.05,6.92,10.24,9.63,15.82,2.65,5.46,4.32,11.17,5.31,17.14.42,2.51.47,5.02.48,7.54,0,2.35-.02,4.7-.03,7.06-.04,6.63-1.44,12.92-4.51,18.85-1.61,3.11-3.27,6.19-5.52,8.85-2.69,3.19-5.74,6.05-9.21,8.45-6.49,4.49-13.48,7.97-20.85,10.72-2.12.79-4.16,1.79-6.45,2.05-1.47,1.26-3.35.94-5,.99-16.6.44-33.04-.67-48.85-6.32-9.69-3.46-18.56-8.39-25.95-15.65-4.18-4.11-7.6-8.84-10.09-14.17-.71-1.52-1.78-3.08-.86-4.93,1.5-.77,2,.53,2.6,1.36,5.45,7.61,15.4,7.17,21.1,1.23,3.71-3.87,4.74-10.89,2.08-15.26-3.32-5.44-9.44-8.34-15.04-6.64-7.48,2.27-10.82,6.94-10.26,14.93.08,1.08.41,2.31-1.11,2.77-.99-.39-1.43-1.23-1.67-2.18-2.59-9.94-2.41-19.86.45-29.71.73-2.51,1.49-2.66,3.32-1.2,1.11,2.08,2.97,2.8,5.2,2.77,4.58-.07,8.68-1.49,12.21-4.45.53-.45.99-.95,1.35-1.56,1.41-2.41.8-4.04-1.95-4.56-5.36-1.03-10.1.41-14.26,3.88-.84.7-1.49,1.76-2.81,1.64-1.69-1.04-.95-2.43-.41-3.66,2.93-6.77,6.78-12.98,11.74-18.43,4.63-5.1,9.66-9.81,15.52-13.52,2.93-1.86,3.7-1.69,5.25,1.31,1.25,2.42,3.17,3.91,5.83,4.34,2.38.38,3.72,1.67,4.76,3.87,3.3,6.98,11.06,10.11,17.93,7.49,2.03-.77,3.63-2.04,4.75-3.9.78-1.3,1.77-2.29,3.21-2.94,3.92-1.77,4.9-3.05,5.82-7.06-1.28,2.72-3.15,4.94-6.7,5.12-1.5.08-2.49,1.03-3.42,2.15-5.53,6.66-15.05,5.85-19.5-1.63-.49-.82-.96-1.67-1.31-2.55-.57-1.45-1.54-2.13-3.13-2.31-2.63-.31-4.81-1.49-6.01-4.03-1.13-2.38-.79-3.72,1.51-5,3.66-2.04,7.61-3.45,11.53-4.91,6.28-2.34,12.82-3.92,18.9-6.84,2.37-1.14,4.79-.21,7.17.25,2.88.57,3.13.42,2.47-2.43-1.73-7.4-2.81-14.91-2.99-22.46-.41-17.57,2.9-34.14,14.41-48.2.98-1.19,1.85-2.62,3.8-2.02Z"/>
      <path class="cls-11" d="m94.43,149.47c-.24-.45-.47-.89-.78-1.48-.46.42-.5,1.02-.7,1.52-.19.48-.36.98-.47,1.49-.94,4.22-1.91,8.44-1.71,12.82.08,1.64.03,3.29.01,4.94-.03,4.03.98,7.88,2.09,11.71.09.32.35.59.52.88.74.32,1.08.78.54,1.55.36,2.45,1.42,4.64,2.62,6.75,2.62,4.63,5.74,8.91,9.65,12.54,1.96,1.83,4.08,3.52,6.26,5.08,5.76,4.12,12.08,7.17,18.72,9.61,5.9,2.17,12.02,3.45,18.17,4.55,2.03.36,4.13.51,6.18.79,2.69.37,5.39.16,8.04.49,6.24.78,12.48.42,18.73.29.69-.01,1.38.1,2.07.16-.01.17-.03.33-.04.5-.28,1.47-1.52,1.79-2.67,2.17-2.48.81-5.02,1.39-7.61,1.79-.43.15-.86.16-1.29.02-.61-.08-1.15-.28-1.51-.81-3.26.47-6.55.76-9.81,1.16-4.53.55-9.04.28-13.55.41-1.22.03-2.43.02-3.63-.33-.49-.14-1.03-.16-1.55-.16-4.9-.05-9.66-1.02-14.42-2.03-8.71-1.86-17.1-4.77-25.3-8.19-5.21-2.18-10.35-4.67-14.69-8.39-3.23-2.77-6.25-5.79-8.67-9.36-4.07-6.01-6.58-12.59-7.78-19.75-.47-2.79-.33-5.55-.42-8.32-.22-6.5,1.12-12.77,2.77-19.02,1.37-5.16,3.41-10.06,5.67-14.85,2.49-5.27,5.65-10.17,9.48-14.63,1.76-2.05,3.55-4.06,5.51-5.91,2.84-2.69,5.74-5.31,8.88-7.65,1.6-1.19,3.22-2.36,4.82-3.56.68-.51.66-.79.23-1.51-1.24-2.09-2.46-4.2-3.02-6.62-.19-.83-.69-1.6-1.08-2.37-1.07-2.1-1.95-4.28-2.7-6.51-1.3-3.88-2.69-7.73-3.59-11.73-.88-3.9-1.6-7.8-1.98-11.81-.29-3.04-.33-6.07-.42-9.11-.13-3.93.34-7.81,1.11-11.65.94-4.71,2.33-9.27,4.59-13.55,2.69-5.09,6.27-9.4,10.98-12.7,1.34-.94,2.91-1.56,4.39-2.3.52-.26,1.02-.12,1.45.26.07,1.66-1.1,2.7-2.02,3.82-8.93,10.81-11.71,23.44-10.96,37.1.28,5.13.98,10.18,2.91,14.99,1.87,7.7,4.32,15.2,7.52,22.46,1.71,3.88,1.97,4.05,6.05,2.59.66-.23,1.36-.32,1.98-.64,1.46-.71,2.9-1.49,4.57-1.63,3.69-1.42,7.5-2.38,11.4-2.98,1.15-.18,2.22-.27,3.12.65,1.88-.4,3.77-.56,5.7-.57.94,0,1.88-.37,2.83-.42,2.17-.11,4.36-.22,6.45.62.21.08.55.08.72-.03.37-.24.2-.63.05-.93-.82-1.66-1.11-3.47-1.48-5.26-.05-.26-.13-.51-.13-.77.01-3.31-.85-6.56-.6-9.89.09-1.21-.17-2.42-.31-3.63-.31-2.59-.34-5.21.06-7.81.07-.43.22-.85.22-1.28.06-3.39.27-6.77.52-10.15.54-7.34,1.9-14.5,4.5-21.36,1.45-3.82,3.34-7.49,6.46-10.32,3.15-2.86,6.79-4.85,10.9-5.94.49-.13,1.03-.13,1.55-.12.45,0,.95.17,1.04.63.26,1.27,1.34,1.49,2.27,1.93.7.34,1.4.68,2.1,1.02-.73.11-1.3.47-1.73,1.06-2.97,4.07-6.06,8.05-8.29,12.64-2.02,4.17-3.72,8.42-4.76,12.95-.62,2.71-1.05,5.45-1.51,8.19-.37,2.17-.43,4.32-.46,6.49,0,.52-.02,1.05-.12,1.56-.57,2.94-.58,5.87-.02,8.81.08.43.14.86.13,1.3-.07,6.22,1.18,12.26,2.42,18.3.29,1.45.53,2.9.8,4.36.15.8-.1,1.36-1.16,1.17-1.97-.35-3.95-.66-5.87-1.19-1.71-.46-3.24-.31-4.76.57-1.97,1.14-4.11,1.87-6.26,2.59-5.19,1.76-10.39,3.5-15.55,5.37-2.94,1.07-5.81,2.35-8.57,3.84-.89.48-.98.76-.74,1.67.75,2.83,2.56,4.47,5.46,4.89.51.07,1.04.08,1.56.1,1.18.05,1.91.66,2.36,1.74.47,1.12,1,2.22,1.52,3.32,1.1,2.32,3,3.79,5.27,4.84,1.27.59,2.64.91,4.02,1.04,3.28.31,5.99-.78,8.03-3.41.37-.48.67-1.02,1.06-1.49.93-1.12,2.09-1.96,3.59-1.83,2.86.26,4.26-1.56,5.5-3.63.7-1.17,1.17-2.47,2-3.76,1.66,5.67-1.87,10.25-5.77,11.35-1.31.37-2.08.99-2.69,2.16-2.11,4.09-5.85,5.56-10.11,5.82-4.49.27-8.29-1.45-11.54-4.55-1.88-1.79-3.27-3.83-3.99-6.31-.19-.67-.58-1.01-1.27-1.11-.94-.13-1.89-.29-2.81-.53-2.8-.71-4.78-2.39-5.87-5.08-.23-.56-.43-1.14-.68-1.69-.12-.27-.41-.29-.68-.23-.16.04-.33.12-.47.22-2.29,1.59-4.64,3.08-6.83,4.8-2.81,2.2-5.36,4.69-7.86,7.24-4.78,4.88-8.82,10.29-11.84,16.44-.88,1.8-1.78,3.59-2.66,5.39-.29.59-.33,1.17.21,1.67,1.03,1.4.71,2.6-.56,3.65Z"/>
      <path class="cls-12" d="m213.69,273.75c.3.9.61,1.81.9,2.71.28.9.12,1.31-.8,1.54-3.04.77-6.07,1.54-9.13,2.22-1.86.41-3.7.99-5.64.94,1.09-5.18-2.42-8.65-4.5-12.41,1.18,4.03,2.91,8.12,3.6,12.52-1.47.67-3.07.56-4.61.77-3.8.51-7.61.89-11.43,1.19-6.86.54-13.72,1.06-20.59,1.44-6.53.37-13.06.3-19.59-.11-3.74-.24-7.48-.41-11.22-.66-5.56-.37-11.13-.71-16.68-1.21-5.12-.45-10.19-1.28-15.25-2.19-.25-.04-.47-.21-.71-.33,2.86-3.15,2.91-7.35,4-11.12,3.41-11.72,8.96-22.45,14.94-32.98,1.6-2.81,2.64-3.08,5.87-2.25,3.77.97,7.52,2.01,11.42,2.37,1.2.14,2.01.94,2.88,1.66,8.8,7.32,21.91,7.81,30.35-.65.74-.74,1.52-1.43,2.57-1.72,6.1-1.35,11.99-3.28,17.53-6.21,1.13-.6,2.15-1.52,3.58-1.31,3.73,4.46,6.88,9.32,9.84,14.3,1.99,3.34,4.01,6.68,5.45,10.31-.02,1.74-.67,3.35-1.05,5.01-1.53,6.68.62,11.57,6.59,14.94.61.34,1.15.77,1.68,1.2Z"/>
      <path class="cls-20" d="m107.53,73.14c-1.06-1.77-1.11-3.81-1.5-5.75-.56-2.71-.85-5.48-1.24-8.22-.49-3.48-.4-6.94-.35-10.4.04-2.77.63-5.51,1.17-8.23.78-3.94,2.02-7.75,3.82-11.33,1.6-3.18,3.37-6.29,5.78-8.95,1.1-1.21,1.78-2.82,3.32-3.63,2.54-.16,5.05.24,7.51.67,3.9.69,7.06,2.65,9.46,5.94,2.84,3.91,4.34,8.31,5.26,12.94.79,4,1.7,7.96,2.08,12.05.43,4.59.87,9.15.82,13.77-.03,2.69.12,5.37.31,8.06.27,3.79.45,7.64-.2,11.45-.12.68-.1,1.39-.11,2.08-.04,2.09-.05,4.17-.08,6.26-.5.63.05,1.48-.46,2.11,0,.34,0,.69,0,1.03-3.44.39-6.82,1.11-10.14,2.07-1.49.43-2.97.92-4.53,1.07-.97-.82-.6-1.92-.59-2.93.11-13.82-.56-27.58-3.14-41.18-1.06-5.59-2.75-11.02-7.97-14.39-3.69.35-5.54,3.02-6.83,5.95-1.54,3.5-2.34,7.25-2.33,11.14.01,5.21-.12,10.42.77,15.59.18,1.04.19,2.1-.82,2.83Z"/>
      <path class="cls-4" d="m134.22,236.74c-.39.41-.89.56-1.43.45-3.32-.67-6.67-1.19-9.92-2.18-3.43-1.04-3.44-1.03-5.26,2.06-2.6,4.43-4.81,9.07-7.14,13.64-2.58,5.05-4.7,10.28-6.43,15.67-1.06,3.31-1.86,6.7-2.78,10.05-.11.42-.22.84-.32,1.26-.44,1.85-.28,2.42-2.91,2.5-3.01-.31-5.91-1.11-8.82-1.87-.33-.09-.66-.21-.97-.35-1.25-.58-1.67-1.34-1.43-2.69.12-.68.33-1.34.49-2.01,4.35.17,7.37-2.51,8.69-7.53,1.04-3.92.32-7.72-.54-11.53-.11-.51-.19-1.01-.26-1.52,3.56-7.37,7.59-14.48,12.32-21.17,1.41-1.99,2.92-3.89,4.57-5.69,1.51-1.65,3.31-2.14,5.44-1.55,3.85,1.06,7.71,2.12,11.56,3.17,1.91,2.15,3.04,4.81,4.71,7.12.45.62.86,1.33.43,2.16Z"/>
      <path class="cls-9" d="m133.17,228.39c2.16.02,4.31.16,6.47.44,4.55.6,9.14.65,13.74.66,4.09.01,8.14-.27,12.12-1.15,1.72-.38,3.43-.46,5.16-.49.64.45.35,1.06.3,1.63-.32.72-.53,1.48-.86,2.19-.05.21-.14.41-.23.61-.14.29-.33.56-.47.85-.09.21-.2.39-.32.58-.17.3-.36.59-.55.88-2.15,2.61-4.24,5.31-7.88,5.95-2.73.28-5.33,1.18-8.14,1.28-4.74.17-8.83-1.16-12.64-3.77-.93-.64-1.91-1.19-2.95-1.61-2.35-1.79-4.18-3.92-4.42-7.05.11-.41.36-.74.69-1.01Z"/>
      <path class="cls-7" d="m160.81,239.86c3.13-1.24,5.29-3.62,7.28-6.2.22-.18.44-.36.62-.58l-.03.03c.34-.27.25-.77.54-1.07h-.01c.46-.5.73-1.13.97-1.76.89-1.16,1.11-2.88,2.83-3.35.28-.01.55-.03.83-.04,1.28.37,1.61,1.39,1.28,2.45-.86,2.81-1.78,5.66-4.9,6.89-.82.77-1.66,1.53-2.45,2.32-2.92,2.92-6.51,4.62-10.48,5.47-7.02,1.51-13.44-.08-19.3-4.08-1.35-.92-2.51-2.13-3.75-3.2-1.72-2.14-3.32-4.35-4.49-6.86-.36-.77-.82-1.52-.65-2.43,1,.09,1.99.19,2.98.28.3.56.7,1.07.97,1.64.98,2.42,2.31,4.6,4.24,6.39,3.14,2.14,6.07,4.61,10.03,5.29,4.02.7,7.93.67,11.78-.8.34-.18.68-.35,1.04-.47.24-.11.47-.09.69.06Z"/>
      <path class="cls-4" d="m170.2,236.23c1.43-2.05,2.87-4.11,3.83-6.45.41-1.01.63-1.99-.21-2.9,1.81-.51,3.62-1.01,5.42-1.54,1.72-.51,3.48-.89,5.1-1.69.34,0,.69.01,1.03-.03,1.62-.22,2.86.43,3.82,1.66.69.88,1.32,1.79,1.98,2.69-1.15,1.66-2.99,2.4-4.67,3.19-4.24,1.99-8.67,3.52-13.22,4.7-1.02.27-2.04.4-3.08.36Z"/>
      <path class="cls-7" d="m95.19,252.7c.87.79,1.31,1.81,1.61,2.92.99,3.59,1.12,7.21.13,10.8-.99,3.6-3.15,6.34-6.52,8.05-1.29.65-1.58.59-2.59-.61-.17-.2-.35-.38-.53-.58.92-4.08,2.41-7.97,3.95-11.83.64-1.61,1.19-3.26,2.15-4.73.45-.88,1.34-1.57,1.19-2.72.2-.43.4-.87.6-1.3Z"/>
      <path class="cls-7" d="m213.69,273.75c-.88.22-1.7.06-2.53-.31-3.71-1.64-5.83-4.6-6.84-8.39-1.18-4.45-.31-8.61,2.15-12.46.42.34.44.83.48,1.31.23.78.39,1.6,1.01,2.2l-.02-.03c.46.44,0,1.19.55,1.6v-.03c.67,1.63,1.07,3.36,1.75,4.99.18.84.42,1.66.94,2.36,1.14,2.83,2.11,5.71,2.53,8.75Z"/>
      <path class="cls-16" d="m198.11,281.28c-.55-.31-.96-.72-1.16-1.34-1.47-4.36-2.72-8.78-4.06-13.14.68-.46.9.05,1.18.29,3.13,2.84,4.78,6.57,6.24,10.42.03.08.06.16.08.25.47,1.87.32,2.22-1.37,3.42-.3.04-.6.07-.9.11Z"/>
      <path class="cls-22" d="m172.99,226.93c-.9,1.27-1.8,2.54-2.7,3.81-.35-.43-.33-.88-.07-1.34.15-.52.29-1.03.44-1.55.2-.34.4-.69.6-1.03.58.04,1.15.07,1.73.11Z"/>
      <path class="cls-24" d="m210,262.89c-.63-1.71-1.45-3.37-1.54-5.24,1.19,1.56,1.57,3.43,2.05,5.26-.18.26-.35.25-.51-.02Z"/>
      <path class="cls-23" d="m94.59,254c.47.61.47,1.2-.09,1.74-.35.34-.73.65-1.1.97.15-1.01.61-1.89,1.19-2.71Z"/>
      <path class="cls-24" d="m207.95,256.11c-.93-.46-1.14-1.25-1.01-2.2.6.62.96,1.34,1.01,2.2Z"/>
      <path class="cls-15" d="m210,262.89c.17,0,.34.01.51.02.37.65.59,1.34.65,2.09-.77-.5-1.03-1.27-1.16-2.11Z"/>
      <path class="cls-13" d="m133.04,229.38c-.64-.36-.95-.92-.97-1.64.37.22.74.44,1.11.66l-.14.99Z"/>
      <path class="cls-11" d="m143.11,91.97c-.03-.74-.11-1.49.46-2.11.03.74.11,1.49-.46,2.11Z"/>
      <path class="cls-24" d="m208.48,257.67c-.53-.41-.58-.99-.55-1.6.47.43.62.98.55,1.6Z"/>
      <path class="cls-27" d="m188.58,37.06c1.11.75,1.79,1.91,2.45,3,1.86,3.05,3.32,6.3,3.75,9.91.33,2.75.76,5.5.6,8.29-.07,1.3.02,2.6-.38,3.87-.1.33-.11.69-.12,1.03-.23,5.32-1.39,10.47-2.84,15.56-1,3.5-2.03,7-3.17,10.46-.79,2.39-1.76,4.71-2.69,7.05-.25.64-.6,1.26-.98,1.83-.72,1.08-1.46,1.38-2.67,1-1.15-.36-2.37-.58-3.37-1.33-1.13-2.81-.88-5.86-.93-8.73-.28-14.59.44-29.11,5.38-43.07.78-2.21,1.68-4.37,2.58-6.53.44-1.06.79-2.4,2.4-2.33Z"/>
      <path class="cls-1" d="m162.24,178.69c.89.37,1.8.65,2.78.44.71-.15,1.4-.09,2.03.22,2.97,1.44,5.35,3.5,6.73,6.56.62,1.37.84,2.82.65,4.32-3.15,6.79-11,9.05-16.77,4.97,1.01.55,1.45,1.62,1.52,2.89.78,3.5-.92,6.1-3.3,8.27-1.81,1.65-5.01,1.1-6.48-.94-1.57-2.17-2.44-4.6-2.17-7.34.02-1.51-.95-.76-1.59-.68-2.97.38-5.6-.27-7.35-2.84-1.81-2.65-1.89-5.54-.49-8.42,1.37-2.81,3.27-3.24,5.52-1.05,5.31,5.14,11.04,3.79,15.5.41,1.33-1.01,2.22-2.18,2.11-3.93.11-1.11.39-2.14,1.3-2.89Z"/>
      <path class="cls-17" d="m188.58,37.06c-.93,1.38-1.36,2.99-2,4.5-2.24,5.3-4.06,10.72-5.05,16.4-.56,3.24-.98,6.51-1.4,9.77-.38,2.95-.11,5.92-.55,8.82-.53,3.48-.3,6.93-.41,10.4-.03,1.04.07,2.07.28,3.1.44,2.23.25,4.5.14,6.75-.01.31-.29.62-.44.92-.93-.24-1.87-.43-2.77-.73-2.19-.72-3.45-2.34-3.47-4.68-.05-4.61-.22-9.24.09-13.83.19-2.86.18-5.73.48-8.58.66-6.47,1.19-12.96,2.52-19.35.48-2.31,1.23-4.53,2.14-6.7,1.25-3,3.34-5.25,6.2-6.79.53-.29,1.01-.67,1.54-.98,1.05-.62,1.34-.58,2.28.32.18.17.3.43.44.64Z"/>
      <path class="cls-1" d="m93.94,182.91c-.18-.52-.36-1.04-.54-1.55.09-1.58-.52-3.06-.54-4.65-.08-5.24,2.33-9.14,6.32-12.24.4-.31.89-.58,1.38-.72,1.92-.55,3.85-1.07,5.79-1.56,1.39-.35,2.75,0,4.12.28,4.82.98,7.99,4,10.21,8.17.66,1.23,1.02,2.59,1,4.01,0,.87-.02,1.74.02,2.61.14,2.83-.82,5.37-2.42,7.57-3.04,4.18-7.19,6.59-12.46,6.42-4.99-.16-9.04-2.24-11.75-6.6-.36-.59-.75-1.16-1.13-1.74Z"/>
      <path class="cls-1" d="m213.17,176.58c.16,3.1-.81,5.99-2.49,8.75-1.74,2.87-7.98,6.14-11.13,6.04-2.83-.09-5.55-.37-8.06-1.76-2.76-1.53-4.81-3.69-5.97-6.65-2.36-6.02-1.39-11.49,2.95-16.22,2.01-2.19,4.57-3.74,7.44-4.67.41-.13.87-.31,1.27-.24,3.84.68,7.75,1.06,10.96,3.72,3.21,2.65,5.11,5.87,5.02,10.11,0,.26,0,.52,0,.92Z"/>
      <path class="cls-9" d="m94.43,149.47c-.07-1.26.19-2.47.56-3.65,1.81-2.57,4.34-4.2,7.19-5.4,1.12-.47,2.26-.88,3.51-.88.52,0,1.06-.04,1.54-.2,2.11-.69,4.15-.09,6.15.39,1.89.46,2.9,2.5,2.27,4.32-.4,1.16-.99,2.23-1.92,3.06-3.14,2.78-6.78,4.51-10.97,4.95-1.27.14-2.54.35-3.87.15-1.95-.29-3.47-1.03-4.47-2.74Z"/>
      <path class="cls-9" d="m205.55,152.14c-5-.21-9.5-1.71-13.15-5.32-.43-.42-.83-.9-1.14-1.41-1.24-2.07-.71-4.17,1.39-5.31,1.39-.76,2.91-1.21,4.5-1.03,1.54.18,3.08.46,4.6.79,2.87.63,5.31,2.14,7.45,4.08,1.08.98,2.03,2.15,2.6,3.54.61,1.49.29,2.43-1.05,3.36-1.57,1.09-3.32,1.44-5.22,1.3Z"/>
      <path class="cls-5" d="m161.88,181.84c.07,1.1-.37,2.03-1.03,2.87-2.27,2.85-5.27,4.64-8.85,4.89-3.15.22-6.21-.52-8.58-2.93-.67-.68-1.34-1.36-2.04-2-.48-.44-.91-.43-1.36.04-1.81,1.89-2.46,4.15-2,6.69.74,4.03,3.74,5.37,6.97,5.08.6-.05,1.18-.31,1.78-.36.85-.08,1.61-.69,2.51-.41.05,1.14-1.02,1.44-1.6,2.11-.11.13-.29.19-.44.28-.84.2-1.67.41-2.51.61-4.59,1.1-8.66-.42-11.56-4.3.22-1.68-.62-3.12-1.05-4.66.68-5.17,3.62-8.59,8.28-10.68.57-.25,1.15-.34,1.76-.31.44.29.86.62,1.06,1.11,2.27,5.44,7.22,5.63,11.8,4.87,1.83-.3,3.64-1.03,5.18-2.19.47-.45.9-.97,1.67-.68Z"/>
      <path class="cls-6" d="m161.88,181.84c-.34.33-.69.67-1.03,1-2.89.96-5.87.79-8.8.55-3.83-.32-5.8-2.92-5.8-7.26.45-.48,1.07-.56,1.66-.68,3.45-.7,6.9-.75,10.3.21,1.72.48,3.17,1.39,4.04,3.04.33,1.1-.06,2.12-.36,3.15Z"/>
      <path class="cls-8" d="m146.24,176.13c.43.13.82.32.93.8.09.42.14.86.21,1.28.49,2.9,2.75,3.96,4.97,4.14,1.99.15,3.99.03,5.99.05.86,0,1.75-.14,2.51.44-.7,1.06-1.77,1.63-2.87,2.12-3.65,1.62-7.41,1.7-11.09.25-2.85-1.13-4.67-3.2-4.72-6.47,1.49-.66,2.53-2.03,4.08-2.61Z"/>
      <path class="cls-5" d="m159.19,198.09c-1.69-1.5-2.76-3.52-4.56-4.92.63-.57.84-.14,1.08.04,3,2.23,6.35,3.21,10.07,2.75,2.8-.34,5.11-1.66,6.88-3.85.55-.68.96-1.45,1.77-1.87.15,3.33-1.62,5.5-4.29,7.13-2.7,1.64-5.58,1.51-8.52.88-.8-.17-1.58-.88-2.43-.14Z"/>
      <path class="cls-21" d="m132.12,189.74c.67.6,1,1.41,1.3,2.22.31.83.42,1.69-.26,2.44-.75-1.46-1.23-2.98-1.05-4.66Z"/>
      <path class="cls-27" d="m116.95,36.52c3.08,1.59,5.06,4.18,6.44,7.25,1.43,3.18,2.34,6.53,2.89,9.96.61,3.84,1.28,7.7,1.52,11.57.21,3.37.87,6.71.67,10.11-.09,1.55-.09,3.12.37,4.65.1.33.09.69.09,1.03.01,4.08,0,8.16.03,12.24,0,.98-.37,1.87-.53,2.8-1.32.72-2.7,1.28-4.17,1.57-1.18-.21-1.69-1.09-2.13-2.08-4.48-10.24-8.21-20.76-9.26-31.93-.76-8.06-.46-16.18,2.06-24.03.39-1.2.54-2.62,2.03-3.15Z"/>
      <path class="cls-17" d="m116.95,36.52c-.59,2.35-1.15,4.71-1.77,7.06-1.08,4.05-1.52,8.17-1.39,12.35.03.87.04,1.74,0,2.61-.18,4.02.57,7.93,1.27,11.86.75,4.2,1.98,8.27,3.3,12.31,1.24,3.79,2.81,7.47,4.27,11.18.51,1.29,1.09,2.55,1.64,3.83-1.33.83-2.79,1.39-4.28,1.85-1.65.51-2.59.16-3.63-1.22-.26-.34-.49-.72-.66-1.12-3.09-7.54-6.3-15.04-7.8-23.12-.06-.33-.24-.65-.37-.97-.23-2.16-.39-4.33-.74-6.47-.2-1.21-.3-2.41-.31-3.63,0-2.7.03-5.4-.02-8.1-.08-3.99.81-7.78,2.18-11.48,1.28-3.45,3.86-5.72,7.13-7.26.44-.21.84,0,1.19.32Z"/>
      <path class="cls-2" d="m159.8,240.36c-6.93,2.98-13.49,2.17-19.72-1.94-1.09-.72-2.07-1.56-2.81-2.65.33-.26.65-.19.93.07,1.9,1.71,4.32,2.58,6.4,4,.98.67,2.16.66,3.26.83,3.28.5,6.58.54,9.82-.36.67-.19,1.29-.52,1.94-.76.45-.17.85-.02,1.19.3-.11.06-.23.08-.35.08-.25.09-.44.28-.65.43Z"/>
      <path class="cls-26" d="m170.22,229.4c.02.44.05.89.07,1.34-.13.64-.46,1.11-1.09,1.32.06-.99.46-1.86,1.02-2.66Z"/>
      <path class="cls-26" d="m169.21,232.04c0,.45-.17.81-.54,1.07,0-.45.11-.84.54-1.07Z"/>
      <path class="cls-26" d="m168.7,233.08c-.2.19-.41.39-.62.58.2-.19.41-.39.62-.58Z"/>
      <path class="cls-9" d="m159.8,240.36c.22-.14.43-.28.65-.43-.22.14-.43.28-.65.43Z"/>
      <path class="cls-14" d="m102.77,167.08c.11-.13.2-.32.34-.38,3.14-1.17,6.29-1.79,9.59-.58,4.96,1.82,7.46,6.3,7.18,11.18-.09,1.6-.22,3.3-1.32,4.66-3.93,1.99-7.97,3.4-12.31,1.4-2.02-.93-4.14-1.95-4.04-4.75.77-.86.7-1.79.32-2.79-.28-.73-.87-1.2-1.34-1.78-1.23-2.72.18-4.84,1.57-6.97Z"/>
      <path class="cls-3" d="m102.21,178.62c.38.47.74.97,1.16,1.41,2.42,2.58,5.3,3.72,8.89,3.03,1.82-.35,3.54-.86,5.18-1.68.62-.31.97-.03,1.13.59-1.24,3.94-6.45,7.24-12.2,5.96-3.64-.82-6.5-2.78-8.01-6.36-.2-.48-.35-.97-.21-1.66,1.42-.09,2.75-.66,4.06-1.29Z"/>
      <path class="cls-25" d="m102.77,167.08c-.27,2.04-1.11,3.98-1.1,6.08,0,.29-.31.59-.47.89-.41-.12-.82-.28-1.24-.35-1.72-.3-2.08-.42-.93-2.42.95-1.65,2.02-3.23,3.74-4.2Z"/>
      <path class="cls-14" d="m193.3,166.16c.13-.11.25-.31.39-.33,1.98-.19,3.97-.54,5.97-.22,4.36.7,7.23,3.18,8.71,7.31.24.66.05.96-.6,1.11-.68.15-1.37.24-2.02.48-1.44.52-2.12,1.48-2.01,2.69.1,1.06.92,1.81,2.32,2.11.34.07.69.1,1.03.14,1.62.21,1.64.23.83,1.91-2.74,1.15-5.55,1.74-8.56,1.63-5.22-.18-8.54-3.38-8.7-8.63-.1-3.04.9-5.74,2.64-8.19Z"/>
      <path class="cls-10" d="m193.3,166.16c.4.47.3.94.05,1.44-.66,1.33-.96,2.77-1.35,4.19-.74,2.71-.14,5.21,1.34,7.43,1.02,1.54,2.61,2.55,4.56,2.63,2.68.1,5.38.25,7.92-.93.39-.18.82-.28,1.25-.35.56-.09.71.36.86.77-1.94,4.54-6.35,7.16-11.48,6.82-4.6-.3-8.41-3.32-9.63-7.87-1.05-3.92-.46-7.6,2.28-10.74,1.19-1.37,2.46-2.7,4.21-3.4Z"/>
    </g>
    <g>
      <path class="cls-19" d="m113.22,223.91c-2.48-1-4.75-1.88-6.99-2.83-5.86-2.5-11.44-5.51-16.66-9.18-10.68-7.5-16.93-17.73-19.23-30.53-2.02-11.27-.7-22.2,2.97-32.92,6.16-17.99,17.1-32.35,32.85-43.02.43-.29.85-.6,1.27-.91.07-.05.1-.14.26-.36-.21-.44-.42-.99-.72-1.48-5.58-9.3-8.95-19.39-11-29.99-1.06-5.49-1.72-11.02-1.81-16.6-.11-7,.55-13.92,2.92-20.58,1.74-4.91,4.33-9.3,7.92-13.08,3.5-3.68,7.63-6.35,12.62-7.5,7.57-1.74,13.94.28,18.95,6.3,1.91,2.3,3.28,4.92,4.41,7.67,2.07,5.02,3.37,10.24,4.22,15.59,1.72,10.8,2.03,21.67,1.56,32.57-.18,4.09-.61,8.16-.92,12.24-.06.76-.08,1.52-.12,2.41h9.87c.04-.49.14-.98.1-1.46-.32-4.25-.78-8.5-.98-12.76-.38-8.19-.27-16.37.5-24.54.71-7.56,1.92-15.02,4.57-22.18,1.09-2.95,2.4-5.79,4.24-8.36,2.62-3.66,5.97-6.3,10.39-7.46,3.82-1,7.59-.74,11.31.51,4.57,1.53,8.37,4.22,11.54,7.82,4.36,4.94,7.12,10.7,8.55,17.1,1.58,7.03,1.84,14.13,1.22,21.3-.81,9.24-2.73,18.23-5.86,26.96-1.56,4.35-3.5,8.53-5.79,12.55-.43.75-.84,1.51-1.33,2.4.59.45,1.1.88,1.66,1.25,18.05,11.97,29.82,28.45,35.47,49.33,1.55,5.74,2.34,11.61,2.23,17.56-.11,6.13-1.1,12.14-3.11,17.94-3.06,8.83-8.49,15.92-15.99,21.45-6.7,4.94-14.07,8.64-21.81,11.64-1.18.46-2.49.68-3.63,1.57.35.42.6.76.89,1.06,4.33,4.35,7.98,9.21,11.13,14.46,5.57,9.28,10.38,18.92,13.5,29.33.6,2,1.14,4.02,1.62,6.05.47,1.95.06,2.77-1.87,3.34-2.75.81-5.54,1.5-8.34,2.15-7.14,1.65-14.37,2.64-21.67,3.26-12.86,1.1-25.73,1.79-38.63,1.35-7.57-.26-15.13-.82-22.69-1.33-4.43-.3-8.85-.74-13.27-1.21-7.19-.76-14.31-1.89-21.28-3.92-2.3-.67-3.35-.96-2.52-4.33,1.58-6.44,3.77-12.67,6.54-18.7,2.8-6.1,5.92-12.02,9.51-17.7,3.04-4.8,6.5-9.26,10.57-13.25.24-.24.46-.51.87-.97Zm74.21-132.14c.11-.42.18-.85.34-1.25,2.73-7.17,4.74-14.53,5.8-22.14.78-5.53,1.12-11.08.71-16.65-.25-3.31-.96-6.54-2.45-9.54-.82-1.66-1.87-3.14-3.47-4.15-2.19-1.38-4.28-1.22-6.21.51-1.25,1.12-2.22,2.48-2.84,4.02-.85,2.09-1.65,4.21-2.22,6.39-1.43,5.48-2.13,11.1-2.61,16.73-.36,4.25-.66,8.5-.79,12.76-.16,5.22-.12,10.44-.16,15.66,0,.25.1.5.14.66,3.57,1.32,7.06,2.62,10.56,3.91.42.2.83.39,1.25.59,2.33,1.13,4.65,2.27,7.06,3.44.31-.54.6-.97.81-1.44,1.39-3,2.89-5.95,4.12-9.02,4.35-10.85,6.65-22.16,7.06-33.83.22-6.21-.28-12.36-1.88-18.39-1.54-5.82-4.22-11.04-8.38-15.45-2.93-3.1-6.39-5.35-10.51-6.55-7.13-2.09-13.48.51-17.26,5.95-.99,1.42-1.81,2.97-2.58,4.53-1.39,2.82-2.29,5.83-3.07,8.87-1.49,5.75-2.25,11.61-2.73,17.52-.87,10.71-.65,21.41.24,32.11.14,1.64.4,3.27.62,5.04,2.11.33,4.16.69,6.22.96,2.02.26,3.96,1.07,6.13,1.09.03-.53.06-.87.06-1.2-.14-8.72.15-17.42.9-26.11.47-5.39,1.17-10.73,2.27-16.02.59-2.81,1.39-5.57,2.58-8.21.9-2,2.01-3.87,3.64-5.37,2.64-2.42,5.86-2.67,8.86-.7,1.26.82,2.34,1.86,3.08,3.16.81,1.43,1.56,2.92,2.14,4.46,1.22,3.3,1.62,6.75,1.67,10.26.16,9.94-1.52,19.59-4.61,29.01-1.08,3.3-2.17,6.61-3.85,9.67-.22-.42-.43-.84-.65-1.26Zm-72.04,3.29c-.19.37-.38.73-.57,1.1-1.75-3.03-2.94-6.29-4.17-9.55-3.12-8.29-4.91-16.87-5.6-25.68-.32-4.08-.35-8.18.36-12.25.44-2.5,1.1-4.93,2.22-7.21.89-1.82,2.05-3.44,3.69-4.67,3.24-2.42,6.82-2.17,9.67.68,1.18,1.18,2.08,2.56,2.83,4.05,1.14,2.27,1.93,4.66,2.55,7.11,1.75,6.95,2.49,14.05,3.06,21.17.62,7.74.69,15.49.59,23.24,0,.48.08.95.13,1.45,4.16-.81,8.16-1.59,12.15-2.38.1-.29.24-.52.26-.77.33-3.29.77-6.58.95-9.88.35-6.7.59-13.39.24-20.11-.35-6.79-.91-13.56-2.27-20.23-.92-4.53-2.17-8.97-4.16-13.16-.98-2.05-2.13-4.01-3.68-5.68-3.71-3.99-8.26-5.62-13.68-4.78-4.55.71-8.38,2.83-11.69,5.94-3.35,3.14-5.82,6.91-7.62,11.13-2.22,5.19-3.24,10.65-3.58,16.24-.45,7.6.08,15.13,1.5,22.62,1.87,9.91,5.03,19.35,9.76,28.26.28.53.63,1.02.98,1.59,1.84-.99,3.6-1.92,5.35-2.88.59-.33,1.15-.73,1.72-1.1.16-.36.32-.71.47-1.07.46.82,1.1.64,1.8.38,2.6-.99,5.21-1.95,7.81-2.93.47-.18.93-.37,1.48-.58,0-1.92-.01-3.74,0-5.56.1-11.16-.43-22.28-2.11-33.32-.58-3.79-1.29-7.54-2.6-11.16-.68-1.89-1.51-3.71-2.76-5.3-2.8-3.53-6.27-3.57-9.22-.12-1.26,1.48-2.07,3.21-2.66,5.04-1,3.08-1.5,6.25-1.57,9.49-.22,10.19,1.38,20.12,4.45,29.81,1.18,3.72,2.62,7.37,3.94,11.04Zm78.38,174.68c.16-.34.32-.68.48-1.03.74,1.95,1.55,3.88,2.22,5.85.66,1.95,1.18,3.94,1.76,5.92,1.71-.31,3.26-.54,4.78-.89,3.38-.8,6.75-1.65,10.13-2.51.22-.06.39-.28.65-.48-.19-.58-.38-1.13-.53-1.58-.33-.11-.49-.18-.65-.21-.25-.06-.52-.07-.77-.15-4.73-1.41-7.82-4.42-8.92-9.29-.42-1.88-.33-3.8.04-5.71.43-2.24,1.29-4.32,2.3-6.31-4.6-10.47-10.25-20.2-17.94-28.67-3.77,1.01-7.45,1.99-11.17,2.99-.55,1.37-1.03,2.77-1.64,4.11-4.41,9.66-14.26,15.5-24.76,14.29-9.99-1.15-16.98-6.64-21.14-15.76-.36-.78-.64-1.6-.95-2.39-4.43-1.19-8.78-2.35-13.18-3.53-7.7,8.55-13.49,18.3-18.07,28.84.28.66.55,1.3.81,1.94,1.1,2.79,1.71,5.66,1.44,8.68-.27,2.93-1.24,5.61-3.17,7.86-1.8,2.1-3.93,3.68-6.82,3.96-.53.05-.92.45-.71,1.3,5.56,1.71,11.32,2.84,17.3,3.52.66-4.14,1.63-8.09,3.36-11.81.18.36.36.72.54,1.07-.88,3.58-2.04,7.1-2.51,10.96,2.99.34,5.83.72,8.69.96,5.47.46,10.94.87,16.42,1.25,9.48.66,18.97,1.04,28.47.73,8.45-.27,16.88-.76,25.3-1.5,3.04-.27,6.06-.68,9.08-1.06.65-.08,1.41-.05,1.89-.8-.9-3.49-1.81-7.03-2.72-10.57Zm-42.4-42.61c5.31-.1,10.63-.18,15.9-.93,11.1-1.58,21.75-4.74,31.87-9.59,5.59-2.68,10.92-5.8,15.7-9.78,5.61-4.66,9.77-10.39,12.32-17.23,1.93-5.18,2.92-10.56,3.19-16.08.31-6.32-.42-12.53-2.06-18.63-6.36-23.66-20.3-41.34-42.08-52.62-10.66-5.52-22.15-8.18-34.16-8.58-4.83-.16-9.56.46-14.26,1.41-7.02,1.41-13.86,3.42-20.27,6.66-22.08,11.16-36.33,28.76-42.9,52.57-2.54,9.2-3,18.53-1.1,27.94,2.14,10.6,7.39,19.24,16,25.83,3.89,2.97,8.05,5.5,12.43,7.67,15.57,7.7,32.02,11.56,49.42,11.34Zm18.39,1.71c-2.56.23-4.89.47-7.21.64-2.34.17-4.68.32-7.03.38-2.43.07-4.87.08-7.3.02-2.34-.06-4.69-.21-7.03-.36-2.31-.15-4.61-.34-6.97-.52,1.63,6.39,9.06,11.73,16.52,12,8.84.32,16.42-4.42,19.02-12.16Zm-40.08-.53c3.38,10.33,15.16,18.93,28.16,15.54,7.9-2.06,13.16-7.18,16.01-14.8.1-.28-.02-.64-.04-1.03-.73.16-1.31.3-1.97.44-1.38,4.22-3.81,7.66-7.39,10.23-3.65,2.61-7.73,4.03-12.21,3.97-9.86-.13-16.62-4.87-20.29-14.1-.67-.07-1.34-.14-2.27-.25Zm-40.93,45.95c5.09-1.81,7.62-5.37,8.35-10.3.45-3.05-.02-6.05-.92-8.98-.03-.1-.25-.15-.38-.22-2.45,4.44-6.65,15.93-7.05,19.51Zm124.01-.84c-.15-.81-.18-1.23-.31-1.63-1.72-5.48-3.71-10.86-6.09-16.09-.15-.33-.48-.59-.85-1.04-.41,1.51-.82,2.75-1.07,4.03-.44,2.24-.62,4.52-.04,6.74,1.09,4.16,3.94,6.61,8.36,7.99Z"/>
      <path class="cls-19" d="m184.23,98.66c.76-1.7,1.52-3.41,2.29-5.11.28-.61.61-1.19.91-1.79.22.42.43.84.65,1.26-.59,1.38-1.18,2.76-1.77,4.15-.29.69-.56,1.38-.83,2.08-.42-.2-.83-.39-1.25-.59Z"/>
      <path class="cls-19" d="m108.61,268.69c.2-1.38.99-2.46,1.77-3.57.09,1.7-.5,3.19-1.23,4.64-.18-.36-.36-.72-.54-1.07Z"/>
      <path class="cls-19" d="m115.39,95.06c.49,1.07.97,2.14,1.46,3.21-.16.36-.32.71-.47,1.07-.52-1.06-1.04-2.12-1.56-3.18.19-.37.38-.73.57-1.1Z"/>
      <path class="cls-19" d="m193.77,269.74c-.71-1.01-.74-2.2-1.11-3.52q1.09.9,1.59,2.49c-.16.34-.32.68-.48,1.03Z"/>
      <path class="cls-19" d="m160.52,119.19c-.54.83-.94,1.5-1.41,2.13-2.79,3.77-7.36,5.27-11.83,3.79-4.2-1.39-7.12-4.24-8.88-8.27-.31-.71-.53-1.45-.78-2.15-1.25-.26-2.44-.46-3.61-.76-1.45-.37-2.77-1.02-3.88-2.05-2.17-2.02-2.65-4.81-1.11-7.34.62-1.02,1.46-1.97,2.39-2.72,2.93-2.35,6.33-3.57,10.09-3.77.17,0,.35,0,.52.04.17.03.33.1.77.23-.51.21-.82.37-1.14.45-2.61.71-5.14,1.62-7.44,3.08-1.33.85-2.54,1.84-3.38,3.21-1.4,2.27-.93,4.42,1.33,5.84,1.56.98,3.26,1.58,5.23,1.37.17-.83.28-1.6.48-2.35.78-2.85,2.48-4.93,5.25-6.08,1.09-.45,2.2-.53,3.33-.36,1.76.27,2.95,1.62,3.06,3.39.1,1.68-.55,3.05-1.73,4.2-1.47,1.44-3.27,2.27-5.21,2.84-.83.24-1.67.45-2.59.7,1.15,3.99,3.68,6.6,7.32,8.09,4.17,1.71,7.99.28,10.56-3.84-.4-.27-.81-.54-1.21-.84-.62-.47-1.33-.88-1.83-1.46-.61-.71-1.18-1.53-1.54-2.39-.76-1.82-.21-3.73,1.19-4.67,1.51-1.02,3.57-.74,5,.69,1.16,1.16,1.67,2.63,1.82,4.23.07.77.01,1.56.01,2.46.84.5,1.77.25,2.65-.07,2.46-.89,4.07-2.6,4.75-5.14.25-.92.41-1.86.63-2.87,1.24,2.53.72,5.19-1.44,7.54-1.95,2.12-4.39,3.05-7.38,2.86Zm-20.56-6.99c2.76-.56,4.18-1.12,5.45-2.09.84-.64,1.52-1.41,1.79-2.46.21-.82-.18-1.63-.99-1.86-.48-.13-1.04-.18-1.51-.08-1.39.32-2.54,1.07-3.39,2.22-.88,1.19-1.58,2.45-1.35,4.26Zm18.71,4.61c.75-1.95.46-3.41-.46-4.75-.73-1.07-1.91-1.35-2.68-.76-.64.49-.76,1.62-.19,2.61.29.52.67,1.03,1.12,1.41.58.5,1.27.86,2.2,1.48Z"/>
      <path class="cls-19" d="m160.16,199.23s-.13.02-.13.02c-.26-.04-.51-.07-.77-.11-.52-.42-1.05-.83-1.56-1.26-1.31-1.09-2.51-2.26-3.15-3.89-.11-.81-.74-1.08-1.38-1.27-.6-.18-.66.26-.65.72-1.09,2.48-3.04,4.19-5.2,5.7l-.77.1c-3.78,1.48-7.37.88-10.75-1.12-4.06-2.41-5.59-6.55-4.09-11.01,1.36-4.05,4.07-6.82,8.2-8.12.58-.18,1.18-.28,1.88-.45,1.83-2.77,4.83-3.42,7.88-3.82,2.33-.3,4.69-.27,7.02.18,3.21.62,4.48,1.27,6.76,3.56,1.11.18,2.26.22,3.33.55,4.86,1.53,7.68,4.96,8.62,9.88.62,3.25-.5,6.07-3.06,8.15-3.21,2.62-6.86,3.66-10.98,2.54-.31-.44-.73-.48-1.2-.36Zm-5.96-12.35c-.09.32-.2.56-.2.8-.07,2.57,1.04,4.7,2.51,6.69,3.97,5.36,11.28,4.55,14.85,1.46,2.25-1.95,3.05-4.4,2.45-7.26-.5-2.36-1.73-4.35-3.55-5.93-1.86-1.62-3.99-2.69-6.48-2.99-1.4,4.86-5.17,6.49-9.57,7.23Zm-1.78.1c-2.48-.12-4.78-.48-6.86-1.73-2.08-1.25-3.44-3.05-4.3-5.33-.96.42-1.79.7-2.55,1.12-2.78,1.54-4.66,3.81-5.67,6.86-.88,2.65-.35,6.17,2.96,8.47,2,1.39,4.24,1.92,6.66,1.88,2.78-.05,5.1-1.11,6.89-3.18,1.91-2.2,3.42-4.62,2.86-8.08Zm.55-11.11c-2.3.16-4.55.3-6.71,1.09-3.83,1.41-4.18,3.58-1.03,6.22.95.79,2.02,1.36,3.21,1.7,2.65.76,5.31.95,7.98.11,1.52-.48,2.89-1.22,4.03-2.33,2.26-2.19,1.95-4.18-.86-5.5-.47-.22-.96-.44-1.47-.52-1.71-.29-3.43-.51-5.14-.76Z"/>
      <path class="cls-19" d="m214.19,177.14c-.17,7.9-6.33,15.16-15.48,15.11-9.18-.05-15.44-7.41-15.32-15.52.14-9.41,7.93-15.39,15.6-15.25,8.5.15,15.32,7.12,15.2,15.67Zm-25.1-10.42c-4.29,3.83-4.97,8.68-3.9,13.99.2,1,.47,2.03,1.27,2.79.95,1.95,2.25,3.59,4.18,4.66,4.89,3.54,10.07,3.72,15.18.8,4.43-2.53,6.95-6.47,6.82-11.78.31-1.47.26-2.91-.47-4.27-2.77-9.9-14.43-12.57-20.97-7.74-.7.52-1.41,1.04-2.11,1.55Z"/>
      <path class="cls-19" d="m122.77,177.01c.04,7.6-6.05,15.35-15.59,15.24-8.47-.09-15.24-6.68-15.17-15.39.09-10.42,8.66-15.47,15.45-15.39,8.52.1,15.37,6.99,15.31,15.55Zm-2.09,4.42c.89-1.64,1.04-3.42.95-5.23-.03-.57-.28-1.14-.43-1.71-.45-3.42-1.94-6.24-4.77-8.29-2.43-2.19-5.32-3.21-8.56-3.34-6.65-.26-12.47,4.13-14,10.56-.76,2.23-.75,4.74.03,6.95.03.26.02.53.1.77,3.69,10.79,16.54,12.45,22.93,5.92,1.96-1.4,3-3.42,3.75-5.63Z"/>
      <path class="cls-19" d="m205.94,153.29c-4.84-.12-8.88-1.54-12.51-4.16-1.28-.93-2.4-2.02-3.21-3.39-1.86-3.14-.73-6.08,2.76-7.22,1.68-.55,3.42-.67,5.17-.47,3.97.44,7.6,1.79,10.84,4.15,1.27.93,2.4,2.01,3.21,3.39,1.83,3.12.88,5.84-2.5,7.08-.49.18-.99.35-1.5.42-.86.12-1.73.15-2.25.19Zm-8.61-13.9c-1.79.03-3.18.04-4.49.64-2.14.99-2.71,2.6-1.61,4.69.79,1.5,2.02,2.61,3.39,3.57,3.07,2.14,6.51,3.27,10.21,3.67,1.4.15,2.79-.04,4.13-.45,2.7-.82,3.54-2.91,2.01-5.25-.7-1.07-1.63-2.06-2.65-2.85-3.33-2.58-7.17-3.84-10.99-4.02Z"/>
      <path class="cls-19" d="m100.73,153.46c-1.44-.27-2.91-.45-4.32-.84-.72-.2-1.43-.67-1.99-1.18-1.18-1.07-1.61-2.41-1.19-4.02.46-1.77,1.51-3.13,2.84-4.28,2.82-2.45,6.1-3.97,9.75-4.72,2.24-.46,4.47-.66,6.72-.06,4.47,1.18,5.67,4.67,2.76,8.29-.81,1.01-1.8,1.9-2.84,2.68-2.59,1.94-7,3.9-11.73,4.13Zm.42-1.49c.53-.08,1.66-.18,2.76-.42,3.29-.69,6.29-2.02,8.87-4.21,1.01-.86,1.87-1.84,2.38-3.07.7-1.66.22-3.18-1.36-3.99-.76-.39-1.63-.67-2.47-.75-5.49-.52-10.31,1.14-14.46,4.72-.77.67-1.41,1.56-1.9,2.46-1.07,1.95-.49,3.57,1.52,4.5,1.28.59,2.66.81,4.67.76Z"/>
      <path class="cls-19" d="m146.56,199.24c.26-.03.51-.06.77-.1.33.98.64,1.98,1,2.95.33.9.63,1.81,1.07,2.65.87,1.64,2.38,2.17,4.15,2.18,1.66,0,2.83-.75,3.52-2.22.44-.94.81-1.92,1.19-2.89.35-.89.67-1.78,1.01-2.67.26.04.51.07.77.11-.22,1.99-.75,3.89-1.59,5.71-.87,1.87-2.19,3.03-4.37,3.1-2.34.07-4.3-.62-5.5-2.69-.6-1.03-.94-2.22-1.32-3.36-.3-.9-.46-1.84-.69-2.76Z"/>
      <path class="cls-19" d="m96.97,123.76c.88-2.39,2.18-4.49,4.29-5.98.21-.15.58-.06,1.08-.1-1.39,2.57-2.97,4.7-4.78,6.67-.19-.19-.39-.39-.58-.58Z"/>
      <path class="cls-19" d="m95.37,135.69c.94-2.96,1.48-5.48,4.24-6.96-.03.5.03.85-.09,1.12-.91,2.04-2.05,3.93-4.15,5.84Z"/>
      <path class="cls-19" d="m104.61,121.22c.87-1.06,1.7-2.16,2.61-3.18.89-1.01,1.9-1.88,3.29-2.41-.35,1.61-1.44,2.81-5.03,5.64-.29-.01-.58-.03-.87-.04Z"/>
      <path class="cls-19" d="m90.13,134.82c-.51,2.3-1.59,4.14-4.07,6.86.4-1.76,1.1-3.03,1.74-4.31.42-.84,1.07-1.56,1.66-2.3.12-.15.41-.16.67-.25Z"/>
      <path class="cls-19" d="m84.44,150.36c.03-1.28.51-2.32,1.63-3.03.04.39.09.79.13,1.18-.06,1.29-.57,2.44-1.16,3.56-.72-.39-.42-1.14-.6-1.72Z"/>
      <path class="cls-19" d="m84.44,150.36c.18.58-.11,1.33.6,1.72-.05.61-.23,1.14-.99,1.57-.26-1.25-.11-2.28.38-3.29Z"/>
      <path class="cls-19" d="m96.97,123.76c.19.19.39.39.58.58-.24.53-.41,1.16-1.43.88.31-.53.58-.99.85-1.46Z"/>
      <path class="cls-19" d="m104.61,121.22c.29.01.58.03.87.04-.35.56-.74,1.06-1.81.98.42-.46.68-.74.94-1.02Z"/>
      <path class="cls-19" d="m86.2,148.51c-.04-.39-.09-.79-.13-1.18.19-.31.46-.25.46.04,0,.38-.21.76-.33,1.14Z"/>
      <path class="cls-19" d="m160.16,199.23c.47-.13.9-.09,1.2.36-.4-.12-.8-.24-1.2-.36Z"/>
      <path class="cls-19" d="m154.55,193.99c-.62.24-.53.8-.54,1.29-.02,2.13-.02,4.26-.03,6.38-.29-.17-.58-.33-.88-.5-.05-2.21-.09-4.41-.18-6.62-.02-.38-.26-.74-.4-1.12-.02-.45.04-.9.65-.72.64.19,1.28.46,1.38,1.27Z"/>
      <path class="cls-19" d="m93.88,173.42c.21.39.41.78.62,1.17-.65,1.2-.65,2.41-.07,3.63-.79.56-.3,1.44-.53,2.15-.77-2.21-.78-4.72-.03-6.95Z"/>
      <path class="cls-19" d="m153.1,201.17c.29.17.58.33.88.5.17.88.29,1.75-.3,2.65q-.76-1.25-.57-3.15Z"/>
      <path class="cls-19" d="m189.67,167.28c.7-.51,1.4-1.02,2.1-1.52,2.04-.79,4.1-1.39,6.34-1.24,4.64.3,8.06,2.47,10.3,6.52.13.23.27.46.34.7.27.98.82,1.68,1.81,2.05.39.15.71.5,1.06.76l.59,2.64c-.39.56-.66,1.35-1.2,1.64-1.27.68-1.74,1.79-2.27,2.99-2.59,5.82-9.43,8.75-15.44,6.43-.64-.25-1.29-.5-1.93-.75-1.69-1.32-3.32-2.7-4.44-4.58-.71-1.85-1.49-3.66-1.53-5.72-.06-3.38.99-6.29,3.26-8.77.35-.38.68-.78,1.02-1.16Zm18,5.57c-2.08-5.19-7.09-7.88-12.35-6.8-5.2,1.06-9.05,5.87-8.72,11.4.31,5.22,4.51,9.63,9.58,10.17,2.79.29,5.36-.29,7.67-1.91,2.05-1.44,3.19-3.05,3.78-5.34-.75-.19-1.52-.33-2.25-.59-1.21-.44-2.13-1.21-2.32-2.57-.2-1.47.52-2.5,1.72-3.25.36-.23.78-.38,1.18-.53.56-.21,1.14-.39,1.72-.58Zm.3,1.62c-1.34-.03-2.29.32-3.07,1.1-.86.87-.74,1.93.28,2.63.92.63,1.94.68,2.99.54,1.46-.19,2.78-1.33,2.77-2.32-.02-1.05-1.34-1.92-2.96-1.95Z"/>
      <path class="cls-19" d="m94.43,178.22c-.58-1.22-.59-2.43.07-3.63.72-.48,1.44-.96,2.32-1.54.21-.46.49-1.09.79-1.71,3.01-6.25,10.5-8.5,16.46-5.61.62.3,1.21.68,1.82,1.02.29.31.56.65.87.93,2.18,2,3.51,4.44,3.93,7.37-.04,1.95,0,3.91-.55,5.81-.69,2.27-2.31,3.92-3.84,5.63-1.7,1.02-3.41,1.97-5.42,2.33-5.36.97-10.84-1.55-13.14-6.51-.8-1.73-1.85-3.02-3.3-4.1Zm4.09,2.15c1.42,4.92,6.46,7.98,11.79,7.22,5.18-.74,9.2-5.39,9.25-10.7.05-5.58-3.85-10.09-9.51-11.01-4.84-.79-9.98,2.33-11.46,7.01.57.18,1.16.32,1.71.57.62.29,1.28.59,1.78,1.04,1.73,1.56,1.44,3.82-.61,4.97-.37.21-.8.33-1.21.46-.57.17-1.16.3-1.74.45Zm.85-1.61c.26-.1,1.09-.31,1.8-.74.79-.48.85-1.55.27-2.27-1.14-1.41-3.93-1.74-5.42-.63-.93.69-.97,1.83-.08,2.64.8.73,1.75,1.07,3.43.99Z"/>
    </g>
  </g>
</svg>