<?xml version="1.0" encoding="UTF-8"?>
<svg id="Layer_1" data-name="Layer 1" xmlns="http://www.w3.org/2000/svg" viewBox="0 0 300 299.76">
  <defs>
    <style>
      .cls-1 {
        fill: #976854;
      }

      .cls-2 {
        fill: #cb203b;
      }

      .cls-3 {
        fill: #fff;
      }

      .cls-4 {
        fill: #fbf4e3;
      }

      .cls-5 {
        fill: #4d2942;
      }

      .cls-6 {
        fill: #885d4d;
      }

      .cls-7 {
        fill: #a4705b;
      }

      .cls-8 {
        fill: #d9a681;
      }

      .cls-9 {
        fill: #f2dca0;
      }

      .cls-10 {
        fill: #f2db9e;
      }

      .cls-11 {
        fill: #f3dda3;
      }

      .cls-12 {
        fill: #e81b44;
      }

      .cls-13 {
        fill: #4c2840;
      }

      .cls-14 {
        fill: #f5e6ba;
      }

      .cls-15 {
        fill: #e5edd6;
      }

      .cls-16 {
        fill: #f2dc9e;
      }

      .cls-17 {
        fill: #946755;
      }

      .cls-18 {
        fill: #8194cb;
      }

      .cls-19 {
        fill: #95aad8;
      }

      .cls-20 {
        fill: #835949;
      }

      .cls-21 {
        fill: #6c493c;
      }

      .cls-22 {
        fill: #daa781;
      }

      .cls-23 {
        fill: #e81a44;
      }

      .cls-24 {
        fill: #d2a37d;
      }

      .cls-25 {
        fill: #614235;
      }

      .cls-26 {
        fill: #ed607c;
      }

      .cls-27 {
        fill: #d7e9e6;
      }

      .cls-28 {
        fill: #7b4728;
      }

      .cls-29 {
        fill: #f7d26f;
      }

      .cls-30 {
        fill: #d6a57f;
      }

      .cls-31 {
        fill: #ecd371;
      }

      .cls-32 {
        fill: #f1d273;
      }

      .cls-33 {
        fill: #8f5f4b;
      }

      .cls-34 {
        fill: #592d4b;
      }
    </style>
  </defs>
  <rect class="cls-27" x="35" y="30.24" width="230" height="237.22" rx="68.69" ry="68.69"/>
  <g>
    <g>
      <path class="cls-7" d="m149.04,59.1c2.39-.71,4.83-.34,7.25-.33,2.54,1.57,5.53,1.32,8.29,1.99,5.35,1.32,10.51,3.09,15.4,5.66,4.78,2.51,9.43,5.26,13.96,8.19,6.42,4.14,11.95,9.28,16.79,15.18,6.14,7.5,11.51,15.51,15.95,24.14,4.38,8.49,7.31,17.48,9.21,26.82,1.2,5.89,2.01,11.83,2.51,17.81.46,5.58.1,11.14-1.07,16.62-1.88,8.81-4.83,17.25-8.83,25.32-.49.99-.86,2.11-2.28,2.24-.63.06-.9.76-1.26,1.25-1.29,1.75-2.54,3.54-3.88,5.25-6.59,8.35-14.65,14.82-24.52,18.94-2.25.94-4.49,1.9-6.82,2.62-.59.18-1.16.39-1.78.34-.77-.79-.63-1.76-.44-2.69,1.15-5.51,1.84-11.07,1.99-16.69,1.13-2.3.18-4.3-.92-6.28-.03-1.48,1.03-2.34,1.9-3.29,3.26-3.55,4.43-7.8,3.22-12.33-3-11.23-9.66-19.51-20.56-24.07-9.38-3.92-19.15-5.62-29.31-5.19-1.93.08-3.71.86-5.58,1.19-9.34,2.27-18.52,5.03-25.77,11.73-6.42,5.93-9.94,13.31-9.35,22.27.22,3.31,1.92,5.94,4.42,7.97,3.96,3.2,8.64,4.71,13.6,5.52.97.16,2.67-.13,2.15,1.89-1.31.75-2.78.2-4.14.52-4.45-.26-8.65-1.34-12.44-4.12-1.13,1.95.2,4.34-1.44,5.95-1.64.42-2.63-.77-3.64-1.64-13.45-11.63-22.17-26.03-25.17-43.67-2.95-17.38.8-33.73,7.99-49.48,2.06-4.52,4.47-8.87,7.16-13.05,1.36-2.12,2.63-4.32,4.6-5.98,1.07-.75,2.32-1.15,3.42-1.88,1.47-.97,1.58-1.91.19-3,1.84-3.06,4.49-5.28,7.44-7.21,5.88,1.68,10.12-1.04,13.63-5.29,2.37-2.86,1.88-4.36-1.47-5.74-.33-.14-.59-.35-.78-.66.01-1.03.82-1.31,1.55-1.37,2.46-.2,4.22-1.66,5.98-3.15,1.23-.62,2.41-1.33,3.64-1.96,5-2.98,10.11-5.79,15.24-8.53,1.29-.69,2.88-.67,3.96-1.79Z"/>
      <path class="cls-33" d="m149.04,59.1c.21.17.87.12.4.62-.28.3-.74.43-1.12.63-3.76,1.97-7.53,3.9-11.26,5.91-2.28,1.23-4.5,2.58-6.74,3.88-1.81-.87-2.67.51-3.67,1.55-.06.63-.34,1.13-.89,1.48-.79.51-1.59,1-2.35,1.56-.66.48-1.37.64-2.17.64-.84,0-1.73-.15-2.47.45-.24.75-.88,1.08-1.53,1.29-5.35,1.74-9.01,5.02-9.95,10.81-1.56,2.08-3.54,3.76-5.37,5.58-.53.53-1.29.82-1.94,1.22-.65,1.94-2.65,3.07-3.09,5.14-2.59,3.6-5.06,7.27-7.26,11.13-1.9,3.33-3.59,6.77-5.19,10.24-.91,1.97-1.58,4.05-2.39,6.06-2.1,5.18-3.34,10.61-4.38,16.07-.42,2.19-.92,4.43-.72,6.72.04.43.05.89-.07,1.3-.63,2.05-.4,4.14-.43,6.22-.02,1.56.08,3.1.36,4.66.32,1.78.35,3.61.64,5.42.99,6.22,2.72,12.21,5.47,17.88,1.78,3.68,3.63,7.33,5.98,10.69,2.24,3.2,4.58,6.33,7.42,9.05.88.84,1.76,1.69,2.58,2.59,1.9,2.05,4.1,3.75,6.26,5.49,1.18.73,1.4,2,1.46,3.16.18,3.97,1.09,7.83,1.52,11.76-.15.72-.2,1.5-.91,1.95-3.63-.35-6.69-1.91-9.33-4.39-1.89-1.24-3.82-2.42-5.66-3.72-8.7-6.16-16.13-13.54-21.61-22.74-4.37-7.34-7.12-15.26-8.35-23.73-.84-5.79-1.2-11.61-.88-17.44.44-8.01,1.63-15.93,3.81-23.66,4.57-16.21,11.99-30.99,22.66-44.04,11.29-13.8,25.61-23.13,42.72-28.19,5.78-1.71,11.64-2.96,17.67-3.24.26-.01.52,0,.78,0Z"/>
      <path class="cls-19" d="m206.56,234.75c2.31,4.49,4.25,9.12,5.46,14.04-.38,1.59-1.72,2.12-3.03,2.59-6.63,2.36-13.32,4.37-20.33,5.47-8.93,1.41-17.9,2.13-26.91,2.7-6.52.42-13.02.36-19.53.4-13.21.08-26.1-2.13-38.74-5.88-.62-.19-1.07-.62-1.56-1.01-.22-.22-.38-.47-.5-.76-.68-4.83.2-9.26,3.39-13.1,1.45-.48,2.76.22,4.11.52.97.39,2,.59,3,.9,1.07.69,1.51,1.85,2.13,2.87,1.99,3.28,4.4,6.15,7.73,8.17.53.32,1,.68,1.65.42,2-1.06,2.83-2.94,3.52-4.94.45-1.31.86-2.67,2.42-3.14,1.75-.48,3.47.1,5.18.24,10.69.87,21.36.58,32.03-.16,2.21.44,2.39,2.48,3.15,4.06.94,1.98,1.75,4.09,4.61,3.56,2.85-1.53,4.76-3.98,6.47-6.62.84-1.3,1.48-2.78,2.97-3.55,7.03-1.75,14.14-3.25,20.58-6.79.69-.38,1.47-.54,2.2.01Z"/>
      <path class="cls-12" d="m103.31,253.07c2.36.58,4.71,1.18,7.07,1.75,7.2,1.73,14.48,2.93,21.85,3.63,9.3.89,18.6.71,27.9.07,3.3-.22,6.6-.45,9.9-.6,6.79-.32,13.51-1.15,20.16-2.6.51-.11,1.04-.29,1.54-.24,1.88.18,3.59-.5,5.32-1.03,4.57-1.4,9.2-2.63,13.6-4.53.47-.2.91-.49,1.37-.74,1.23,2.52,1.84,5.23,2.45,7.94.06.25.06.52.08.78.15,2.42-.49,3.33-2.89,3.85-3.57.77-7.15,1.46-10.72,2.21-6.21,1.3-12.48,2.32-18.78,3.01-4.75.52-9.51.97-14.28,1.32-6.09.45-12.17.43-18.25.25-5.47-.16-10.94-.5-16.41-.77-4.08-.2-8.16-.4-12.24-.64-4.86-.29-9.7-.75-14.53-1.43-1.81-.25-3.61-.55-5.41-.83-1.48-1.25-1.07-2.98-1.1-4.56-.04-2.48.02-4.96,1.26-7.23.26-.24.57-.32.91-.24l-.07.19c.38.27.86.26,1.27.43Z"/>
      <path class="cls-4" d="m183.67,242.32c-.69,1.1-1.4,2.19-2.06,3.32-1.15,1.97-2.62,3.67-4.27,5.23-.76.72-1.56,1.39-2.62,1.64-1.11-.62-1.35-1.71-1.57-2.84-.99-5.19-2.02-10.36-2.9-15.57-.29-1.7.28-3.48-.55-5.11-.09-.28-.14-.58-.16-.87-.4-1.56-.6-3.13-.45-4.74-.15-1.42-.26-2.84-.41-4.26-.29-4.08.85-5.39,5.11-5.71,4.84-.37,9.37-1.61,13.48-4.29.9-.59,2-1.68,3.01-.88.87.69.43,2.08.21,3.17.09,6.7-.98,13.24-2.56,19.72-.16.55-.32,1.1-.48,1.65.59,3.91-1.18,6.89-3.79,9.54Z"/>
      <path class="cls-2" d="m101.59,252.55c-.08,1.47-.14,2.92-.43,4.39-.26,1.34-.12,2.76-.14,4.15-.01,1.13,0,2.26.01,3.38-4.14-.51-8.18-1.48-12.18-2.64-.83-.24-1.64-.58-2.41-.95-.97-.47-1.34-1.31-1.21-2.37.04-.34.11-.69.23-1.01,1.11-2.92,1.89-5.95,2.73-8.95.07-.25.22-.47.34-.7.29-.21.62-.42.96-.32,3.76,1.07,7.49,2.23,11.15,3.62.57.22,1.02.68.94,1.41Z"/>
      <path class="cls-12" d="m183.67,242.32c.08-.8.55-1.43.87-2.12,1.14-2.4,2.09-4.88,2.91-7.41,3.81-1.19,7.49-2.7,11.15-4.25.72-.3,1.43-.63,2.18-.85,1.43-.43,2.42-.11,3.08,1.18.98,1.92,2.13,3.77,2.69,5.89-.4.17-.82.29-1.19.51-5.48,3.19-11.43,5.04-17.59,6.33-1.36.29-2.74.49-4.11.73Z"/>
      <path class="cls-18" d="m101.59,252.55c-1.26-.78-2.7-1.08-4.08-1.52-1.88-.6-3.8-1.1-5.67-1.74-1.13-.39-2.2-.96-3.3-1.44.75-3.91,2.08-7.62,3.71-11.24.21-.46.54-.87.82-1.3.46-.27.97-.47,1.48-.32,3.61,1.06,7.33,1.83,10.63,3.78.19.27.16.52-.09.73-1.5,2.76-2.15,5.81-2.87,8.82-.32,1.35-.17,2.75-.1,4.13-.18.03-.35.07-.53.1Z"/>
      <path class="cls-2" d="m105.05,239.14c-4.12-.9-8.06-2.34-11.98-3.83.02-.17-.01-.36.05-.51,1.21-2.76,2.57-5.45,4.27-7.95,1.21-.59,1.89.52,2.8.89,2,.8,3.99,1.63,6.02,2.37.58.3,1.33.21,1.81.76.17.22.29.46.37.73-.48,2.79-.85,5.64-3.35,7.54Z"/>
      <path class="cls-31" d="m106.28,230.48c-1.63-.52-3.27-1.02-4.9-1.56-1.13-.37-2.31-.64-3.04-1.75-.14-.22-.62-.22-.94-.32.17-.32.34-.64.51-.97,2.98,1.39,5.96,2.78,8.95,4.17-.11.25-.3.39-.57.44Z"/>
      <path class="cls-21" d="m138.11,161.1c4.18-1.59,4.18-1.51,8-1.6,3.75-.09,7.48.2,11.16.72,4.74.66,9.35,1.96,13.84,3.63,2.6.97,5.13,2.12,7.55,3.52,5.19,3.01,8.91,7.37,11.98,12.42,1.92,3.15,3.58,6.39,4.19,10.04.84,5.07-.08,9.67-3.88,13.43-.73.72-1.66,1.29-2.03,2.33.19,2.11-1.4,2.94-2.89,3.5-5.73,2.15-11.65,3.29-17.81,2.48-2.67-.35-5.33-.74-7.6-2.37-2.03-1.76-4.74-2.55-6.57-4.59-1.16-1.31-2.32-2.61-3.87-3.49-1.14-.88-1.26-2.38-2.14-3.4,0,.03-.24-.07-.24-.07,0,0-.25,0-.25.03-.15.13-.31.24-.46.36-.54.59-.99,1.28-1.83,1.49-2,1.06-3.73,2.54-5.76,3.55-5.86,2.92-11.79,3.88-18.15,1.53-10.64-3.94-14.75-15.48-8.8-25.2,2.39-3.91,5.49-7.19,9.26-9.81,4.44-3.08,8.98-5.96,14.24-7.51.7-.21,1.58-.26,2.05-1.01Z"/>
      <path class="cls-25" d="m138.11,161.1c.32.06.7-.07,1,.35-2.59,1.19-5.17,2.35-7.73,3.56-3.94,1.87-7.61,4.2-11,6.92-2.99,2.41-5.53,5.3-7.39,8.68-2.67,4.86-2.96,9.98-.65,15.03,1.35,2.96,3.56,5.35,6.56,6.81,2.83,1.38,5.77,2.47,8.95,2.54,4.46.1,8.56-1.21,12.37-3.46,1.12-.66,2.21-1.37,3.32-2.06.6-.37,1.22-.67,1.93-.73.8.97-.01,1.7-.37,2.5-2.29,3.62-5.5,6.18-9.34,8-.61.22-1.15.58-1.73.86-1.02.44-2.04.88-3.17.95-2.5.35-5.02,1.29-7.43-.31-.34-.3-.75-.41-1.2-.44-4.41-.27-8.5-1.6-12.38-3.69-2.42-1.3-4.44-3.04-5.95-5.33-1.16-1.77-1.82-3.7-1.93-5.86-.38-6.93,1.93-12.97,5.94-18.46,3.86-5.28,9.13-8.73,15-11.33,4.38-1.94,8.95-3.32,13.63-4.38.5-.11,1.03-.1,1.55-.15Z"/>
      <path class="cls-14" d="m160.59,208.17c2.06,1.19,4.28,1.87,6.63,2.22,5.54.84,10.93.04,16.24-1.46,2.1-.59,4.11-1.45,5.45-3.34.86.02,1.49.33,1.65,1.27.24,1.52.51,3.03-.05,4.54-.07-.86-.15-1.72-.21-2.54-.41-.31-.68-.09-.95.12-4.57,3.51-9.79,5.2-15.5,5.44-1.07.04-2.05.39-3.06.61-.78.16-1.18.72-1.23,1.49-.05.87-.04,1.74-.06,2.61-2.2,2.21-2.15,2.63.48,4.16,0,1.6.09,3.18.55,4.73-.2.14-.57.28-.53.46.09.35.37,0,.58.03.16.4.44.79.45,1.19.1,5.24,1.47,10.28,2.35,15.39.42,2.47.9,4.94,1.35,7.41-.78.52-1.58.56-2.47.25-.85-.29-1.56-.74-2.05-1.49-.76-1.17-1.32-2.42-1.76-3.74-.3-.9-.66-1.77-.99-2.66-1.63-1.68-1.61-3.89-1.89-6-.1-.82-.5-1.58-.5-2.43-.18-1.07-.51-2.12-.55-3.22-1.6-6.57-2.66-13.27-4.79-19.71-.27-.82-.51-1.65-.81-2.46-.09-.28-.12-.57-.11-.87.13-1.09.3-2.13,1.78-2.02Z"/>
      <path class="cls-14" d="m131.32,210.2c.91-.35,1.81-.7,2.72-1.05.93-.25,1.98-.58,2.47.56.6,1.39.16,2.69-.87,3.79-3.98,2.12-8.17,3.37-12.76,3.05-4.17-.29-8.26-.28-10.47,4.28-1.46-.04-1.04-1.64-2.12-2.46-.51,1.08-.51,1.91.48,2.6.55.39,1.36.37,1.74,1.07.36,2.69.63,5.39,1.05,8.06-.03.51-.31.95-.47,1.42-.9,2.58-.71,2.99,1.85,4.23,1,.92,1.36,2.2,1.82,3.4,1.45,3.75,3.66,7.06,5.9,10.36.69,1.02,1.81,2.02.85,3.48-1.13.21-2.01-.35-2.89-.91-2.07-1.33-3.8-3.03-5.26-4.98-1.41-1.87-2.66-3.85-3.54-6.04-.21-.22-.51-.33-.76-.51-.17-.14-.31-.3-.45-.46-.22-.26-.4-.55-.57-.85-1.37-2.48-2.18-5.12-2.25-7.97l.08-.21c-.79-.69.03-1.69-.48-2.43-.91-3.2-1.3-6.48-1.65-9.77-.19-1.82-.37-3.64-.55-5.46,0-1.55,0-3.1.02-4.66,0-.52.01-1.04.05-1.55.04-.63.23-1.21.93-1.39.59-.15.98.25,1.31.64,1.58,1.89,3.72,2.76,6.02,3.31,1.76.42,3.54.75,5.32,1.12,4.23.78,8.41.74,12.52-.66Z"/>
      <path class="cls-3" d="m83.13,157.81c.04-4.89,2.48-8.82,6.44-11.94.85-.67,6.24-2.46,7.33-2.48,10.3-.14,16.66,8.44,14.93,17.31-.18.93-.48,1.86-.82,2.74-2.37,6.14-7.51,9.48-14.02,9.13-6.56-.35-11.84-4.62-13.45-10.85-.31-1.2-.35-2.4-.41-3.93Z"/>
      <path class="cls-3" d="m212.46,157.5c-.29,5.95-2.77,10.42-7.99,13-5.33,2.63-10.7,2.35-15.52-1.24-4.57-3.39-5.9-8.24-5.08-13.69.9-5.98,4.65-9.73,10.01-12.06.79-.35,1.61-.54,2.53-.24.55.18,1.2.07,1.81.08,6.63.04,12.52,4.77,13.9,11.22.22,1.01.25,2.06.35,2.92Z"/>
      <path class="cls-25" d="m204.92,133.41c-4.83,0-8.91-2.01-12.68-4.8-1-.74-1.61-1.83-2.06-2.97-.82-2.07-.15-3.79,1.86-4.78.46-.23.97-.42,1.48-.48,4.93-.51,9.51.44,13.62,3.33,1.59,1.11,2.97,2.4,3.96,4.09,1.05,1.79.93,2.67-.59,4.13-.91.88-1.98,1.42-3.25,1.47-.78.03-1.57,0-2.35,0Z"/>
      <path class="cls-25" d="m91.12,133.35c-1.59.05-2.69-.27-3.75-.6-2.31-.73-3.12-2.21-2.33-4.92.22-.75.72-1.37,1.26-1.95,3.02-3.23,6.66-5.18,11.11-5.61,1.64-.16,3.23-.31,4.89,0,1.83.35,2.89,1.59,3.7,2.99.67,1.16.09,2.39-.67,3.39-1,1.32-2.15,2.53-3.55,3.41-3.38,2.13-7.16,3.01-10.66,3.29Z"/>
      <path class="cls-22" d="m107.29,87.92c-.87-1.74-.55-3.36.47-4.93,1.85-2.86,4.28-5.01,7.51-6.18,1.14-.41,2.33-.67,3.5-.99.87.03,1.74.06,2.61.11.44.02.94.11,1.15.5.71,1.31,1.33,2.67.63,4.2-.22.47-.47.93-.77,1.36-2.69,3.91-6.33,6.39-11.02,7.26-1.6.3-2.86-.47-4.08-1.33Z"/>
      <path class="cls-8" d="m136.9,81.62c-.26,0-.53.04-.78,0-2.98-.52-3.18-1.13-1.74-3.57,1.59-2.68,4.27-4.01,7.41-4.23,1.1-.08,1.25.21,1.65,1.25.66,1.72.09,3.04-1.15,4.21-1.28,1.21-3.88,2.36-5.39,2.35Z"/>
      <path class="cls-30" d="m96.88,99.87c-.85-1.08-.51-2.06.27-2.99.78-.93,1.86-1.46,2.82-2.15.94,0,2.02-.25,2.4.97.32,1.02-.5,1.63-1.17,2.12-1.3.95-2.46,2.26-4.32,2.05Z"/>
      <path class="cls-15" d="m131.32,210.2c-.51.68-1.32.79-2.04.97-2.67.68-5.41.75-8.15.64-.89-.04-1.67-.33-2.32-.94,1.54-.29,3.1.26,4.64-.12,2.13.13,4.25.06,6.35-.39.49-.11,1.01-.11,1.52-.16Z"/>
      <path class="cls-24" d="m126.65,71.7c-.39-.68-.3-1.32.3-1.81.39-.32.83-.58,1.28-.81,1.21-.64,1.51-.47,2.09,1.07-1.14.71-2.14,1.75-3.67,1.55Z"/>
      <path class="cls-32" d="m107.37,228.63c.65.71.4,1.6.48,2.43-.52-.19-1.05-.39-1.57-.58.19-.15.38-.29.57-.44.6-.32.41-.92.52-1.42Z"/>
      <path class="cls-4" d="m112.03,220.75c.47-.47.41-1.12.6-1.68.58-1.65,1.56-2.83,3.42-3.18,1.02-.19,2.02-.42,3.07-.41,1.65.02,3.29-.03,4.94.02,3.55.11,6.88-.64,9.93-2.48.65-.39.93-.15,1.09.48.93.99.58,2.14.3,3.2-1,3.76-1.64,7.61-2.72,11.35-.42,2.76-.92,5.51-1.59,8.22-.06.56-.28,1.08-.33,1.64-.37,2.36-.26,4.87-2,6.83-.37,1.15-.71,2.3-1.1,3.44-.51,1.48-1.15,2.88-2.33,3.97-.51.47-1.04.92-1.81.85-.18-.97-.74-1.72-1.31-2.49-3.05-4.11-5.66-8.48-7.25-13.38-.13-.41-.23-.83-.34-1.25-.88-1.15-.64-2.66-1.28-3.89-.13-.32-.17-.66-.25-.98-.02-.11-.04-.22-.06-.33-.62-1.89-1.02-3.82-1.03-5.82,0-1.04-.03-2.07-.05-3.11-.26-.36-.22-.68.1-.99Z"/>
      <path class="cls-12" d="m128.74,244.74c.04-2.48.77-4.84,1.18-7.26,1.37-1.11,2.91-.39,4.25-.12,2.98.59,5.99.91,9,1.06,6.31.33,12.63.8,18.93-.35,1.37-.25,2.94-.7,4.22.51.51,2.07,1.15,4.12,1.14,6.29-5.52.75-11.06,1.05-16.62,1.07-5.99.02-11.98-.18-17.95-.72-1.38-.13-2.76-.32-4.14-.48Z"/>
      <path class="cls-23" d="m111.34,240.1c.07.15.11.3.1.47-.88.45-1.77.32-2.67.09-1.35.01-2.43-.86-3.69-1.16,0-.12-.02-.24-.04-.36.75-1.98,1.48-3.96,2.27-5.92.25-.64.49-1.26.46-1.95.15.2.38.39.45.61.73,2.6,1.82,5.07,2.78,7.59.14.2.25.41.34.63Z"/>
      <path class="cls-26" d="m108.78,240.66c.89-.03,1.78-.06,2.67-.09.12.16.24.33.35.49-1.03,0-2.08.17-3.03-.4Z"/>
      <path class="cls-2" d="m103.31,253.07c-.48.01-.92-.07-1.27-.43.48-.03.93.05,1.27.43Z"/>
      <path class="cls-16" d="m169.98,223.31c-.31.14-.61.34-.93.4-.98.18-1.48-.09-1.85-.91-.37-.81-.37-1.65-.21-2.49.12-.61.5-1.07,1.05-1.37.53-.29.98.02,1.44.21.81,1.31.56,2.75.48,4.16Z"/>
      <path class="cls-9" d="m170.58,228.52c-.04.42-.05.85-.12,1.26-.06.35-.27.63-.65.68-.47.07-.86-.15-1.04-.55-.17-.37-.25-.81-.26-1.22-.02-.83.44-1.16,1.33-.98.24.05.46.2.69.31.02.16.04.32.05.49Z"/>
      <path class="cls-25" d="m159.55,210.26c.08.13.11.26.11.41.45,2.08-.54,3.5-2.14,4.61-5.19,3.6-10.71,4.2-16.52,1.7-3.16-1.36-5.59-3.27-4.7-7.28-.07-.83.47-1.21,1.1-1.57,2.97-1.7,5.36-4.02,7.24-6.87.94-1.28,1.48-2.79,2.39-4.09v.02c.11-.14.24-.27.37-.4.2-.2.41-.38.71-.42.19.02.35.11.47.26.55.83,1.07,1.68,1.33,2.66.15.55.28,1.14.75,1.55,1.48.82,2.11,2.51,3.53,3.4.93.9,1.97,1.66,3.05,2.34,1.41.88,2.17,2.05,2.3,3.68Z"/>
      <path class="cls-34" d="m129.77,170.52c1.59.54,1.84,1.96,2.05,3.32.23,1.51-.18,2.99-.93,4.26-2.46,4.18-5.69,7.42-10.69,8.42-.71.14-1.37.25-1.94-.32-.79-.76-.82-1.7-.51-2.65,1.89-5.81,5.82-9.89,10.99-12.91.3-.17.68-.11,1.02-.13Z"/>
      <path class="cls-34" d="m179.47,185.72c-.29.45-.66.86-1.21.91-1.46.14-2.94.32-4.34-.33-2.05-.95-3.97-2.07-5.64-3.64-1.77-1.66-2.8-3.7-3.58-5.93-.69-1.99-.6-3.9.61-5.69,6.92,2.78,11.23,8.06,14.16,14.68Z"/>
      <path class="cls-13" d="m179.47,185.72c-.7-.38-1.21-.96-1.62-1.63-.5-.81-1.09-1.56-1.57-2.38-2.29-3.91-5.53-6.82-9.4-9.08-.67-.39-1.44-.66-1.56-1.59.43-.77,1.12-1.02,1.96-1.03,2.3-.03,4.46.38,6.4,1.73,3.38,2.35,5.92,5.32,7.09,9.32.52,1.79.33,3.44-1.29,4.66Z"/>
      <path class="cls-13" d="m129.77,170.52c-2.42,2.11-5.08,3.96-7.18,6.41-2.29,2.68-4.12,5.61-4.32,9.27-1.01-.12-1.87-.53-2.27-1.5-.42-1.03-.89-2.03-.6-3.25.82-3.4,2.46-6.31,5.06-8.62,1.31-1.16,2.9-1.89,4.61-2.32,1.57-.4,3.14-.41,4.71,0h0Z"/>
      <path class="cls-17" d="m159.55,210.26c-.89-1.81-2.17-3.26-3.88-4.35-.65-.41-1.22-.95-1.83-1.43-.13-.46,0-.66.5-.51,1.71,1.34,3.48,2.6,5.45,3.54.3.14.53.43.79.65-1.06.34-1.03,1.23-1.04,2.1Z"/>
      <path class="cls-20" d="m154.35,203.97c-.17.17-.33.34-.5.51-1.54-.79-2.23-2.32-3.17-3.63.22-.19.49-.24.69-.04,1.04,1.01,2.18,1.93,2.98,3.17Z"/>
      <path class="cls-6" d="m147.04,197.18c-.39,1.55-1.08,2.96-2.09,4.21-.33-.02-.38-.32-.52-.53.3-.73.99-1.26,1.05-2.11.59-.46.78-1.3,1.55-1.57Z"/>
      <path class="cls-34" d="m129.77,170.52c-1.57,0-3.14,0-4.71,0,1.81-.72,2.91-.72,4.71,0Z"/>
      <path class="cls-6" d="m148.59,196.64c-.17.02-.34.04-.52.06-.18.15-.36.31-.53.48-.17.01-.34.02-.52.02.09-.31.11-.65.28-.91.42-.65.78-.54,1.28.35Z"/>
      <path class="cls-7" d="m136.65,209.28c-.02.43-.01.87-.06,1.3-.15,1.55.55,2.7,1.72,3.59,1.53,1.17,3.2,2.09,5.07,2.62,4.83,1.37,9.27.55,13.41-2.24,1.44-.97,2.45-2.19,2.87-3.88.9,1.5,1.28,3.21,1.76,4.86,1.64,5.57,2.77,11.26,3.88,16.96.05.25.01.52.01.78-1.19,1.47-2.86,1.13-4.36,1.01-6.83-.56-13.66-1.09-20.36-2.65-2.2-.51-4.36-1.18-6.49-1.91-.94-.32-1.76-.74-2.22-1.67.29-3.08,1.16-6.05,1.84-9.05.41-1.84.91-3.66,1.37-5.48.55-.59.65-1.38.82-2.11.43-1.76.13-2.09-1.87-2.25.36-.48.88-.52,1.42-.52.67-.27,1.2-.3,1.19.66Z"/>
      <path class="cls-1" d="m136.65,209.28c-.3-.4-.72-.56-1.19-.66,1.17-.7,2.35-1.37,3.5-2.1,2.27-1.45,3.94-3.49,5.47-5.66.17.18.35.35.52.53-1.41,2.64-3.6,4.57-5.93,6.34-.75.57-1.58,1.03-2.38,1.55Z"/>
      <path class="cls-33" d="m131.88,228.03c1.83.52,3.67,1.01,5.49,1.57,3.07.95,6.23,1.46,9.38,2.05,2.29.43,4.61.71,6.92,1.01.77.1,1.56.06,2.34.07,1.38.02,2.75.12,4.13.35,1.7.27,3.46.14,5.19.18.44.96.63,1.95.44,2.99-.78,1.33-2.22,1.38-3.45,1.53-10.15,1.19-20.27,1.1-30.36-.67-.6-.11-1.18-.3-1.59-.81-.23-1.23.23-2.37.45-3.54.29-1.59.43-3.22,1.08-4.73Z"/>
      <path class="cls-29" d="m130.35,236.3c2.25.26,4.49.54,6.74.77,6.69.7,13.39.63,20.09.05,2.86-.25,5.72-.57,8.57-.86.43.72.66,1.48.56,2.32-6,.96-11.99,1.56-18.1,1.16-6.15-.41-12.23-1.19-18.29-2.25.14-.39.29-.79.43-1.18Z"/>
      <path class="cls-9" d="m114.06,231.18c.6.89.59,1.98.91,2.96.2.62-.1,1.18-.36,1.73-1.78.58-2.4.35-2.9-1.2-.52-1.62-.13-3,1.31-4,0,0,.01,0,.01,0,.28.3.77.18,1.03.52Z"/>
      <path class="cls-10" d="m112.03,220.75c-.03.33-.06.66-.09.99-.62.32-1.23.67-1.94.23-.71-.44-1.1-1.08-1.12-1.92-.03-1.03-.15-2.08.72-2.9.48-.46,1.13-.49,1.61-.04.47.43.74.95.77,1.58.03.69.04,1.38.07,2.07Z"/>
      <path class="cls-26" d="m111.34,240.1c-.24-.14-.36-.35-.34-.63.23.15.37.34.34.63Z"/>
      <path class="cls-34" d="m94.63,146.93c.21-.14.46-.43.62-.38,1.11.3,2.19.17,3.31-.02,1.21-.2,2.42,0,3.59.42,4.26,1.54,7,4.46,7.98,8.89.54,2.44.25,4.83-1.18,6.98-1.59.91-3.19,1.74-5.07,1.92-6.08.58-9.8-2.38-10.53-8.42-.4-3.25-.26-6.41,1.28-9.39Z"/>
      <path class="cls-5" d="m94.63,146.93c.24.25.45.53.39.91-.1.6-.15,1.21-.32,1.78-.69,2.29-.41,4.63-.49,6.96-.12,3.54,3.82,7.29,7.2,7.17,1.82-.07,3.62-.07,5.35-.78.67-.28,1.42-.79,2.19-.15-2.01,4.15-6,6.43-10.8,6.19-4.4-.22-8.03-2.87-9.51-6.95-.36-.99-.14-1.51.84-1.78.41-.12.85-.11,1.28-.19,1.22-.21,1.91-.88,2.06-1.97.12-.95-.37-1.86-1.33-2.31-.7-.33-1.45-.57-2.17-.86-.87-.35-1.03-.58-.76-1.27,1.17-3.02,3.04-5.42,6.08-6.76Z"/>
      <path class="cls-34" d="m191.4,148c.83-.97,2.02-1.3,3.12-1.78.23-.1.55-.2.75-.11,1.16.53,2.42.18,3.59.45,4.19.95,7.23,3.29,8.7,7.44.27.76.05,1.13-.72,1.33-.59.15-1.19.25-1.77.44-.4.13-.81.33-1.13.59-1.25,1.03-1.19,2.31.14,3.22.5.34,1.02.64,1.53.97-.39,2.11-2.2,2.57-3.81,3.11-6.83,2.29-12.86-2.98-11.62-10.08.33-1.88,1.1-3.65,1.2-5.58Z"/>
      <path class="cls-13" d="m191.4,148c.66.17,1.12.5.94,1.27-.36,1.51-.82,3-1.12,4.52-.83,4.25,1.26,7.96,5.21,9.18,1.49.46,3.07.35,4.6-.09,1.69-.49,3.19-1.32,4.59-2.34.52-.02,1.04-.06,1.56-.04.25.01.48.18.44.51-.02.17-.03.35-.08.51-1.45,4.41-6.36,8.08-12.15,7.5-4.47-.45-8.87-4.45-9.57-9.06-.64-4.24.64-7.91,3.87-10.82.51-.46,1-.98,1.71-1.15Z"/>
      <path class="cls-11" d="m114.61,226.03c-.03.12-.09.45-.23.76-.25.57-1.12.6-1.5.09-.27-.37-.35-.77-.31-1.2.07-.67.55-1.16,1.13-1.17.56-.01.91.5.9,1.52Z"/>
      <path class="cls-14" d="m114.06,231.18c-.41-.04-.77-.18-1.03-.52.42.01.78.16,1.03.52Z"/>
      <path class="cls-21" d="m147.54,197.18c.18-.16.35-.32.53-.48-.18.16-.35.32-.53.48Z"/>
    </g>
    <g>
      <path class="cls-28" d="m241.05,161.36c-.27-7.85-1.29-15.62-3.04-23.28-4.93-21.52-15.1-40.2-30.94-55.59-13.7-13.31-30.05-21.5-49.1-24-7.49-.98-14.97-.67-22.35.93-16.93,3.69-31.64,11.58-43.91,23.83-13.26,13.23-22.6,28.87-28,46.82-3.72,12.35-5.62,24.96-5.05,37.89.25,5.68,1.15,11.27,2.96,16.66,5.93,17.65,16.49,31.69,32.43,41.53.72.45,1.42.93,2.22,1.45-.33.49-.56.84-.81,1.18-2.05,2.83-3.75,5.86-5.14,9.07-2.7,6.26-4.63,12.75-5.98,19.43-.17.85-.34,1.72-.39,2.58-.05.95.39,1.7,1.33,2.02.82.28,1.66.51,2.51.73,10.91,2.84,22.05,4.23,33.25,5.18,6.25.53,12.52.82,18.78,1.24,11.76.79,23.52.59,35.26-.27,3.73-.27,7.44-.81,11.15-1.33,3.62-.51,7.23-1.11,10.83-1.72,5.49-.94,10.98-1.88,16.32-3.51.5-.15,1-.3,1.49-.48.75-.26,1.11-.84,1.13-1.59.01-.52-.06-1.04-.15-1.55-.78-4.29-1.84-8.5-3.18-12.65-2.07-6.41-4.65-12.57-8.76-17.98-.13-.17-.11-.46-.16-.68,1.02-.63,1.98-1.22,2.94-1.83,9.58-6.08,17.3-13.99,23.29-23.61,7.71-12.39,11.57-25.83,11.07-40.45Zm-29.7,87.62c.18.5.37,1,.55,1.5.61,2.98,1.21,5.96,1.81,8.94.03.16,0,.34,0,.67-.41.17-.86.39-1.32.53-4.33,1.34-8.79,2.11-13.24,2.89-4.88.86-9.77,1.65-14.68,2.32-4.05.55-8.12,1.05-12.19,1.29-8.25.49-16.52.91-24.79.47-8.17-.44-16.34-.84-24.49-1.46-9.98-.76-19.91-1.96-29.7-4.06-2.28-.49-4.55-1.09-6.9-1.65-.25-1.15.01-2.16.23-3.16.63-2.89,1.28-5.76,1.92-8.65.5-.3.98-.19,1.48.04,1.42.65,2.87,1.24,4.29,1.89.45.21.85.52,1.23.76-.7,3.26-.71,3.49-.03,4.98.54-1.64,1.03-3.15,1.54-4.7,2.07.68,3.95,1.29,5.94,1.94.08,1.46.15,2.87.24,4.61.83-.85.81-1.65.99-2.37.14-.56.38-1.09.58-1.65.59.09,1.03.12,1.44.23,12.44,3.25,25.14,4.61,37.95,5.02,11.41.37,22.8-.04,34.15-1.39,6.4-.76,12.73-1.87,18.98-3.4,4.39-1.07,8.7-2.43,12.9-4.1.57-.23,1.1-.57,1.66,0-.18-.5-.37-1-.55-1.5-2.52,1.41-5.26,2.24-8,3.07-10.86,3.3-22.02,4.96-33.31,5.8-3.64.27-7.29.41-10.94.61-.29.11-.58.29-.87.37.29-.08.58-.26.87-.37-3.86,0-7.71,0-11.57,0-7.2-.29-14.4-.68-21.56-1.56-6.9-.85-13.72-2.12-20.45-3.84-.23-.06-.44-.24-.59-.32-.45-.71.1-1.58-.64-2.31-.4.68-.73,1.25-1.15,1.97-1.77-.55-3.49-1.14-5.23-1.62-.74-.2-.54-.99-1.02-1.31-.46.16-.99.56-1.36.44-2.12-.71-4.27-1.34-6.29-2.35,0-.43,0-.77,0-1.11,0,0,0,0,0,0,.99-2.67,1.94-5.36,2.99-8,.37-.95.97-1.81,1.47-2.7-.06-.09-.07-.19-.03-.29.93-2.52,2.3-4.82,3.58-7.26,3.31,1.48,6.53,2.92,9.82,4.4,1.01,2.48,2.05,5.03,3.1,7.59,0,0,0,0,0,0-.31.1-.65.36-.91.29-5.28-1.42-10.51-2.99-15.59-5.02-.04.1-.03.2.03.29.33.26.62.61.99.78,4.91,2.19,9.96,3.95,15.23,5.08.12-.41.64-.74.41-1.21.23.47-.29.8-.41,1.21.87.17,1.23.84,1.64,1.53.93,1.57,1.83,3.17,2.92,4.63,1.09,1.45,2.34,2.8,3.63,4.09.73.72,1.63,1.32,2.54,1.8,2.3,1.2,4.46.75,5.99-1.36.85-1.18,1.42-2.58,2.02-3.92.39-.86.61-1.79.95-2.83,6.17.64,12.29,1.27,18.44,1.37,6.16.11,12.3-.41,18.49-.84.46,1.24.81,2.4,1.33,3.48.52,1.09,1.09,2.2,1.86,3.11,1.48,1.75,3.37,2.14,5.39,1.08,1.22-.63,2.35-1.48,3.37-2.41,2.14-1.95,3.78-4.31,5.2-6.82.49-.86.99-1.63,2.05-1.83.17,0,.36.05.52,0,6.63-1.74,13.19-3.64,19.24-6.97.45-.25.8-.22,1.18.07,0,0,0,0,0,0,1.72,4.34,3.51,8.65,4.67,13.19Zm-72.8-33.93c.76.58,1.48,1.22,2.29,1.71.81.49,1.69.9,2.59,1.21.9.31,1.85.53,2.79.64,1.03.12,2.09.13,3.13.06.95-.06,1.9-.23,2.82-.46.92-.24,1.83-.55,2.69-.95.86-.4,1.69-.91,2.45-1.47.76-.56,1.42-1.25,2.3-2.03,1.72,5.07,4.74,19.69,4.67,22.38-6.91,1.58-25.33,1.27-32.41-.54-.11-2.65,3.15-18.22,4.74-22.5.86.48,1.23,1.4,1.94,1.94Zm-1.15-5.99c4.77-2.63,8.48-6.26,10.42-11.7.28.29.57.46.67.71,1.76,4.57,4.95,7.88,9.09,10.36.44.26.86.56,1.21.79.6,1.39.23,2.41-.68,3.41-1.13,1.24-2.42,2.23-3.95,2.91-5.49,2.46-11.49,1.74-15.9-2.58-1.1-1.07-1.74-2.14-.85-3.91Zm-3.92,30.12c8.55,1.42,17.15,1.33,25.76.86,1.9-.1,3.78-.4,5.72-.61.84,1.7.74,3.49,1.34,5.1-2.96.82-14.57,1.45-20.6,1.15-12-.61-13.5-.76-15.8-1.67.33-1.59.66-3.19.98-4.77.9-.55,1.77-.2,2.59-.06Zm29.25-21.66c-.6-2.34-1.27-4.67-1.95-7.18,1.71.09,3.15,1.01,4.76,1.2,1.64.19,3.27.6,4.91.67,1.73.07,3.48-.07,5.21-.28,1.64-.2,3.27-.51,4.86-.93,1.59-.42,3.16-.97,4.68-1.61,1.5-.63,2.92-1.45,4.69-2.34.35,10.26-.63,19.99-4.18,29.35-1.43,3.76-3.26,7.31-5.66,10.55-1.2,1.61-2.5,3.14-4.12,4.35-2.75,2.06-4.47,1.65-5.99-1.47-1.35-2.77-1.94-5.77-2.49-8.76-1.43-7.88-2.71-15.79-4.71-23.55Zm25.67-13.05c-2.45,1.89-5.22,3.09-8.18,3.92-5.21,1.46-10.43,1.81-15.72.37-5.97-1.63-10.67-4.96-13.93-10.26-.81-1.32-1.59-2.67-2.57-4.33-.97,1.65-1.73,3.02-2.56,4.34-3.83,6.14-9.42,9.59-16.49,10.79-5.76.98-11.26.05-16.6-2.13-1.2-.49-2.38-1.09-3.46-1.8-5.36-3.5-7.5-8.5-6.61-14.8.56-3.94,2.04-7.54,4.22-10.86,2.22-3.38,4.98-6.25,8.2-8.7,5.48-4.18,11.64-6.92,18.32-8.51,11.71-2.78,23.31-2.37,34.76,1.38,5.25,1.72,10.07,4.3,14.38,7.78,4.84,3.91,8.56,8.65,10.55,14.62,1,2.99,1.55,6.05,1.05,9.24-.59,3.72-2.39,6.68-5.35,8.95Zm-82.31,3.76c0-.31.09-.62.18-1.19,3.05,1.78,5.99,3.19,9.2,3.99,3.22.81,6.47,1.35,9.8,1.22,3.31-.13,6.51-.87,9.51-1.94.56.37.33.72.23,1.01-2.06,6.65-3.45,13.46-4.73,20.3-.85,4.53-1.68,9.06-2.6,13.57-.28,1.35-.77,2.67-1.26,3.97-.27.72-.67,1.42-1.13,2.04-1.09,1.47-2.3,1.81-3.85.9-1.18-.69-2.28-1.59-3.26-2.56-1.92-1.91-3.4-4.17-4.74-6.52-3.05-5.35-4.89-11.12-6.07-17.12-1.15-5.84-1.32-11.74-1.27-17.66Zm99.78,25.92c-.05-.1-.1-.2-.15-.3h0c.05.1.1.2.15.3Zm-.15-.3c-.02.26-.03.52-.05.87-6.35,3.13-13.09,5.22-20.03,6.86-.1-.39-.16-.64-.22-.88-.08.1-.14.19-.18.28-.06.14-.08.27-.08.39,0-.13.02-.26.08-.39.04-.09.1-.18.18-.28.45-.82.97-1.62,1.33-2.48.58-1.35,1.05-2.74,1.64-4.3,4.68-1.68,9.45-3.43,14.01-5.97,1.49,1.85,2.09,4.06,3.32,5.9Zm21.58-33.4c-8.37,13.5-20.13,22.92-34.86,28.7-.8.32-1.64.56-2.73.93.57-4.3,1.18-8.24,1.58-12.19.39-3.91.1-7.83-.44-11.72.35-.38.63-.7.94-1,4.06-4.06,5.46-9,4.72-14.59-.9-6.81-4.01-12.55-8.69-17.47-5.16-5.41-11.46-9.02-18.48-11.43-8.43-2.9-17.1-3.89-25.99-3.3-7.64.51-14.97,2.2-21.92,5.43-4.94,2.29-9.41,5.29-13.17,9.26-4.42,4.65-7.48,10.04-8.56,16.43-.8,4.71-.29,9.22,2.52,13.24.84,1.21,1.88,2.27,2.85,3.43-.38,7.9-1.13,9.96,1.01,22.43-.46-.13-.85-.2-1.2-.35-15.81-6.78-27.72-17.77-35.61-33.08-3.13-6.07-5.49-12.41-6.67-19.16-.85-4.82-1.25-9.68-1.09-14.57.46-13.61,3.05-26.8,8.14-39.44,6.72-16.68,16.7-31.12,30.47-42.77,10.55-8.93,22.72-14.81,36.23-17.71,6.67-1.43,13.5-1.82,20.29-1.14,6.6.66,12.97,2.46,19.16,4.9,13.12,5.18,24.33,13.05,33.65,23.64,13.78,15.66,22.74,33.66,26.57,54.19,1.2,6.43,1.95,12.9,2.06,19.45.24,13.73-3.57,26.29-10.76,37.89Z"/>
      <path class="cls-28" d="m198.14,142.58c-8.2,0-15.27,6.24-15.39,15.22-.13,9.16,7.21,15.53,15.29,15.57,8.45.08,15.35-6.66,15.51-15.08.16-8.48-6.49-15.71-15.41-15.71Zm5.92,17.98c.9.47,1.96.62,2.95.92-1.04,4.42-6.01,7.78-10.89,7.31-5.67-.55-9.87-4.86-10.11-10.46-.22-5.14,3.06-9.95,8.68-11.17,5.34-1.16,10.57,1.83,12.28,6.93-.41.1-.84.13-1.21.3-.78.36-1.63.66-2.27,1.2-1.76,1.5-1.5,3.89.56,4.97Zm2.69-.62c-1.57-.06-2.83-.84-3.01-1.81-.18-.96.81-1.94,2.33-2.41,1.27-.39,2.41-.15,3.47.57.9.61.95,1.7.18,2.47-.86.85-1.93,1.11-2.97,1.19Zm1.99-5.77c-2.96-6.57-8.25-9.58-14.26-8.37-5.8,1.17-10.12,6.69-9.92,12.37.19,5.66,4.38,10.8,10.01,11.79,5.8,1.02,11.92-1.63,14.36-8.87.64-.49,1.34-.9,1.85-1.46.49-.54.78-1.26,1.25-2.04.51,7.58-5.66,14.23-13.38,14.43-8,.21-14.08-5.96-14.39-13.21-.39-9.14,6.87-14.94,14.06-14.86,7.25.08,13.76,6.17,13.55,12.86-.51-.57-.9-1.13-1.41-1.56-.53-.44-1.16-.75-1.71-1.08Z"/>
      <path class="cls-28" d="m98.04,142.56c-8.35-.05-15.44,6.37-15.57,15.31-.12,8.51,6.8,15.46,15.37,15.49,8.55.02,15.5-6.91,15.46-15.41-.04-8.43-6.83-15.33-15.25-15.38Zm-.37,29.43c-8.85-.19-14.06-7.55-13.83-14.36.16-7.74,6.68-13.92,14.5-13.69,6.73.2,13.64,5.47,13.49,14.36-.14,8.36-6.9,13.85-14.16,13.69Z"/>
      <path class="cls-28" d="m121.74,74.9c-1.09-.32-2.2-.42-3.35-.26-4.22.61-7.68,2.64-10.55,5.71-.76.81-1.45,1.76-1.94,2.76-2.42,4.88.74,7.75,4.62,7.54.52-.03,1.05,0,1.56-.11,4.89-1.02,8.85-3.49,11.57-7.73.55-.85.91-1.89,1.12-2.88.51-2.35-.73-4.34-3.04-5.02Zm.79,6.29c-.38.77-.86,1.52-1.43,2.17-2.48,2.84-5.57,4.68-9.29,5.42-1.04.21-2.07.22-3.09-.14-1.54-.54-2.21-1.66-1.81-3.25.17-.66.44-1.34.81-1.91,2.48-3.87,6.03-6.17,10.53-7.02.42-.08.87-.07,1.14-.09,3.41.03,4.58,1.89,3.15,4.82Z"/>
      <path class="cls-28" d="m85.55,133.15c.58.37,1.22.69,1.88.85,1.26.29,2.55.44,3.63.62,1.43-.22,2.65-.35,3.83-.6,3.27-.7,6.26-2.02,8.88-4.13,1.29-1.04,2.42-2.23,3.11-3.79,1.12-2.55.3-4.91-2.2-6.1-.77-.37-1.64-.63-2.48-.72-6.35-.7-11.78,1.34-16.41,5.64-1.03.95-1.79,2.12-2.11,3.52-.47,2.01.14,3.61,1.88,4.71Zm-.2-5.05c.64-1.49,1.75-2.59,3-3.54,2.61-1.99,5.56-3.15,8.78-3.75,1.91-.36,3.78-.46,5.68.07,3.14.88,3.99,3.06,2.09,5.69-.6.83-1.36,1.6-2.17,2.23-3.47,2.69-7.43,4.08-11.82,4.18-1.42.03-2.79-.12-4.07-.76-1.74-.86-2.26-2.32-1.49-4.12Z"/>
      <path class="cls-28" d="m192.29,129.9c3.66,2.88,7.88,4.29,12.49,4.61,1.59.05,3.13-.17,4.59-.77,3.03-1.24,4.04-3.95,2.38-6.77-.69-1.17-1.64-2.26-2.69-3.13-3.74-3.09-8.11-4.63-12.93-4.78-1.46-.04-2.94.13-4.33.73-3.03,1.3-3.96,3.89-2.4,6.81.71,1.33,1.73,2.39,2.9,3.31Zm-.46-8.45c1.08-.5,2.32-.9,3.49-.91,5.15-.04,9.75,1.55,13.57,5.09.75.69,1.37,1.6,1.8,2.52.81,1.75.17,3.27-1.56,4.11-1.37.67-2.85.75-4.34.72-4.38-.22-8.32-1.64-11.76-4.39-1.09-.88-2.03-1.91-2.58-3.23-.72-1.71-.32-3.12,1.39-3.91Z"/>
      <path class="cls-28" d="m140.98,72.74c-3.41.26-6.15,1.79-8.02,4.64-1.88,2.85-.28,5.69,3.14,5.77.09,0,.17,0,.26,0,3.28-.34,5.98-1.74,7.9-4.45.9-1.26,1.3-2.72.52-4.17-.79-1.47-2.22-1.83-3.8-1.78Zm2.14,4.46c-1.03,2.16-4.24,4.1-7,4.11-.17-.02-.51-.04-.85-.11-1.08-.21-1.61-1.08-1.22-2.13.21-.56.53-1.1.91-1.56,1.44-1.76,3.39-2.64,5.57-3.06.33-.06.69-.05,1.04-.01,1.65.16,2.26,1.26,1.55,2.75Z"/>
      <path class="cls-28" d="m97.37,101.25c2.22-.06,5.03-2.24,5.65-4.38.53-1.87-.69-3.39-2.62-3.09-2.6.4-4.4,1.96-5.34,4.4-.66,1.71.46,3.13,2.31,3.08Zm.53-4.37c1.25-1.19,3.02-1.72,3.34-1.03.3.66-.5,2-1.79,2.85-.77.51-1.58,1.05-2.66.61-.19-1.09.44-1.79,1.11-2.43Z"/>
      <path class="cls-28" d="m129.1,68.01c-1.62.09-2.74.98-3.47,2.35-.33.63-.36,1.36.09,1.98.5.69,1.24.97,2.06.8,1.32-.27,2.42-.92,3.11-2.14.41-.72.54-1.45.03-2.19-.44-.65-1.07-.83-1.81-.81Zm-1.85,3.18c.2-.35.26-.64.44-.76.4-.28.86-.48,1.78-.98-.51,1.54-1.14,1.88-2.22,1.74Z"/>
      <path class="cls-28" d="m171.97,169.76c-1.1-.53-2.28-.78-3.52-.85-2.78-.16-5.44,1.59-5.57,5.35.32,1.25.49,2.58,1,3.75,1.73,3.99,4.64,6.91,8.59,8.72,1.01.46,2.15.75,3.26.87,3.75.4,6.05-2.06,5.96-5.23-.05-1.7-.47-3.27-1.27-4.74-1.94-3.55-4.82-6.12-8.45-7.87Zm3.74,16.24c-.77-.12-1.54-.34-2.25-.65-3.94-1.74-6.71-4.63-8.16-8.69-.34-.96-.46-2.04-.43-3.06.06-1.78,1.2-2.94,2.96-3.04,1.02-.05,2.13,0,3.08.32,4.62,1.6,7.44,4.97,8.93,9.53.19.57.17,1.2.22,1.54.02,3.01-1.64,4.48-4.36,4.05Z"/>
      <path class="cls-28" d="m127.28,168.98c-.69.06-1.39.17-2.03.41-4.78,1.82-8.27,5.02-10.25,9.79-.58,1.4-.76,2.85-.51,4.35.34,2.08,1.62,3.4,3.69,3.9,1.97.48,3.83,0,5.57-.82,3.67-1.72,6.4-4.46,8.17-8.11.61-1.26,1.03-2.59,1.04-4.01.2-3.15-1.89-5.85-5.68-5.5Zm3.98,5.56c-.08.93-.31,1.9-.68,2.76-1.58,3.64-4.14,6.37-7.79,8-.86.38-1.8.67-2.73.79-2.5.32-4.21-1.23-4.18-3.77,0-.77.13-1.58.39-2.3,1.53-4.3,4.23-7.52,8.63-9.1.8-.29,1.67-.39,2.09-.48,3.06,0,4.5,1.48,4.28,4.09Z"/>
      <path class="cls-28" d="m99.14,248.89c.85-2.11,1.62-4.24,1.35-6.63-1.37,1.98-1.56,4.26-1.35,6.63Z"/>
      <path class="cls-28" d="m98.57,255.6c-.6,1.56-.39,3.1.17,5.12.74-2.03.8-3.63.58-5.35-.32.09-.7.1-.75.24Z"/>
      <path class="cls-28" d="m169.08,224.73c.76-.09,1.3-.65,1.38-1.35.11-.92.1-1.89-.09-2.79-.18-.86-.8-1.51-1.86-1.82-.97.42-1.49,1.05-1.61,1.98-.13,1.04-.09,2.06.5,2.99.39.62.91,1.08,1.67.99Zm-1.25-4.51c.07-.26.46-.57.73-.6.27-.02.7.21.84.45.68,1.21.88,2.44-.3,3.69-1.1-.25-1.3-1.07-1.44-1.8-.11-.55.02-1.19.18-1.75Z"/>
      <path class="cls-28" d="m170.03,227.22c-.38-.26-.81-.2-1.01.33,1.43.61,1.85,1.61,1.14,2.86-.07.13-.58.01-.88.01-.1-.94-.19-1.88-.29-2.83-.89,1.03-.84,2.09-.07,3.17.82.99,1.5,1.11,1.95.37.73-1.21.36-3.09-.83-3.92Z"/>
      <path class="cls-28" d="m169,227.55h.02s0,0,0,0c-.02,0-.03-.01-.04-.02,0,.02,0,.05,0,.07.01-.01.02-.03.03-.04,0,0,0,0-.02-.01Z"/>
      <path class="cls-28" d="m112.34,222.72c.6-.79.83-1.7.75-2.65.04-1.12-.25-2.1-.93-2.94-.88-1.1-2.3-1.02-3.02.17-.87,1.44-.72,4.14.3,5.43.79.99,2.14,1,2.89,0Zm-2.47-4.68c.3-.49.98-.6,1.29-.17,1.05,1.46.88,2.98-.48,4.29-.76-.4-1.08-1.08-1.19-1.88-.11-.78-.05-1.54.39-2.24Z"/>
      <path class="cls-28" d="m112.98,230.78c-.81.1-1.13.76-1.33,1.44-.34,1.14-.12,2.24.39,3.29.51,1.04,1.24,1.57,1.95,1.44.75-.14,1.2-.87,1.25-2.04,0-.09,0-.17.01-.21-.02-1.11-.13-2.15-.79-3.02-.37-.49-.8-.98-1.49-.89Zm1.48,4.6c-.05.21-.32.49-.5.51-.29.02-.71-.06-.88-.26-.81-.94-.88-2.07-.22-4.19.54.35.95.49,1.18.78.73.96.71,2.07.43,3.17Z"/>
      <path class="cls-28" d="m113.08,227.5c.42.4,1.26.28,1.59-.23.55-.86.46-1.85-.29-2.59-.17-.17-.45-.22-.7-.33-.24.11-.52.16-.68.33-.69.71-.63,2.13.08,2.81Zm.52-1.88c.11.19.23.37.3.57,0,.02-.24.15-.45.27-.09-.21-.2-.4-.22-.6,0-.06.24-.15.37-.23Z"/>
      <path class="cls-28" d="m88.56,151.47c-.88,1.48-1.59,2.92-3.15,3.94-1.61,1.05-1.53,2.82-.14,4.28.53.55,1.22.95,1.84,1.43.23.56.43,1.13.69,1.68,2.33,4.86,6.18,7.43,11.6,7.34,4.98-.08,8.61-2.54,10.85-6.9,2.33-4.54,1.74-8.94-1.36-12.9-5.67-7.26-16.09-5.98-20.32,1.13Zm-2.17,7.29c-.84-.81-.71-2.05.34-2.61.6-.32,1.28-.48,1.77-.65,1.34.14,2.43.38,3.25,1.27.71.76.56,1.9-.31,2.47-1.48.97-3.77.76-5.05-.48Zm23.5-2.34c.76,6.38-3.47,10.89-8.14,12-5.58,1.33-10.92-1.56-12.73-6.93,1.04-.3,2.02-.42,2.85-.84,2.3-1.16,2.55-3.73.49-5.28-.87-.65-1.99-.96-3.2-1.52.2-1.66,1.42-2.89,2.64-4.04,1.97-1.85,4.36-2.74,7.09-2.83,5.59-.18,10.38,4.12,11.01,9.43Z"/>
    </g>
  </g>
</svg>