<?xml version="1.0" encoding="UTF-8"?>
<svg xmlns="http://www.w3.org/2000/svg" viewBox="0 0 300 299.76">
  <defs>
    <style>
      .cls-1 {
        fill: #fff;
      }

      .cls-2 {
        opacity: .7;
      }

      .cls-2, .cls-3, .cls-4 {
        mix-blend-mode: multiply;
      }

      .cls-3 {
        opacity: .4;
      }

      .cls-3, .cls-5 {
        fill: #f3764e;
      }

      .cls-4 {
        opacity: .5;
      }

      .cls-4, .cls-6 {
        fill: #ffdda3;
      }

      .cls-7 {
        isolation: isolate;
      }

      .cls-8 {
        fill: #d95631;
      }

      .cls-9 {
        fill: #bbdaf3;
      }

      .cls-10 {
        fill: #f38186;
      }

      .cls-11 {
        mix-blend-mode: overlay;
        opacity: .3;
      }

      .cls-12 {
        fill: #8a322e;
      }
    </style>
  </defs>
  <g class="cls-7">
    <g id="Layer_1" data-name="Layer 1">
      <g>
        <g>
          <path class="cls-9" d="m168.38,264.89c32.74-6.71,66.71-22.42,80.74-40.98,14.04-18.56-18.6-17.99-13.33-32.31,5.27-14.32,31.9-40.77,6.13-89.08-25.77-48.31-105.56-86.07-171.64-21.41-76.44,74.79-21.82,208.35,98.1,183.77Z"/>
          <path class="cls-9" d="m264.13,197.46c5.57-13.38-17.08-16.79-23.39-7.03-6.31,9.77,17.07,22.21,23.39,7.03Z"/>
          <path class="cls-9" d="m257.75,180.15c8.95-6.07,1.94-16.78-7.21-8.78s-1.75,14.85,7.21,8.78Z"/>
        </g>
        <g>
          <g>
            <path class="cls-5" d="m179.13,219.15h-58.22c-29.11,2.68-42.6,35.52-42.6,35.52,22.84,20.3,71.71,19.88,71.71,19.88,0,0,48.88.42,71.71-19.88,0,0-13.49-32.84-42.6-35.52Z"/>
            <path class="cls-6" d="m171.58,234.04c-2.07-3.88-1.53-9.7-.53-14.42h-42.05c1,4.72,1.54,10.54-.53,14.42-3.7,6.94-17.82,16.51-17.98,35.71,20.09,4.97,39.53,4.81,39.53,4.81,0,0,19.44.16,39.53-4.81-.15-19.2-14.28-28.76-17.98-35.71Z"/>
            <g>
              <path class="cls-8" d="m101.3,232.78c-3.13,3.58-.44,8.28,3.14,4.36,3.57-3.92,1.05-9.16-3.14-4.36Z"/>
              <path class="cls-8" d="m105.6,243.91c1.66-2.54-.78-4.89-2.53-2.45-2.61,3.65.87,4.99,2.53,2.45Z"/>
              <path class="cls-8" d="m95.96,242.31c-2.96,3.66-1.31,8.63,1.92,4.62,3.23-4.01,1.05-8.28-1.92-4.62Z"/>
              <path class="cls-8" d="m86.56,240.65c.43,2.29,2.75,3.18,6.37.59,4.96-3.55,4.8-8.94,2.31-10.21-3.42,3.09-6.31,6.44-8.68,9.63Z"/>
            </g>
            <g>
              <path class="cls-8" d="m192.07,251.9c-4.91.41-4.8-5.03-1.03-4.35,3.77.69,3.77,4.12,1.03,4.35Z"/>
              <path class="cls-8" d="m195.62,244.35c-2.86,0-2.25,3.31.76,3.14,3.01-.17,2.1-3.14-.76-3.14Z"/>
              <path class="cls-8" d="m198.94,255.23c-5.17-2.44-2.74-7.96,1.72-5.12,4.46,2.84,2.96,7.33-1.72,5.12Z"/>
            </g>
            <path class="cls-3" d="m120.91,219.15c-6.8.63-12.73,2.91-17.85,6.02,21.85,9.54,46.92,9.95,46.92,9.95,0,0,25.11-.41,46.97-9.97-5.11-3.1-11.03-5.37-17.81-5.99h-58.22Z"/>
            <path class="cls-12" d="m222.41,254.4c-1.21-2.94-2.79-5.75-4.44-8.46-3.69-6.02-8.18-11.63-13.52-16.27-6.41-5.57-14.12-9.66-22.56-10.99-3.37-.53-6.78-.35-10.19-.35-13.17,0-26.33,0-39.5,0-3.71,0-7.43-.11-11.14,0-7.45.22-15.06,3.62-21.07,7.83-9.62,6.74-17.38,16.81-22.14,27.53-.11.24-.21.48-.31.72-.37.89,1.08,1.28,1.45.4.06-.16-.1.22,0,0,.07-.17.14-.33.22-.49.27-.6.55-1.18.84-1.77.99-1.99,2.07-3.94,3.23-5.83,3.63-5.92,8.03-11.41,13.28-15.97,6.38-5.54,14.12-9.53,22.54-10.7,3.12-.44,6.35-.2,9.5-.2h38.84c3.76,0,7.53-.07,11.29,0,2.93.06,5.97.83,8.75,1.72,4.05,1.3,7.87,3.25,11.37,5.66,9.56,6.58,17.18,16.57,21.91,27.12.07.15.13.3.2.45.1.24-.04-.11,0,.02.36.88,1.81.49,1.45-.4h0Z"/>
          </g>
          <g>
            <g>
              <g>
                <path class="cls-12" d="m132.27,88.12s-10.04-5.74-15.69-14.32c0,0,9.89-7.74,9.65-17.58s-4.71-12.76-7.91-9.63c-3.21,3.14,3.39,14.98-6.18,20.21,0,0-12.54-14.06-16.34-32.35-2.95-14.19-9.44-9.86-8.94-1.48.79,13.05,7.53,21.79,7.53,21.79,0,0-1.33,5.23-6.94-.84s-7.29.21-3.1,5.86c4.19,5.65,10.2,7.53,14.62,4.81,0,0,12.46,20,25.14,25.82l8.16-2.29Z"/>
                <g class="cls-2">
                  <path class="cls-12" d="m96.41,60.31c-2.15.55-4.3.38-6.27-.66-.93-.49-1.78-1.12-2.59-1.79s-1.54-1.41-1.94-2.4c-.07-.18-.41-.19-.38.05.14,1.1.85,1.94,1.64,2.67.89.83,1.9,1.59,2.98,2.17,1.98,1.06,4.76,1.63,6.61.04.04-.03,0-.09-.05-.08h0Z"/>
                  <path class="cls-12" d="m99.28,51.27c-1.77-3.45-3.28-7.08-4.56-10.74s-2.11-7.27-3.08-10.93c-.03-.11-.21-.09-.2.03.43,7.71,3.56,15.3,7.72,21.71.05.08.16,0,.12-.07h0Z"/>
                  <path class="cls-12" d="m108.02,71.14c-4.12-4.05-7.06-9.06-9.71-14.15-2.88-5.54-5.71-11.21-7.12-17.33-.04-.17-.29-.1-.26.07,1.21,6.24,3.88,12,6.78,17.61,2.66,5.15,5.6,10.24,10.12,13.98.12.1.29-.06.18-.18h0Z"/>
                  <path class="cls-12" d="m115.13,67.74c3.51-3.89,5.53-9.52,4.58-14.75-.05-.26-.47-.2-.46.06.07,2.59-.1,5.18-.79,7.68s-1.87,4.88-3.39,6.95c-.03.04.04.1.07.06h0Z"/>
                  <path class="cls-12" d="m120.73,63.6c.17-.62.53-1.21.77-1.81.21-.53.4-1.07.55-1.63.31-1.16.49-2.36.57-3.56.17-2.41-.1-4.93-1.01-7.18-.11-.26-.51-.17-.44.12.59,2.28.99,4.57.93,6.93-.03,1.21-.18,2.4-.43,3.58-.23,1.11-.42,2.52-1.04,3.5-.04.06.07.11.09.04h0Z"/>
                  <path class="cls-12" d="m116.13,77.51c-2.3-2.71-4.63-5.42-6.78-8.25s-3.94-5.67-5.69-8.68c-.1-.18-.42-.06-.34.14,1.27,3.19,3.32,6.13,5.44,8.8,2.26,2.84,4.76,5.46,7.29,8.07.06.06.14-.03.09-.09h0Z"/>
                </g>
              </g>
              <g>
                <path class="cls-12" d="m167.73,88.12s10.04-5.74,15.69-14.32c0,0-9.89-7.74-9.65-17.58.24-9.84,4.71-12.76,7.91-9.63,3.21,3.14-3.39,14.98,6.18,20.21,0,0,12.54-14.06,16.34-32.35,2.95-14.19,9.44-9.86,8.94-1.48-.79,13.05-7.53,21.79-7.53,21.79,0,0,1.33,5.23,6.94-.84,5.61-6.07,7.29.21,3.1,5.86-4.19,5.65-10.2,7.53-14.62,4.81,0,0-12.46,20-25.14,25.82l-8.16-2.29Z"/>
                <g class="cls-2">
                  <path class="cls-12" d="m203.54,60.38c1.86,1.59,4.63,1.02,6.61-.04,1.05-.56,2.04-1.3,2.92-2.11.81-.75,1.56-1.6,1.7-2.73.03-.24-.31-.24-.38-.05-.39.96-1.09,1.69-1.88,2.35-.83.7-1.7,1.34-2.66,1.85-1.97,1.04-4.12,1.21-6.27.66-.04-.01-.08.05-.05.08h0Z"/>
                  <path class="cls-12" d="m200.84,51.34c4.16-6.41,7.29-14,7.72-21.71,0-.12-.17-.14-.2-.03-.97,3.66-1.83,7.35-3.08,10.93s-2.79,7.29-4.56,10.74c-.04.08.07.15.12.07h0Z"/>
                  <path class="cls-12" d="m192.15,71.32c4.52-3.74,7.46-8.83,10.12-13.98,2.9-5.61,5.58-11.37,6.79-17.61.03-.17-.22-.24-.26-.07-1.41,6.12-4.24,11.79-7.12,17.33-2.65,5.08-5.59,10.1-9.71,14.15-.12.11.05.28.18.18h0Z"/>
                  <path class="cls-12" d="m184.95,67.69c-1.53-2.07-2.7-4.47-3.39-6.95s-.86-5.09-.79-7.68c0-.26-.41-.33-.46-.06-.96,5.24,1.06,10.86,4.58,14.75.04.04.11-.01.07-.06h0Z"/>
                  <path class="cls-12" d="m179.36,63.56c-.62-.97-.81-2.38-1.04-3.5-.24-1.18-.4-2.37-.43-3.58-.06-2.36.35-4.65.93-6.93.07-.29-.33-.38-.44-.12-.91,2.25-1.18,4.77-1.01,7.18.08,1.16.26,2.32.54,3.44.15.59.36,1.17.58,1.74.24.6.6,1.19.77,1.81.02.07.13.02.09-.04h0Z"/>
                  <path class="cls-12" d="m183.96,77.6c2.52-2.61,5.02-5.23,7.29-8.07,2.13-2.67,4.17-5.62,5.44-8.8.08-.2-.24-.32-.34-.14-1.76,3.01-3.58,5.9-5.69,8.68s-4.48,5.54-6.78,8.25c-.05.06.03.15.09.09h0Z"/>
                </g>
              </g>
            </g>
            <g>
              <g>
                <path class="cls-6" d="m195.2,95.65c-24.6-17.31-65.8-17.31-90.39,0-36.67,25.81-40.25,75.95-29.34,97.78,16.37,32.73,74.53,33.68,74.53,33.68,0,0,58.16-.95,74.53-33.68,10.92-21.84,7.33-71.97-29.34-97.78Z"/>
                <path class="cls-4" d="m224.53,184.71c-16.37,32.73-74.53,33.68-74.53,33.68,0,0-58.16-.95-74.53-33.68-2.95-5.91-4.83-13.9-5.3-22.91-.62,12.55,1.42,23.89,5.3,31.65,16.37,32.73,74.53,33.68,74.53,33.68,0,0,58.16-.95,74.53-33.68,3.88-7.76,5.91-19.1,5.3-31.65-.46,9.01-2.34,17-5.3,22.91Z"/>
                <path class="cls-5" d="m228.07,147.82c-3.85-19.05-13.95-38.85-32.87-52.17-24.6-17.31-65.8-17.31-90.39,0-18.92,13.32-29.02,33.12-32.87,52.17,4-9.98,13.28-24.76,33.5-26.39,30.84-2.48,40.62,43.68,41.08,52.04h6.98c.47-8.36,10.25-54.52,41.08-52.04,20.22,1.63,29.5,16.41,33.5,26.39Z"/>
                <g>
                  <path class="cls-8" d="m153.38,87.13c-10.9-4.16-21.37,3.46-8.7,10.9,14.96,8.79,28.86-3.21,8.7-10.9Z"/>
                  <path class="cls-8" d="m130.98,92.62c-7.11-.59-9.04,7.61.93,7.27,9.97-.34,4.14-6.85-.93-7.27Z"/>
                  <path class="cls-8" d="m140.45,107.75c-5.75-1.58-2.79-6.51,1.44-4.73s2.87,5.92-1.44,4.73Z"/>
                  <path class="cls-8" d="m156.67,112.06c-6.44-.57-8.2-7.35,2.03-5.49,10.23,1.86,7.44,6.34-2.03,5.49Z"/>
                  <path class="cls-8" d="m171.74,99.2c-4.91-1.01-6,2.93-.68,3.88,4.77.85,5.24-2.94.68-3.88Z"/>
                  <path class="cls-8" d="m173.1,95.96c-8.76-2.33-6.42-9.12,1.77-6.75,8.2,2.37,7.34,9.17-1.77,6.75Z"/>
                </g>
              </g>
              <path class="cls-12" d="m195.57,95.01c-17.41-12.18-40.61-15.28-61.24-11.76-10.27,1.75-20.42,5.32-29.08,11.19s-15.63,13.17-21.23,21.65c-10.02,15.17-15.08,33.71-14.71,51.86.15,7.27,1.14,14.68,3.65,21.54s7.2,13.31,13,18.2c12.02,10.13,27.85,15.11,43.08,17.87,5.43.98,10.91,1.69,16.42,2.08,1.67.12,3.36.27,5.04.22,10.31-.33,20.72-1.95,30.69-4.55,15.2-3.95,31.13-10.85,40.61-23.95,4.16-5.76,6.51-12.48,7.73-19.44,1.41-8.01,1.48-16.24.54-24.3-2.18-18.73-9.88-36.96-22.96-50.68-3.51-3.68-7.39-6.99-11.54-9.93-.79-.56-1.54.74-.76,1.3,16.01,11.33,26.81,28.5,31.57,47.4,2.09,8.3,3.06,16.91,2.76,25.47-.24,7.02-1.31,14.14-3.86,20.71-5.74,14.8-20.09,23.72-34.41,28.88-11.79,4.25-24.35,6.56-36.84,7.41-5.13.35-10.18-.07-15.29-.67-14.25-1.68-28.78-5.1-41.47-11.98-6.92-3.75-13.36-8.68-17.96-15.13-4.03-5.65-6.26-12.19-7.44-18.98-2.9-16.63-.18-34.5,6.56-49.89,7.98-18.21,22.46-33.75,41.28-40.81,19.61-7.36,42.72-7.19,62.17.64,4.55,1.83,8.9,4.15,12.92,6.97.79.55,1.54-.75.76-1.3Z"/>
              <g>
                <g>
                  <g>
                    <path class="cls-1" d="m111.28,147.28c-15.59-.39-18.55,18.35-13.22,26.83,2.66,4.24,5.99,7.19,13.22,7.19s10.56-2.95,13.22-7.19c5.33-8.48,2.37-27.23-13.22-26.83Z"/>
                    <path class="cls-12" d="m126.95,158.77c-1.15-4.25-3.61-8.2-7.54-10.38s-9.11-2.47-13.37-1.21c-7.24,2.15-10.91,9.47-11.16,16.61-.13,3.68.58,7.54,2.53,10.7.51.82,1.8.07,1.3-.76-3.15-5.12-3.05-12.35-.53-17.7,1.39-2.94,3.62-5.43,6.6-6.8,3.58-1.64,8.31-1.7,11.99-.41,4.61,1.62,7.49,5.76,8.73,10.33.25.93,1.7.54,1.45-.4h0Z"/>
                    <ellipse class="cls-12" cx="115.34" cy="164.85" rx="9.86" ry="12.19"/>
                  </g>
                  <g>
                    <path class="cls-1" d="m188.72,147.28c15.59-.39,18.55,18.35,13.22,26.83-2.66,4.24-5.99,7.19-13.22,7.19s-10.56-2.95-13.22-7.19c-5.33-8.48-2.37-27.23,13.22-26.83Z"/>
                    <path class="cls-12" d="m174.5,159.17c1.08-3.99,3.38-7.67,7.13-9.63s8.47-2.05,12.31-.79c6.44,2.11,9.53,8.92,9.68,15.29.08,3.35-.56,6.82-2.33,9.7-.51.82.79,1.58,1.3.76,3.54-5.75,3.3-13.86.26-19.76-1.62-3.15-4.23-5.72-7.52-7.07-4.09-1.68-9.36-1.63-13.41.08-4.64,1.97-7.58,6.27-8.87,11.02-.25.93,1.19,1.33,1.45.4h0Z"/>
                    <ellipse class="cls-12" cx="184.66" cy="164.85" rx="9.86" ry="12.19"/>
                  </g>
                  <g>
                    <path class="cls-10" d="m95.88,192.49c-15.03-3.45-10.22-13.72,0-11.28,14.15,3.38,12.3,14.1,0,11.28Z"/>
                    <path class="cls-10" d="m204.12,192.49c15.03-3.45,10.22-13.72,0-11.28-14.15,3.38-12.3,14.1,0,11.28Z"/>
                  </g>
                  <path class="cls-12" d="m104.43,145.4c2.64-1.13,6.25-1.93,10.43-.43,2.99,1.07,4.65-1.32,2.46-3.04-2.52-1.97-8.85-3.12-13.28-.95-4.42,2.17-4.12,3.66-3.77,4.5.35.84,1.68.97,4.16-.09Z"/>
                  <path class="cls-12" d="m195.57,145.4c-2.64-1.13-6.25-1.93-10.43-.43-2.99,1.07-4.65-1.32-2.46-3.04,2.52-1.97,8.85-3.12,13.28-.95,4.42,2.17,4.12,3.66,3.77,4.5s-1.68.97-4.16-.09Z"/>
                </g>
                <g>
                  <g>
                    <path class="cls-12" d="m149.25,177.04v15.23c0,.97,1.5.97,1.5,0v-15.23c0-.97-1.5-.97-1.5,0h0Z"/>
                    <g>
                      <path class="cls-12" d="m130.97,186.18c.6-.02,1.3,0,1.86.24.33.14.31.45.39.92.25,1.43.56,2.84,1.13,4.19,1.77,4.19,6.05,6.39,10.5,5.05,2.18-.66,4.22-2.03,5.68-3.78.62-.73-.44-1.8-1.06-1.06-2.72,3.24-7.97,5.3-11.6,2.25-1.32-1.11-2.11-2.7-2.6-4.32-.33-1.11-.43-2.27-.73-3.39-.4-1.47-2.28-1.64-3.57-1.6-.96.03-.97,1.53,0,1.5h0Z"/>
                      <path class="cls-12" d="m169.03,184.68c-1.18-.03-3.02.09-3.51,1.39-.36.94-.38,2.05-.63,3.02-.42,1.6-1.07,3.2-2.24,4.41-1.61,1.67-4.06,2.29-6.32,1.83s-4.33-1.83-5.81-3.59c-.62-.74-1.68.33-1.06,1.06,2.84,3.38,7.73,5.32,11.93,3.4,3.33-1.52,4.7-5.08,5.31-8.45.05-.27.09-.53.14-.8.02-.1.02-.21.06-.3.03-.07.1-.17.03-.1.42-.44,1.52-.38,2.09-.37.97.03.97-1.47,0-1.5h0Z"/>
                    </g>
                  </g>
                  <path class="cls-12" d="m156.59,168.74c-2.27-1.65-11.4-1.65-13.67,0-1.89,1.37-3.35,4.17-1.25,7.9,2.1,3.73,14.07,3.73,16.17,0,2.1-3.73.64-6.53-1.25-7.9Z"/>
                  <g class="cls-11">
                    <path class="cls-1" d="m142.96,173.83c-.41-2.88,2.88-3.93,5.11-4.08,1.25-.09,2.51-.03,3.74.2s2.45.74,3.7,1.07c.33.09.48-.34.22-.52-1.25-.87-2.89-1.23-4.38-1.44s-2.92-.21-4.37,0c-1.27.19-2.62.62-3.54,1.57-.85.88-1.24,2.13-.8,3.29.08.2.35.12.32-.09h0Z"/>
                  </g>
                </g>
              </g>
            </g>
            <g>
              <g>
                <path class="cls-5" d="m110.53,96.12s-10.76,5.27-21.57-8.7-22.14-27.41-31.63-26.1c-9.49,1.32-8.7,61.94,31.89,52.72l21.3-17.92Z"/>
                <g>
                  <path class="cls-6" d="m98.98,103.77s-7.84,3.74-18.72-9.87c-8.43-10.55-7.04-17.11-19.24-24.4,0,0-6.53,17.46,5.54,31.89,12.34,14.76,27.37,8.7,27.37,8.7"/>
                  <path class="cls-12" d="m98.61,103.12s.19-.06-.05.02c-.21.06-.42.13-.63.18-.73.17-1.49.2-2.24.16-2.97-.16-5.76-1.63-8.11-3.36-4.21-3.09-7.6-7.38-10.31-11.8-1.95-3.18-3.47-6.61-5.48-9.75-2.62-4.1-6.23-7.21-10.37-9.71-.44-.27-.94,0-1.1.45-.84,2.26-1.25,4.72-1.53,7.1-.61,5.25-.15,10.68,1.62,15.68,3.89,10.98,14.06,20.03,26.06,20,2.54,0,5.3-.31,7.68-1.26.89-.35.5-1.81-.4-1.45-5.92,2.37-13.3,1.28-18.73-1.77-10.62-5.98-15.88-18.21-14.85-30.05.23-2.63.67-5.36,1.6-7.85l-1.1.45c3.93,2.37,7.35,5.28,9.84,9.17,2.16,3.39,3.78,7.09,5.93,10.48,2.75,4.33,6.13,8.44,10.26,11.51,2.54,1.88,5.5,3.37,8.69,3.64,1.31.11,2.78.03,3.99-.53.87-.41.11-1.7-.76-1.3h0Z"/>
                </g>
                <g>
                  <path class="cls-8" d="m79.12,84.11c-3.5-1.86-1.99-5.32.67-3.23,2.66,2.09,2.37,4.85-.67,3.23Z"/>
                  <path class="cls-8" d="m96.4,94.37c-2.38-1.48-4.9-3.68-7.43-6.94-.41-.53-.81-1.05-1.22-1.57-4.13-.37-8.95,1.52-4.72,6.72,4.04,4.96,11.02,4.77,13.37,1.8Z"/>
                </g>
                <path class="cls-12" d="m107.15,96.24c-6.32.71-11.91-2.78-15.99-7.34-3.26-3.65-6.08-7.71-9.23-11.45-2.92-3.46-5.97-6.86-9.35-9.88-2.6-2.33-5.44-4.53-8.68-5.9-2.1-.89-4.82-1.64-7.1-1-1.88.53-2.91,2.59-3.55,4.27-2.36,6.16-1.97,13.58-.99,19.97,1.21,7.98,4.08,16.1,9.5,22.21,6.04,6.81,14.77,9.48,23.68,8.34,1.33-.17,2.66-.41,3.97-.7.94-.21.54-1.66-.4-1.45-8.74,1.96-17.88.78-24.56-5.56-5.7-5.42-8.8-13.12-10.31-20.71-1.28-6.44-1.74-13.63,0-20.03.45-1.66,1.21-3.86,2.61-4.71,1.23-.74,3.65-.25,5.11.2,3.28,1.01,6.18,3.13,8.75,5.34,6.74,5.77,12.23,12.94,17.65,19.91,3.96,5.09,9.33,9.55,16,10.05.96.07,1.91.05,2.87-.06s.96-1.61,0-1.5h0Z"/>
              </g>
              <g>
                <path class="cls-5" d="m189.47,96.12s10.76,5.27,21.57-8.7c10.81-13.97,22.14-27.41,31.63-26.1s8.7,61.94-31.89,52.72l-21.3-17.92Z"/>
                <g>
                  <path class="cls-8" d="m241.92,71.23c-6.77,3.62-2.14,12.54,1.33,8.68,3.48-3.86,2.96-10.97-1.33-8.68Z"/>
                  <path class="cls-8" d="m226.51,88.72c4.64-.07,11.33-4.3,2.32-6.88-9.01-2.58-10.4,7.01-2.32,6.88Z"/>
                  <path class="cls-8" d="m241.8,61.24c-5.56-.25-11.71,4.3-18,10.9.71,4.88,4.86,8.34,11.22,3.77,5.03-3.62,7.49-10.31,6.78-14.67Z"/>
                </g>
                <g>
                  <path class="cls-6" d="m201.02,103.76s7.84,3.74,18.72-9.87c8.43-10.55,7.04-17.11,19.24-24.4,0,0,6.53,17.46-5.54,31.89-12.34,14.76-27.37,8.7-27.37,8.7"/>
                  <path class="cls-12" d="m200.64,104.41c3.62,1.7,8.34-.23,11.39-2.2,4.27-2.76,7.72-6.76,10.57-10.92,2.36-3.44,4.09-7.21,6.2-10.79,2.6-4.42,6.18-7.71,10.56-10.35l-1.1-.45c2.48,6.67,2.33,14.79.09,21.46-3.6,10.75-13.56,19.66-25.26,19.41-2.27-.05-4.69-.35-6.82-1.2-.9-.36-1.29,1.09-.4,1.45,6.22,2.49,14.02,1.32,19.73-1.84,10.97-6.06,16.67-18.67,15.79-30.89-.21-2.93-.66-6.01-1.69-8.78-.16-.44-.66-.72-1.1-.45-3.73,2.25-7.07,4.98-9.6,8.55-2.11,2.98-3.6,6.34-5.42,9.5-2.57,4.46-5.75,8.69-9.68,12.04-2.49,2.12-5.5,4.01-8.8,4.46-.92.12-1.89.14-2.81-.04-.26-.05-.52-.12-.78-.2-.22-.07-.2-.07-.12-.04-.87-.41-1.63.89-.76,1.3h0Z"/>
                </g>
                <path class="cls-12" d="m192.85,97.74c5.38.61,10.51-1.72,14.49-5.23,3.45-3.04,6.04-6.94,8.91-10.5s5.77-6.99,8.93-10.22c2.65-2.7,5.48-5.31,8.72-7.3,2.45-1.5,5.42-2.82,8.37-2.46.79.1,1.17.32,1.72.95s.99,1.53,1.31,2.36c2.24,5.81,1.92,12.84,1.04,18.89-1.13,7.69-3.76,15.59-8.9,21.55-5.71,6.61-13.91,9.26-22.49,8.25-1.33-.16-2.65-.4-3.96-.7-.94-.21-1.34,1.24-.4,1.45,9.06,2.03,18.53.86,25.59-5.55,6.05-5.5,9.42-13.5,11.04-21.38,1.4-6.8,1.92-14.38.09-21.16-.53-1.94-1.33-4.27-3.05-5.49-1.18-.84-2.75-.79-4.13-.63-3.08.35-5.92,1.84-8.43,3.59-7.22,5.03-12.91,12.24-18.32,19.08-4.58,5.8-9.54,12.41-17.54,13.07-.99.08-1.99.06-2.98-.05s-.95,1.39,0,1.5h0Z"/>
              </g>
            </g>
          </g>
        </g>
      </g>
    </g>
  </g>
</svg>