<?xml version="1.0" encoding="UTF-8"?>
<svg id="Layer_1" data-name="Layer 1" xmlns="http://www.w3.org/2000/svg" viewBox="0 0 300 299.76">
  <defs>
    <style>
      .cls-1 {
        fill: #ca9c63;
      }

      .cls-2 {
        fill: #cb203b;
      }

      .cls-3 {
        fill: #fff;
      }

      .cls-4 {
        fill: #abbbb6;
      }

      .cls-5 {
        fill: #fbf4e3;
      }

      .cls-6 {
        fill: #c29068;
      }

      .cls-7 {
        fill: #ddca6b;
      }

      .cls-8 {
        fill: #4d2942;
      }

      .cls-9 {
        fill: #dec87b;
      }

      .cls-10 {
        fill: #986953;
      }

      .cls-11 {
        fill: #e7d16e;
      }

      .cls-12 {
        fill: #916e5c;
      }

      .cls-13 {
        fill: #997e58;
      }

      .cls-14 {
        fill: #4c342c;
      }

      .cls-15 {
        fill: #e5cf7a;
      }

      .cls-16 {
        fill: #522e47;
      }

      .cls-17 {
        fill: #ee848f;
      }

      .cls-18 {
        fill: #e81b44;
      }

      .cls-19 {
        fill: #9c6351;
      }

      .cls-20 {
        fill: #e8c378;
      }

      .cls-21 {
        fill: #a57f65;
      }

      .cls-22 {
        fill: #4d2840;
      }

      .cls-23 {
        fill: #b59756;
      }

      .cls-24 {
        fill: #4c2840;
      }

      .cls-25 {
        fill: #e0c97a;
      }

      .cls-26 {
        fill: #92aaa8;
      }

      .cls-27 {
        fill: #966351;
      }

      .cls-28 {
        fill: #f5e6ba;
      }

      .cls-29 {
        fill: #e99890;
      }

      .cls-30 {
        fill: #cdbd7e;
      }

      .cls-31 {
        fill: #ec9b53;
      }

      .cls-32 {
        fill: #99844f;
      }

      .cls-33 {
        fill: #ebb26d;
      }

      .cls-34 {
        fill: #6d493b;
      }

      .cls-35 {
        fill: #ecc974;
      }

      .cls-36 {
        fill: #4d2940;
      }

      .cls-37 {
        fill: #6c493c;
      }

      .cls-38 {
        fill: #daa781;
      }

      .cls-39 {
        fill: #592e4b;
      }

      .cls-40 {
        fill: #97614e;
      }

      .cls-41 {
        fill: #94aaa7;
      }

      .cls-42 {
        fill: #9c8c65;
      }

      .cls-43 {
        fill: #a56655;
      }

      .cls-44 {
        fill: #614235;
      }

      .cls-45 {
        fill: #ae846e;
      }

      .cls-46 {
        fill: #d7e9e6;
      }

      .cls-47 {
        fill: #ead076;
      }

      .cls-48 {
        fill: #7b4728;
      }

      .cls-49 {
        fill: #c3693e;
      }

      .cls-50 {
        fill: #f9f0d1;
      }

      .cls-51 {
        fill: #d0c382;
      }

      .cls-52 {
        fill: #8e6c5b;
      }

      .cls-53 {
        fill: #eecf73;
      }

      .cls-54 {
        fill: #acbbb4;
      }

      .cls-55 {
        fill: #592d4b;
      }
    </style>
  </defs>
  <rect class="cls-46" x="35" y="29.06" width="230" height="237.22" rx="68.69" ry="68.69"/>
  <g>
    <g>
      <path class="cls-37" d="m218.25,109.61c-.18.39-.41.77-.08,1.2.58.76,1.14,1.54,1.74,2.28,5.44,6.61,8.42,14.32,10.22,22.59,1.81,8.33,2.07,16.71,1.2,25.16-.28,2.68-.6,5.35-1.17,7.99-.54,2.48-1.33,4.87-2.54,7.1-2.44,4.53-5.27,8.8-8.67,12.68-1.49,1.71-3.12,3.27-4.96,4.61-.44.16-.72-.06-.96-.4-.5-1.17.05-2.21.41-3.27.7-2.06,1.36-4.13,1.61-6.31.1-.87.43-1.78-.86-2.04-2.96,3.29-5.84,6.65-9.77,8.83-5.57,3.09-11.35,4.82-17.68,2.47-1.09-.41-2.25-.12-3.33-.5-.54-.25-.87-.67-1.03-1.24-.23-.78-.15-1.57.05-2.32,1.46-5.39.16-10.44-2.39-15.11-5.73-10.51-14.14-17.52-26.39-19.12-6.21-1.27-12.04.01-17.65,2.66-8.38,3.96-14.42,10.09-17.59,18.9-1.48,4.12-1.49,8.32-.92,12.58.15,1.11.55,2.22-.14,3.29-.22.21-.47.35-.75.44-2.42,0-4.69,1.01-7.1,1.06-1.28.03-2.58.13-3.81-.4-11.85-9.39-17.74-21.87-19.44-36.71-.83-7.24.21-14.19,1.71-21.17.31-1.42.62-2.94,2.24-3.59.26,0,.55,0,.74.17,2.2,1.89,4.61,2.97,7.62,2.46,4.39-.74,8.34-2.37,11.49-5.59,1.04-1.06,1.9-2.38,1.29-3.99-.65-1.72-2.31-2.07-3.84-2.21-4.4-.43-8.4.83-12.09,3.2-.87.56-1.63,1.33-2.78,1.26-1.78-.93-.84-2.24-.35-3.34,2.3-5.09,5.22-9.82,8.64-14.25,10.69-13.84,24.61-23.14,40.78-29.33,1.54-.59,3.05-1.31,4.67-1.66,1.01-.22,2.04-.44,2.96-.39-1.4-.29-3.16,1.21-4.51-.58.71-.41,1.51-.36,2.29-.42,4.78-.35,9.58-.27,14.35,0,2.21.13,4.48.41,6.59,1.43,1.23.6,2.65.83,4,1.18,9.45,2.45,18.09,6.68,26.23,11.99.73.47,1.45.94,2.17,1.41,2.74-4.53,6.91-7.05,11.66-8.69,4.6-1.59,9.28-1.33,13.86.12,4.33,1.36,8.4,3.36,12.22,5.82,1.15.74,2.36,1.5,2.84,2.92-3.34,5.48-7.7,9.73-14.07,11.49-.51.14-1.04.02-1.48-.32-.52-1.4.71-1.76,1.45-2.36,1.75-1.39,3.77-2.49,5.05-4.42.44-1.21-.54-1.55-1.27-1.9-5.69-2.68-11.38-3-16.92.36-4,2.42-4.06,3.23-.82,6.61,1.31,2.52,4.18,1.6,6.11,2.77.5,2.05-1.56,1.24-2.27,2.1.05.99,1.4,1.37,1.44,2.46Z"/>
      <path class="cls-18" d="m193.2,217.65c2.23,2.91,4,6.1,5.68,9.33,5.59,10.76,9.99,21.98,13.18,33.68.14.5.27,1.01.31,1.52.04.46-.19.84-.65,1.01-.41.15-.81.32-1.24.41-4.24.91-8.49,1.81-12.74,2.71-.17.03-.35,0-.52-.01-.86-.64-.9-1.62-1.11-2.55-.83-3.66-2.33-7-5-10.15-.1,1.75,1,3.09-.04,4.41-1.45.48-2.02-.71-2.71-1.52-1.07-1.26-2.08-2.57-3.3-3.7-1.46-1.36-2.62-1.03-3.66.49-.99,1.44-1.59,3.1-2.53,4.56-2.17,3.37-4.52,3.31-6.42-.19-.87-1.61-1.8-3.17-2.84-4.68-1.27-1.84-2.68-1.91-4.44-.78-2.14,1.38-3.94,3.14-5.73,4.92-3.87,3.85-6.48,3.67-9.85-.69-1.12-1.45-2.35-2.79-3.63-4.1-1.16-1.2-2.32-1.3-3.73-.48-1.47.86-2.57,2.03-3.47,3.46-1.44,2.26-3.27,4.06-5.95,4.82-2.13.6-3.95.25-5.39-1.54-1.2-1.49-2.57-2.84-3.81-4.3-2.09-2.49-2.89-2.47-4.86,0-1.84,2.31-3.45,4.81-5.13,6.34.69-.86,2.09-1.96,3.73-2.7,3.8-1.7,5.72-1.34,8.68,1.55.87.85,1.74,1.71,2.71,2.44,2.68,2.02,4.44,1.81,6.65-.95,1.26-1.57,2.41-3.16,4.36-4,2.78-1.21,5.23-.98,7.43,1.21,1.05,1.04,2.07,2.12,3.18,3.1,2.93,2.59,5.08,2.56,8.02-.1.9-.82,1.71-1.74,2.63-2.54,2.3-2,3.95-2.16,6.67-.7,1.88,1,3.23,2.62,4.78,4.02,2.27,2.05,3.93,2.09,5.64-.45,3.38-4.99,6.98-4.52,11.17-1.82,1.03.66,2.15,1.13,3.24,1.68,1.26,1.68,2.3,3.41,1.01,5.55-2.26.75-4.62.83-6.95.98-4.69.3-9.39.4-14.09.63-3.13.16-6.26.31-9.38.63-6.09.64-12.17.47-18.27.3-.61-.02-1.22-.1-1.82-.08-5.76.22-11.48-.22-17.2-.78-4.42-.43-8.84-.78-13.26-1.23-2.94-.31-5.87-.74-8.8-1.13-.25-.03-.48-.19-.72-.29-.94-3.25.21-6.39.73-9.51,2.05-12.27,6.31-23.85,11.54-35.08,1.32-2.84,2.34-3.3,5.37-2.79,5.14.86,10.26,1.89,15.49,1.98,1.21-.04,1.56.91,1.98,1.75.96,1.94,1.88,3.9,3.22,5.61.17.16.31.34.44.53.29.57.58,1.15,1.08,1.59.17.12.33.26.48.41.16.13.31.29.45.44.08.07.15.15.22.22.16.14.3.29.45.45.3.3.6.6.91.89.26.21.5.42.75.64.85.75,1.8,1.33,2.8,1.85,2.07,1.3,4.11,1.42,6.11-.16.13-.2.29-.38.45-.56.16-.19.33-.35.52-.52,2.95-2.43,4.61-5.76,6.31-9.06.55-1.06.88-2.26,1.88-3.05.24-.15.5-.25.77-.31,6.12-.67,12.27-1.18,18.31-2.42,2.13-.44,4.26-.84,6.36-1.37,1.19-.3,2.39-.55,3.52.22Z"/>
      <path class="cls-44" d="m144.84,77.04c2.04.04,4.07.09,6.16.14-.19.59-.58.61-.89.7-5.13,1.42-10.03,3.41-14.88,5.59-6.38,2.87-12.32,6.45-17.89,10.65-1.58,1.2-3.21,2.38-4.59,3.85-.77.81-1.79,1.38-2.61,2.15-2.67,2.5-5.04,5.27-7.3,8.14-1.61,2.05-3.22,4.09-4.67,6.27-2.19,3.27-3.88,6.8-5.62,10.31-.24.49-.4.97.08,1.42.52,2.24-1.41,3.49-2.12,5.23-.7.6-.94,1.45-1.17,2.29-.98,3.6-1.75,7.25-1.95,10.99-.1,1.73-.68,3.4-.54,5.17.12,1.55.13,3.1.38,4.66.31,1.87.36,3.79.64,5.68.14.95.29,1.88.5,2.81,1.43,6.35,4,12.23,7.52,17.66,1.55,2.39,3.27,4.7,5.34,6.71,1.55,1.51,3.24,2.9,4.47,4.72-1.04,1.2-2.38.86-3.64.64-3.7-.65-6.92-2.28-9.58-4.95-1.72-1.73-3.48-3.41-5.03-5.3-.48-.59-1.06-1.69-1.95-.32-.23,1.65,0,3.26.32,4.86.22,1.05.4,2.04-.34,2.95-.25.2-.5.2-.75.01-4.5-5-7.44-10.89-9.7-17.15-2.35-6.52-3.63-13.26-3.69-20.18-.06-7.56,1.35-14.87,4.31-21.86,2.75-6.51,6.08-12.7,10-18.58.48-.72.92-1.47,1.38-2.21-.06-.11-.08-.22-.04-.35,0,0-.2-.09-.2-.09,0,0-.18.11-.2.12-1.01.15-2.03-.17-3,.25-1.73-.04-3.47.07-5.17-.14-3.62-.44-6.77-2-9.48-4.43-2.86-2.57-5.11-5.62-6.9-9.01-.16-.3-.2-.65-.29-.98-.58-1.33.19-1.35,1.1-1.07.93.29,1.58,1.03,2.26,1.68,2.57,2.47,5.57,4.33,8.71,5.98,1.24.65,2.54,1.05,3.96.83,3.93.89,7.83,2.19,11.92.85,2.37-.43,3.55-2.45,4.97-3.99,2.24-2.42,4.54-4.62,7.8-5.54.67-.82,1.58-1.35,2.43-1.94,7.89-5.51,16.28-10.03,25.58-12.68,4.69-1.34,9.46-2.29,14.35-2.5Z"/>
      <path class="cls-2" d="m136.55,220.87c-.13.56-.41.98-1.06.9-5.42-.7-10.85-1.3-16.2-2.46-.34-.07-.69-.13-1.03-.16-.38-.04-.7.12-.88.44-.42.76-.86,1.52-1.21,2.31-2.86,6.53-5.7,13.08-7.79,19.92-1.62,5.32-2.97,10.72-3.78,16.23-.33,2.23-.67,4.46-1.04,6.68-.07.41-.33.78-.51,1.17-3.5-.21-6.8-1.33-10.12-2.35-.33-.1-.63-.29-.93-.47-.86-.52-1.09-1.01-.84-1.95.38-1.43.77-2.85,1.23-4.25,3.82-11.58,8.65-22.72,14.48-33.43,1.62-2.97,3.09-6.01,4.99-8.83.91-1.36,2.01-2.09,3.61-2.17,2.52-.13,5-.58,7.48-1.05.51-.48,1.05-.92,1.75-1.09,3.12-.38,6.2-.28,9.24.62.52.3.89.73,1.12,1.29.21.94.18,1.94.6,2.84.21,1.95,1.89,3.68.88,5.81Z"/>
      <path class="cls-37" d="m77.62,103.65c-1.44.29-2.73-.24-3.99-.78-3.58-1.56-6.79-3.68-9.55-6.46-.54-.55-1.08-1.13-1.71-1.54-.41-.27-.51.24-.61.56-.94-1.49-.62-2.83.57-3.99.62-.6,1.32-1.15,2.07-1.58,2.57-1.47,5.06-3.13,7.78-4.25,9.25-3.83,18.16-3.35,26.45,2.66.63.46,1.22.98,1.79,1.52,1.06.99,1.8,2.13,1.55,3.68-.07.41.07.68.52.7-.21.64-.82.83-1.31,1.16-1.63,1.11-3.23,2.26-4.6,3.69-1.42,1.49-2.9,2.93-4.37,4.38-.54.54-1.03,1.18-1.87,1.3-.46-1.03.11-1.76.74-2.46,2.15-2.72,2.11-3.52-.58-5.45-5.67-4.08-11.74-4.47-18.02-1.62-.8.36-2.57.65-1.22,2.33,1.37,1.46,2.94,2.69,4.57,3.84.83.58,1.87,1.04,1.8,2.33Z"/>
      <path class="cls-28" d="m214.41,179.96c.71-.57,1.12-.03,1.43.47.37.61.28,1.33.28,2.01-.02,2.18-.65,4.23-1.31,6.27-.42,1.3-.99,2.56-1.49,3.83-.08.71-.3,1.34-1,1.68-1.37,1.99-2.49,4.14-3.99,6.06-4.38,5.63-9.85,9.43-16.96,10.68-.68.12-1.35.33-2.02.5-1.72,2.07-4.11,1.49-6.31,1.56-2.37.08-4.68-.24-6.79-1.43-.77-.48-1.23-1.46-2.32-1.46-.91-.13-1.76-.5-2.67-.68-1.41-1-3.16-1.34-4.56-2.32-1.17-.82-2.6-1.7-1.15-3.46,1.38-.89,3.01-.77,4.52-1.15.23-.09.47-.15.72-.19,1.66-.44,3.13-1.28,4.55-2.23.12-.06.23-.11.35-.17.25-.1.51-.14.77-.15.26-.01.53.01.78.07,1.1.27,2.17.57,3.2,1.07,10.69,5.27,22.77,1.01,28.94-9.83,2.02-3.55,3.27-7.45,5.02-11.13Z"/>
      <path class="cls-28" d="m85.42,190.02c-.46-2.12-.77-4.25-.89-6.42-.04-.68-.19-1.38.17-2.04,1.75.46,1.94,2.1,2.47,3.41,2.27,5.57,5.22,10.59,10.44,13.93,6.35,4.06,13.08,5.35,20.35,2.78,1.79-.64,3.54-1.44,5.45-1.71,2.9.7,5.39,2.62,8.46,2.84,1.58.11,3.02.44,3.52,2.24.03.28-.01.56-.11.83-.17.39-.43.71-.75.98-3.06,1.86-6.25,3.35-9.9,3.57-.89.1-1.77.4-2.66.02-3.27.61-6.59.62-9.88.44-5.28-.3-10.31-1.59-14.73-4.67-2.35-1.64-4.66-3.35-6.25-5.83-.35-1.74-1.69-2.8-2.76-4.05-1.14-1.62-1.97-3.39-2.57-5.27-.22-.32-.39-.66-.37-1.06Z"/>
      <path class="cls-2" d="m176.24,210.5c3.36,1.69,6.93,1.74,10.56,1.32.85-.1,1.7-.23,2.54-.34,1.3,2.05,2.81,3.96,3.85,6.17-4.81,1.4-9.72,2.38-14.66,3.12-4.34.65-8.69,1.27-13.1,1.28-.23,0-.47-.17-.7-.26-.94-.99-.53-2.11-.2-3.16.57-1.8,1.09-3.62,1.66-5.43.7-1.85,2-2.67,4.01-2.55,2.01.13,4-1.16,6.04-.15Z"/>
      <path class="cls-44" d="m218.25,109.61c-1.63-.37-2.55-1.61-3.44-2.86-.22-.32.05-.72.4-.77.67-.1,1.35-.1,2.03-.12.68-.02,1.37.01,1.9-.54,1.61-1.93,3.82-2.5,6.19-1.62,2.32-.17,4.32-1.22,6.28-2.32,1.21-.68,2.26-1.6,3.26-2.58,2.04-2.01,3.91-4.2,6.17-5.99.54.67.62,1.44.35,2.22-.25.74-.51,1.49-.91,2.15-1.75,2.91-3.73,5.66-6.2,8.02-2.88,2.76-6.32,4.25-10.31,4.37-1.91.06-3.82.03-5.73.04Z"/>
      <path class="cls-2" d="m190.93,258.04c-.01-1.69-.99-3.15-1.16-4.8-.03-.34-.16-.7-.1-1.02.03-.16.38-.34.6-.36.23-.01.52.11.71.26.76.59,1.42,1.27,1.97,2.07,1.78,2.61,3.09,5.44,3.99,8.46.36,1.2.2,2.42.29,3.63-1.19.43-2.41.69-3.68.57-.31-1.84-.68-3.66-1.69-5.27-.89-1.03-1.58-2.12-.92-3.56Z"/>
      <path class="cls-50" d="m88.37,196.35c.21-.18.49-.29.68-.08.77.9,1.53,1.81,2.25,2.76.35.46.25.96-.17,1.38,0,0-.05,0-.05,0-.19-.11-.35-.27-.47-.45-.78-1.18-1.75-2.23-2.23-3.6Z"/>
      <path class="cls-7" d="m87.49,109.61c-.15.15-.3.3-.45.45-1.15-.03-2.29-.05-3.44-.08.44-.29.94-.45,1.44-.37.92.13,1.64-.27,2.34-.75.25.22.28.47.1.75Z"/>
      <path class="cls-32" d="m121.98,210.46c.85-.12,1.62-.69,2.54-.51.2.84-.56.85-.99,1.15-.23.08-.44.05-.63-.11-.36-.08-.73-.17-.92-.54Z"/>
      <path class="cls-13" d="m212.32,194.24c.26-.6.44-1.25,1-1.68.23.22.45.45.68.67-.37.65-.92,1.01-1.68,1.01Z"/>
      <path class="cls-1" d="m122.9,211c.22-.04.44-.09.66-.13.4-.18.8-.34,1,.26-.5.31-1.04.38-1.6.27,0-.14-.02-.27-.06-.4Z"/>
      <path class="cls-42" d="m85.42,190.02c.42.25.38.66.37,1.06-.49-.21-.9-.49-1.05-1.04.22,0,.45-.01.67-.02Z"/>
      <path class="cls-28" d="m90.6,199.95c.16.15.32.3.47.45-.16-.15-.32-.3-.47-.45Z"/>
      <path class="cls-38" d="m170.53,203.23c-1.52.63-3.09.91-4.74.82-3.16.6-5.86-.44-8.33-2.31-3.52-2.34-5.37-6.05-7.5-9.41-.97.11-1.09.81-1.29,1.32-1.36,3.4-3.95,4.93-7.49,5.05-5.91.2-13.29-2.14-16.41-9.32-.64-1.47-1.51-3.06.07-4.56.34-.2.71-.29,1.1-.28,1.39.07,2.6-.58,3.52-1.41,3.59-3.23,6.49-6.89,6.56-12.06.05-3.19-1.01-4.04-4.04-3.2-.78.22-1.56.39-2.35.05-1.03-.75-.54-1.63.01-2.25,6.28-7.04,13.64-12.1,23.47-12.49.27-.01.51.06.75.17,1.67-.03,3.29.35,4.87.82,5.59,1.65,10.56,4.34,14.72,8.52,3.03,3.05,5.6,6.43,7.6,10.2,1.73,3.25,2.71,6.76,2.99,10.45.14,1.93-.28,3.8-.66,5.67-.1.51-.23,1.01-.35,1.52-.08,1.61-.34,3.16-1.36,4.48-1.4,1.94-2.95,3.72-5,5.02-.3.17-.67.22-.92.5l.03-.02c-1.44.88-2.94,1.65-4.54,2.21-.17.27-.9-.23-.72.53Z"/>
      <path class="cls-6" d="m124.99,185.3c-.68,1.06-.04,2.09.32,2.96,1.57,3.85,4.19,6.73,8.23,8.17,1.73.62,3.51.95,5.29,1.32.85.18,1.73.13,2.59-.06.51-.11,1.02-.34,1.52-.31,2.05.1,3.22-1.06,4.06-2.7.71-1.39,1.36-2.81,2.03-4.22.11-.24.22-.53.51-.45.21.06.43.27.55.48.71,1.19,1.39,2.4,2.09,3.6,1.55,2.63,3.34,5.06,5.79,6.95.43,1.97-.49,3.34-2.04,4.37-3.89,2.59-7.95,2.62-12.07.65-1.62-.77-2.74-2.05-2.95-3.98-1.65.7-3.23,1.42-5.02,1.4-3.99-.38-8.03-.53-11.5-2.91-.21-.12-.44-.22-.67-.3-.36-.04-.72.09-1.09.05-1.48-.44-2.52-1.35-2.98-2.85.29-.44.06-.53-.35-.49-.92-.41-1.34-1.21-1.59-2.12.03-1.14-.84-2.11-.63-3.29-.1-.51-.15-1.03-.3-1.52-.57-1.94-.71-3.92-.75-5.94-.13-6.96,2.51-12.86,6.7-18.24,4.67-6,11-9.49,17.94-12.1.24-.09.5-.19.75-.22,3.72-.41,7.45-.79,11.2-.57.42.02.82.25,1.23.38-2.8-.23-5.32.77-7.77,1.9-3.48,1.6-6.99,3.17-10.06,5.51-2.36,1.8-4.35,4-6.33,6.19-.19.21-.02.49.17.69.25,1.21-.57,1.96-1.28,2.68-1.8,1.85-2.88,4.09-3.73,6.47-.85,2.35-1.21,4.69.06,7.03.24.44.41.97.07,1.48Z"/>
      <path class="cls-5" d="m119.87,196.83c.77,1.28,1.82,2.26,3.1,3.01.21-.07.37-.03.5.15l-.04-.02c.21.08.3.18.26.31-.04.14-.09.21-.15.21-3.64,1.91-7.53,3.09-11.59,3.57-3.16.37-6.2-.44-9.17-1.42-4.58-1.5-8.25-4.34-11.41-7.91-.98-1.11-1.71-2.39-2.42-3.69-1.66-3.06-2.91-6.29-4.25-9.49.02-.34-.03-.71.07-1.03.31-.96,1.12-1.24,1.78-.59.61.61,1.15,1.3,1.68,1.98,1.73,2.19,3.53,4.3,5.72,6.06,3.44,2.76,7.32,4.27,11.77,4.16,2.36.38,4.65-.01,6.92-.59.67-.17,1.32-.4,2-.56.81-.19,1.55-.06,2.15.57.77.94,1.53,1.88,1.52,3.19.33.79.78,1.49,1.5,1.98l.06.09Z"/>
      <path class="cls-5" d="m214.41,179.96c.38.41.59.87.37,1.42-1.56,3.96-3.01,8-5.31,11.59-2.98,4.65-7.02,8.22-12.31,10-5.54,1.87-11.09,1.73-16.48-.81-1.33-.63-2.71-1.18-4.06-1.76.83-2.19,3.3-3.06,4.21-5.19,1.17-1.01,1.33-2.81,2.79-3.59.8-.71,1.7-.83,2.66-.39,5.46,2.49,10.7,1.37,15.81-1.06,3.82-1.82,6.93-4.58,9.69-7.77.78-.9,1.36-2.05,2.63-2.44Z"/>
      <path class="cls-3" d="m117.89,158.82c-.02,1.84-.21,3.66-.83,5.4-1.87,5.25-5.64,8.24-11.13,9-2.43.34-4.85.1-7.21-.72-8.44-2.97-11.96-12.85-7.3-20.59,1.18-1.96,2.74-3.59,4.54-5,.34-.26.74-.66,1.1-.65,1.41.05,2.44-.85,3.66-1.27,2.68-.93,5.36-.75,7.91.29,3.49,1.42,6.17,3.87,7.95,7.22.97,1.83,1.35,3.86,1.31,6.32Z"/>
      <path class="cls-3" d="m209.77,159.21c.19,8.97-8.27,15.91-17.23,13.76-.93-.22-1.86-.47-2.74-.83-8.88-3.62-10.63-12.76-7.29-19.46,1.19-2.38,2.91-4.32,5.03-5.91.9-.67,1.78-1.35,3.07-1.12.54.09,1.17-.26,1.75-.44,5.48-1.68,14.34.94,16.79,9.53.43,1.51.73,3.05.63,4.46Z"/>
      <path class="cls-14" d="m202.12,135.11c-1.59.13-3.04-.3-4.44-.68-3.29-.89-6.41-2.22-9.03-4.49-1.09-.95-1.75-2.15-2.25-3.47-.23-.6-.16-1.2.09-1.78.53-1.26,1.38-2.27,2.65-2.74,1.88-.7,3.79-1.17,5.86-.73,1.95.42,3.94.67,5.81,1.43,2.98,1.21,5.5,2.98,7.22,5.76.14.22.31.43.42.66,1.07,2.11.17,4.58-2.06,5.31-1.39.46-2.83.91-4.27.74Z"/>
      <path class="cls-14" d="m90.52,131.48c-.35-1.16-.19-2.2.73-3.07.64-.6,1.01-1.38,1.39-2.16,1.51-1.3,3.12-2.43,4.94-3.3,3.05-1.45,6.23-2.02,9.57-1.93,1.24.03,2.37.47,3.5.92,1.57.62,2.76,2.77,1.75,4.8-.62,1.25-1.36,2.42-2.48,3.3-3.55,2.82-7.59,4.47-12.07,5.04-1.77.23-3.46-.26-5.05-.95-1.13-.49-2.05-1.31-2.29-2.64Z"/>
      <path class="cls-17" d="m212.36,102.72c-.87-.45-1.47-1.21-2.08-1.94-1.43-1.71-1.33-2.69.42-4.18,1.87-1.59,3.96-2.8,6.31-3.58,2.7-.89,5.45-1.01,8.23-.51,1.88.34,3.75.75,5.5,1.55.63.29,1.27.6,1.79,1.04.81.69,1.08,1.56.32,2.5-2.12.67-4.32.44-6.47.37-4.34-.14-8.25.97-11.68,3.65-.7.55-1.42,1-2.33,1.08Z"/>
      <path class="cls-29" d="m212.36,102.72c.09-.24.11-.55.28-.71,3.32-3.13,7.2-4.99,11.84-5.04,2.07-.02,4.14,0,6.22,0,.78,0,1.57-.01,2.15.65-.97,1.82-2.72,2.82-4.27,4-1.02.77-2.15,1.39-3.23,2.08-2.06.54-4.12,1.08-6.19,1.62-1.21-.02-2.41-.06-3.62-.05-1.02,0-1.85-.19-2.26-1.3-.17-.46-.6-.83-.91-1.24Z"/>
      <path class="cls-52" d="m183.62,191.62c-.68,1.42-1.48,2.75-2.57,3.9-.28-.24-.3-.51-.07-.8.68-1.4,1.37-2.81,2.05-4.21.09.43.2.84.59,1.11Z"/>
      <path class="cls-12" d="m118.3,194.77c-.7-.97-1.24-2.02-1.52-3.19.1-.04.21-.04.31-.02.88.63,1.19,1.6,1.49,2.56.05.17-.18.43-.28.65Z"/>
      <path class="cls-4" d="m190.93,258.04c.19.38.34.78.57,1.13.49.76.64,1.56.35,2.43-.81.17-1.54.03-2.19-.53-1-.86-2.13-1.51-3.33-2.04-2.75-1.23-4.76-.64-6.2,1.47-.59.86-1.21,1.71-1.9,2.49-1.79,2.01-3.65,2.13-5.69.37-.92-.8-1.73-1.71-2.59-2.58-.98-1-2.07-1.86-3.34-2.48-2.02-.99-3.38-.77-4.89.85-.83.89-1.64,1.8-2.5,2.67-.8.81-1.72,1.47-2.75,1.96-1.53.73-3.02.67-4.51-.13-1.01-.55-1.86-1.29-2.65-2.1-.98-.99-1.95-1.99-2.94-2.97-1.58-1.58-3.38-1.95-5.5-1.14-1.51.57-2.8,1.28-3.69,2.71-.64,1.02-1.47,1.95-2.31,2.82-1.82,1.87-4.09,2.1-6.02.31-.89-.83-1.8-1.64-2.69-2.47-.82-.78-1.62-1.58-2.44-2.36-.67-.64-1.4-.99-2.37-.59-.39.16-.85.16-1.28.22-2.45.33-4.36,1.6-5.96,3.41-.63.71-1.28,1.42-1.96,2.08-.25.24-.65.22-.96-.02-.33-.26-.34-.63-.19-.94.18-.39.45-.74.73-1.07,2.27-2.64,4.39-5.41,6.46-8.21.36-.49.75-.96,1.2-1.37,1.08-.99,2.18-1.05,3.28-.12.66.56,1.22,1.24,1.79,1.89,1.38,1.57,2.79,3.11,4.1,4.74.89,1.11,1.93,1.29,3.24,1.01,3.07-.64,5.19-2.57,6.51-5.21,1.28-2.55,3.56-3.41,5.87-4.38.52-.22,1.02.14,1.38.54,1.3,1.41,2.6,2.81,3.86,4.25.63.72,1.27,1.45,1.76,2.27.86,1.45,2.27,1.79,3.73,2.11.65.14,1.21-.1,1.68-.52,1.03-.93,2.05-1.88,3.07-2.83,1.34-1.24,2.66-2.5,4.02-3.72.78-.7,1.69-1.23,2.67-1.61,1.33-.52,2.08-.33,3.01.74,1.2,1.39,2.26,2.87,3.08,4.52.5,1.01.99,2.04,1.55,3.02.67,1.19,2.24,1.37,3,.25.93-1.36,1.67-2.85,2.51-4.27.57-.97,1.07-2.01,1.75-2.89,1.11-1.43,2.5-1.56,3.82-.34,1.08,1,2.05,2.13,3.02,3.25.97,1.11,1.88,2.27,2.82,3.41Z"/>
      <path class="cls-54" d="m144.67,232.88c-.27-.26-.53-.52-.8-.78-.1-.33-.3-.57-.56-.78l.02.04c-.16-.21-.34-.39-.54-.56l.02.03c-.45-.76-1.07-1.4-1.58-2.11h0c-.9-1.62-1.98-3.15-2.78-4.83-.34-.71-1.06-1.44-.28-2.32,1.01-.78,2.11-.6,3.22-.33,1.6.64,2.09,2.22,2.96,3.48,1.31,1.9,2.24,4.13,4.47,5.25,2.22,1.48,4.35,1.53,6.36-.38.18-.16.37-.3.57-.43.1-.07.2-.12.3-.19,1.77-.95,1.94-2.87,2.7-4.42.03-.23.09-.45.16-.68.13-.44.36-.85.46-1.3.08-.23.2-.44.35-.63.17-.18.38-.3.62-.39,1.33,0,2.71-.54,3.95.39-1.64,4.72-3.87,9.08-7.62,12.53-.34.08-.59.29-.8.55h.03c-2.44,1.7-4.99,1.64-7.62.5-1.11-.4-2.01-1.11-2.84-1.92-.17-.34-.42-.58-.78-.7Z"/>
      <path class="cls-41" d="m164.3,221.93c-1.36.57-2.72.85-4.07-.04-.78-.72-.54-1.61-.24-2.37.87-2.22,1.23-4.61,2.16-6.81.73-1.33,1.7-2.09,3.33-1.53,1.24.42,1.83,1.17,1.49,2.5-.12,1.82-.94,3.45-1.41,5.17-.27.98-.55,1.96-.83,2.95-.14.05-.29.1-.43.14Z"/>
      <path class="cls-20" d="m138.15,221.88c.19,1.29.92,2.34,1.54,3.43.61,1.09,1.44,2.09,1.54,3.41-.56-.15-.79-.62-1.08-1.04-1.05-1.58-1.9-3.27-2.69-4.99-.28-.62-.61-1.22-.92-1.83-.34-1.96-1.42-3.71-1.59-5.71-.29-.37-.26-.76-.05-1.16.74-.15,1.2.33,1.37.88.73,2.3,2.51,4.33,1.87,7Z"/>
      <path class="cls-47" d="m148.29,235.5c2.6.72,5.14.47,7.62-.51-1.14,1.59-2.8,1.86-4.57,1.73-1.12-.08-2.22-.36-3.05-1.21Z"/>
      <path class="cls-20" d="m141.22,228.72c.92.41,1.48,1.09,1.58,2.11-.86-.45-1.45-1.11-1.58-2.11Z"/>
      <path class="cls-47" d="m155.89,235.01c.17-.32.45-.49.8-.55-.18.32-.43.52-.8.55Z"/>
      <path class="cls-25" d="m144.67,232.88c.37.1.64.33.78.7-.26-.23-.52-.47-.78-.7Z"/>
      <path class="cls-15" d="m143.31,231.32c.31.17.48.44.56.78-.29-.19-.52-.42-.56-.78Z"/>
      <path class="cls-35" d="m142.79,230.8c.18.19.36.37.54.56-.33-.05-.5-.24-.54-.56Z"/>
      <path class="cls-29" d="m77.62,103.65c-1.53-1.08-3.08-2.12-4.58-3.24-.88-.66-1.79-1.32-2.45-2.23-.59-1.8.8-2.08,1.95-2.34,3.8-.86,7.55-.69,11.2.8,2.34.95,4.47,2.28,6.52,3.73.77.55,1.56,1.16,1.3,2.32-.47.63-1.02,1.21-1.22,2-3.08.74-6.17.89-9.26.07-1.17-.31-2.31-.73-3.46-1.11Z"/>
      <path class="cls-23" d="m87.49,109.61c-.03-.25-.07-.5-.1-.75.16-.18.32-.36.5-.53.05-.05.21-.07.23-.05.07.12.18.28.15.39-.13.4-.38.73-.77.94Z"/>
      <path class="cls-44" d="m162.76,213.08c-.13,2.07-.79,4-1.5,5.92-.36.96-.68,1.92-1.02,2.88-.07.2-.14.4-.22.6-.22.22-.21.5-.21.77,0,.29-.07.55-.31.74l.02-.04c-.82,2.05-1.55,4.15-3.16,5.78l.04-.02c-.17.23-.38.41-.63.55-.27.22-.55.42-.81.65-1.8,1.55-3.77,1.73-5.69.29-.21-.15-.44-.27-.66-.41-1.26-.59-1.9-1.78-2.59-2.85-2.14-3.35-4.57-6.54-6.01-10.3-.9-1.71-.98-3.82-2.49-5.23-1.06-.65-2.39-.22-3.46-.83-1.8-.13-3.61-.06-5.39-.51-1.36-.34-2.74.16-4.11.05-.33-.08-.67-.17-1-.26.32-.31.64-.61.96-.92,3.42-.8,6.58-2.29,9.72-3.8.35-.06.6-.23.65-.61h-.05c3.27-.98,6.27.6,9.39,1.01,2.29.3,4.54.7,6.88.83,6.87.38,13.83-.35,20.62,1.38.8.21,1.6.43,2.4.64-.48,1.44-1.8,1.45-2.89,1.48-4.42.11-8.83.64-13.26.57-4.33.11-8.67.3-12.99,0-.47,0-.94,0-1.39,0,.34,0,.65,0,.98,0,1.32.02,2.63-.04,3.95.04,1.89.37,3.77.29,5.65-.02,2.06-.03,4.13-.04,6.19,0,1.11.02,2.34-.03,2.4,1.61Z"/>
      <path class="cls-26" d="m134.06,211.59c1.33-.6,2.67-.98,4.05-.17.95,1.99,1.35,4.18,2.32,6.16.34,1.46,1.61,2.64,1.28,4.3-1.19,0-2.38,0-3.57,0-1.14-2.03-1.85-4.23-2.57-6.43-.16-.49-.21-1.01-.59-1.4-.52-.4-.09-1.08-.45-1.53-.16-.31-.32-.62-.49-.93Z"/>
      <path class="cls-33" d="m134.54,212.52c.39.44.45.97.45,1.53-.01.37-.02.74-.03,1.11-.59-.81-.69-1.69-.41-2.63Z"/>
      <path class="cls-17" d="m91.56,102.69c-.1-.14-.16-.34-.29-.42-2.98-1.89-5.83-3.98-9.25-5.13-2.72-.92-5.45-.72-8.21-.55-.77.05-1.52.31-2.28.48-.59.13-.8.6-.94,1.12-.65-.38-1.01-.93-.98-1.7.04-.78.54-1.24,1.15-1.62.29-.18.59-.37.91-.51,7.17-3.16,13.96-2.8,20.22,2.23.13.11.26.22.39.34,2.11,1.88,2.15,3.18.13,5.2-.24.24-.57.38-.86.56Z"/>
      <path class="cls-34" d="m171.72,208.77c-4.43.02-8.87.06-13.3.05-.69,0-1.37-.16-2.06-.26-.51-.07-1.03-.25-1.54-.22-3.14.21-6.24-.27-9.34-.59-2.49-.26-4.96-.8-7.42-1.3-1.09-.22-2.28-.15-3.23-.91.05-.9-.36-1.46-1.24-1.66-.58-.13-1.17-.23-1.75-.34,1.13-1.55,2.89-.17,4.2-.92,2.2-.26,4.16-1.13,6.04-2.25.11-.07.35-.05.46.03.24.18.19.45.1.7-.03.08-.09.15-.14.22-.95,1.2-.94,1.31-.21,2.3.64.87,1.51,1.46,2.45,1.88,4,1.82,7.76,1.18,11.29-1.26.8-.56,1.4-1.3,1.43-2.36.01-.37.19-.66.51-.85,1.5,1.25,3.3,1.77,5.16,2.21.89.21,1.92.06,2.66.8-.68.53-.48,1.13.08,1.48,1.23.79,2.53,1.47,3.82,2.18.67.37,1.36.71,2.04,1.06Z"/>
      <path class="cls-53" d="m157.97,210.97c4.26-.23,8.52-.46,12.77-.7.87-.05,1.73-.17,2.59-.26.37-.04.64-.25.78-.6.9,0,1.6.36,2.12,1.09-2,.46-4.01.82-6.06.96q-2.17.15-3.21,2.21c-.08-.52-.16-1.08-.65-1.35-.67-.37-1.39-.7-2.19-.68-.22,0-.47.21-.63.39-.28.32-.5.7-.75,1.05-.81-.96-1.88-1.15-3.06-1.12-1.91.05-3.83.06-5.74.09-1.84.29-3.67.31-5.51,0-1.51.16-3.01.02-4.51-.12-.06-.14-.12-.28-.18-.42.23-.23.51-.33.83-.31,4.46-.15,8.93.29,13.39-.23Z"/>
      <path class="cls-45" d="m180.98,194.73c.03.27.05.53.08.8-.48,1.23-1.49,2.05-2.38,2.96-.65.67-1.37,1.28-2.05,1.92-.13-.02-.26-.04-.39-.05.01-.11.02-.21.03-.32.21-.59.69-.95,1.09-1.38,1.21-1.3,2.42-2.61,3.62-3.92Z"/>
      <path class="cls-21" d="m171.05,202.53c1.57-.71,3.01-1.71,4.74-2.04-1.23,1.51-2.94,2.14-4.75,2.58-.33-.19-.33-.37.01-.54Z"/>
      <path class="cls-19" d="m171.05,202.53c0,.18,0,.36-.01.54-.17.05-.34.1-.5.16-.18-.13-.52-.16-.43-.48.03-.09.29-.14.45-.17.16-.04.34-.03.5-.05Z"/>
      <path class="cls-43" d="m176.26,200.03c-.02.11-.03.21-.03.32-.13.13-.29.18-.48.15.08-.25.22-.44.51-.48Z"/>
      <path class="cls-10" d="m136.04,202.63c-.66.55-1.46.45-2.23.48-.68.03-1.4-.07-1.97.44-2.46-.08-4.66-.98-6.77-2.14-.52-.29-1.02-.61-1.53-.91-.04-.17-.07-.35-.11-.52.81,0,1.48.42,2.15.78,2.47,1.34,5.09,1.96,7.9,1.83.85-.04,1.71.02,2.57.04Z"/>
      <path class="cls-34" d="m134.89,205.55c-.11.32-.33.52-.65.61.12-.3.33-.53.65-.61Z"/>
      <path class="cls-39" d="m131.78,166.97c.31-.15.6-.37.92-.43,2.77-.48,4.11.57,4.28,3.39.13,2.09-.36,4.13-.66,6.18-.06.4-.26.95-.56,1.13-1.07.61-1.4,1.73-2.01,2.65-.96,1.46-2.02,2.83-3.41,3.89-1.24.95-2.53,1.87-4.25,1.54-.95-1.01-.45-2.13-.21-3.19,1.04-4.53,3.15-8.59,5.83-12.34.73-1.02,1.28-1.84.06-2.81Z"/>
      <path class="cls-36" d="m164.22,167.49c1.62-1.61,1.69-1.63,3.52-.84,2.54,1.1,4.54,2.85,5.97,5.19.9,1.47,1.69,3.02,2.38,4.6.81,1.86.87,3.87.67,5.86-.1,1.04-.49,2.02-1.58,2.49-1.37.66-2.25-.05-2.61-1.22-1.62-5.19-4.13-9.86-7.76-13.93-.49-.55-.82-1.32-.59-2.16Z"/>
      <path class="cls-55" d="m164.22,167.49c1.15,1.41,2.24,2.87,3.45,4.22,2.08,2.3,3.41,5,4.49,7.86.52,1.38.98,2.78,1.43,4.19.26.82.85,1.03,1.59,1.05-.82.77-1.77.58-2.69.32-1.27-.36-2.38-1.04-3.37-1.91-3.1-2.74-5.06-6.15-5.75-10.23-.32-1.88-.4-3.8.83-5.48Z"/>
      <path class="cls-22" d="m131.78,166.97c.86.28,1.89-.41,2.66.46-.45.72-.81,1.52-1.36,2.15-2.33,2.65-3.75,5.83-5.1,9-.91,2.13-1.27,4.48-1.88,6.73-.37,0-.73-.01-1.1-.02-1.83-1.6-2.24-3.66-1.83-5.93.79-4.31,2.55-8.11,5.99-10.99.26-.22.48-.5.71-.75.64-.22,1.27-.44,1.91-.66Z"/>
      <path class="cls-40" d="m119.81,196.75s.09-.09.14-.13c-.03.07-.05.15-.08.22,0,0-.06-.08-.06-.08Z"/>
      <path class="cls-27" d="m123.47,199.99c-.17-.05-.33-.1-.5-.15.24-.18.39-.09.5.15Z"/>
      <path class="cls-55" d="m98.82,159.15c-.18-.66-.36-1.33-.53-1.99-.75-2.48-.48-4.93.15-7.38.23-.25.41-.67.68-.73,1.98-.47,3.8-1.55,5.95-1.44,2.2.11,4.27.57,6.2,1.63,1.73.95,3.03,2.31,3.84,4.09,1.71,3.77,1.8,7.49-.51,11.09-1.62.26-2.95,1.3-4.57,1.63-3.79.75-8.3-1.02-10.45-4.2-.56-.84-.71-1.74-.76-2.69Z"/>
      <path class="cls-8" d="m98.82,159.15c1.07,1.02,1.6,2.43,2.69,3.49,1.8,1.74,3.99,2.46,6.33,2.73,1.37.16,2.73-.4,4.02-.92.56-.23,1.09-.54,1.66-.76.68-.27.93.18,1.09.73-.49,1.48-1.62,2.42-2.8,3.3-2.61,1.95-5.57,2.74-8.8,2.42-4.45-.44-7.58-3.3-8.82-8.11.87-.44,1.98-.04,2.85-.7.8-.61,1.22-1.43,1.8-2.17Z"/>
      <path class="cls-16" d="m98.44,149.78c.33.1.79.27.71.62-.38,1.78-.19,3.59-.27,5.38-.02.54-.2,1-.59,1.38-1.12-.88-2.62-.66-3.93-1.27.82-2.46,2.09-4.52,4.08-6.12Z"/>
      <path class="cls-55" d="m188.14,149.13c6.94-4.52,16.52.65,16.76,6.81-.91.13-1.87.13-2.73.59-.99.53-1.68,1.67-1.61,2.76.06.96.79,1.8,1.78,1.91.76.09,1.56-.02,2.17.59-2.53,3.33-6.4,4.4-10.94,3.04-4-1.2-6.04-3.93-6.31-8.23-.16-2.55.67-4.96.89-7.45Z"/>
      <path class="cls-24" d="m188.14,149.13c.76.22,1.26.61,1,1.49-.59,2-.95,4.03-.85,6.14.06,1.33.42,2.56.97,3.74.84,1.79,2.46,2.61,4.2,3.24,3.14,1.15,6.13.75,8.98-.93.67-.39,1.25-.95,2.07-1.03.32.11.31.35.24.61-1.32,4.34-5.56,7.46-9.9,7.72-4.75.29-8.45-1.68-10.88-5.81-1.09-1.85-1.4-3.92-1.17-6.05.1-.95.39-1.87.3-2.85-.02-.25.02-.55.15-.76,1.26-2.16,2.31-4.53,4.89-5.52Z"/>
      <path class="cls-9" d="m141.72,221.88c-.52-1.38-1.04-2.75-1.56-4.13-.24-.53.03-.6.47-.53.99,2.01,1.96,4.04,2.98,6.03,1.38,2.69,3.02,5.23,4.99,7.54-.95-.08-1.49-.72-2.04-1.4-1.89-2.33-3.36-4.93-4.85-7.52Z"/>
      <path class="cls-51" d="m156.36,229.74c.92-1.99,1.92-3.95,3.16-5.78-.42,2.27-.85,4.54-3.16,5.78Z"/>
      <path class="cls-51" d="m159.5,224c.09-.37.18-.75.27-1.12.1,0,.21.01.31.02-.04.45-.17.85-.58,1.11Z"/>
      <path class="cls-51" d="m155.77,230.27c.12-.29.29-.52.63-.55-.21.18-.42.37-.63.55Z"/>
      <path class="cls-41" d="m160.09,222.89l-.16.02s-.16-.03-.16-.03c0-.19.08-.32.25-.39.04.13.06.27.06.41Z"/>
      <path class="cls-11" d="m157.97,210.97c-.73.63-1.62.48-2.47.48-3.87,0-7.75,0-11.62,0l-.19-.12.02-.22c4.75-.21,9.5-.23,14.25-.14Z"/>
      <path class="cls-30" d="m140.64,217.23c-.16.18-.31.35-.47.53-1.01-2.01-1.77-4.09-2.05-6.33.37.08.61.29.73.65.6,1.72,1.19,3.44,1.79,5.16Z"/>
      <path class="cls-11" d="m148.45,212.05c1.84,0,3.67,0,5.51,0-1.84.43-3.67.42-5.51,0Z"/>
      <path class="cls-49" d="m143.72,211.1c.08.1.13.22.16.34,0,0-.15,0-.15,0-.34.5-1.01.06-1.38.47-.25,0-.51.03-.76,0-.27-.03-.48-.19-.44-.48.02-.13.17-.32.3-.35.75-.21,1.52-.22,2.27.01Z"/>
      <path class="cls-31" d="m142.35,211.92c.35-.48.85-.52,1.38-.47.08.15.14.31.19.47-.53,0-1.05,0-1.58,0Z"/>
    </g>
    <g>
      <path class="cls-48" d="m242.67,91.7c-.33-.4-.69-.79-1.08-1.13-5.34-4.5-11.2-7.97-18.25-9.02-5.89-.88-11.44.04-16.52,3.29-2.5,1.6-4.78,3.46-6.83,5.83-9.62-6.66-19.93-11.71-31.45-14.11-11.43-2.38-22.83-2.32-34.23.16-11.49,2.49-21.77,7.66-31.25,14.38-7.48-8.62-16.52-11.81-27.49-8.72-5.55,1.56-10.29,4.62-14.63,8.34-.26.23-.5.49-.73.75-1.08,1.23-1.37,2.59-.68,4.11.18.4.35.8.56,1.18,1.71,3.15,3.73,6.09,6.16,8.73,1.37,1.48,2.89,2.77,4.64,3.78,3.12,1.79,6.43,2.6,10.03,2.02.59-.1,1.2-.12,2.26-.23-.58.98-.94,1.56-1.28,2.15-1.9,3.32-3.94,6.57-5.67,9.98-4.71,9.27-6.81,19.15-6.48,29.53.13,4.18.65,8.33,1.39,12.45,1.8,9.93,5.88,18.72,12.98,26,.75.76,1.25,1.64,1.73,2.57.87,1.7,1.75,3.41,2.8,5,5.18,7.82,12.29,12.66,21.71,13.89.4.05.79.23,1.36.41-.38.56-.65.99-.94,1.39-1.28,1.76-2.66,3.46-3.82,5.29-5.2,8.18-9.53,16.8-12.68,25.99-1.47,4.28-2.77,8.61-4.12,12.93-.31.99-.57,2.01-.76,3.04-.22,1.16.04,1.65,1.14,2,1.9.61,3.82,1.19,5.76,1.66,6.35,1.54,12.8,2.52,19.29,3.31,8.14.99,16.3,1.6,24.48,1.87,11.41.37,22.82.24,34.23-.36,8.36-.44,16.69-1.12,24.9-2.74,3.67-.72,7.28-1.69,10.9-2.62,1-.26,1.97-.7,2.9-1.16.84-.42,1.05-1.01.87-1.97-.1-.51-.25-1.01-.4-1.51-.9-3-1.8-6-2.72-8.99-3.19-10.46-7.66-20.35-13.38-29.67-1.64-2.68-3.39-5.27-5.44-7.66-.27-.31-.48-.67-.82-1.16.75-.24,1.3-.42,1.86-.58,1.5-.46,3.03-.81,4.48-1.37,5.98-2.31,10.51-6.41,14.02-11.67.98-1.48,2.15-2.69,3.52-3.79,8.12-6.54,13.57-14.84,16.29-24.93,1.39-5.15,2.16-10.4,2.48-15.71.28-4.7.09-9.4-.7-14.06-1.18-6.93-3.46-13.48-6.84-19.63-1.51-2.74-3.19-5.39-4.77-8.1-.23-.39-.28-.87-.45-1.4,1.59,0,2.98.11,4.35-.02,4.17-.4,7.6-2.36,10.5-5.3,2.77-2.81,4.97-6.05,6.85-9.51.25-.45.44-.95.6-1.44.41-1.25.19-2.41-.65-3.43Zm-166.49,17.29c-2.99-.6-5.53-2.05-7.66-4.19-2.8-2.79-4.88-6.1-6.68-9.59-.67-1.3-.62-1.78.53-2.74,6.06-5.09,12.77-8.72,20.92-8.89,5.55-.11,10.37,1.86,14.62,5.33,1.2.98,2.3,2.08,3.59,3.27-2.34,1.98-4.58,3.87-6.94,5.86-.24-.21-.51-.38-.7-.62-3.86-4.88-12-8.2-20.13-4.93-.87.35-1.69.86-2.53,1.29.34.2.68.41,1.03.61,2.07-.63,4.07-1.48,6.28-1.66,5.25-.42,9.79,1.09,13.59,4.76.31.3.64.6.94.9.12.12.22.27.42.53-1.29,1.46-2.59,2.94-3.9,4.43-.13.14-.25.28-.38.43-.15.05-.23.15-.24.31,0,.02,0,.04-.01.05,0-.02,0-.04.01-.05-.75.21-1.48.53-2.24.6-6.79.63-12.13-2.21-16.6-7.06-.76-.82-.6-1.47.39-2.14.57-.39,1.16-.74,1.75-1.11-.34-.2-.68-.41-1.03-.61-.6.32-1.27.57-1.8.99-1.3,1.02-1.43,2.05-.56,3.41.14.22.3.43.47.62,2.98,3.17,6.46,5.53,10.73,6.62,1.98.5,3.96.51,5.97.37.46-.03.86.05.97.6,0,0,0,0,0,0-.68.79-1.35,1.58-2.13,2.49-2.81.48-5.73.7-8.67.11Zm12.08-4.25c-.18.15-.34.32-.49.5-.21.26-.41.54-.59.82.18-.29.37-.56.59-.82.15-.18.31-.35.49-.5Zm15.76,104.15c-1.97-.72-3.87-1.59-5.56-2.82-6.66-4.83-11.12-11.16-12.88-19.26-.46-2.12-.63-4.29-.16-6.41.76-.45,1.01.14,1.25.55,1.84,3.12,4.26,5.7,7.19,7.82,3.36,2.43,7.02,4.11,11.2,4.6,3.2.38,6.23-.03,9.16-1.34.38-.17.76-.33,1.26-.55,3.3,8.08,9.14,12.73,18.2,13.47-.46.45-.64.71-.89.87-6.12,4.02-12.87,5.54-20.12,4.91-2.95-.25-5.84-.83-8.64-1.85Zm37.79,13.9c1.2,2.52,2.54,4.97,4.35,7.11.89,1.05,1.91,2.05,3.04,2.83,2.06,1.42,4.34,1.2,6.25-.43,1.28-1.09,2.2-2.46,3.01-3.92,1.61-2.9,2.78-5.99,3.76-9.16.62-1.99,1.14-4.01,1.74-6.13.73-.09,1.47-.18,2.16-.27.13.3.28.47.24.6-1.59,5.72-3.63,11.26-6.77,16.33-.91,1.46-2.02,2.86-3.26,4.04-2.4,2.28-5.34,2.56-8.15.83-1.24-.76-2.39-1.75-3.39-2.83-1.06-1.14-1.97-2.44-2.78-3.78-2.87-4.71-4.64-9.89-6.56-15.28.62-.05.87-.1,1.12-.08.43.04.85.12,1.34.2.17.31.38.59.48.91.91,3.09,2.03,6.11,3.42,9.02Zm-1.46-9.64c.39-.04.65-.1.9-.08,6.78.38,13.56.27,20.34.12.07,0,.15.07.36.17-.24.97-.46,1.99-.73,2.98-.96,3.53-2.13,6.99-3.82,10.24-.72,1.37-1.58,2.72-2.6,3.88-1.64,1.86-3.35,1.96-5.26.35-1.05-.89-2-1.95-2.79-3.07-3-4.23-4.96-8.95-6.45-13.89-.05-.15.02-.34.06-.69Zm-7.98-4.38c.06-.15.09-.34.19-.44,1.2-1.14,2.39-2.27,3.62-3.37.24-.21.62-.28.95-.38,1.4-.44,2.81-.86,4.22-1.29,5.08,5.44,13.11,4.54,17.09-.09,1.67.49,3.33.96,4.98,1.46.32.1.66.24.9.46,1.41,1.28,2.78,2.59,4.16,3.88-4.83,1.8-29.14,1.66-36.12-.22Zm32.87-6.2c-4.64-.17-8.43-2.05-11-6-1.13-1.74-2.05-3.63-3.06-5.45-.22.26-.43.53-.65.79.99,4.2,3.25,7.61,6.59,10.3-3.49,4.01-9.26,4.27-14.76.64.36-.36.66-.74,1.03-1.03,3.34-2.64,5.32-6.11,6.3-10.2.28.1.56.19.84.29.22-.26.43-.53.65-.79-.23-.75-.35-1.59-1.37-1.97-.23.56-.41,1-.6,1.45h0c-.4.77-.79,1.54-1.19,2.31-.32.62-.64,1.24-.96,1.85-4.31,8.2-12.34,8.89-18,6.97-6.29-2.14-10.1-6.58-11.76-12.92-1.09-4.17-.66-8.29.75-12.33,3.58-10.23,13.68-20.42,27.05-22.39,7.94-1.17,15.43.28,22.28,4.55,6.62,4.13,11.54,9.74,14.41,17.05,1.8,4.59,2.21,9.29.8,14.07-2.32,7.88-9.37,13.1-17.35,12.8Zm-53.75,63.64c2.22-2.37,4.13-4.48,6.32-6.33.4-.33.86-.58,1.31-.85,1.09-.66,2.18-.6,3.18.14.77.57,1.48,1.21,2.18,1.86.89.83,1.73,1.72,2.62,2.55.57.53,1.17,1.05,1.82,1.49,2.35,1.61,4.32,1.46,6.33-.54.86-.86,1.58-1.86,2.39-2.76.69-.78,1.36-1.6,2.15-2.26,1.8-1.51,3.57-1.65,5.51-.36,1.08.72,2.03,1.63,2.99,2.52,1.02.95,1.92,2.02,2.97,2.94,1.9,1.68,3.85,1.89,5.97.49,1.3-.85,2.43-1.96,3.59-3,1.04-.93,1.96-1.99,3.04-2.86,1.77-1.42,3.15-1.06,4.33.35.84,1,1.61,2.06,2.48,3.03.87.96,1.75,1.95,2.77,2.73,1.39,1.07,2.96.99,4.33-.11.67-.54,1.24-1.21,1.81-1.87.62-.73,1.16-1.53,1.77-2.26,1.87-2.21,2.85-2.4,5.38-.86,1.78,1.08,3.46,2.33,5.21,3.51.19.98.36,1.91.54,2.83-16.86,2.85-56.7,3.48-80.96-.37Zm.52-3.69c2.06-2.91,4.1-5.84,6.19-8.72.71-.98,1.51-1.91,2.61-2.57,1.07.21,1.6,1.05,2.22,1.74,1.57,1.75,3.09,3.54,4.67,5.29.58.64,1.22,1.26,1.9,1.78,1.58,1.21,3.02,1.21,4.48-.11.9-.81,1.66-1.78,2.42-2.73,1.1-1.35,2.11-2.78,3.23-4.11.61-.73,1.33-1.38,2.08-1.96,1-.77,2.12-.79,3.13-.01.75.58,1.47,1.23,2.1,1.94,1.28,1.43,2.47,2.93,3.73,4.38.63.72,1.25,1.46,1.97,2.09,1.26,1.11,2.41,1.18,3.79.18.84-.61,1.58-1.36,2.31-2.11,1.52-1.56,2.96-3.19,4.51-4.72.73-.73,1.58-1.37,2.47-1.9,1.02-.61,2.04-.45,2.84.43.7.76,1.29,1.64,1.82,2.53.84,1.42,1.55,2.92,2.39,4.35,1.78,3.02,3.24,3.08,5.11.16,1.08-1.68,1.99-3.47,3.03-5.18.53-.88,1.17-1.69,1.84-2.65.65.41,1.22.65,1.62,1.05.86.86,1.67,1.78,2.44,2.72,1.33,1.61,2.62,3.26,3.93,4.89.39.48.76.96.4,1.79-.71-.46-1.39-.93-2.1-1.34-1.13-.65-2.25-1.31-3.43-1.87-1.48-.71-2.92-.4-4.16.59-.74.59-1.37,1.33-1.99,2.05-.68.79-1.26,1.67-1.95,2.45-1.61,1.82-2.57,1.84-4.32.08-.73-.74-1.35-1.6-2.02-2.39-.73-.87-1.4-1.79-2.21-2.58-1.93-1.88-3.63-2.06-5.85-.51-1.2.84-2.21,1.96-3.31,2.94-1.1.99-2.13,2.08-3.32,2.93-1.79,1.28-2.81,1.16-4.43-.3-.97-.87-1.81-1.89-2.77-2.77-1.02-.94-2.05-1.91-3.2-2.67-2.66-1.74-5-1.57-7.45.44-.74.6-1.39,1.32-2.02,2.03-.64.71-1.2,1.49-1.82,2.22-2.22,2.62-3.44,2.72-6.11.44-.86-.73-1.64-1.56-2.46-2.34-.76-.72-1.48-1.48-2.29-2.14-2.28-1.86-4.32-2.01-6.65-.24-1.57,1.2-2.91,2.72-4.35,4.09h0c-.35.11-.7.23-1.05.34Zm79.76-45.62c2.12,3.6,4.26,7.19,6.34,10.81,5.08,8.89,8.85,18.32,11.73,28.13.54,1.84,1.09,3.67,1.62,5.51.07.24.05.5.07.73-2.33,1.5-12.95,4.07-17.14,4.16-.75-4.63-1.83-9.19-3.96-13.43-.18.19-.35.38-.53.57v1.29c-.46.31-.6-.15-.77-.34-.91-1.05-1.77-2.15-2.69-3.19-.46-.52-.97-1-1.53-1.41-1.43-1.05-2.73-.9-3.91.47-.56.65-1.02,1.41-1.46,2.15-.89,1.5-1.71,3.03-2.61,4.52-.39.64-.65,1.42-1.63,1.75-.33-.45-.73-.9-1.02-1.4-.7-1.2-1.32-2.45-2.01-3.66-.47-.83-.94-1.67-1.52-2.43-1.99-2.61-4.1-2.96-6.75-1.07-.91.65-1.76,1.42-2.55,2.23-1.34,1.36-2.6,2.81-3.93,4.19-.6.63-1.23,1.23-1.91,1.77-.66.52-1.24.48-1.86-.14-.68-.67-1.31-1.39-1.94-2.12-1.31-1.51-2.54-3.1-3.91-4.55-3.42-3.61-5.76-3.57-9.15.14-1.17,1.28-2.18,2.71-3.26,4.07-.65.82-1.25,1.68-1.96,2.44-1.24,1.33-2.01,1.38-3.32.2-.84-.75-1.62-1.58-2.37-2.42-1.33-1.49-2.6-3.05-3.95-4.52-2.25-2.45-3.59-2.48-5.81-.04-1.28,1.41-2.41,2.97-3.6,4.47-.53.68-1.03,1.38-1.67,2.25-.31-.82-.02-1.42.08-2.03.12-.68.17-1.38.26-2.06h0c.22-.85.45-1.69.73-2.76-.78.72-1.05,1.41-1.19,2.16-1.66,3.97-2.32,8.16-2.74,12.38-3.31.18-14.31-2.07-18.18-3.72,4.14-17.74,12.19-33.71,22.09-48.8,2.41-.2,4.84-.33,7.26-.61,1.37-.16,2.72-.57,4.08-.85.51-.11,1.04-.31,1.53-.25,2.24.27,4.46.61,6.75.94.37,1.01.67,1.91,1.02,2.79,1.35,3.39,2.66,6.81,4.1,10.16,1.07,2.49,2.52,4.77,4.24,6.87,1.28,1.56,2.73,2.93,4.5,3.93,3.61,2.04,7.02,1.77,10.11-1.01,1.21-1.1,2.33-2.39,3.19-3.77,1.37-2.21,2.66-4.51,3.67-6.9,1.38-3.28,2.47-6.69,3.68-10.04.21-.57.38-1.16.6-1.85,1.8-.23,3.6-.5,5.41-.67.77-.07,1.58-.07,2.32.12,4.02,1.02,8.09,1.18,12.19.8.25-.02.51.03.9.05.77,1.29,1.57,2.63,2.36,3.97Zm21.52-24.98c-2.11,4.96-5.23,9.22-9.39,12.69-3.49,2.91-7.54,4.6-11.96,5.52-6.76,1.4-13.34.93-19.7-1.8-1.67-.72-3.21-1.72-4.8-2.62-.19-.11-.3-.36-.71-.87,3.04-.1,5.54-.8,7.91-1.96,2.38-1.16,4.39-2.79,6.14-4.78,1.74-1.98,2.82-4.34,3.89-6.58,1.88.61,3.56,1.31,5.31,1.68,4.25.88,8.33.05,12.18-1.81,4.56-2.2,8.34-5.34,11.08-9.66.36-.57.79-1.09,1.35-1.84.24.51.46.78.5,1.07.46,3.82-.31,7.47-1.79,10.96Zm11.95-66.35c4.8,10.29,6.39,21.08,5.16,32.34-.52,4.78-1.34,9.47-2.8,14.06-1.94,6.08-5.12,11.42-9.44,16.08-.44.48-.79,1.2-1.82.99.18-1.27.35-2.54.54-3.82.24-1.65.31-3.3-.15-4.92-.14-.49-.32-1-.6-1.43-.59-.9-1.62-1.12-2.5-.5-.56.4-1.05.91-1.47,1.45-.64.82-1.15,1.75-1.79,2.57-3.46,4.47-7.77,7.66-13.42,8.88-3.3.72-8.5.21-11.62-2.15.06-.42.13-.93.21-1.42.74-4.68.14-9.2-1.68-13.56-3.81-9.13-10.4-15.67-19.39-19.53-13.91-5.97-26.73-3.49-38.29,6.01-4.66,3.83-8.08,8.63-10.18,14.32-1.44,3.9-2.11,7.9-1.45,12.05.11.69.17,1.38.26,2.19-1.91,1.63-4.27,2.14-6.7,2.35-3.66.33-7.09-.55-10.28-2.34-3.4-1.9-6.23-4.44-8.41-7.69-.58-.87-1.14-1.76-1.85-2.52-1.47-1.57-3.15-1.21-3.74.84-.31,1.07-.33,2.23-.45,3.35-.05.49,0,1,0,1.46-.72.17-.9-.3-1.14-.62-3.49-4.68-5.76-9.93-7.15-15.55-1.39-5.6-2.12-11.3-2.2-17.06-.12-9.39,1.94-18.3,6-26.76,9.02-18.78,23.37-32.02,42.14-40.7,8.54-3.95,17.53-6.15,26.9-6.94,6.87-.58,13.58.36,20.19,1.94,25.02,5.97,46.3,23.4,57.13,46.62Zm7.92-28.78c-.14.25-.25.6-.48.84-3,3.24-6.48,5.7-10.86,6.74-2.06.49-4.13.35-6.21.4-1.91-2.01-3.83-4.02-5.86-6.16.31-.38.58-.81.93-1.14,5.2-4.84,11.18-5.96,17.86-3.74.98.33,1.94.75,2.9,1.13h0c.53.65,1.58.82,1.72,1.92Zm7.58-1.22c-1.5,2.86-3.25,5.56-5.35,8.02-3.67,4.29-8.34,6.12-13.93,5.7-.35-.03-.69-.06-1.04-.1-.43-.04-.87-.09-1.42-.15-.74-.85-1.54-1.76-2.33-2.66.17-.16.34-.44.52-.46.69-.06,1.39,0,2.08-.03,5.92-.27,10.52-3.13,14.41-7.37.06-.06.1-.14.15-.21.94-1.37.86-2.33-.34-3.43-.3-.28-.74-.41-1.12-.61-7.87-5.04-16.07-3.95-23.82,3.27-1.09-.91-2.2-1.85-3.32-2.77-1.08-.88-2.16-1.75-3.38-2.73.3-.42.53-.86.87-1.19,2.97-2.89,6.32-5.19,10.34-6.37,4.48-1.32,8.98-1.08,13.41.17,5.11,1.44,9.54,4.2,13.6,7.55,1.46,1.2,1.53,1.73.67,3.38Z"/>
      <path class="cls-48" d="m190.07,251.88c-.14-.25-.12-.7-.64-.65-.1.77-.05,1.5.45,2.14.18-.19.35-.38.53-.57-.11-.31-.18-.64-.34-.92Z"/>
      <path class="cls-48" d="m195.22,143.56c-9.18.11-15.44,7.58-15.37,15.54.07,8.54,6.97,15.39,15.54,15.35,7.7.04,15.45-6.07,15.35-15.52-.1-9.76-7.95-15.46-15.52-15.37Zm3.2,29.06c-7.93,1.7-14.72-2.92-16.67-10.22-.13-.49-.08-1.03-.12-1.6.55,1.42.89,2.84,1.6,4.04,2.55,4.34,6.4,6.63,11.46,6.37,4.93-.26,8.5-2.79,10.64-7.27.48-1,.83-1.95,1.89-2.67,2.34-1.61,2.17-3.82-.22-5.45-.29-.19-.61-.33-1.07-.57-1.11-3.09-3.05-5.67-6.14-7.3-2.4-1.27-4.96-1.64-7.6-1.26-4.34.63-9.28,3.97-10.38,10.31-.38-.88.12-1.61.33-2.39,1.33-4.94,6.81-10.18,14.52-9.5,5.15.46,11.07,4.09,12.38,11.33,1.5,8.28-3.83,14.73-10.61,16.19Zm4.26-17.17c-.49.18-.99.34-1.43.61-1.08.68-1.88,1.63-1.82,2.97.07,1.45.98,2.38,2.3,2.87.73.27,1.49.42,2.25.63-.61,4-5.14,7.22-10.05,7.24-4.79.02-9.91-3.47-10.69-9.53-.66-5.16,2.41-10.35,8.04-11.87,5.36-1.45,10.61,1.27,12.83,6.64-.63.19-1.04.3-1.44.45Zm3.94,1.86c.84.61.91,1.74.16,2.48-.73.72-1.61,1.05-3.35,1.07-.33-.13-1.18-.33-1.88-.77-.81-.5-.81-1.54-.15-2.26,1.26-1.38,3.73-1.62,5.23-.52Z"/>
      <path class="cls-48" d="m103.92,143.56c-8.25-.04-15.42,6.49-15.47,15.42-.06,8.53,6.88,15.45,15.42,15.46,8.1.08,15.46-6.45,15.48-15.41.02-8.38-6.63-15.44-15.43-15.48Zm13.59,12.71c.05,2.33.39,4.65-.31,6.97-1.62,5.36-7.04,10.09-14.19,9.71-5.25-.28-11.47-3.9-12.79-11.16-1.55-8.51,3.68-14.98,10.86-16.47,6.41-1.33,11.96,1.67,14.91,6.72,1.23,2.05,1.51,4.13,1.52,4.22Z"/>
      <path class="cls-48" d="m206.3,124.94c-3.76-3.07-8.11-4.63-12.93-4.87-1.83-.09-3.65.24-5.27,1.17-2.14,1.22-2.81,3.25-1.94,5.57.57,1.51,1.58,2.69,2.78,3.71,3.85,3.29,8.4,4.76,13.19,5.05,1.89-.01,4.1-.55,5.22-1.18,1.65-.93,2.92-2.96,2.03-5.33-.63-1.69-1.73-3.01-3.08-4.11Zm-.2,8.41c-1.03.4-2.19.66-3.29.67-4.88.05-9.23-1.53-12.95-4.69-.84-.71-1.56-1.66-2.09-2.63-1.06-1.91-.4-3.57,1.59-4.47,1.01-.46,2.16-.65,3.84-.69,4.36.21,8.35,1.5,11.83,4.21,1.11.86,2.07,1.87,2.7,3.14.98,1.97.42,3.67-1.62,4.46Z"/>
      <path class="cls-48" d="m93.39,135.04c1.16.34,2.39.42,3.4.59,1.32-.17,2.46-.25,3.56-.47,3.37-.65,6.51-1.89,9.18-4.07,1.06-.87,2.08-1.88,2.84-3.01,2.14-3.21.9-6.45-2.82-7.5-1.24-.35-2.58-.55-3.85-.49-4.63.21-8.85,1.7-12.48,4.61-1,.8-1.93,1.78-2.64,2.85-2.13,3.25-.92,6.41,2.82,7.49Zm-2.03-5.94c.59-1.29,1.53-2.32,2.62-3.21,2.26-1.85,4.86-3.05,7.68-3.73,1.43-.34,2.9-.5,4.35-.74,1.36.06,2.64.3,3.85.82,2,.87,2.63,2.55,1.57,4.47-.54.97-1.26,1.9-2.1,2.62-3.71,3.17-8.07,4.74-12.95,4.68-1.18-.01-2.42-.34-3.52-.8-1.78-.75-2.3-2.35-1.5-4.11Z"/>
      <path class="cls-48" d="m108.41,97c-2.25.6-3.55,1.43-4.65,3.07-1.16,1.73-2.19,3.55-3.25,5.35-.11.18-.01.48-.01,1.03,3.17-2.91,5.5-6.2,7.92-9.46Z"/>
      <path class="cls-48" d="m120.03,91.13c.81.27,1.28-.38,1.82-.71,2.55-1.57,5.02-3.25,7.36-5.87-4.44.84-7.66,3.25-9.19,6.58Z"/>
      <path class="cls-48" d="m135.5,85.9c-1.85,1.46-3.26,3.29-3.5,4.52,2.46-1.12,5.23-3.14,8.07-5.91.09-.08.02-.32.03-.48-1.35-.07-2.98.59-4.61,1.87Z"/>
      <path class="cls-48" d="m120.79,101.2c-.05.08.08.27.21.65,2.78-2.18,5.27-4.54,8.14-7.56-.98.07-1.41-.02-1.73.13-3.06,1.42-4.97,3.99-6.63,6.78Z"/>
      <path class="cls-48" d="m111.41,107.96c.05-.07.09-.17.07-.24-.07-.23-.12-.49-.26-.67-.07-.1-.33-.14-.47-.1-.24.07-.48.2-.67.36-2.12,1.74-3.4,4.03-4.19,6.7,2.27-1.61,3.98-3.75,5.52-6.04Z"/>
      <path class="cls-48" d="m111.95,102.57c2.08-1.86,3.89-3.94,5.31-6.35.08-.14-.08-.42-.14-.67-3.25,1.96-4.64,3.72-5.62,7.03.15,0,.36.07.45,0Z"/>
      <path class="cls-48" d="m81.57,155.11c.79-2.49,1.24-5.04,1.5-7.63.02-.24-.26-.5-.5-.94-1.86,2.85-1.46,5.76-1.41,8.66.24-.06.39-.06.4-.1Z"/>
      <path class="cls-48" d="m81.91,163.79c-.08-.27-.21-.7-.81-.39-.35,2.73.87,5.13,2.07,7.55-.19-1.46-.35-2.92-.59-4.38-.16-.94-.41-1.87-.67-2.78Z"/>
      <path class="cls-48" d="m77.2,161.41c.62-3.29.39-6.17-.62-8.11-1.26,2.93-.28,5.51.62,8.11Z"/>
      <path class="cls-48" d="m91.89,117.78c1.8-1.89,3.24-4.01,4.21-6.47-2.29,1.58-3.02,4.17-4.21,6.47Z"/>
      <path class="cls-48" d="m106.23,261.64c1.16-2.44,1.6-5.24.97-7.09-1.16,2.37-1.45,4.79-.97,7.09Z"/>
      <path class="cls-48" d="m100.29,250.05c-1.47,2.37-.86,4.93-.88,7.44.14-.19.36-.37.4-.58.37-2.11.73-4.23,1.05-6.35.02-.12-.31-.29-.57-.52Z"/>
      <path class="cls-48" d="m104.19,247.95c-.14.5-.23,1.02-.32,1.53-.11.6-.2,1.2-.29,1.8-.07.49-.13.97-.26,1.91,1.58-3.01,2.11-5.27,1.64-7.5-.38,1.1-.6,1.67-.77,2.25Z"/>
      <path class="cls-48" d="m171.35,167.82c-1.12-.99-2.39-1.74-3.86-2.1-2.04-.51-3.91.34-4.71,2.28-.39.95-.52,2-.73,2.83.6,6.06,3.02,10.87,7.79,14.4.55.41,1.21.7,1.86.94,3.08,1.14,5.65-.34,6.13-3.59.15-1.02.17-2.11-.02-3.12-.86-4.58-2.95-8.52-6.47-11.63Zm4.93,14.98c-.43,1.71-1.56,2.41-3.32,2.06-.5-.1-1-.29-1.46-.53-.54-.28-1.07-.59-1.53-.98-3.59-3.05-5.83-6.88-6.37-11.59-.11-1,.06-2.09.33-3.08.33-1.23,1.29-1.77,2.59-1.75,1.38.02,2.52.66,3.55,1.47,2.81,2.22,4.72,5.09,5.78,8.49.38,1.23.55,2.53.76,3.58-.13.94-.17,1.65-.34,2.32Z"/>
      <path class="cls-48" d="m132.3,165.81c-1.46.41-2.68,1.22-3.79,2.22-3.06,2.77-4.98,6.24-5.99,10.2-.41,1.6-.56,3.25-.14,4.91.62,2.45,2.31,3.63,4.82,3.32,1.34-.16,2.5-.77,3.53-1.58,4.31-3.43,6.64-7.94,7.25-13.6-.11-.74-.15-1.71-.4-2.62-.68-2.45-2.81-3.54-5.28-2.85Zm3.95,7.75c-.9,3.64-2.71,6.78-5.52,9.27-.89.79-1.96,1.49-3.07,1.9-1.99.74-3.48-.11-3.91-2.18-.21-1-.26-2.1-.09-3.11.73-4.47,2.82-8.2,6.4-11.01.8-.62,1.78-1.12,2.76-1.37,1.96-.49,3.19.38,3.63,2.36.11.51.11,1.04.18,1.78-.1.65-.16,1.52-.37,2.36Z"/>
      <path class="cls-48" d="m94.25,153.2c-.61,1.12-1.06,2.2-2.35,2.94-2.02,1.15-2.04,3.58-.11,4.97,1.07.77,1.58,1.7,2.11,2.81,2.22,4.65,5.96,7.24,11.13,7.28,5.27.04,9.08-2.54,11.38-7.3,1.22-2.54,1.26-5.18.71-7.88-.46-1.06-.93-2.13-1.39-3.19-2.38-4.3-6.14-6.27-10.94-6.16-4.73.11-8.26,2.38-10.52,6.55Zm-1.94,6.54c-.69-.74-.68-1.65.04-2.29,1.51-1.34,4.38-1.06,5.63.55.53.68.51,1.6-.21,2.07-.7.45-1.54.68-1.87.82-1.7.03-2.75-.26-3.58-1.15Zm13.52-11.72c5.31.3,9.84,4.44,10.25,10.35.36,5.22-3.55,10.25-8.64,11.25-5.52,1.08-10.52-1.72-12.48-7.06.82-.22,1.65-.38,2.44-.66,1.23-.43,2.11-1.25,2.27-2.61.17-1.47-.57-2.53-1.8-3.21-.82-.45-1.75-.72-2.62-1.07.44-1.97,1.57-3.57,3.46-4.94,2.13-1.55,4.52-2.2,7.13-2.05Z"/>
    </g>
  </g>
</svg>