<?xml version="1.0" encoding="UTF-8"?>
<svg id="Layer_1" data-name="Layer 1" xmlns="http://www.w3.org/2000/svg" viewBox="0 0 300 299.76">
  <defs>
    <style>
      .cls-1 {
        fill: #5f334f;
      }

      .cls-2 {
        fill: #efe6bd;
      }

      .cls-3 {
        fill: #f29e96;
      }

      .cls-4 {
        fill: #897385;
      }

      .cls-5 {
        fill: #fff;
      }

      .cls-6 {
        fill: #fbf4e3;
      }

      .cls-7 {
        fill: #f09621;
      }

      .cls-8 {
        fill: #f1a81e;
      }

      .cls-9 {
        fill: #45796d;
      }

      .cls-10 {
        fill: #4d2942;
      }

      .cls-11 {
        fill: #ead4b0;
      }

      .cls-12 {
        fill: #ad9fa1;
      }

      .cls-13 {
        fill: #abdadf;
      }

      .cls-14 {
        fill: #4a897b;
      }

      .cls-15 {
        fill: #4d2840;
      }

      .cls-16 {
        fill: #4c2840;
      }

      .cls-17 {
        fill: #f4d0a9;
      }

      .cls-18 {
        fill: #5a2c4b;
      }

      .cls-19 {
        fill: #e99890;
      }

      .cls-20 {
        fill: #41776b;
      }

      .cls-21 {
        fill: #a3b9b6;
      }

      .cls-22 {
        fill: #97b0bb;
      }

      .cls-23 {
        fill: #f8d36d;
      }

      .cls-24 {
        fill: #b9c5ce;
      }

      .cls-25 {
        fill: #eddbcc;
      }

      .cls-26 {
        fill: #f9f5e2;
      }

      .cls-27 {
        fill: #592f4d;
      }

      .cls-28 {
        fill: #592e4b;
      }

      .cls-29 {
        fill: #b6c3cb;
      }

      .cls-30 {
        fill: #d7e9e6;
      }

      .cls-31 {
        fill: #7b4728;
      }

      .cls-32 {
        fill: #9b778b;
      }

      .cls-33 {
        fill: #9fa5a8;
      }

      .cls-34 {
        fill: #a0919d;
      }

      .cls-35 {
        fill: #40766a;
      }

      .cls-36 {
        fill: #5a2e4c;
      }

      .cls-37 {
        fill: #7b576c;
      }

      .cls-38 {
        fill: #592e4d;
      }

      .cls-39 {
        fill: #ef8590;
      }

      .cls-40 {
        fill: #c6e8ed;
      }

      .cls-41 {
        fill: #592d4b;
      }
    </style>
  </defs>
  <rect class="cls-30" x="35" y="30.14" width="230" height="237.22" rx="68.69" ry="68.69"/>
  <g>
    <g>
      <path class="cls-5" d="m228.7,161.78c-.16.83-.32,1.67-.49,2.5-.2,1-.39,2-1.04,2.84-.44.56-.48,1.26-.65,1.91-.85,1.17-2.14.99-3.32.99-2,0-3.97.18-5.92.55-4.42.84-5.44,3.11-3.15,7.02,1.11,1.89,2.7,3.36,4.19,4.92.8.85,1.92,1.54,1.87,2.95-1.66,3.01-3.96,5.49-6.42,7.85-.45.43-.93.79-1.56.87-1.47.65-2.48-.4-3.59-1.01-4.05-2.22-8.04-4.51-12.63-5.52-4.49-.99-6.77,1.01-6.16,5.54.45,3.32,1.57,6.41,2.98,9.42.5,1.07,1.31,2.15.46,3.41-2.24.81-4.48,1.64-6.73,2.43-1.04.36-2.07.82-3.2.86-17.95,3.62-35.73,2.83-53.29-2.32-7.63-2.24-14.77-5.62-21.31-10.21-1.08-.76-2.05-1.61-2.89-2.61-.28-.31-.45-.68-.52-1.09-.03-.82.13-1.67-.23-2.47-.51-1.55-1.12-3.02-2.87-3.58-4.51.03-6.46-3.14-8.22-6.54-1.28-2.47-2.75-4.79-4.45-7.02-2.58-3.39-3.59-7.29-2.61-11.56.53-2.34.22-4.68-.13-6.99-.74-4.99.02-9.87.8-14.76.16-.98.59-1.82,1.56-2.26.8-.25,1.53.06,2.28.3,5.15,1.71,13.14-.49,16.68-4.59,2.29-2.65,1.55-4.82-1.91-5.65-2.76-.66-5.34.23-7.92.98-1.94.56-3.64,1.64-5.42,2.56-.25.11-.51.17-.78.19-.27.01-.53-.04-.78-.16-1.22-1.17-.5-2.41-.07-3.59,1.64-4.48,3.82-8.67,6.54-12.59,2.16-3.59,4.76-6.84,7.5-9.99,1.07-1.22,2.06-2.64,3.96-2.69,2.13.48,3.51,2.21,5.31,3.25,1.06.61,2.1,1.24,3.23,1.71,2.64,1.11,3.98.34,4.24-2.53.28-3.07-.19-6.08-.83-9.07-.28-1.34-.79-2.72.12-4.04,2.86-1.61,5.96-.99,8.9-.65,5.01.58,9.22,2.97,12.46,6.9,1.71,2.07,3.34,4.23,5.14,6.23,3.31,3.69,7.29,6.06,12.48,6.01,3.34-.03,6.03-1.38,8.42-3.54.83-.75,1.51-1.74,2.84-1.54,4.08,3.21,5.48,3.27,9.95.13,3.54-2.48,6.9-5.17,9.64-8.6,1.03-1.29,1.86-3,3.84-3.23,2.04,1.37,3.66,3.24,5.5,4.84.18.2.28.42.32.69.02.4-.04.78-.15,1.16-1.34,3.67-2.81,7.3-2.76,11.31.04,3.29,1.86,4.89,5.17,4.41,2.5-.36,4.88-1.23,7.23-2.12,1.16-.43,2.3-.77,3.54-.45,2.13,2.42,3.83,5.14,5.44,7.91,4.12,7.11,6.91,14.73,8.42,22.82.24,1.27.62,2.53.53,3.85-.15.2-.34.36-.56.47-1.83.46-3.76.5-5.52,1.3-3.71,1.68-4.12,3.99-1.05,6.61,2.17,1.86,4.66,3.26,7.11,4.71.18.17.34.35.48.55Z"/>
      <path class="cls-8" d="m190.08,265.72c-1.17.36-2.37.48-3.59.58-2.59.21-5.18.55-7.76.84-.43.05-.86.11-1.3.14-5.9.41-11.81.76-17.72.58-3.23-.09-6.41.61-9.64.45-2.09-.1-4.18,0-6.27-.02-4.35-.06-8.69-.38-13.02-.58-4.93-.23-9.86-.88-14.76-1.5-4.91-.62-9.79-1.43-14.69-2.17-.24-.04-.46-.23-.69-.35-.95-2.25-.11-4.49.28-6.65,1.74-9.84,4.41-19.43,8.21-28.68.4-.96.75-1.95,1.66-2.59.38-.23.79-.32,1.23-.32,2.66.71,5.14,1.85,7.6,3.07,4.03,2.19,8.55,2.8,12.91,3.89,5.99,1.49,12.18,2.15,18.29,2.11,14.21-.08,27.76-2.96,39.5-11.67.28-.21.58-.38.92-.48.14-.01.28-.02.43-.03.17-.02.35-.03.51-.07.49-.13.94-.53,1.49-.32.67.25.29.9.45,1.34.24.65.53,1.28.87,1.88,2.99,5.29,5.91,10.61,8.46,16.12,2.58,5.59,5.06,11.23,6.57,17.22.08.33.22.66.34.98.58,1.46.52,1.72-.93,2.29-3.32,1.29-6.73,2.33-10.25,2.86-1.28.19-2.52.71-3.85.52-.96-.77-1.12-1.93-1.42-3.01-.99-3.6-2.76-6.73-5.74-9.67.99,3.43,2.08,6.43,2.58,9.57.2,1.29.52,2.6-.63,3.66Z"/>
      <path class="cls-41" d="m149.84,52.38c1.74.88,2.64,2.39,3.18,4.19-.57,1.01-1.39,1.74-2.38,2.34-1.61.98-2.78,2.36-3.47,4.11-.45,1.13-.58,2.29.66,2.99,1.13.64,1.98-.16,2.73-.91,1.45-1.45,1.76-3.33,1.91-5.27.09-1.1-.28-2.28.54-3.26.89-.05,1.63-.56,2.44-.85,4.28-1.57,8.62-1.8,13.03-.64,1.44.38,2.77,1,3.96,1.91,3.06,2.32,3.73,5.33,1.96,8.71-.39.75-1.11,1.37-.94,2.34-.84.67-1.44-.16-2.12-.38-2.47-.78-4.93-.87-7.37.05-.74.28-1.45.77-1.48,1.64-.03,1.06.84,1.48,1.67,1.72,2.06.58,3.94-.06,5.67-1.13,1.17-.73,2.29-1.52,3.65-1.88.82-.01,1.49.42,2.15.81,2.4,1.41,4.52,3.16,6.22,5.38,2.54,3.31,3.24,6.97,2.17,10.99-.2.75-.42,1.49-.63,2.24.1.19.15.39.15.6-.04.33-.18.61-.36.89-.18.27-.38.53-.59.78-.55.84-1.25,1.57-1.92,2.32-.16.17-.33.33-.51.48-.18.15-.38.27-.59.37-1.02.36-1.91,1.09-3.06,1.07,0,0-.22.12-.22.12,0,0,.24.09.25.1.09.2.09.4.02.6-1.08,1.02-2.28,1.73-3.82,1.69-2.65-2.14-3.73-1.75-4.29,1.5-.28,1.62-.52,3.31-2.38,4.02-.35.07-.7-.06-1.04,0-6.15,1.12-7.79.42-10.79-4.99-2.46-4.45-5.29-8.58-9.13-11.97-3.35-2.96-7.09-5-11.61-5.41-1.79-.16-3.35-.59-3.23-2.86.1-1.95,1.5-3.08,3.78-3.1,3.11-.03,3.35-.29,3.05-3.49-.7-7.65,2.55-13.56,9.25-16.89,1.12-.56,2.25-.9,3.5-.9Z"/>
      <path class="cls-6" d="m98.57,115.71c-.45.74-.87,1.5-1.34,2.23-2.43,3.74-4.02,7.88-5.74,11.96-.22.52-.2,1.01.14,1.47.43.33.39.82.14,1.14-1.3,1.67-1.67,3.69-2.22,5.64-.48.4-.82.88-.89,1.54-.08.78-.25,1.54-.33,2.32-.35,3.63-1.08,7.25-.68,10.9.21,1.9.3,3.82.64,5.68.2,1.09.09,2.06-.17,3.06-1.26,4.8.07,8.93,3.33,12.51.83.92,1.53,1.89,2.04,3,1.06,2.29,2.45,4.41,3.73,6.58.85,1.44,1.89,2.18,3.6,1.97.84-.1,1.76-.17,2.48.51-1.19,1.83-3.34.33-4.75,1.37-4.29.85-8.17,2.64-11.83,5.01-.98.63-1.93,1.53-3.29,1.13-.84-.08-1.37-.67-1.93-1.2-2.4-2.27-4.29-4.93-5.99-7.75.72-2.26,2.91-3.35,4.17-5.21,1.45-2.14,3.72-4.16,2.23-6.95-1.35-2.52-4.2-2.33-6.7-2.57-1.81-.17-3.86.67-5.35-1.11-.8-1.69-.78-3.54-1.07-5.32-.12-.77-.1-1.56-.15-2.34.2-1.16,1.07-1.71,1.99-2.23,1.44-.81,2.73-1.83,3.9-2.97,2.14-2.08,1.91-3.77-.54-5.48-1.24-.86-3.05-.89-3.73-2.56-.86-.52-1.09-1.28-.89-2.23.86-4.26,1.77-8.5,3.28-12.58,2.14-5.8,4.78-11.36,8-16.64.59-.96,1.08-1.99,2.06-2.65,1-.21,1.89.16,2.77.54,4.03,1.74,8.12,2.5,12.38.87.28.05.52.18.72.37Z"/>
      <path class="cls-5" d="m118.97,229.12c-2.3-.98-4.76-1.59-6.87-2.99-1.43-2.41-.07-4.09,1.49-5.73,2.54-1.08,4.91.3,7.35.57,3.11.35,6.18.44,9.27.03.37-.16.74-.32,1.01-.63.27-.51.64-.92,1.22-1.09,3.33-.29,6.53.75,9.81,1.06,7.32.69,14.56.5,21.8-.63.51-.08,1.03-.17,1.56-.14.3.01.59.08.88.19.55.22.93.69,1.41,1.01,2.82,1.65,5.76.61,8.64.29,3.97-.44,7.84-1.5,11.7-2.49,1.03-.26,2.03-.51,3.05-.04,1.27,1.16,1.02,2.47.34,3.81h0c-8.54,6.34-18.04,10.08-28.62,11.62-15.16,2.21-29.69-.2-44.04-4.84Z"/>
      <path class="cls-6" d="m166,101.52c1.18-1.18,1.43-2.71,1.57-4.25.1-1.02.11-2.05.16-3.24.87.12,1.68.28,2.49.33.86.06,1.72.01,2.58.01.5.7-.19,1.35.02,1.98,1.17,2.68-.38,5.25-.3,7.88-.06.63-.21,1.21-.84,1.52-.65.09-1.05.48-1.46.98-2.55,3.16-5.81,4.77-9.93,4.8-5.78.05-10.13-2.57-13.66-6.89-1.81-2.21-3.5-4.54-5.44-6.64-2.33-2.53-5.24-4.29-8.59-5.19-1.59-.43-3.21-.74-4.89-.67-2.08.09-4.17.05-6.26.07-.29.11-.55.06-.79-.14-1.37-2.45-2.87-4.87-1.82-7.87.13-.78.66-1.16,1.35-1.43,1.61-.63,3.21-1.29,4.81-1.94.6-1.78,2.1-1.65,3.46-1.46,6.44.94,11.91,3.74,16.13,8.76,1.68,2,3.21,4.14,4.38,6.47,1.4,2.78,3.54,4.95,5.62,7.15,2.3,2.43,5.61,2.76,8.57,1.05.9-.52,1.79-1.07,2.83-1.3Z"/>
      <path class="cls-16" d="m166,101.52c-1.41,1.99-3.18,3.34-5.75,3.49-1.17.07-2.22-.27-3.29-.55-.82-.22-1.59-.67-2.36-1.07-.37-.19-.88-.45-.98-.78-.38-1.26-1.47-1.9-2.23-2.82-.98-1.19-2.01-2.3-2.73-3.74-1.2-2.4-2.72-4.64-4.4-6.75-3.91-4.92-9.04-7.74-15.19-8.81-1.38-.24-2.77-.37-4.07.35-.73-.15-1.29-.47-1.47-1.28-.7-3.28-.88-6.55.35-9.76.91-2.38,2.63-3.99,5.2-4.17,1.65-.11,2.22-.91,2.71-2.26,1.64-4.52,4.8-7.8,8.79-10.33,1.56-.99,3.24-1.71,5.12-1.79,1.49-.06,2.97-.03,4.14,1.12-.61.8-1.57,1.06-2.4,1.51-1.23.65-2.47,1.26-3.63,2.03-2.19,1.45-3.52,3.49-4.54,5.86-.91,2.13-.85,4.41-1.37,6.6-.11.47.15,1.01.2,1.53.08.86.21,1.73.18,2.59-.08,1.68-1.01,2.49-2.72,2.4-.6-.03-1.19-.21-1.78-.35-.72-.16-1.43-.15-1.91.46-.66.84-1.09,1.8-.67,2.9.08.21.32.43.54.51.32.12.68.15,1.02.16,5.24.08,9.48,2.42,13.24,5.86.26.23.48.51.74.73,3.69,3.17,6.16,7.25,8.45,11.45.58,1.06,1.22,2.11,1.95,3.07.94,1.23,2.2,1.95,3.81,1.9,1.04-.03,2.08.08,3.09-.3.68-.25,1.36-.3,1.96.23Z"/>
      <path class="cls-6" d="m105.88,193.6c.54.05.99.28,1.4.63,2.79,2.39,5.89,4.29,9.15,5.97,3.64,1.88,7.35,3.6,11.23,4.91,4.87,1.63,9.83,2.89,14.91,3.71,2.83.46,5.67.72,8.51,1.07,6.78.84,13.56.31,20.34.38,2.49.02,5-.5,7.48-.83,1.48-.2,2.95-.15,4.43-.11-1.34.91-2.93,1.08-4.44,1.43-4.49,1.04-9.02,1.79-13.62,2.26-7.97.83-15.95,1.13-23.96,1.02-3.49-.05-6.92-.52-10.37-.95-5.45-.68-10.79-1.85-16.08-3.28-4.2-1.14-8.32-2.53-12.24-4.46-.67-.72-.67-1.58-.43-2.43.8-2.9,1.38-5.87,2.59-8.66.27-.38.63-.61,1.11-.66Z"/>
      <path class="cls-7" d="m111.11,226.01c-1.5,4.07-3.13,8.1-4.47,12.21-2.08,6.35-3.64,12.85-4.8,19.42-.27,1.52-.61,3.06-.66,4.62-.02.54-.15,1.03-.55,1.42-1.76.09-3.44-.51-5.16-.7-1.98-.22-3.94-.62-5.92-.95-.99-.16-1.39-.75-1.08-1.63,1.11-3.21,2.23-6.41,3.33-9.62,3-8.76,6.83-17.15,11.3-25.24.38-.7.7-1.38.85-2.16.11-.6.64-.76,1.22-.57.82.27,1.38,1.12,2.35,1.03.11-.02.22-.04.33-.06.46-.08.9-.01,1.34.13.88.48,2.13.63,1.94,2.1Z"/>
      <path class="cls-5" d="m51.51,96.89c.09-.15.16-.33.28-.43,4.35-3.68,9.3-5.71,15.06-5.17,2.78.26,5.43,1.09,7.93,2.38,3.9,2.02,7.19,4.81,10.21,7.96,1.29,1.35,1.93,2.85,1.6,4.71.17,2.13-.94,3.3-2.87,3.86-4.82-3.78-10.27-6.03-16.35-6.84-2.65-.35-5.19-.2-7.52,1.27-3.4.49-8.65-4.37-8.35-7.73Z"/>
      <path class="cls-5" d="m212.07,108.92c-.92-1.04-1.85-2.07-2.75-3.13-.31-.37-.33-.83.08-1.16,1.29-1.05,2.16-2.48,3.26-3.69,3.73-4.11,7.96-7.47,13.47-8.91,2.14-.56,4.31-.62,6.46-.39,3.76.4,7.27,1.63,10.42,3.76.58.39,1.12.83,1.45,1.47.16.43.21.89-.05,1.26-1.73,2.42-3.79,4.53-6.3,6.16-.52.34-1.15.39-1.77.26-5.35-2.66-10.49-.97-15.56.89-2.02.74-3.88,1.92-5.8,2.93-.9.48-1.81,1.11-2.92.56Z"/>
      <path class="cls-41" d="m193.26,206.04c-1.23-2.58-2.43-5.17-3.35-7.89-.56-1.65-.91-3.34-1.18-5.06-.2-1.32-.03-2.61.39-3.85.64-1.89,2.12-2.95,4.11-3.02.6-.02,1.25-.06,1.81.12,2.04.7,4.19.99,6.17,1.92,3.77,1.78,7.48,3.64,10.98,5.92.16.2.34.39.47.61.32.55.15,1.26-.32,1.22-1.38-.11-2.22.8-3.22,1.45-3.69,2.4-7.38,4.82-11.3,6.84-1.45.75-2.89,1.55-4.56,1.72Z"/>
      <path class="cls-16" d="m105.42,194.22c-.02,2.08-.84,3.98-1.37,5.95-.46,1.73-.95,3.45-1.42,5.18-.34.05-.71.23-1,.13-1.15-.38-2.3-.78-3.39-1.3-4.57-2.14-8.98-4.54-13.02-7.59-.41-.31-.77-.72-1.33-.75-.5-.03-1.12.14-1.27-.56-.12-.59.42-.9.71-1.31.05-.07.06-.16.09-.24,3.93-2.97,8.23-5.24,12.94-6.7.49-.15,1-.2,1.5-.29,3.87-.24,7.88,3.73,7.55,7.48Z"/>
      <path class="cls-6" d="m166.61,220.21c-2.27.57-4.59.85-6.91,1.19-4.43.65-8.85.29-13.28.42-1.04.03-2.07-.04-3.11-.28-.83-.2-1.72-.16-2.59-.23-2.94-.23-5.85-.7-8.67-1.57-.63-.23-.86-.83-1.22-1.31-.48-1.45-1.97-2.41-1.99-4.08.72-.48,1.5-.31,2.28-.2,3.19.46,6.39.69,9.6.95,4.17.35,8.34.43,12.52.46,4.8.03,9.55-.52,14.27-1.29.61-.1,1.19-.32,1.73.15.19,2.41-.66,4.36-2.63,5.79Z"/>
      <path class="cls-16" d="m118.85,84.21c.65,2.13,1.31,4.26,1.95,6.4.14.49.19,1,.29,1.5.56,1.11.18,2.1-.65,2.78-3.28,2.67-6.62,5.25-10.05,7.73-.36.26-.81.26-1.25.27-.6.04-1.26.27-1.76-.16-2.67-2.29-5.7-4.29-6.67-7.99.05-.42.02-.86.42-1.17,3.54-2.65,7.12-5.24,11.06-7.27,1.76-.91,3.56-1.75,5.33-2.63.64-.31.9.32,1.33.53Z"/>
      <path class="cls-41" d="m171.69,105.76c.03-.52.07-1.04.1-1.55.16-.07.42-.12.44-.24.89-4.25,3.81-6.19,7.74-7.39,2.72-.84,4.66-2.91,5.72-5.69.36-.95.67-2.01,1.79-2.42,2.67,1.24,4.96,3.04,7.29,4.8.12.09.16.3.23.46-3.65,4.89-7.85,9.23-12.94,12.65-1.15.77-2.33,1.51-3.62,2.01-.64.25-1.31.47-1.98.59-2.29.4-3.34-.16-4.37-2.25-.15-.31-.27-.64-.41-.96Z"/>
      <path class="cls-41" d="m200.2,99.08c.1-.18.21-.35.31-.53.53-.09.98-.03,1.39.42,2.94,3.16,5.92,6.28,8.63,9.65.42.52.73,1.19,1.46,1.4l-.02-.02c.01.66.5,1.06.86,1.53.47.61.97,1.2,1.03,2.02-3.15,1.45-6.33,2.79-9.75,3.48-1.03.21-2.07.29-3.11.19-2.5-.24-3.93-1.69-4.17-4.19-.22-2.37.19-4.66.79-6.94.62-2.35,1.53-4.6,2.46-6.84l.1-.17Z"/>
      <path class="cls-16" d="m83.88,109.86c.91-1.17,1.82-2.35,2.73-3.52,2.32-2.32,4.83-4.44,6.96-6.95.48-.56.77-.53,1.43.14.12.12.23.26.34.39.94.28,1.35,1.05,1.67,1.87,1.24,3.17,1.96,6.48,2.44,9.84.22,1.53-.46,2.88-1.42,4.07-1.09,1.29-2.5,1.75-4.15,1.75-3.73,0-7.17-1.05-10.41-2.82-.29-.16-.51-.46-.77-.69-.34-.83.07-1.61.12-2.42-.01-.12-.02-.24-.03-.36.05-.7.55-1.01,1.09-1.3Z"/>
      <path class="cls-18" d="m220.18,185.47c-2.4-1.89-4.62-3.97-6.41-6.45-.81-1.13-1.52-2.32-1.89-3.69-.51-1.9.01-3.42,1.64-4.52.95-.64,2.02-1.03,3.14-1.21,1.37-.22,2.76-.38,4.14-.45,1.91-.1,3.82-.09,5.73-.13,1.25,1.04,1.3,1.07.64,2.2-.36.62-.47,1.29-.68,1.94-1.14,3.62-2.49,7.15-4.22,10.54-.27.53-.58,1.05-.92,1.56-.3.45-.75.29-1.17.22Z"/>
      <path class="cls-16" d="m69.85,168.94c2.17-.07,4.34-.1,6.5.09,1.57.14,3.09.46,4.53,1.08,2.33,1.01,3.18,2.84,2.54,5.29-.09.33-.19.67-.36.97-1.87,3.38-4.3,6.27-7.57,8.4-1.2-.48-1.91-1.43-2.48-2.53-1.59-3.08-2.85-6.28-3.67-9.65-.16-.67-.34-1.33-.52-1.99-.25-.91-.26-.91,1.03-1.66Z"/>
      <path class="cls-6" d="m236.62,104.2c.59-.35,1.28-.59,1.76-1.06,2.08-2.04,4.3-3.95,6.09-6.28.23.13.45.26.68.38.61.34.85.82.66,1.51-.32,1.18-.8,2.28-1.49,3.3-4.65,6.78-10.76,11.44-18.96,13.02-2.2.42-4.44.68-6.66,1.01-.84.12-1.59-.08-2.04-.82-.99-1.62-2.33-3.01-3.1-4.77.36-.52.9-.66,1.49-.69,7.21.85,13.64-1.39,19.72-4.99.55-.43,1.18-.62,1.87-.61Z"/>
      <path class="cls-6" d="m51.51,96.89c-.06.93.28,1.69.99,2.27,2.11,1.74,4.11,3.64,6.4,5.16.09.06.31-.08.47-.13.95-.39,1.6.15,2.24.72,2.5,2.1,5.45,3.32,8.57,3.96,3.77.76,7.57,1.59,11.47.81.86.31,1.85.53,1.21,1.82,0,0-.04,0-.04,0-1.08.88-2.15,1.75-2.62,3.14-.22.66-.77.94-1.41.97-1.04.05-2.1.14-3.12,0-2.06-.3-4.1-.69-6.14-1.14-1.01-.22-1.95-.7-3.04-.43-.63.16-1.16-.29-1.71-.53-3.93-1.69-6.98-4.5-9.74-7.68-.8-.92-1.57-1.86-2.32-2.81-1.16-1.46-2.04-3.03-1.77-5.01.06-.45.22-.83.56-1.13Z"/>
      <path class="cls-6" d="m98.03,115.69c.8-2.48.35-4.95-.24-7.37-.55-2.25-1.28-4.45-1.94-6.68-.17-.58-.34-1.15-.51-1.73.25-.78.81-1.3,1.42-1.81,1.33-1.1,2.63-2.24,3.94-3.36,1.1,1.22,2.18,2.47,3.31,3.67,1.49,1.58,2.91,3.22,4.82,4.33.13.06.27.11.4.17-.12.08-.25.15-.37.23-2.92,2.59-5.21,5.72-7.59,8.78-.95,1.22-1.8,2.52-2.7,3.79l-.54-.02Z"/>
      <path class="cls-15" d="m128.84,214.35c1.35.91,2.49,1.98,2.71,3.71.08,2.15-.42,2.72-2.64,2.56-2.61-.18-5.16-.84-7.65-1.62-2.4-.76-4.64-1.5-6.42,1.11-.21.31-.77.37-1.2.48-2.68.73-4.28.16-5.85-2.07-.12-.32-.44-.7-.19-.96,1.78-1.79,2.76-4.17,4.46-6.03.5-.54.94-.67,1.58-.53.67.15,1.35.3,2.03.45.65.48,1.6-.2,2.17.56,1.53.63,3.18.63,4.77.86,2.13.3,4.21.76,6.22,1.49Z"/>
      <path class="cls-15" d="m166.61,220.21c.45-2.12,1.54-3.95,2.63-5.79.95-.81,2.11-1.15,3.3-1.35,3.92-.64,7.83-1.3,11.61-2.55,1.23-.41,2.2-.02,2.94,1,.56.76,1.17,1.5,1.43,2.44.61,1.52-.37,2.33-1.5,2.81-5.52,2.33-11.31,3.65-17.23,4.49-.89.13-1.7-.23-2.51-.53-.27-.13-.5-.31-.69-.54v.02Z"/>
      <path class="cls-15" d="m187.48,88.46c-.17.58-.35,1.16-.51,1.74-1.22,4.49-4.53,6.76-8.64,8.19-2.7.13-3.9,1.86-4.57,4.22-.25.89-.73,1.71-1.13,2.65-.33-.41-.59-.73-.84-1.06-.29-2.7.13-5.31,1.04-7.85.71-.88,1.44-1.68,2.74-1.62.3.02.62-.26.92-.4.64-1.32,2.23-1.27,3.15-2.18l-.04.03c.17-.15.36-.27.58-.36.66-.67,1.47-1.22,1.81-2.15.28-.47.74-.78,1.08-1.21.15-.15.31-.29.47-.42.09-.05.19-.09.28-.14,1.36-.74,2.58-.54,3.67.54Z"/>
      <path class="cls-10" d="m70.26,148.03c1.36.32,2.68.75,3.89,1.44.67.39,1.35.8,1.92,1.32,1.47,1.33,1.65,3.06.43,4.65-1.5,1.96-3.56,3.28-5.6,4.6-.72.47-1.51.82-2.27,1.23-.56-.5-.73-1.16-.78-1.87-.29-3.56.06-7.09.41-10.63.04-.39.34-.59.7-.64.43-.06.86-.07,1.29-.11Z"/>
      <path class="cls-39" d="m215.11,110.51c-.52,0-1.04-.01-1.56-.02-.5-.25-.98-.53-1.57-.49,0,0,.02.02.02.02.02-.37.05-.74.07-1.11,2.97-1.62,5.9-3.32,8.93-4.82,1.22-.6,2.64-.86,3.99-1.12,2.46-.47,4.93-1.05,7.47-.79.77.08,1.54.23,2.31.37.94.17,1.53.76,1.86,1.64-.3.41-.55.86-1.05,1.06-2.3.79-4.6,1.44-7.05,1.68-2.7.26-5.19,1.38-7.67,2.45-1.83.79-3.68,1.51-5.74,1.12Z"/>
      <path class="cls-27" d="m166.98,220.3c3.25.19,6.35-.73,9.48-1.35,3.32-.66,6.52-1.78,9.72-2.87,1.08-.37,2.18-.72,2.35-2.11,1.08,1.43,2.36,2.74,2.76,4.58-.79.57-1.73.8-2.64,1.04-5.19,1.38-10.41,2.59-15.78,3.02-.94.08-1.9.06-2.85,0-1.16-.07-2.19-.48-3.01-1.34-.23-.32-.24-.64-.03-.97Z"/>
      <path class="cls-7" d="m190.08,265.72c.03-3.16-.87-6.15-1.74-9.14-.46-1.58-.91-3.16-1.32-4.75-.05-.21.05-.57.22-.69.16-.12.51-.09.72.01,1.12.54,1.95,1.47,2.68,2.42,2,2.64,3.63,5.47,4.35,8.76.21.94.34,1.87.31,2.82-1.74.16-3.43.78-5.21.56Z"/>
      <path class="cls-26" d="m107.8,218.52c1.88.79,3.74,1.66,5.82,1.83.39.01.44.15.14.4-.09.79-.46,1.48-.83,2.16-.55,1.01-.83,2.08-.83,3.22-.33-.04-.66-.08-.99-.12-.86-.53-1.73-1.05-2.59-1.58-.27-.31-.8-.17-1.01-.58,0,0,0-.01,0-.01-.41-.78-1.25-1.12-1.82-1.73-.25-.27-.38-.72-.14-.92.9-.77,1.1-2.13,2.26-2.67Z"/>
      <path class="cls-11" d="m228.7,161.78c-.17-.06-.33-.13-.5-.19-1.77-2.38-1.12-4.95-.56-7.51.28-.45.67-.73,1.21-.78.73,2.21.48,4.45.21,6.69-.07.6-.23,1.19-.35,1.79Z"/>
      <path class="cls-25" d="m228.85,153.3c-.17.2-.34.39-.51.59-1.82-2.09-1.98-3.48-.69-5.75.2,0,.4,0,.6-.01.43.47.49,1.05.51,1.64.03,1.18.06,2.35.09,3.53Z"/>
      <path class="cls-17" d="m117.85,212c-.75-.07-1.58.15-2.17-.56.78-.03,1.61-.26,2.17.56Z"/>
      <path class="cls-2" d="m183.16,87.98c.07-.17.15-.35.22-.52.14.15.29.3.43.46,0,0-.16.16-.16.16-.2.14-.36.1-.5-.09Z"/>
      <path class="cls-41" d="m125.62,165.83c.62-1.1,1.66-1.77,2.63-2.47,4.79-3.48,10.08-5.65,15.99-6.43,3.96-.52,7.78-.05,11.57.98,4.23,1.15,8.18,2.92,11.6,5.7,4.52,3.68,7.2,8.45,7.82,14.24.6,5.65-.9,10.69-5.1,14.72-4.26,4.09-9.29,5.17-14.93,3.71-.75-.19-1.49-.42-2.24-.63-.09.01-.18.03-.28.04-.19,0-.38-.04-.56-.1-.27-.11-.53-.23-.78-.38-.18-.09-.34-.2-.51-.32-.26-.18-.5-.38-.72-.6-.6-.7-1.42-1.07-2.22-1.46-2.18.58-4.28,1.42-6.57,1.58-4.07.29-8.1.82-11.96-1.24-3.81-2.03-5.94-5.24-7.01-9.26-1.54-5.83-.86-11.35,2.55-16.43.34-.5.76-.96.7-1.63Z"/>
      <path class="cls-14" d="m97.07,165.89c0-.92-.14-1.81-.6-2.62-.54-3.26.55-6.13,2.16-8.86,1.42-.97,3.08-1.1,4.7-1.13,4.94-.09,9.56,3.31,11.02,8.03.77,2.49.69,4.95-.56,7.3-3.01,2.56-6.5,3.49-10.36,2.83-3.21-.55-5.62-2.12-6.36-5.55Z"/>
      <path class="cls-41" d="m191.76,126.58c4.2.21,7.83,1.55,11.15,3.74,2.03,1.33,3.49,3.09,4.03,5.54.12.55.14.97-.18,1.45-.9,1.37-2.09,2.22-3.74,2.58-2.1.46-4.15.32-6.2-.13-3.08-.68-5.96-1.87-8.51-3.75-1.27-.94-2.36-2.05-3-3.53-.95-2.19-.31-4.07,1.9-4.87,1.5-.54,2.98-1.49,4.54-1.01Z"/>
      <path class="cls-16" d="m125.62,165.83c.37.3.57.66.35,1.13-.44.94-.92,1.87-1.36,2.81-2.39,5.1-2.76,10.3-.65,15.59.26.64.46,1.31.76,1.93,1.6,3.27,4.55,4.87,7.74,6.16.16.06.34.1.51.1,3.03-.02,6.06.34,9.07-.25.69-.14,1.37-.29,2.05-.12.83.21,1.32-.14,1.65-.86.18-.39.39-.77.64-1.13.48-.69,1.17-.66,1.68.08.3.42.51.91.76,1.36.82.39,1.33,1.14,2.02,1.69.21.08.39.2.56.34l-.04-.03c.35.25.72.48,1.06.74.2.08.38.19.54.34,0,0,0-.09,0-.08.12,1.12-.14,1.98-1.26,2.53-3.32,1.62-6.62,1.76-9.95.05-.82-.42-1.42-.98-1.35-2,.14-.17.32-.3.53-.31-.01,0-.1-.09-.12-.09-.3.21-.71.12-.96.42-3.34,1.11-6.66.87-9.98-.1-5.63-1.63-9.12-5.43-10.22-11.05-1.45-7.38.66-13.87,5.97-19.27Z"/>
      <path class="cls-41" d="m89.55,138.16c-.78-.97-.71-1.99-.35-3.12.47-1.47,1.56-2.49,2.43-3.67,0,0,.12-.1.12-.1.21-.08.36-.22.48-.41,3.23-2.17,6.8-3.45,10.63-4.02,1.85-.28,3.62-.16,5.35.61,2.41,1.09,3.18,3.3,1.86,5.58-.94,1.62-2.3,2.85-3.94,3.71-2.15,1.12-4.32,2.23-6.77,2.63-.43.07-.84.21-1.26.35-3.13,1.02-5.98.51-8.55-1.56Z"/>
      <path class="cls-14" d="m187.02,154.9c3.49-2.2,7.09-1.88,10.62-.25,2.82,1.3,4.67,3.51,5.2,6.69-.56.63-1.43.57-2.09.95-1.03.59-1.77,1.37-1.98,2.57-.13.75.19,1.31.94,1.6.89.34,1.81.55,2.78.53.52-.01.56.25.18,1.09-1.67.5-3.17,1.42-4.84,1.94-7.14,2.23-13.57-3.56-12.09-10.89.29-1.45.73-2.86,1.27-4.23Z"/>
      <path class="cls-35" d="m187.02,154.9c.42.16.84.37.7.91-.32,1.26-.68,2.52-1.04,3.77-1.52,5.32,3.71,11.22,9.99,9.76,1.28-.3,2.45-.9,3.62-1.48.82-.4,1.65-.61,2.38.21-2.02,5.58-6.34,7.98-12.09,7.57-7.78-.56-12.03-10.76-7.88-16.87.78-1.16,1.64-2.24,2.7-3.14.47-.4.97-.73,1.62-.73Z"/>
      <path class="cls-28" d="m108.86,103.14c-.01-.13-.02-.26-.03-.4,2.16-1.7,4.32-3.4,6.49-5.08,1.56-1.21,3.12-2.43,4.73-3.58.71-.51,1.02-1.13,1.03-1.96.12.06.25.1.38.11.47,2.37.94,4.75,1.4,7.12.4,2.06.44,4.14.27,6.21-.27,3.42-2.16,4.57-5.34,3.29-1.69-.68-3.22-1.68-4.71-2.72-1.41-.99-2.82-2-4.22-3Z"/>
      <path class="cls-20" d="m97.07,165.89c.68.12,1.02.61,1.3,1.17,1.24,2.47,3.47,3.28,6.01,3.53,2.59.25,5.01-.28,7.3-1.54.62-.34,1.26-1.08,2.12-.44-.65,2.51-2.3,4.26-4.46,5.47-4.1,2.3-8.28,2.24-12.38-.03-2.68-1.49-3.97-3.94-4.64-6.9,1.71-.4,3.55.31,4.76-1.25Z"/>
      <path class="cls-36" d="m227.65,148.14c.23,1.92.46,3.83.69,5.75.21,2.57-.11,5.14-.14,7.7-.52.15-1.01.13-1.5-.15-2.4-1.4-4.76-2.85-6.86-4.68-.58-.51-1.08-1.13-1.5-1.77-.74-1.14-.63-2.3.13-3.41.76-1.11,1.83-1.82,3.02-2.39,1.65-.8,3.47-1.02,5.23-1.43.26-.06.62.25.93.39Z"/>
      <path class="cls-9" d="m98.63,154.4c.23.29.34.62.21.96-.87,2.27-1.35,4.65-1.88,7.01-.07.32-.32.59-.49.89-.69-.87-1.75-1.05-2.7-1.44-1.07-.45-1.18-.68-.64-1.74,1.26-2.44,2.98-4.45,5.5-5.69Z"/>
      <path class="cls-1" d="m105.42,194.22c-.07-.98-.4-1.82-1.15-2.52-1.33-1.24-2.61-2.53-3.86-3.86-.71-.75-1.56-1.04-2.54-1.11,1.74-.88,3.58-.68,5.43-.51,1.63.95,2.25,2.53,2.64,4.25.32.69.32,1.38,0,2.06-.02.35-.03.71-.05,1.06-.16.21-.31.41-.47.62Z"/>
      <path class="cls-40" d="m139.85,196.23c.61-.57,1.35-.89,2.11-1.17.15.14.2.28.14.41-.06.13-.12.19-.18.19-.47.28-.9.69-1.53.56-.18,0-.36.01-.54.02Z"/>
      <path class="cls-6" d="m105.93,192.54c-.15-.69-.14-1.38,0-2.06.6.69.61,1.38,0,2.06Z"/>
      <path class="cls-6" d="m92.23,130.86c-.05.26-.2.41-.48.41.16-.14.32-.28.48-.41Z"/>
      <polygon class="cls-23" points="200.2 99.08 200.24 99.23 200.1 99.25 200.06 99.12 200.2 99.08"/>
      <path class="cls-23" d="m118.97,229.12c.99-.13,1.88.29,2.8.54,6.04,1.66,12.14,3.12,18.33,4.04,6.13.91,12.29.98,18.47.3,3.38-.37,6.73-.82,10.06-1.47,6.32-1.24,12.03-3.98,17.6-7.09,1.82-1.01,3.42-2.39,5.4-3.11-.44,1.02-1.33,1.57-2.19,2.16-5.58,3.8-11.64,6.57-18.17,8.31-4.71,1.25-9.5,2.04-14.39,2.15-1.04.02-2.06.33-3.1.36-1.99.06-4,.22-5.98-.23-.42-.1-.86-.11-1.3-.12-6.73-.15-13.29-1.36-19.76-3.09-1.85-.49-3.68-1.03-5.51-1.57-.82-.24-1.71-.4-2.26-1.18Z"/>
      <path class="cls-16" d="m173.47,68.04c-1.42,2-3.39,3.19-5.69,3.95-1.11.37-2.23.34-3.36.28-.34-.02-.68-.13-1.01-.26-1.33-.5-2.59-1.87-2.38-2.82.28-1.28,1.3-2.1,2.45-2.5,2.08-.72,4.25-.89,6.44-.46.26.05.51.21.75.2,1.27-.06,2.03.74,2.76,1.6,0,0,.03,0,.03,0Z"/>
      <path class="cls-16" d="m153,56.57c.94,2.51.43,4.96-.36,7.37-.42,1.28-1.44,2.16-2.49,2.92-1.15.84-2.07.83-3.12.11-1.01-.69-1.54-1.99-1.24-3.18.17-.66.4-1.34.74-1.93.97-1.66,2.12-3.17,3.96-3.99.86-.39,1.53-1.17,2.53-1.29h-.01Z"/>
      <path class="cls-16" d="m159.24,87.08c-.04-.72.35-1.47,1.17-1.92.81-.44,1.7-.46,2.46.09.62.45,1.2,1,1.7,1.58,1.44,1.66,2.29,3.63,2.8,5.75.11.44-.38.87-.8.73-.97-.33-1.95-.66-2.91-1.02-1.41-.53-2.55-1.44-3.48-2.61-.54-.69-.91-1.46-.95-2.6Z"/>
      <path class="cls-12" d="m179.64,92.17c-.18.73-.83.98-1.39,1.3-.57.33-1.17.59-1.76.88-.19-.03-.39-.07-.58-.1-.28-.21-.26-.4.06-.55,1.19-.58,2.3-1.38,3.67-1.54Z"/>
      <path class="cls-37" d="m182.23,89.67c-.29,1.2-1.14,1.91-2.16,2.47-.13-.23-.1-.45.07-.65.69-.82,1.38-1.64,2.07-2.46.27.21.28.42.02.64Z"/>
      <path class="cls-21" d="m175.97,93.71c-.02.18-.04.36-.06.55-.25.01-.5.06-.74.03-.13-.02-.24-.18-.37-.27.14-.08.27-.21.42-.24.24-.05.5-.05.74-.07Z"/>
      <path class="cls-32" d="m182.23,89.67c0-.21-.01-.43-.02-.64.17-.17.34-.34.51-.51.21-.22.41-.22.61,0-.19.55-.62.87-1.1,1.14Z"/>
      <path class="cls-24" d="m183.34,88.53c-.2,0-.41,0-.61,0,.03-.27.11-.5.43-.54.18-.02.34,0,.5.09-.11.15-.21.3-.32.45Z"/>
      <path class="cls-33" d="m180.15,91.5c-.02.22-.05.43-.07.65,0,0-.24.07-.24.07h-.25c.02-.38.28-.55.55-.72Z"/>
      <path class="cls-38" d="m113.76,220.75c-.05-.13-.1-.27-.14-.4,1.1-.56,1.38-1.72,1.95-2.67.6-1,1.01-1.19,2.14-.86,1.74.49,3.47,1.07,5.22,1.54,1.75.46,3.52.84,5.29,1.23.5.11,1.03.14,1.54.15,1.24.01,1.35-.11,1.79-1.66.51.46.32,1.12.5,1.67-.02.53-.04,1.06-.06,1.59-.14.13-.25.28-.34.44-.77.43-1.61.55-2.49.6-4.53.28-8.99-.18-13.37-1.32-.67-.17-1.33-.37-2.04-.31Z"/>
      <path class="cls-6" d="m166.98,220.3c0,.32.02.65.03.97-.37-.27-.49-.64-.41-1.09.13.02.26.06.38.12Z"/>
      <path class="cls-6" d="m131.66,221.78c0-.23.12-.38.34-.44-.11.15-.23.3-.34.44Z"/>
      <path class="cls-23" d="m107.52,223.85c.44,0,.78.19,1.01.58-.45.01-.81-.15-1.01-.58Z"/>
      <path class="cls-39" d="m60.8,105.32c-.48-.38-.95-.75-1.43-1.13.06-.84.62-1.24,1.34-1.38,1.95-.38,3.91-.79,5.92-.6,5.55.5,10.56,2.56,15.36,5.27.98.55,1.4,1.48,1.9,2.37-.09.7-.48,1.22-1.01,1.64q-.22-.95-1.56-1.07c-2.91,0-5.55-.97-8.19-2.09-2.8-1.19-5.74-1.95-8.83-2.05-1.23-.04-2.37-.48-3.49-.97Z"/>
      <path class="cls-3" d="m215.11,110.51c1.28,0,2.33-.65,3.42-1.19,2.49-1.26,5.01-2.45,7.76-3.04,3.06-.65,6.15-1.1,9.29-1.03-3.64,2.81-7.82,4.36-12.28,5.21-2.04.39-4.1.65-6.19.49-.69-.05-1.39-.02-1.99-.44Z"/>
      <path class="cls-19" d="m60.8,105.32c5.58-.53,10.78.79,15.7,3.3,1.55.79,3.29.98,4.81,1.81-5.56.95-10.88.07-16.02-2.08-1.69-.71-3.3-1.57-4.48-3.03Z"/>
      <path class="cls-16" d="m161.47,164.31c.92.01,1.95-.01,2.92.52,2.2,1.2,4.1,5.07,3.66,7.56-.23,1.29-.89,2.23-2.17,2.68-.6.21-1.18.23-1.77.02-3.6-1.32-5.83-4.47-5.52-8.45.17-2.12.64-2.46,2.88-2.32Z"/>
      <path class="cls-16" d="m136.19,167.77c.03,2.67-1.86,6.11-5.47,7.18-1.55.46-2.77-.03-3.48-1.43-.33-.64-.5-1.32-.41-2.02.24-1.82.56-3.57,2.09-4.89,1.06-.92,2.06-1.87,3.38-2.4,1.69-.68,3.66.45,3.88,2.26.05.43,0,.87,0,1.31Z"/>
      <path class="cls-4" d="m150.91,194.6c-.98-.35-1.58-1.11-2.09-1.96.98.03,1.59.61,2.04,1.41.13.11.17.23.15.36-.03.13-.06.2-.1.2Z"/>
      <path class="cls-34" d="m152.47,195.69c-.51-.2-1.01-.41-1.12-1.05.48-.07.87.04,1.07.53.14.1.19.22.16.34-.03.12-.07.18-.11.18Z"/>
      <path class="cls-22" d="m150.91,194.6c-.02-.18-.03-.37-.05-.55.29.11.52.28.54.63h-.25s-.24-.07-.24-.07Z"/>
      <path class="cls-13" d="m152.47,195.69c-.02-.17-.03-.35-.05-.52.32.05.62.11.53.55-.16-.01-.32-.02-.49-.03Z"/>
      <path class="cls-29" d="m141.92,195.66c.01-.2.02-.4.04-.6.04-.08.06-.17.12-.22.2-.17.46-.23.66-.06.3.25,0,.46-.16.6-.18.15-.43.2-.66.29Z"/>
    </g>
    <g>
      <path class="cls-31" d="m245.28,95.38c-2.97-2.38-6.35-3.93-10.06-4.75-2.84-.63-5.7-.78-8.56-.19-7.2,1.47-12.72,5.43-16.79,11.48-.39.57-.73,1.18-1.2,1.94-6.77-7.4-14.73-13.11-23.39-17.96,1.27-8.49-2.26-14.46-9.46-18.56.23-.73.46-1.38.63-2.04,1.09-4.2-.44-8.08-4.17-10.34-1.03-.62-2.18-1.11-3.34-1.44-4.14-1.19-8.27-.89-12.35.38-.81.25-1.62.5-2.48.76-.34-.56-.6-1-.88-1.43-1.49-2.31-3.64-3.41-6.35-3.5-2.52-.09-4.82.65-6.94,1.95-4.14,2.54-7.11,6.09-8.96,10.59-.29.71-.55,1.44-.8,2.08-.29.09-.45.17-.62.19-4.12.44-6.73,2.79-7.4,6.82-.41,2.44-.26,4.86.77,7.17.24.54.48,1.08.79,1.78-1.57.59-3.04,1.08-4.46,1.67-11.29,4.74-21.35,11.32-30.01,20.01-.51.52-.87,1.31-1.8,1.37-.26-.41-.5-.76-.73-1.13-2.19-3.56-5.16-6.32-8.68-8.53-9.03-5.67-18.87-4.21-26.43,1.32-3.04,2.22-3.33,3.91-1.39,7.12,1.4,2.32,3.13,4.4,5.06,6.3,5.67,5.57,12.41,8.53,20.44,8.37.48,0,1.03-.22,1.57.41-.45.83-.92,1.73-1.42,2.61-8.7,15.54-11.78,32.12-8.65,49.66,2.42,13.54,9.27,24.24,21.29,31.38,6.46,3.84,13.21,7.02,20.31,9.45.72.25,1.44.45,2.27.9-.32.47-.53.83-.79,1.15-2.25,2.67-4.23,5.53-6.07,8.49-7.11,11.45-12.56,23.66-16.52,36.53-.31,1-.55,2.02-.77,3.03-.28,1.28.21,1.92,1.43,2.34,3.56,1.22,7.21,2.01,10.92,2.54,5.6.8,11.22,1.49,16.83,2.24,7,.94,14.03,1.6,21.08,1.8,11.93.34,23.87.51,35.8-.27,8.18-.53,16.32-1.32,24.39-2.72,3.69-.64,7.35-1.4,10.9-2.61.98-.34,1.94-.78,2.86-1.25.68-.35.98-1.01.83-1.76-.19-.94-.44-1.86-.72-2.78-2.81-9.45-6.5-18.55-11.09-27.28-3.57-6.79-7.38-13.43-12.46-19.26-.21-.25-.33-.58-.48-.86.21-.16.33-.31.49-.37.73-.29,1.46-.55,2.2-.82,7.13-2.64,13.9-5.98,20.24-10.19,6.01-3.99,10.62-9.22,13.95-15.61,3.23-6.19,4.98-12.81,5.6-19.72.79-8.83.1-17.57-2.17-26.17-1.75-6.6-4.35-12.84-7.8-18.74-.36-.62-1.12-1.16-.77-2.14.69,0,1.38,0,2.07,0,11.48-.07,19.56-5.85,25.41-15.25,1.56-2.5,1.11-4.29-1.22-6.16Zm-32.43,17.99c-.34.26-.52.49-.75.56-2.8.89-5.6,1.83-8.44,2.6-1.06.29-2.24.29-3.36.24-1.59-.06-2.56-.94-2.87-2.5-.15-.76-.22-1.55-.2-2.32.09-3.12,1.85-9.05,3.62-12.23,4.61,4.04,8.44,8.7,12,13.65Zm-19.4-19.58c.32.23.5.67.74,1.02h.04s-.02,0-.04,0c-.67.7-1.33,1.41-2,2.11,0,.01.01.02.02.03,0-.01-.01-.02-.02-.03-.62.6-1.25,1.19-1.85,1.81-2.84,2.95-5.82,5.72-9.32,7.87-1.18.72-2.43,1.32-3.69,1.9-.54.25-1.16.39-1.75.44-1.34.13-2.22-.37-2.64-1.61-.3-.89-.48-1.85-.52-2.79-.12-2.88.46-5.68,1.13-8.4,7.22-2.33,7.37-2.44,11.13-7.92,3.06,1.63,5.95,3.54,8.77,5.57Zm-40.62-35.65c.15,2.63-.49,4.99-2.29,6.96-.54.59-1.16,1.05-2,1.1-.65.04-1.24-.37-1.33-.99-.13-.89.06-1.72.5-2.51,1.08-1.96,2.58-3.48,4.54-4.56.13-.07.34,0,.59,0Zm-20.87,9.28c1.73,1.25,2.78,2.52,2.85,4.37.01.35-.24.9-.51,1.03-.3.13-.86-.02-1.14-.25-.38-.31-.67-.78-.9-1.23-.39-.77-.47-2.06-.29-3.92Zm-7.03,2.7c.53-1.42,1.44-2.61,2.9-3.21.52-.21,1.13-.19,1.59-.26.52.62.24,1.15.3,1.64.11,1.04.14,2.1.38,3.1.27,1.11.87,2.08,1.78,2.83.95.78,2.03,1.07,3.17.6,1.14-.47,1.76-1.44,1.75-2.67,0-.77-.13-1.56-.36-2.29-.43-1.36-1.31-2.45-2.37-3.38-.52-.46-1.09-.86-1.72-1.35.13-.58.19-1.18.4-1.73,1.48-3.94,3.93-7.14,7.36-9.59,1.51-1.07,3.17-1.82,4.99-2.18,3.27-.64,5.75.71,7.1,3.96-.59.43-1.21.88-1.84,1.32-1.58,1.12-2.98,2.42-4.02,4.06-.7,1.11-1.23,2.3-1.25,3.66-.04,2.99,2.52,4.57,5.21,3.19,1.12-.57,1.96-1.44,2.64-2.47,1.25-1.87,1.79-3.94,1.81-6.17,0-.7,0-1.39,0-2.23.41-.72,1.35-.82,2.15-1.07,3.36-1.07,6.79-1.51,10.3-.78,1.81.38,3.51,1.01,4.96,2.2,2.8,2.3,3.35,5.54,1.49,8.95-1.56-.29-3.17-.58-4.77-.89-1.75-.34-3.49-.21-5.18.24-1.07.28-2.17.73-3.06,1.37-1.95,1.41-1.86,3.6.14,4.98,1.57,1.08,3.38,1.38,5.24,1.22,2.85-.24,5.42-1.23,7.54-3.22.32-.3.64-.58,1.22-1.1,4.9,2.63,8.11,6.35,8.79,11.95.34,2.77-.2,5.39-1.56,7.81-1.75,3.13-4.58,4.67-8.03,5.18-.77.11-1.56.14-2.35.13-.86-.01-1.73-.11-2.72-.19-.39-.78-.5-1.64-.75-2.45-.79-2.56-2.14-4.76-4.36-6.34-1.09-.78-2.28-1.27-3.65-1.18-1.57.11-2.55,1.12-2.61,2.69-.05,1.28.43,2.38,1.15,3.4,1.45,2.05,3.43,3.43,5.67,4.48.78.36,1.59.68,2.47,1.05.21,2.15-.1,4.16-1.18,6.02-1.03,1.8-2.61,2.73-4.68,2.9-2.67.22-4.97-.61-6.99-2.33-1.47-1.26-2.61-2.8-3.6-4.45-1.02-1.72-2.03-3.45-3.02-5.19-3.56-6.28-9.03-10.01-15.91-11.78-2-.52-4.11-.64-6.41-.98-1.01-3.02-1.34-6.22-.14-9.46Zm47.26-1.87c-2.49,2.57-5.5,3.45-8.98,2.69-.86-.19-1.87-.49-1.96-1.45-.11-1.13.96-1.53,1.86-1.87,2.36-.91,4.78-.67,7.19-.3.65.1,1.28.36,1.85.53.04.24.09.37.06.4Zm-5.58,24.72c-2.58-.76-4.46-1.97-5.94-3.71-.59-.7-.99-1.6-1.31-2.48-.26-.71.38-1.42,1.14-1.33.58.07,1.24.18,1.7.51.9.65,1.79,1.38,2.48,2.23,1.04,1.27,1.69,2.76,1.93,4.78Zm-57.02-3.68c2.77-1.62,5.54-3.25,8.73-4.52,1.53,3.64,2.45,7.16,3.29,10.71.6,2.54,1.15,5.1,1.18,7.72,0,1.04.01,2.1-.16,3.12-.38,2.26-1.75,3.12-3.96,2.45-1.07-.32-2.1-.84-3.09-1.38-2.3-1.25-4.38-2.83-6.36-4.54-2.76-2.4-5.27-5.04-7.63-7.81,1.19-1.49,3.08-2.88,7.99-5.76Zm-15.83,11.84c.24-.23.53-.42,1.04-.82,1.46,3.47,2.61,6.73,3.13,10.16.18,1.18.16,2.44-.03,3.62-.3,1.83-1.38,2.61-3.26,2.73-1.67.1-3.29-.22-4.87-.68-2.16-.62-4.27-1.39-6.5-2.12.15-.43.18-.8.37-1.06,3.03-4.24,6.34-8.24,10.12-11.84Zm-35.84,6.97c-2.16-1.93-3.99-4.14-5.59-6.53-.39-.57-.69-1.21-1.01-1.82-.42-.8-.23-1.53.37-2.15.36-.37.75-.74,1.17-1.03,3.94-2.77,8.25-4.41,13.14-4.39,3.3.01,6.36.91,9.24,2.43,4.44,2.34,8.31,5.85,10.98,10.69-.72.87-1.48,1.8-2.34,2.84-.51-.41-.9-.72-1.29-1.02-4.48-3.41-9.54-5.38-15.13-5.84-2.6-.21-5.21,0-7.56,1.41.2.21.41.41.62.62,5.24-1.42,10.28-.77,15.2,1.41,2.39,1.06,4.59,2.42,6.69,3.96.25.18.35.56.52.84-.14.17-.29.35-.43.52,0,0-.09.08-.09.08-2.12.53-4.29.46-6.45.4-5.15-.15-9.82-1.78-14.04-4.69-.7-.48-1.46-.93-1.75-1.81.13-.24.24-.47.36-.7-.21-.21-.41-.41-.62-.62-1.13,1-1.32,1.48-.59,2.27.75.82,1.6,1.6,2.52,2.21,5.08,3.37,10.67,4.85,16.76,4.39.6-.05,1.21-.17,1.81-.17.38,0,.58.31.59.7.12-.17.24-.34.36-.51-.12.17-.24.34-.36.51-.79,1.04-1.57,2.07-2.42,3.19-7.76.13-14.76-1.91-20.65-7.18Zm24.55,84.93h0c.3.53.76.87,1.25,1.19-.48-.32-.94-.66-1.25-1.19Zm19.29,11.63c-.78-.38-1.55-.77-2.33-1.14-5.27-2.48-10.28-5.38-14.97-8.83-.06-.25-.12-.51-.21-.87,1.56-.88,3.12-1.82,4.72-2.65,3.01-1.56,6.07-3,9.36-3.86.92-.24,1.86-.44,2.81-.49,2.98-.17,4.19.9,4.35,3.82.05.95.02,1.92-.09,2.86-.43,3.65-1.63,7.09-2.87,10.52-.1.27-.5.43-.77.64.07.08.15.16.23.23-.08-.07-.15-.15-.23-.23Zm.47.43c.16.12.34.23.52.31-.18-.08-.35-.19-.52-.31Zm10.57,6.7c5.62,1.15,11.13,2.29,16.87,3.46.54,1.19,1.23,2.49,1.72,3.88.49,1.41-.1,2.36-1.57,2.74-1.62.42-3.27.43-4.93.29-4.36-.37-8.58-1.41-12.78-2.54-1.09-.29-2.17-.64-3.58-1.07,1.52-2.4,2.91-4.59,4.29-6.76Zm96.56,49.51c-3.58,1.79-14.72,4.15-18.45,3.92-.53-5.85-2.04-11.05-4.11-13.95.52,4.9,2.18,9.48,2.26,14.47-16.07,2.13-32.16,2.42-48.27,1.92-13.46-.42-28.63-2.09-31.76-3.1.18-3,.7-5.98,1.35-8.94.13-.59.19-1.2.28-1.8h0c.64-1.24.73-2.59,1.03-4.32-.99.97-1.27,1.84-1.46,2.76-.12.13-.16.28-.12.46-.14.36-.28.71-.42,1.07-1.33,3.43-2.19,6.96-2.31,10.64-4.83,0-15.3-2.04-17.78-3.45,1.35-8,8.93-26.95,15.74-37.16.35.13.76.21,1.1.41,9.01,5.38,18.82,8.51,29.1,10.29,6.28,1.09,12.6,1.69,18.98,1.44,10.13-.39,19.8-2.64,28.89-7.23,2.8-1.42,5.46-3.07,8.03-4.87.49-.34.99-.67,1.49-1,5.57,7.21,15.93,31.48,16.44,38.44Zm-17.43-40.27c-.64.92-1.56,1.43-2.41,2.01-6.45,4.45-13.54,7.48-21.15,9.27-8.91,2.1-17.92,2.31-26.99,1.24-9.14-1.07-17.96-3.26-26.4-6.92-2.94-1.28-5.81-2.72-8.58-4.52.44-1.04.94-1.92,1.74-2.74,3.21,1.44,6.48,2.6,9.89,3.28,2.39.48,4.79.86,7.21,1.17,1.64.21,3.31.1,4.93-.33,2.54-.67,3.56-2.36,2.89-4.93-.26-.99-.7-1.94-1.1-3.01,5.94.18,11.75.54,17.55.48,5.82-.06,11.64-.53,17.62-.83-.1.35-.19.72-.33,1.07-.33.89-.78,1.76-1.02,2.67-.51,2.01.37,3.72,2.36,4.32,1.31.4,2.74.56,4.11.58,2.88.03,5.72-.51,8.52-1.15,3.06-.7,6.05-1.61,8.93-2.86.39-.17.79-.29,1.24-.45.35.59.66,1.1.99,1.65Zm-1.59-2.58c-1.75.79-3.44,1.12-5.08,1.57-3.69,1.02-7.42,1.86-11.25,2.11-1.38.09-2.79.06-4.15-.14-2.35-.35-2.93-1.42-2.04-3.66.48-1.2,1.12-2.35,1.77-3.69,5.45-.97,10.72-2.03,15.98-3.79,1.6,2.54,3.15,5.01,4.78,7.6Zm2.8-13.24c.17,0,.34,0,.5-.04-.16.04-.33.05-.5.04Zm2.22-.66s.04-.01.05-.02c-.02,0-.04.01-.05.02Zm15.71-9.33c-4.79,3.44-9.98,6.18-15.23,8.83h0c-.47.2-.95.41-1.42.61l-.12.04c-.41,0-.83,0-1.28,0-1.51-3.79-2.71-7.59-3.22-11.57-.16-1.26-.07-2.62.19-3.87.34-1.65,1.28-2.38,2.95-2.42,1.2-.03,2.45.06,3.6.37,1.75.47,3.48,1.1,5.15,1.8,3.44,1.44,6.73,3.17,9.9,5.24-.21.38-.37.68-.53.98.25-.04.47-.11.67-.22-.19.11-.41.19-.67.22Zm.94-.41c.09-.07.17-.14.24-.22-.08.08-.16.15-.24.22Zm8.4-10.19h0c-.31-.12-.7-.17-.93-.38-2.08-1.97-4.09-4.02-5.7-6.41-.58-.85-1.05-1.81-1.39-2.78-.55-1.56-.18-2.75,1.24-3.59,1.03-.6,2.2-1.01,3.36-1.31,2.72-.68,5.5-.62,8.28-.54.13,0,.27.17.42.28.05.24.11.49.16.74-1.16,4.91-2.98,9.57-5.44,13.98Zm6.8-24.03h0c-.33,0-.76.12-.99-.04-1.94-1.3-3.88-2.62-5.76-4.01-.61-.45-1.11-1.1-1.55-1.74-.81-1.19-.72-2.26.26-3.3.41-.44.89-.83,1.41-1.13,1.88-1.09,3.9-1.83,6.08-2.11.49,4.09.59,8.2.54,12.32Zm-.71-13.38c-.85.13-1.71.26-2.56.4-1.73.29-3.34.91-4.76,1.93-2.79,1.99-3.11,4.55-.77,7.02.94.99,2.06,1.87,3.23,2.57,1.77,1.07,3.65,1.94,5.49,2.89.03-.47.05-.94.08-1.41-.03.47-.05.94-.08,1.41-.3,2.18-.61,4.36-.91,6.54-1.21-.09-2.42-.13-3.62-.27-2.55-.29-5.05-.01-7.47.75-4.55,1.43-5.71,4.57-3.19,8.65.81,1.32,1.83,2.55,2.91,3.66,1.45,1.49,3.06,2.82,4.61,4.23-.03.23-.06.48-.09.74.34-.18.55-.44.7-.74-.15.3-.36.56-.7.74-1.9,2.58-3.98,5-6.27,7.24-.8.27-1.29-.27-1.83-.7-3.78-3.01-8.04-5.15-12.54-6.78-1.53-.56-3.18-.94-4.8-1.08-3.41-.31-5.7,1.7-5.88,5.13-.08,1.46.03,2.96.29,4.4.68,3.79,2.07,7.34,4.04,10.66.17,0,.35.01.52.02-.17-.01-.35-.03-.52-.02-.68.35-1.34.77-2.04,1.04-8.56,3.33-17.41,5.48-26.55,6.32-7.63.7-15.26,1.08-22.94.58-4.17-.27-8.33-.47-12.47-1.06-7-.99-13.81-2.68-20.46-5.07-.81-.29-1.64-.54-2.47-.8-.36-.15-.71-.3-1.07-.45-.11-.11-.24-.15-.39-.12-.22-.25-.45-.51-.73-.82.22-.46.44-.92.66-1.38,1.68-3.45,2.94-7.02,3.37-10.86.16-1.41.09-2.79-.33-4.12-.53-1.68-1.62-2.88-3.41-3.22-.92-.18-1.89-.24-2.83-.16-1.91.15-3.73.76-5.5,1.49-3.85,1.61-7.57,3.46-10.87,6.05-.57.45-1.11.83-1.86.43l-.53-.5h.01c-.18-.17-.36-.34-.54-.52h.01c-.18-.17-.36-.35-.53-.52h.01c-.17-.17-.34-.34-.5-.52,0,0,0,0,0,0h0c-.23-.27-.45-.54-.68-.81l-.09-.11c-.13-.15-.27-.31-.4-.46-.82-1.18-1.67-2.35-2.46-3.55-.27-.4-.59-.86-.16-1.37,1.86-1.23,3.51-2.67,4.78-4.52-.35-.17-.7-.33-1.05-.5-1.44,1.53-2.88,3.05-4.31,4.58-.26-.21-.61-.38-.77-.65-2.31-4.1-3.93-8.46-4.87-13.07-.05-.23.04-.49.07-.88,3.13-.11,6.23-.09,9.23.89.73.24,1.44.59,2.09,1.01,1.13.73,1.63,1.85,1.21,3.14-.37,1.13-.94,2.21-1.49,3.27-.31.61-.77,1.14-1.16,1.71.35.17.7.33,1.05.5,1.27-1.1,2.11-2.5,2.72-4.04,1.1-2.77.34-4.96-2.3-6.32-2.77-1.43-5.79-1.65-8.85-1.44-.94.06-1.86.28-2.89.21-.5-2.46-1.01-4.81-.7-7.25,2.33-.75,4.36-2.04,6.25-3.55.79-.64,1.51-1.43,2.08-2.27,1.06-1.57.88-3.33-.34-4.77-.79-.94-1.81-1.56-2.91-2.1-1.5-.74-3.12-.95-4.72-1.26-.12.48-.23.97-.35,1.45,2.68-.18,4.78,1.07,6.72,2.74.06.06.11.13.17.2.74.91.89,1.94.23,2.87-.64.91-1.4,1.79-2.27,2.45-1.58,1.2-3.28,2.23-4.94,3.33-.58-2.12-.27-4.28-.21-6.42.05-1.72.2-3.44.3-5.17.12-.48.23-.97.35-1.45.77-6.98,2.74-13.63,5.55-20.04,1.65-3.75,3.65-7.32,5.9-10.74.37-.57.8-1.11,1.27-1.74.85.42,1.61.79,2.37,1.16,2.68,1.28,5.45,2.29,8.44,2.58.43.04.87.12,1.3.12,2.99-.03,4.64-1.44,5.3-4.37.46-2.04.02-3.99-.45-5.93-.73-3.06-1.95-5.94-3.72-8.7,1.34-1.76,3.14-2.92,4.97-4.33.41.56.77,1.03,1.11,1.51,3.06,4.3,6.74,7.98,11.16,10.88,1.23.81,2.54,1.51,3.88,2.14.77.36,1.65.6,2.5.69,2.55.28,4.22-.83,4.82-3.33.3-1.25.45-2.6.36-3.88-.45-6.39-1.9-12.54-4.8-18.3-.08-.15-.11-.33-.22-.67.38-.23.77-.54,1.22-.72,1.7-.67,3.42-1.28,5.12-1.94,1.01-.4,2.03-.44,3.08-.23,7.23,1.5,13.15,4.92,16.96,11.47,1,1.73,1.89,3.53,2.97,5.21,1.03,1.6,2.14,3.18,3.4,4.61,1.66,1.88,3.85,2.94,6.33,3.38,4.65.82,8.52-1.59,9.74-6.17.33-1.25.44-2.55.69-4.01.45-.02.94-.08,1.42-.06.42.02.84.12,1.33.19-.24,1.45-.55,2.81-.67,4.19-.16,1.73-.34,3.48-.22,5.2.32,4.43,3.06,6.1,7.23,4.53.65-.24,1.29-.54,1.89-.87,5.09-2.84,9.36-6.61,12.75-11.37h0c.42-.53.83-1.07,1.26-1.59.38-.45.78-.88,1.17-1.31,0,0,0,0,0,0,1.58,1.32,3.17,2.65,4.86,4.06-.38.64-.66,1.16-.97,1.66-1.77,2.84-2.85,5.95-3.49,9.21-.25,1.26-.29,2.6-.19,3.89.24,3.22,2.3,5.07,5.53,4.94,1.29-.05,2.58-.33,3.85-.6,3.09-.67,5.88-2.07,8.75-3.69,7.04,9.92,11.41,20.83,13,32.86Zm18.59-47.4c-.19.39-.36.79-.59,1.16-4.36,6.77-10.15,11.62-18.15,13.45-2.89.66-5.81,1.04-8.94.78-.84-1.34-1.71-2.72-2.58-4.11-.38-.36-.76-.73-1.14-1.09-.09-.24-.19-.47-.32-.82,4.67-3.56,9.7-6.19,15.7-6.6,2.26-.15,4.48.07,6.68.64.19.28.38.55.55.81-4.22,5.02-14.47,7.79-22.6,5.97.38.36.76.73,1.14,1.09.17.02.34.03.51.06,6.86,1.33,13.18-.13,19.02-3.81,1.07-.67,2.27-1.27,2.79-2.57-.08-.14-.17-.28-.25-.43.08.14.17.28.25.43.61-.8.4-1.57-.36-2-.89-.5-1.89-.85-2.89-1.1-3.02-.76-6.04-.49-9.03.25-4.53,1.12-8.65,3.08-12.32,6.27-.99-.73-1.59-1.79-2.49-2.77.71-1.27,1.56-2.45,2.47-3.59,3.51-4.41,7.9-7.54,13.37-9.06,3.35-.93,6.72-.8,10.05.1,2.62.71,5.06,1.84,7.27,3.43.49.35.97.73,1.41,1.15.7.66.92,1.45.47,2.36Zm-9.03,3.46c.2.06.35.17.47.34-.12-.17-.27-.28-.47-.34Z"/>
      <path class="cls-31" d="m167.09,161.72c-12.09-8.39-27.48-8.45-39.42.03-7.94,5.64-10.87,13.59-9.17,23.12,1.45,8.15,8.51,13.75,16.78,13.52,1.71-.05,3.41-.46,5.13-.71,4.06,4.56,10.4,3.6,13.48-.3,1.47.35,2.72.79,4,.94,8.24,1.01,15.93-4.16,18.07-12.17,2.22-8.3-.25-18.45-8.87-24.43Zm6.2,26.12c-3.58,8.11-14.08,11.06-21.19,6.41-.8-.52-1.58-1.07-2.37-1.6h0c-.79-.75-1.31-1.78-2.44-2.46-.38.49-.72.94-1.06,1.39.22.02.45.04.67.06.3.11.65.16.88.36.38.34.67.77,1,1.16.57.64,1.11,1.31,1.73,1.9.61.58,1.31,1.06,2.07,1.66-1.37,1.7-3.13,2.29-5.06,2.44-2.25.18-4.24-.52-6.08-2.02,2.13-1.63,4.51-2.87,5.47-5.49-.22-.02-.45-.04-.67-.06-.96.74-1.92,1.49-2.89,2.21-7.62,5.68-20.15,2.08-22.7-8.36-2.1-8.58.51-15.81,7.2-21.5,3.22-2.75,7.04-4.46,11.14-5.48,8.74-2.17,17.09-1.19,24.91,3.37,6.36,3.71,9.97,9.28,10.86,16.6.39,3.27-.13,6.43-1.46,9.43Z"/>
      <path class="cls-31" d="m102.14,149.26c-7.65-.05-15.4,5.76-15.45,15.44-.05,9.53,7.83,15.55,15.42,15.45,8.56,0,15.44-6.88,15.47-15.42.03-7.98-6.29-15.41-15.44-15.47Zm-6.28,18.27c2.6-1.14,2.89-3.9.6-5.58-.48-.35-1.07-.56-1.63-.79-.46-.19-.95-.33-1.43-.49,1.78-5.08,6.99-7.9,12.41-6.69,5.62,1.26,8.76,6.4,8.44,11.34-.33,5.18-4.54,9.59-9.64,10.05-5.38.48-10.17-2.56-11.24-7.14.83-.23,1.7-.37,2.49-.72Zm-5.24-2.08c-.73-.75-.63-1.86.23-2.47,1.44-1.02,3.7-.85,5.04.4.89.83.83,2-.24,2.59-.65.36-1.44.48-1.67.55-1.62.03-2.58-.29-3.35-1.07Zm21.45-9.57c-.99-.95-2.16-1.79-3.38-2.4-1.15-.57-2.45-.96-3.72-1.12-4.74-.6-10.62,1.27-13.47,8.51-.56.35-1.19.66-1.72,1.1-1.47,1.22-1.58,2.92-.35,4.36.22.26.48.54.78.68.95.44,1.32,1.23,1.7,2.16,1.51,3.67,4.21,6.09,8.03,7.28,5.35,1.66,12.1-.77,14.86-7.1.38-.86.58-1.8.9-2.81-.13,6.53-6.42,12.07-13.6,12.1-7.74.04-13.6-6.31-13.92-13.18-.4-8.55,6.5-14.5,13.16-14.71,7.48-.24,13.93,5.04,14.35,11.69-.4-1.08-.72-2.34-1.32-3.45-.61-1.13-1.38-2.24-2.3-3.12Z"/>
      <path class="cls-31" d="m193.56,149.26c-8.85,0-15.45,7.08-15.5,15.42-.05,8.51,6.9,15.45,15.43,15.47,8.55.02,15.5-6.88,15.48-15.4-.02-8.83-7.04-15.48-15.41-15.48Zm.85,29.39c-7.33.4-13.07-4.64-14.36-10.47-.11-.5-.26-1.02-.27-1.53-.03-1.39.01-2.78.02-4.17,0-.37.81-3.56,1.63-4.73,1.77-3.06,4.33-5.24,7.69-6.31,7.83-2.49,16.02,1.75,17.92,9.85,2.39,10.14-5.23,16.96-12.63,17.36Z"/>
      <path class="cls-31" d="m90.64,140.32c1.42.58,3,.76,4.15,1.04,1.53-.2,2.66-.28,3.77-.49,3.55-.67,6.8-2.07,9.61-4.36,1.22-.99,2.28-2.14,2.94-3.6,1.21-2.67.35-4.99-2.34-6.24-1.44-.67-2.99-.97-4.56-.9-5.01.22-9.51,1.84-13.36,5.1-1.07.91-1.98,1.96-2.56,3.25-1.21,2.65-.35,5.1,2.35,6.21Zm-.81-5.91c.67-1.09,1.56-2.11,2.56-2.92,3.42-2.78,7.44-4.02,12.22-4.31.81.16,2.04.27,3.17.67,2.43.86,3.06,2.75,1.68,4.98-.5.8-1.12,1.57-1.84,2.18-3.73,3.14-8.07,4.74-12.95,4.71-1.02,0-2.09-.23-3.06-.57-2.33-.81-3.05-2.66-1.78-4.74Z"/>
      <path class="cls-31" d="m185.58,134.52c.76.93,1.65,1.8,2.61,2.52,3.58,2.68,7.68,4,12.11,4.2,1.82.08,3.65-.22,5.27-1.17,2.15-1.26,2.82-3.23,1.93-5.56-.54-1.42-1.47-2.56-2.59-3.53-3.9-3.36-8.49-4.96-13.55-5.24-1.86.13-3.68.32-5.27,1.35-1.8,1.16-2.5,2.9-1.84,4.94.29.89.73,1.78,1.32,2.5Zm1.58-6.36c1.33-.73,2.78-.96,4.3-.9,4.46.21,8.54,1.52,12.01,4.4.92.76,1.73,1.74,2.34,2.76,1.25,2.09.53,3.93-1.79,4.75-.89.31-1.86.54-2.8.55-5.07.07-9.58-1.54-13.38-4.92-.82-.73-1.49-1.71-1.99-2.7-.85-1.68-.33-3.05,1.31-3.95Z"/>
      <path class="cls-31" d="m123.68,252.39c-.06-.02-.17.03-.23.08-.12.11-.26.23-.33.37-1.18,2.66-1.53,5.42-1.11,8.29,0,.04.15.07.42.18.89-2.69,1.67-5.38,1.79-8.22,0-.16-.03-.36-.13-.49-.08-.12-.27-.17-.42-.22Z"/>
      <path class="cls-31" d="m115.95,250.08c-1.33,2.35-1.15,4.93-1.17,7.48.17.03.34.06.51.09.51-2.33,1.02-4.66,1.51-6.99.07-.32.04-.65.07-1.28-.46.34-.79.46-.92.7Z"/>
      <path class="cls-31" d="m118.84,263.73c.86-3.74.86-4.22.04-5.3-1.02,2.09-1.03,3.07-.04,5.3Z"/>
      <path class="cls-31" d="m192.66,152.35c-4.8-.11-8.56,1.87-10.94,6.16-.46,1.06-.93,2.13-1.39,3.19-.5,1.98-.51,3.99-.01,5.93,1.32,5.14,5.89,8.92,11.05,9.27,5.32.36,10.18-2.56,12.26-7.54.46-1.1,1.06-1.88,2.03-2.54,1.09-.73,1.52-1.87,1.25-3.2-.21-1.02-.91-1.7-1.8-2.1-.78-.36-1.24-.88-1.48-1.68-.1-.33-.28-.64-.45-.94-2.28-4.15-5.8-6.43-10.53-6.54Zm6.19,21c-2.18,1.64-4.64,2.3-7.36,2.12-5.4-.35-9.78-4.69-10.13-10.17-.3-4.61,2.44-9.8,8.23-11.29,5.42-1.4,10.69,1.37,12.8,6.72-.72.21-1.24.3-1.7.51-.63.29-1.28.58-1.8,1.02-1.74,1.5-1.53,3.92.49,5.01.9.48,1.96.65,2.95.97-.45,2.04-1.53,3.63-3.49,5.1Zm6.26-10.17c.63.58.69,1.45.15,2.1-.78.93-1.8,1.32-2.99,1.32-.97,0-1.91-.12-2.66-.83-.62-.59-.68-1.43-.13-2.11,1.29-1.6,4.15-1.84,5.63-.48Z"/>
      <path class="cls-31" d="m135.42,163.79c-1.64-1.08-3.36-.72-4.92.26-2.58,1.61-4.08,4.01-4.53,7-.12.82.05,1.74.32,2.55.5,1.52,1.8,2.32,3.42,2.31,1.28,0,2.39-.5,3.38-1.23,2.13-1.55,3.48-3.62,3.92-6.24.31-1.83.07-3.55-1.59-4.64Zm-4.1,10.31c-.44.23-1,.3-1.51.34-1.3.1-2.15-.49-2.51-1.75-.14-.49-.26-1.03-.2-1.53.4-2.96,1.9-5.17,4.67-6.38,2.41-1.06,4.13.15,4.03,3.24-.28,2.57-1.85,4.7-4.49,6.07Z"/>
      <path class="cls-31" d="m163.23,163.53c-3.01-1.17-5.51.49-5.58,3.7-.08,3.4,2.51,7.1,5.69,8.34,2.72,1.06,5.62-.56,5.45-3.85,0-3.28-2.54-7.03-5.56-8.2Zm4.29,9.04c-.28,1.21-1.22,1.98-2.44,1.86-.75-.07-1.55-.29-2.2-.66-2.15-1.23-3.42-3.13-3.94-5.54-.09-.42-.1-.87-.06-1.29.18-1.91,1.66-2.97,3.48-2.42,3.28.99,5.29,4.42,5.28,7.06-.01.13-.01.57-.11.99Z"/>
    </g>
  </g>
</svg>